<svg width="24" height="28" viewBox="0 0 24 28" fill="none" xmlns="http://www.w3.org/2000/svg">
<path fill-rule="evenodd" clip-rule="evenodd" d="M0 20.9991V7.00089L12 0L19.944 4.63443V18.635L12 23.2694L8.10963 20.9991V17.4352L11.751 19.5595L12 19.7055L16.89 16.8525V6.70894L16.8888 6.41699L16.6398 6.27101L12 3.56512L11.751 3.7111L3.05403 8.78227V22.7817L0 20.9991Z" fill="#11003A"/>
<path fill-rule="evenodd" clip-rule="evenodd" d="M4.05482 9.36617V23.3644L12.0012 28L24 21.0003V7.00089L20.9448 5.21833V19.2177L12 24.4361L11.751 24.2901L7.35905 21.7302L7.11002 21.5842V11.1487L12.0012 8.29568L15.8892 10.5636V6.9997L12 4.73056L4.05482 9.36617Z" fill="#11003A"/>
<path fill-rule="evenodd" clip-rule="evenodd" d="M4.05482 23.3644V9.36617L12 4.73056L15.8892 6.9997V10.5636L12.0012 8.29568L7.11002 11.1487V21.5842L7.35905 21.7302L11.751 24.2901L12 24.4361L20.9448 19.2177V5.21833L24 7.00089V21.0003L12.0012 28L4.05482 23.3644Z" fill="#11003A"/>
</svg>
