<svg width="717" height="93" viewBox="0 0 717 93" fill="none" xmlns="http://www.w3.org/2000/svg">
<g opacity="0.98" filter="url(#filter0_d_60_1241)">
<path d="M0 8C0 3.58172 3.58172 0 8 0H704C708.418 0 712 3.58172 712 8V80C712 84.4183 708.418 88 704 88H8C3.58172 88 0 84.4183 0 80V8Z" fill="white" shape-rendering="crispEdges"/>
<path d="M8 0.5H704C708.142 0.5 711.5 3.85786 711.5 8V80C711.5 84.1421 708.142 87.5 704 87.5H8C3.85786 87.5 0.5 84.1421 0.5 80V8C0.5 3.85786 3.85786 0.5 8 0.5Z" stroke="#0A0A0A" shape-rendering="crispEdges"/>
<path d="M283.031 38V26.8H289.991V28.496H284.887V31.632H289.255V33.328H284.887V38H283.031ZM296.263 38L296.183 36.496V33.888C296.183 33.344 296.124 32.8907 296.007 32.528C295.9 32.1547 295.719 31.872 295.463 31.68C295.217 31.4773 294.887 31.376 294.471 31.376C294.087 31.376 293.751 31.456 293.463 31.616C293.175 31.776 292.929 32.0267 292.727 32.368L291.159 31.792C291.329 31.44 291.553 31.1147 291.831 30.816C292.119 30.5067 292.476 30.2613 292.903 30.08C293.34 29.8987 293.863 29.808 294.471 29.808C295.249 29.808 295.9 29.9627 296.423 30.272C296.945 30.5707 297.329 31.0027 297.575 31.568C297.831 32.1333 297.959 32.816 297.959 33.616L297.911 38H296.263ZM293.959 38.192C292.999 38.192 292.252 37.9787 291.719 37.552C291.196 37.1253 290.935 36.5227 290.935 35.744C290.935 34.912 291.212 34.2773 291.767 33.84C292.332 33.4027 293.116 33.184 294.119 33.184H296.263V34.56H294.695C293.98 34.56 293.479 34.6613 293.191 34.864C292.903 35.056 292.759 35.3333 292.759 35.696C292.759 36.0053 292.881 36.2507 293.127 36.432C293.383 36.6027 293.735 36.688 294.183 36.688C294.588 36.688 294.94 36.5973 295.239 36.416C295.537 36.2347 295.767 35.9947 295.927 35.696C296.097 35.3973 296.183 35.0613 296.183 34.688H296.711C296.711 35.776 296.492 36.6347 296.055 37.264C295.617 37.8827 294.919 38.192 293.959 38.192ZM299.773 38V26.8H301.565V38H299.773ZM303.555 38V26.8H305.347V38H303.555ZM307.336 38V26.8H309.128V36.512L309.032 38H307.336ZM311.656 38.192C310.984 38.192 310.402 38.0213 309.912 37.68C309.432 37.328 309.064 36.8373 308.808 36.208C308.552 35.5787 308.424 34.8427 308.424 34C308.424 33.1467 308.552 32.4107 308.808 31.792C309.064 31.1627 309.432 30.6773 309.912 30.336C310.402 29.984 310.984 29.808 311.656 29.808C312.381 29.808 313.01 29.984 313.544 30.336C314.088 30.6773 314.509 31.1627 314.808 31.792C315.117 32.4107 315.272 33.1467 315.272 34C315.272 34.8427 315.117 35.5787 314.808 36.208C314.509 36.8373 314.088 37.328 313.544 37.68C313.01 38.0213 312.381 38.192 311.656 38.192ZM311.208 36.56C311.634 36.56 312.013 36.4533 312.344 36.24C312.674 36.016 312.936 35.712 313.128 35.328C313.33 34.944 313.432 34.5013 313.432 34C313.432 33.4987 313.336 33.056 313.144 32.672C312.962 32.288 312.706 31.9893 312.376 31.776C312.045 31.5627 311.661 31.456 311.224 31.456C310.818 31.456 310.456 31.5627 310.136 31.776C309.816 31.9893 309.565 32.288 309.384 32.672C309.213 33.056 309.128 33.4987 309.128 34C309.128 34.5013 309.213 34.944 309.384 35.328C309.565 35.712 309.81 36.016 310.12 36.24C310.44 36.4533 310.802 36.56 311.208 36.56ZM321.685 38L321.605 36.496V33.888C321.605 33.344 321.546 32.8907 321.429 32.528C321.322 32.1547 321.141 31.872 320.885 31.68C320.639 31.4773 320.309 31.376 319.893 31.376C319.509 31.376 319.173 31.456 318.885 31.616C318.597 31.776 318.351 32.0267 318.149 32.368L316.581 31.792C316.751 31.44 316.975 31.1147 317.253 30.816C317.541 30.5067 317.898 30.2613 318.325 30.08C318.762 29.8987 319.285 29.808 319.893 29.808C320.671 29.808 321.322 29.9627 321.845 30.272C322.367 30.5707 322.751 31.0027 322.997 31.568C323.253 32.1333 323.381 32.816 323.381 33.616L323.333 38H321.685ZM319.381 38.192C318.421 38.192 317.674 37.9787 317.141 37.552C316.618 37.1253 316.357 36.5227 316.357 35.744C316.357 34.912 316.634 34.2773 317.189 33.84C317.754 33.4027 318.538 33.184 319.541 33.184H321.685V34.56H320.117C319.402 34.56 318.901 34.6613 318.613 34.864C318.325 35.056 318.181 35.3333 318.181 35.696C318.181 36.0053 318.303 36.2507 318.549 36.432C318.805 36.6027 319.157 36.688 319.605 36.688C320.01 36.688 320.362 36.5973 320.661 36.416C320.959 36.2347 321.189 35.9947 321.349 35.696C321.519 35.3973 321.605 35.0613 321.605 34.688H322.133C322.133 35.776 321.914 36.6347 321.477 37.264C321.039 37.8827 320.341 38.192 319.381 38.192ZM328.939 38.192C328.118 38.192 327.392 38.016 326.763 37.664C326.134 37.3013 325.638 36.8053 325.275 36.176C324.923 35.5467 324.747 34.8213 324.747 34C324.747 33.1787 324.923 32.4533 325.275 31.824C325.638 31.1947 326.128 30.704 326.747 30.352C327.376 29.9893 328.096 29.808 328.907 29.808C329.696 29.808 330.411 30 331.051 30.384C331.691 30.7573 332.166 31.296 332.475 32L330.811 32.64C330.64 32.288 330.379 32.0053 330.027 31.792C329.675 31.5787 329.275 31.472 328.827 31.472C328.39 31.472 328 31.584 327.659 31.808C327.318 32.0213 327.051 32.32 326.859 32.704C326.667 33.0773 326.571 33.5093 326.571 34C326.571 34.4907 326.667 34.928 326.859 35.312C327.062 35.6853 327.334 35.984 327.675 36.208C328.027 36.4213 328.422 36.528 328.859 36.528C329.307 36.528 329.707 36.416 330.059 36.192C330.411 35.9573 330.672 35.6427 330.843 35.248L332.507 35.888C332.198 36.6133 331.723 37.1787 331.083 37.584C330.454 37.9893 329.739 38.192 328.939 38.192ZM335.61 35.76L334.522 34.528L338.682 30H340.842L335.61 35.76ZM333.898 38V26.8H335.69V38H333.898ZM338.986 38L336.17 33.856L337.338 32.608L341.114 38H338.986ZM345.271 39.344L349.687 26.048H351.431L347.047 39.344H345.271ZM356.859 38V26.8H363.755V28.496H358.715V31.472H363.163V33.136H358.715V36.304H363.803V38H356.859ZM368.873 38.192C368.339 38.192 367.849 38.112 367.401 37.952C366.953 37.792 366.569 37.568 366.249 37.28C365.929 36.9813 365.683 36.6347 365.513 36.24L367.065 35.552C367.225 35.8507 367.459 36.1013 367.769 36.304C368.089 36.5067 368.441 36.608 368.825 36.608C369.241 36.608 369.571 36.5387 369.817 36.4C370.073 36.2507 370.201 36.048 370.201 35.792C370.201 35.5467 370.105 35.36 369.913 35.232C369.721 35.0933 369.449 34.9813 369.097 34.896L368.345 34.688C367.587 34.496 366.995 34.192 366.569 33.776C366.142 33.3493 365.929 32.864 365.929 32.32C365.929 31.52 366.185 30.9013 366.697 30.464C367.219 30.0267 367.966 29.808 368.937 29.808C369.427 29.808 369.875 29.8827 370.281 30.032C370.697 30.1707 371.054 30.3733 371.353 30.64C371.651 30.896 371.859 31.2 371.977 31.552L370.489 32.224C370.382 31.9573 370.179 31.7547 369.881 31.616C369.582 31.4667 369.251 31.392 368.889 31.392C368.526 31.392 368.243 31.472 368.041 31.632C367.838 31.7813 367.737 31.9947 367.737 32.272C367.737 32.432 367.827 32.5813 368.009 32.72C368.19 32.848 368.451 32.9547 368.793 33.04L369.737 33.264C370.259 33.392 370.686 33.5947 371.017 33.872C371.347 34.1387 371.593 34.4427 371.753 34.784C371.913 35.1147 371.993 35.4507 371.993 35.792C371.993 36.272 371.854 36.6933 371.577 37.056C371.31 37.4187 370.942 37.7013 370.473 37.904C370.003 38.096 369.47 38.192 368.873 38.192ZM377.158 38.192C376.337 38.192 375.611 38.016 374.982 37.664C374.353 37.3013 373.857 36.8053 373.494 36.176C373.142 35.5467 372.966 34.8213 372.966 34C372.966 33.1787 373.142 32.4533 373.494 31.824C373.857 31.1947 374.347 30.704 374.966 30.352C375.595 29.9893 376.315 29.808 377.126 29.808C377.915 29.808 378.63 30 379.27 30.384C379.91 30.7573 380.385 31.296 380.694 32L379.03 32.64C378.859 32.288 378.598 32.0053 378.246 31.792C377.894 31.5787 377.494 31.472 377.046 31.472C376.609 31.472 376.219 31.584 375.878 31.808C375.537 32.0213 375.27 32.32 375.078 32.704C374.886 33.0773 374.79 33.5093 374.79 34C374.79 34.4907 374.886 34.928 375.078 35.312C375.281 35.6853 375.553 35.984 375.894 36.208C376.246 36.4213 376.641 36.528 377.078 36.528C377.526 36.528 377.926 36.416 378.278 36.192C378.63 35.9573 378.891 35.6427 379.062 35.248L380.726 35.888C380.417 36.6133 379.942 37.1787 379.302 37.584C378.673 37.9893 377.958 38.192 377.158 38.192ZM386.997 38L386.917 36.496V33.888C386.917 33.344 386.858 32.8907 386.741 32.528C386.634 32.1547 386.453 31.872 386.197 31.68C385.952 31.4773 385.621 31.376 385.205 31.376C384.821 31.376 384.485 31.456 384.197 31.616C383.909 31.776 383.664 32.0267 383.461 32.368L381.893 31.792C382.064 31.44 382.288 31.1147 382.565 30.816C382.853 30.5067 383.21 30.2613 383.637 30.08C384.074 29.8987 384.597 29.808 385.205 29.808C385.984 29.808 386.634 29.9627 387.157 30.272C387.68 30.5707 388.064 31.0027 388.309 31.568C388.565 32.1333 388.693 32.816 388.693 33.616L388.645 38H386.997ZM384.693 38.192C383.733 38.192 382.986 37.9787 382.453 37.552C381.93 37.1253 381.669 36.5227 381.669 35.744C381.669 34.912 381.946 34.2773 382.501 33.84C383.066 33.4027 383.85 33.184 384.853 33.184H386.997V34.56H385.429C384.714 34.56 384.213 34.6613 383.925 34.864C383.637 35.056 383.493 35.3333 383.493 35.696C383.493 36.0053 383.616 36.2507 383.861 36.432C384.117 36.6027 384.469 36.688 384.917 36.688C385.322 36.688 385.674 36.5973 385.973 36.416C386.272 36.2347 386.501 35.9947 386.661 35.696C386.832 35.3973 386.917 35.0613 386.917 34.688H387.445C387.445 35.776 387.226 36.6347 386.789 37.264C386.352 37.8827 385.653 38.192 384.693 38.192ZM390.508 38V26.8H392.3V38H390.508ZM399.169 38L399.089 36.496V33.888C399.089 33.344 399.03 32.8907 398.913 32.528C398.806 32.1547 398.625 31.872 398.369 31.68C398.124 31.4773 397.793 31.376 397.377 31.376C396.993 31.376 396.657 31.456 396.369 31.616C396.081 31.776 395.836 32.0267 395.633 32.368L394.065 31.792C394.236 31.44 394.46 31.1147 394.737 30.816C395.025 30.5067 395.382 30.2613 395.809 30.08C396.246 29.8987 396.769 29.808 397.377 29.808C398.156 29.808 398.806 29.9627 399.329 30.272C399.852 30.5707 400.236 31.0027 400.481 31.568C400.737 32.1333 400.865 32.816 400.865 33.616L400.817 38H399.169ZM396.865 38.192C395.905 38.192 395.158 37.9787 394.625 37.552C394.102 37.1253 393.841 36.5227 393.841 35.744C393.841 34.912 394.118 34.2773 394.673 33.84C395.238 33.4027 396.022 33.184 397.025 33.184H399.169V34.56H397.601C396.886 34.56 396.385 34.6613 396.097 34.864C395.809 35.056 395.665 35.3333 395.665 35.696C395.665 36.0053 395.788 36.2507 396.033 36.432C396.289 36.6027 396.641 36.688 397.089 36.688C397.494 36.688 397.846 36.5973 398.145 36.416C398.444 36.2347 398.673 35.9947 398.833 35.696C399.004 35.3973 399.089 35.0613 399.089 34.688H399.617C399.617 35.776 399.398 36.6347 398.961 37.264C398.524 37.8827 397.825 38.192 396.865 38.192ZM405.864 38.192C405.021 38.192 404.376 37.984 403.928 37.568C403.49 37.1413 403.272 36.5333 403.272 35.744V27.504H405.048V35.408C405.048 35.7813 405.133 36.064 405.304 36.256C405.485 36.448 405.746 36.544 406.088 36.544C406.194 36.544 406.312 36.5227 406.44 36.48C406.568 36.4373 406.712 36.3573 406.872 36.24L407.528 37.6C407.25 37.792 406.973 37.936 406.696 38.032C406.418 38.1387 406.141 38.192 405.864 38.192ZM401.944 31.536V30H407.208V31.536H401.944ZM409.073 38V30H410.849V38H409.073ZM409.969 28.48C409.681 28.48 409.43 28.3787 409.217 28.176C409.014 27.9627 408.913 27.712 408.913 27.424C408.913 27.136 409.014 26.8907 409.217 26.688C409.43 26.4853 409.681 26.384 409.969 26.384C410.257 26.384 410.502 26.4853 410.705 26.688C410.918 26.8907 411.025 27.136 411.025 27.424C411.025 27.712 410.918 27.9627 410.705 28.176C410.502 28.3787 410.257 28.48 409.969 28.48ZM416.641 38.192C415.841 38.192 415.126 38.016 414.497 37.664C413.878 37.3013 413.393 36.8053 413.041 36.176C412.689 35.5467 412.513 34.8213 412.513 34C412.513 33.1787 412.683 32.4533 413.025 31.824C413.377 31.1947 413.862 30.704 414.481 30.352C415.099 29.9893 415.809 29.808 416.609 29.808C417.409 29.808 418.118 29.9893 418.737 30.352C419.355 30.704 419.835 31.1947 420.177 31.824C420.529 32.4533 420.705 33.1787 420.705 34C420.705 34.8213 420.534 35.5467 420.193 36.176C419.851 36.8053 419.371 37.3013 418.753 37.664C418.134 38.016 417.43 38.192 416.641 38.192ZM416.641 36.544C417.078 36.544 417.467 36.4373 417.809 36.224C418.15 36 418.417 35.7013 418.609 35.328C418.801 34.944 418.897 34.5013 418.897 34C418.897 33.4987 418.795 33.0613 418.593 32.688C418.401 32.304 418.134 32.0053 417.793 31.792C417.451 31.568 417.057 31.456 416.609 31.456C416.161 31.456 415.766 31.5627 415.425 31.776C415.083 31.9893 414.817 32.288 414.625 32.672C414.433 33.056 414.337 33.4987 414.337 34C414.337 34.5013 414.433 34.944 414.625 35.328C414.827 35.7013 415.099 36 415.441 36.224C415.793 36.4373 416.193 36.544 416.641 36.544ZM422.258 38V30H423.938L424.05 31.472V38H422.258ZM427.682 38V33.904H429.474V38H427.682ZM427.682 33.904C427.682 33.264 427.607 32.7733 427.458 32.432C427.319 32.08 427.116 31.8347 426.85 31.696C426.594 31.5573 426.29 31.488 425.938 31.488C425.34 31.4773 424.876 31.6747 424.546 32.08C424.215 32.4853 424.05 33.0667 424.05 33.824H423.378C423.378 32.9813 423.5 32.2613 423.746 31.664C423.991 31.056 424.343 30.5973 424.802 30.288C425.26 29.968 425.804 29.808 426.434 29.808C427.074 29.808 427.618 29.936 428.066 30.192C428.524 30.448 428.871 30.848 429.106 31.392C429.351 31.9253 429.474 32.624 429.474 33.488V33.904H427.682Z" fill="#0A0B0D"/>
<path d="M176.462 63.168C175.921 63.168 175.44 63.112 175.02 63C174.6 62.8787 174.236 62.7153 173.928 62.51C173.62 62.2953 173.368 62.062 173.172 61.81C172.976 61.5487 172.832 61.2733 172.738 60.984L173.872 60.592C174.012 61.0027 174.292 61.362 174.712 61.67C175.142 61.9687 175.664 62.118 176.28 62.118C177.036 62.118 177.629 61.9687 178.058 61.67C178.488 61.3713 178.702 60.9747 178.702 60.48C178.702 60.0227 178.511 59.654 178.128 59.374C177.746 59.0847 177.242 58.8607 176.616 58.702L175.538 58.422C175.1 58.31 174.694 58.1467 174.32 57.932C173.956 57.708 173.662 57.428 173.438 57.092C173.224 56.7467 173.116 56.336 173.116 55.86C173.116 54.9733 173.401 54.2827 173.97 53.788C174.549 53.284 175.38 53.032 176.462 53.032C177.106 53.032 177.662 53.1393 178.128 53.354C178.595 53.5593 178.973 53.8253 179.262 54.152C179.561 54.4693 179.771 54.8147 179.892 55.188L178.772 55.58C178.595 55.1133 178.296 54.7493 177.876 54.488C177.456 54.2173 176.948 54.082 176.35 54.082C175.725 54.082 175.226 54.236 174.852 54.544C174.488 54.8427 174.306 55.2533 174.306 55.776C174.306 56.224 174.451 56.5693 174.74 56.812C175.03 57.0453 175.408 57.218 175.874 57.33L176.952 57.596C177.904 57.82 178.632 58.1933 179.136 58.716C179.65 59.2293 179.906 59.7847 179.906 60.382C179.906 60.8953 179.776 61.3667 179.514 61.796C179.253 62.216 178.866 62.552 178.352 62.804C177.848 63.0467 177.218 63.168 176.462 63.168ZM185.916 63L185.86 61.852V59.304C185.86 58.7533 185.799 58.3007 185.678 57.946C185.557 57.582 185.365 57.3067 185.104 57.12C184.843 56.9333 184.502 56.84 184.082 56.84C183.699 56.84 183.368 56.9193 183.088 57.078C182.817 57.2273 182.593 57.47 182.416 57.806L181.408 57.414C181.585 57.0873 181.8 56.8073 182.052 56.574C182.304 56.3313 182.598 56.1493 182.934 56.028C183.27 55.8973 183.653 55.832 184.082 55.832C184.735 55.832 185.272 55.9627 185.692 56.224C186.121 56.476 186.443 56.854 186.658 57.358C186.873 57.8527 186.975 58.4687 186.966 59.206L186.952 63H185.916ZM183.816 63.168C182.995 63.168 182.351 62.9813 181.884 62.608C181.427 62.2253 181.198 61.698 181.198 61.026C181.198 60.3167 181.431 59.7753 181.898 59.402C182.374 59.0193 183.037 58.828 183.886 58.828H185.888V59.766H184.138C183.485 59.766 183.018 59.8733 182.738 60.088C182.467 60.3027 182.332 60.6107 182.332 61.012C182.332 61.376 182.467 61.6653 182.738 61.88C183.009 62.0853 183.387 62.188 183.872 62.188C184.273 62.188 184.623 62.104 184.922 61.936C185.221 61.7587 185.449 61.5113 185.608 61.194C185.776 60.8673 185.86 60.4847 185.86 60.046H186.336C186.336 60.998 186.121 61.7587 185.692 62.328C185.263 62.888 184.637 63.168 183.816 63.168ZM189.441 63V55.202C189.441 54.474 189.609 53.928 189.945 53.564C190.29 53.1907 190.813 53.004 191.513 53.004C191.699 53.004 191.909 53.0367 192.143 53.102C192.376 53.1673 192.623 53.2607 192.885 53.382L192.465 54.264C192.25 54.18 192.068 54.1147 191.919 54.068C191.769 54.0213 191.643 53.998 191.541 53.998C191.214 53.998 190.967 54.1053 190.799 54.32C190.64 54.5253 190.561 54.8473 190.561 55.286V63H189.441ZM188.153 56.966V56H192.591V56.966H188.153ZM196.934 63.168C196.252 63.168 195.65 63.014 195.128 62.706C194.605 62.3887 194.194 61.9547 193.896 61.404C193.606 60.8533 193.462 60.2187 193.462 59.5C193.462 58.7813 193.606 58.1467 193.896 57.596C194.194 57.0453 194.6 56.616 195.114 56.308C195.636 55.9907 196.234 55.832 196.906 55.832C197.559 55.832 198.124 55.9953 198.6 56.322C199.076 56.6393 199.444 57.0873 199.706 57.666C199.967 58.2447 200.098 58.926 200.098 59.71H194.316L194.596 59.472C194.596 60.032 194.694 60.5127 194.89 60.914C195.095 61.3153 195.38 61.6233 195.744 61.838C196.108 62.0433 196.523 62.146 196.99 62.146C197.484 62.146 197.9 62.0293 198.236 61.796C198.581 61.5627 198.847 61.2547 199.034 60.872L200 61.362C199.822 61.726 199.584 62.0433 199.286 62.314C198.996 62.5847 198.651 62.7947 198.25 62.944C197.858 63.0933 197.419 63.168 196.934 63.168ZM194.666 58.996L194.372 58.772H199.202L198.908 59.01C198.908 58.562 198.819 58.1747 198.642 57.848C198.464 57.5213 198.226 57.2693 197.928 57.092C197.629 56.9147 197.284 56.826 196.892 56.826C196.509 56.826 196.145 56.9147 195.8 57.092C195.464 57.2693 195.188 57.5213 194.974 57.848C194.768 58.1653 194.666 58.548 194.666 58.996ZM205.039 65.8V56H206.089L206.159 57.288V65.8H205.039ZM208.525 63.168C207.937 63.168 207.419 63.014 206.971 62.706C206.533 62.398 206.192 61.9687 205.949 61.418C205.707 60.858 205.585 60.2187 205.585 59.5C205.585 58.772 205.707 58.1327 205.949 57.582C206.192 57.0313 206.533 56.602 206.971 56.294C207.419 55.986 207.937 55.832 208.525 55.832C209.151 55.832 209.701 55.986 210.177 56.294C210.653 56.602 211.022 57.0313 211.283 57.582C211.554 58.1327 211.689 58.772 211.689 59.5C211.689 60.2187 211.554 60.858 211.283 61.418C211.022 61.9687 210.653 62.398 210.177 62.706C209.701 63.014 209.151 63.168 208.525 63.168ZM208.273 62.146C208.712 62.146 209.099 62.034 209.435 61.81C209.781 61.586 210.051 61.2733 210.247 60.872C210.453 60.4707 210.555 60.0133 210.555 59.5C210.555 58.9867 210.457 58.5293 210.261 58.128C210.075 57.7267 209.809 57.414 209.463 57.19C209.118 56.966 208.726 56.854 208.287 56.854C207.877 56.854 207.508 56.966 207.181 57.19C206.864 57.414 206.612 57.7267 206.425 58.128C206.248 58.5293 206.159 58.9867 206.159 59.5C206.159 60.0133 206.248 60.4707 206.425 60.872C206.612 61.2733 206.864 61.586 207.181 61.81C207.499 62.034 207.863 62.146 208.273 62.146ZM217.553 63L217.497 61.852V59.304C217.497 58.7533 217.436 58.3007 217.315 57.946C217.193 57.582 217.002 57.3067 216.741 57.12C216.479 56.9333 216.139 56.84 215.719 56.84C215.336 56.84 215.005 56.9193 214.725 57.078C214.454 57.2273 214.23 57.47 214.053 57.806L213.045 57.414C213.222 57.0873 213.437 56.8073 213.689 56.574C213.941 56.3313 214.235 56.1493 214.571 56.028C214.907 55.8973 215.289 55.832 215.719 55.832C216.372 55.832 216.909 55.9627 217.329 56.224C217.758 56.476 218.08 56.854 218.295 57.358C218.509 57.8527 218.612 58.4687 218.603 59.206L218.589 63H217.553ZM215.453 63.168C214.631 63.168 213.987 62.9813 213.521 62.608C213.063 62.2253 212.835 61.698 212.835 61.026C212.835 60.3167 213.068 59.7753 213.535 59.402C214.011 59.0193 214.673 58.828 215.523 58.828H217.525V59.766H215.775C215.121 59.766 214.655 59.8733 214.375 60.088C214.104 60.3027 213.969 60.6107 213.969 61.012C213.969 61.376 214.104 61.6653 214.375 61.88C214.645 62.0853 215.023 62.188 215.509 62.188C215.91 62.188 216.26 62.104 216.559 61.936C216.857 61.7587 217.086 61.5113 217.245 61.194C217.413 60.8673 217.497 60.4847 217.497 60.046H217.973C217.973 60.998 217.758 61.7587 217.329 62.328C216.899 62.888 216.274 63.168 215.453 63.168ZM223.009 63.168C222.328 63.168 221.801 62.9907 221.427 62.636C221.054 62.2813 220.867 61.782 220.867 61.138V53.816H221.987V61.026C221.987 61.3807 222.081 61.656 222.267 61.852C222.463 62.0387 222.734 62.132 223.079 62.132C223.191 62.132 223.299 62.118 223.401 62.09C223.513 62.0527 223.658 61.9687 223.835 61.838L224.269 62.748C224.027 62.9067 223.807 63.014 223.611 63.07C223.415 63.1353 223.215 63.168 223.009 63.168ZM219.649 56.994V56H224.087V56.994H219.649ZM225.668 63V53.2H226.788V63H225.668ZM230.596 63V59.416H231.716V63H230.596ZM230.596 59.416C230.596 58.7253 230.512 58.198 230.344 57.834C230.186 57.47 229.966 57.2227 229.686 57.092C229.406 56.952 229.089 56.882 228.734 56.882C228.118 56.882 227.638 57.1013 227.292 57.54C226.956 57.9693 226.788 58.5807 226.788 59.374H226.242C226.242 58.6367 226.35 58.002 226.564 57.47C226.788 56.938 227.106 56.532 227.516 56.252C227.927 55.972 228.422 55.832 229 55.832C229.542 55.832 230.018 55.944 230.428 56.168C230.839 56.3827 231.156 56.728 231.38 57.204C231.614 57.68 231.726 58.3053 231.716 59.08V59.416H230.596ZM243.29 63L245.656 56H246.79L244.41 63H243.29ZM238.53 63L240.896 56H241.946L239.608 63H238.53ZM238.474 63L236.094 56H237.228L239.566 63H238.474ZM243.29 63L240.952 56H242.016L244.354 63H243.29ZM247.913 63V53.2H249.033V63H247.913ZM252.841 63V59.416H253.961V63H252.841ZM252.841 59.416C252.841 58.7253 252.757 58.198 252.589 57.834C252.43 57.47 252.211 57.2227 251.931 57.092C251.651 56.952 251.333 56.882 250.979 56.882C250.363 56.882 249.882 57.1013 249.537 57.54C249.201 57.9693 249.033 58.5807 249.033 59.374H248.487C248.487 58.6367 248.594 58.002 248.809 57.47C249.033 56.938 249.35 56.532 249.761 56.252C250.171 55.972 250.666 55.832 251.245 55.832C251.786 55.832 252.262 55.944 252.673 56.168C253.083 56.3827 253.401 56.728 253.625 57.204C253.858 57.68 253.97 58.3053 253.961 59.08V59.416H252.841ZM258.785 63.168C258.104 63.168 257.502 63.014 256.979 62.706C256.457 62.3887 256.046 61.9547 255.747 61.404C255.458 60.8533 255.313 60.2187 255.313 59.5C255.313 58.7813 255.458 58.1467 255.747 57.596C256.046 57.0453 256.452 56.616 256.965 56.308C257.488 55.9907 258.085 55.832 258.757 55.832C259.411 55.832 259.975 55.9953 260.451 56.322C260.927 56.6393 261.296 57.0873 261.557 57.666C261.819 58.2447 261.949 58.926 261.949 59.71H256.167L256.447 59.472C256.447 60.032 256.545 60.5127 256.741 60.914C256.947 61.3153 257.231 61.6233 257.595 61.838C257.959 62.0433 258.375 62.146 258.841 62.146C259.336 62.146 259.751 62.0293 260.087 61.796C260.433 61.5627 260.699 61.2547 260.885 60.872L261.851 61.362C261.674 61.726 261.436 62.0433 261.137 62.314C260.848 62.5847 260.503 62.7947 260.101 62.944C259.709 63.0933 259.271 63.168 258.785 63.168ZM256.517 58.996L256.223 58.772H261.053L260.759 59.01C260.759 58.562 260.671 58.1747 260.493 57.848C260.316 57.5213 260.078 57.2693 259.779 57.092C259.481 56.9147 259.135 56.826 258.743 56.826C258.361 56.826 257.997 56.9147 257.651 57.092C257.315 57.2693 257.04 57.5213 256.825 57.848C256.62 58.1653 256.517 58.548 256.517 58.996ZM263.362 63V56H264.412L264.482 57.288V63H263.362ZM268.276 63V59.416H269.396V63H268.276ZM268.276 59.416C268.276 58.7253 268.197 58.198 268.038 57.834C267.879 57.47 267.66 57.2227 267.38 57.092C267.1 56.952 266.783 56.882 266.428 56.882C265.812 56.882 265.331 57.1013 264.986 57.54C264.65 57.9693 264.482 58.5807 264.482 59.374H263.936C263.936 58.6367 264.043 58.002 264.258 57.47C264.473 56.938 264.785 56.532 265.196 56.252C265.607 55.972 266.101 55.832 266.68 55.832C267.231 55.832 267.707 55.944 268.108 56.168C268.519 56.3827 268.836 56.728 269.06 57.204C269.293 57.68 269.405 58.3053 269.396 59.08V59.416H268.276ZM281.739 63L277.805 53.2H278.995L282.985 63H281.739ZM273.773 63L277.763 53.2H278.967L275.033 63H273.773ZM275.663 60.214V59.15H281.109V60.214H275.663ZM284.424 63V53.2H285.614V63H284.424ZM294.484 63.168C293.793 63.168 293.182 63.014 292.65 62.706C292.118 62.3887 291.703 61.9547 291.404 61.404C291.105 60.8533 290.956 60.2187 290.956 59.5C290.956 58.7813 291.101 58.1467 291.39 57.596C291.689 57.0453 292.104 56.616 292.636 56.308C293.168 55.9907 293.775 55.832 294.456 55.832C295.128 55.832 295.73 55.986 296.262 56.294C296.794 56.602 297.2 57.036 297.48 57.596L296.458 58.058C296.271 57.6847 296.001 57.3953 295.646 57.19C295.291 56.9753 294.885 56.868 294.428 56.868C293.971 56.868 293.565 56.98 293.21 57.204C292.865 57.428 292.589 57.7407 292.384 58.142C292.188 58.534 292.09 58.9867 292.09 59.5C292.09 60.0133 292.188 60.4707 292.384 60.872C292.589 61.264 292.869 61.572 293.224 61.796C293.588 62.02 293.999 62.132 294.456 62.132C294.913 62.132 295.319 62.0153 295.674 61.782C296.038 61.5487 296.313 61.222 296.5 60.802L297.522 61.264C297.242 61.8613 296.836 62.328 296.304 62.664C295.772 63 295.165 63.168 294.484 63.168ZM303.248 63L303.192 61.852V59.304C303.192 58.7533 303.131 58.3007 303.01 57.946C302.889 57.582 302.697 57.3067 302.436 57.12C302.175 56.9333 301.834 56.84 301.414 56.84C301.031 56.84 300.7 56.9193 300.42 57.078C300.149 57.2273 299.925 57.47 299.748 57.806L298.74 57.414C298.917 57.0873 299.132 56.8073 299.384 56.574C299.636 56.3313 299.93 56.1493 300.266 56.028C300.602 55.8973 300.985 55.832 301.414 55.832C302.067 55.832 302.604 55.9627 303.024 56.224C303.453 56.476 303.775 56.854 303.99 57.358C304.205 57.8527 304.307 58.4687 304.298 59.206L304.284 63H303.248ZM301.148 63.168C300.327 63.168 299.683 62.9813 299.216 62.608C298.759 62.2253 298.53 61.698 298.53 61.026C298.53 60.3167 298.763 59.7753 299.23 59.402C299.706 59.0193 300.369 58.828 301.218 58.828H303.22V59.766H301.47C300.817 59.766 300.35 59.8733 300.07 60.088C299.799 60.3027 299.664 60.6107 299.664 61.012C299.664 61.376 299.799 61.6653 300.07 61.88C300.341 62.0853 300.719 62.188 301.204 62.188C301.605 62.188 301.955 62.104 302.254 61.936C302.553 61.7587 302.781 61.5113 302.94 61.194C303.108 60.8673 303.192 60.4847 303.192 60.046H303.668C303.668 60.998 303.453 61.7587 303.024 62.328C302.595 62.888 301.969 63.168 301.148 63.168ZM306.073 63V56H307.123L307.193 57.288V63H306.073ZM310.987 63V59.416H312.107V63H310.987ZM310.987 59.416C310.987 58.7253 310.907 58.198 310.749 57.834C310.59 57.47 310.371 57.2227 310.091 57.092C309.811 56.952 309.493 56.882 309.139 56.882C308.523 56.882 308.042 57.1013 307.697 57.54C307.361 57.9693 307.193 58.5807 307.193 59.374H306.647C306.647 58.6367 306.754 58.002 306.969 57.47C307.183 56.938 307.496 56.532 307.907 56.252C308.317 55.972 308.812 55.832 309.391 55.832C309.941 55.832 310.417 55.944 310.819 56.168C311.229 56.3827 311.547 56.728 311.771 57.204C312.004 57.68 312.116 58.3053 312.107 59.08V59.416H310.987ZM313.879 63V56H314.929L314.999 57.288V63H313.879ZM318.793 63V59.416H319.913V63H318.793ZM318.793 59.416C318.793 58.7253 318.714 58.198 318.555 57.834C318.397 57.47 318.177 57.2227 317.897 57.092C317.617 56.952 317.3 56.882 316.945 56.882C316.329 56.882 315.849 57.1013 315.503 57.54C315.167 57.9693 314.999 58.5807 314.999 59.374H314.453C314.453 58.6367 314.561 58.002 314.775 57.47C314.99 56.938 315.303 56.532 315.713 56.252C316.124 55.972 316.619 55.832 317.197 55.832C317.748 55.832 318.224 55.944 318.625 56.168C319.036 56.3827 319.353 56.728 319.577 57.204C319.811 57.68 319.923 58.3053 319.913 59.08V59.416H318.793ZM324.78 63.168C324.099 63.168 323.492 63.014 322.96 62.706C322.437 62.3887 322.027 61.9547 321.728 61.404C321.429 60.8533 321.28 60.2187 321.28 59.5C321.28 58.7813 321.425 58.1467 321.714 57.596C322.013 57.0453 322.423 56.616 322.946 56.308C323.478 55.9907 324.08 55.832 324.752 55.832C325.443 55.832 326.049 55.9907 326.572 56.308C327.104 56.616 327.515 57.0453 327.804 57.596C328.103 58.1467 328.252 58.7813 328.252 59.5C328.252 60.2187 328.103 60.8533 327.804 61.404C327.515 61.9547 327.109 62.3887 326.586 62.706C326.063 63.014 325.461 63.168 324.78 63.168ZM324.78 62.132C325.247 62.132 325.653 62.02 325.998 61.796C326.343 61.572 326.614 61.264 326.81 60.872C327.015 60.48 327.118 60.0227 327.118 59.5C327.118 58.9773 327.015 58.52 326.81 58.128C326.614 57.736 326.339 57.428 325.984 57.204C325.629 56.98 325.219 56.868 324.752 56.868C324.295 56.868 323.889 56.98 323.534 57.204C323.189 57.428 322.913 57.736 322.708 58.128C322.512 58.52 322.414 58.9773 322.414 59.5C322.414 60.0133 322.512 60.4707 322.708 60.872C322.913 61.264 323.193 61.572 323.548 61.796C323.912 62.02 324.323 62.132 324.78 62.132ZM332.439 63.168C331.758 63.168 331.23 62.9907 330.857 62.636C330.484 62.2813 330.297 61.782 330.297 61.138V53.816H331.417V61.026C331.417 61.3807 331.51 61.656 331.697 61.852C331.893 62.0387 332.164 62.132 332.509 62.132C332.621 62.132 332.728 62.118 332.831 62.09C332.943 62.0527 333.088 61.9687 333.265 61.838L333.699 62.748C333.456 62.9067 333.237 63.014 333.041 63.07C332.845 63.1353 332.644 63.168 332.439 63.168ZM329.079 56.994V56H333.517V56.994H329.079ZM341.679 63.168C340.988 63.168 340.377 63.014 339.845 62.706C339.313 62.3887 338.898 61.9547 338.599 61.404C338.3 60.8533 338.151 60.2187 338.151 59.5C338.151 58.7813 338.296 58.1467 338.585 57.596C338.884 57.0453 339.299 56.616 339.831 56.308C340.363 55.9907 340.97 55.832 341.651 55.832C342.323 55.832 342.925 55.986 343.457 56.294C343.989 56.602 344.395 57.036 344.675 57.596L343.653 58.058C343.466 57.6847 343.196 57.3953 342.841 57.19C342.486 56.9753 342.08 56.868 341.623 56.868C341.166 56.868 340.76 56.98 340.405 57.204C340.06 57.428 339.784 57.7407 339.579 58.142C339.383 58.534 339.285 58.9867 339.285 59.5C339.285 60.0133 339.383 60.4707 339.579 60.872C339.784 61.264 340.064 61.572 340.419 61.796C340.783 62.02 341.194 62.132 341.651 62.132C342.108 62.132 342.514 62.0153 342.869 61.782C343.233 61.5487 343.508 61.222 343.695 60.802L344.717 61.264C344.437 61.8613 344.031 62.328 343.499 62.664C342.967 63 342.36 63.168 341.679 63.168ZM349.225 63.168C348.544 63.168 347.937 63.014 347.405 62.706C346.883 62.3887 346.472 61.9547 346.173 61.404C345.875 60.8533 345.725 60.2187 345.725 59.5C345.725 58.7813 345.87 58.1467 346.159 57.596C346.458 57.0453 346.869 56.616 347.391 56.308C347.923 55.9907 348.525 55.832 349.197 55.832C349.888 55.832 350.495 55.9907 351.017 56.308C351.549 56.616 351.96 57.0453 352.249 57.596C352.548 58.1467 352.697 58.7813 352.697 59.5C352.697 60.2187 352.548 60.8533 352.249 61.404C351.96 61.9547 351.554 62.3887 351.031 62.706C350.509 63.014 349.907 63.168 349.225 63.168ZM349.225 62.132C349.692 62.132 350.098 62.02 350.443 61.796C350.789 61.572 351.059 61.264 351.255 60.872C351.461 60.48 351.563 60.0227 351.563 59.5C351.563 58.9773 351.461 58.52 351.255 58.128C351.059 57.736 350.784 57.428 350.429 57.204C350.075 56.98 349.664 56.868 349.197 56.868C348.74 56.868 348.334 56.98 347.979 57.204C347.634 57.428 347.359 57.736 347.153 58.128C346.957 58.52 346.859 58.9773 346.859 59.5C346.859 60.0133 346.957 60.4707 347.153 60.872C347.359 61.264 347.639 61.572 347.993 61.796C348.357 62.02 348.768 62.132 349.225 62.132ZM354.252 63V56H355.302L355.358 56.98C355.573 56.6067 355.848 56.322 356.184 56.126C356.52 55.93 356.912 55.832 357.36 55.832C357.92 55.832 358.396 55.9627 358.788 56.224C359.19 56.4853 359.479 56.882 359.656 57.414C359.852 56.9007 360.137 56.5087 360.51 56.238C360.893 55.9673 361.346 55.832 361.868 55.832C362.652 55.832 363.268 56.0933 363.716 56.616C364.174 57.1387 364.398 57.932 364.388 58.996V63H363.268V59.416C363.268 58.7253 363.194 58.198 363.044 57.834C362.904 57.47 362.713 57.2227 362.47 57.092C362.228 56.952 361.948 56.882 361.63 56.882C361.08 56.882 360.65 57.1013 360.342 57.54C360.034 57.9693 359.88 58.5807 359.88 59.374V63H358.76V59.416C358.76 58.7253 358.686 58.198 358.536 57.834C358.396 57.47 358.2 57.2227 357.948 57.092C357.706 56.952 357.426 56.882 357.108 56.882C356.567 56.882 356.142 57.1013 355.834 57.54C355.526 57.9693 355.372 58.5807 355.372 59.374V63H354.252ZM366.231 65.8V56H367.281L367.351 57.288V65.8H366.231ZM369.717 63.168C369.129 63.168 368.611 63.014 368.163 62.706C367.724 62.398 367.383 61.9687 367.141 61.418C366.898 60.858 366.777 60.2187 366.777 59.5C366.777 58.772 366.898 58.1327 367.141 57.582C367.383 57.0313 367.724 56.602 368.163 56.294C368.611 55.986 369.129 55.832 369.717 55.832C370.342 55.832 370.893 55.986 371.369 56.294C371.845 56.602 372.213 57.0313 372.475 57.582C372.745 58.1327 372.881 58.772 372.881 59.5C372.881 60.2187 372.745 60.858 372.475 61.418C372.213 61.9687 371.845 62.398 371.369 62.706C370.893 63.014 370.342 63.168 369.717 63.168ZM369.465 62.146C369.903 62.146 370.291 62.034 370.627 61.81C370.972 61.586 371.243 61.2733 371.439 60.872C371.644 60.4707 371.747 60.0133 371.747 59.5C371.747 58.9867 371.649 58.5293 371.453 58.128C371.266 57.7267 371 57.414 370.655 57.19C370.309 56.966 369.917 56.854 369.479 56.854C369.068 56.854 368.699 56.966 368.373 57.19C368.055 57.414 367.803 57.7267 367.617 58.128C367.439 58.5293 367.351 58.9867 367.351 59.5C367.351 60.0133 367.439 60.4707 367.617 60.872C367.803 61.2733 368.055 61.586 368.373 61.81C368.69 62.034 369.054 62.146 369.465 62.146ZM374.432 63V53.2H375.552V63H374.432ZM380.574 63.168C379.893 63.168 379.291 63.014 378.768 62.706C378.246 62.3887 377.835 61.9547 377.536 61.404C377.247 60.8533 377.102 60.2187 377.102 59.5C377.102 58.7813 377.247 58.1467 377.536 57.596C377.835 57.0453 378.241 56.616 378.754 56.308C379.277 55.9907 379.874 55.832 380.546 55.832C381.2 55.832 381.764 55.9953 382.24 56.322C382.716 56.6393 383.085 57.0873 383.346 57.666C383.608 58.2447 383.738 58.926 383.738 59.71H377.956L378.236 59.472C378.236 60.032 378.334 60.5127 378.53 60.914C378.736 61.3153 379.02 61.6233 379.384 61.838C379.748 62.0433 380.164 62.146 380.63 62.146C381.125 62.146 381.54 62.0293 381.876 61.796C382.222 61.5627 382.488 61.2547 382.674 60.872L383.64 61.362C383.463 61.726 383.225 62.0433 382.926 62.314C382.637 62.5847 382.292 62.7947 381.89 62.944C381.498 63.0933 381.06 63.168 380.574 63.168ZM378.306 58.996L378.012 58.772H382.842L382.548 59.01C382.548 58.562 382.46 58.1747 382.282 57.848C382.105 57.5213 381.867 57.2693 381.568 57.092C381.27 56.9147 380.924 56.826 380.532 56.826C380.15 56.826 379.786 56.9147 379.44 57.092C379.104 57.2693 378.829 57.5213 378.614 57.848C378.409 58.1653 378.306 58.548 378.306 58.996ZM387.783 63.168C387.102 63.168 386.574 62.9907 386.201 62.636C385.828 62.2813 385.641 61.782 385.641 61.138V53.816H386.761V61.026C386.761 61.3807 386.854 61.656 387.041 61.852C387.237 62.0387 387.508 62.132 387.853 62.132C387.965 62.132 388.072 62.118 388.175 62.09C388.287 62.0527 388.432 61.9687 388.609 61.838L389.043 62.748C388.8 62.9067 388.581 63.014 388.385 63.07C388.189 63.1353 387.988 63.168 387.783 63.168ZM384.423 56.994V56H388.861V56.994H384.423ZM393.467 63.168C392.786 63.168 392.184 63.014 391.661 62.706C391.138 62.3887 390.728 61.9547 390.429 61.404C390.14 60.8533 389.995 60.2187 389.995 59.5C389.995 58.7813 390.14 58.1467 390.429 57.596C390.728 57.0453 391.134 56.616 391.647 56.308C392.17 55.9907 392.767 55.832 393.439 55.832C394.092 55.832 394.657 55.9953 395.133 56.322C395.609 56.6393 395.978 57.0873 396.239 57.666C396.5 58.2447 396.631 58.926 396.631 59.71H390.849L391.129 59.472C391.129 60.032 391.227 60.5127 391.423 60.914C391.628 61.3153 391.913 61.6233 392.277 61.838C392.641 62.0433 393.056 62.146 393.523 62.146C394.018 62.146 394.433 62.0293 394.769 61.796C395.114 61.5627 395.38 61.2547 395.567 60.872L396.533 61.362C396.356 61.726 396.118 62.0433 395.819 62.314C395.53 62.5847 395.184 62.7947 394.783 62.944C394.391 63.0933 393.952 63.168 393.467 63.168ZM391.199 58.996L390.905 58.772H395.735L395.441 59.01C395.441 58.562 395.352 58.1747 395.175 57.848C394.998 57.5213 394.76 57.2693 394.461 57.092C394.162 56.9147 393.817 56.826 393.425 56.826C393.042 56.826 392.678 56.9147 392.333 57.092C391.997 57.2693 391.722 57.5213 391.507 57.848C391.302 58.1653 391.199 58.548 391.199 58.996ZM404.596 63.168C403.915 63.168 403.308 63.014 402.776 62.706C402.254 62.3887 401.843 61.9547 401.544 61.404C401.246 60.8533 401.096 60.2187 401.096 59.5C401.096 58.7813 401.241 58.1467 401.53 57.596C401.829 57.0453 402.24 56.616 402.762 56.308C403.294 55.9907 403.896 55.832 404.568 55.832C405.259 55.832 405.866 55.9907 406.388 56.308C406.92 56.616 407.331 57.0453 407.62 57.596C407.919 58.1467 408.068 58.7813 408.068 59.5C408.068 60.2187 407.919 60.8533 407.62 61.404C407.331 61.9547 406.925 62.3887 406.402 62.706C405.88 63.014 405.278 63.168 404.596 63.168ZM404.596 62.132C405.063 62.132 405.469 62.02 405.814 61.796C406.16 61.572 406.43 61.264 406.626 60.872C406.832 60.48 406.934 60.0227 406.934 59.5C406.934 58.9773 406.832 58.52 406.626 58.128C406.43 57.736 406.155 57.428 405.8 57.204C405.446 56.98 405.035 56.868 404.568 56.868C404.111 56.868 403.705 56.98 403.35 57.204C403.005 57.428 402.73 57.736 402.524 58.128C402.328 58.52 402.23 58.9773 402.23 59.5C402.23 60.0133 402.328 60.4707 402.524 60.872C402.73 61.264 403.01 61.572 403.364 61.796C403.728 62.02 404.139 62.132 404.596 62.132ZM410.24 59.206C410.24 58.45 410.384 57.8387 410.674 57.372C410.963 56.896 411.332 56.546 411.78 56.322C412.237 56.0887 412.718 55.972 413.222 55.972V57.022C412.811 57.022 412.414 57.092 412.032 57.232C411.658 57.3627 411.35 57.582 411.108 57.89C410.865 58.198 410.744 58.618 410.744 59.15L410.24 59.206ZM409.624 63V56H410.744V63H409.624ZM418.429 59.206C418.429 58.45 418.574 57.8387 418.863 57.372C419.152 56.896 419.521 56.546 419.969 56.322C420.426 56.0887 420.907 55.972 421.411 55.972V57.022C421 57.022 420.604 57.092 420.221 57.232C419.848 57.3627 419.54 57.582 419.297 57.89C419.054 58.198 418.933 58.618 418.933 59.15L418.429 59.206ZM417.813 63V56H418.933V63H417.813ZM425.609 63.168C424.928 63.168 424.326 63.014 423.803 62.706C423.281 62.3887 422.87 61.9547 422.571 61.404C422.282 60.8533 422.137 60.2187 422.137 59.5C422.137 58.7813 422.282 58.1467 422.571 57.596C422.87 57.0453 423.276 56.616 423.789 56.308C424.312 55.9907 424.909 55.832 425.581 55.832C426.235 55.832 426.799 55.9953 427.275 56.322C427.751 56.6393 428.12 57.0873 428.381 57.666C428.643 58.2447 428.773 58.926 428.773 59.71H422.991L423.271 59.472C423.271 60.032 423.369 60.5127 423.565 60.914C423.771 61.3153 424.055 61.6233 424.419 61.838C424.783 62.0433 425.199 62.146 425.665 62.146C426.16 62.146 426.575 62.0293 426.911 61.796C427.257 61.5627 427.523 61.2547 427.709 60.872L428.675 61.362C428.498 61.726 428.26 62.0433 427.961 62.314C427.672 62.5847 427.327 62.7947 426.925 62.944C426.533 63.0933 426.095 63.168 425.609 63.168ZM423.341 58.996L423.047 58.772H427.877L427.583 59.01C427.583 58.562 427.495 58.1747 427.317 57.848C427.14 57.5213 426.902 57.2693 426.603 57.092C426.305 56.9147 425.959 56.826 425.567 56.826C425.185 56.826 424.821 56.9147 424.475 57.092C424.139 57.2693 423.864 57.5213 423.649 57.848C423.444 58.1653 423.341 58.548 423.341 58.996ZM432.636 63.168C432.123 63.168 431.675 63.0933 431.292 62.944C430.909 62.7853 430.587 62.58 430.326 62.328C430.074 62.076 429.892 61.8007 429.78 61.502L430.76 61.096C430.919 61.4133 431.157 61.67 431.474 61.866C431.791 62.062 432.141 62.16 432.524 62.16C432.963 62.16 433.331 62.076 433.63 61.908C433.929 61.7307 434.078 61.4833 434.078 61.166C434.078 60.8767 433.966 60.6433 433.742 60.466C433.527 60.2887 433.205 60.144 432.776 60.032L432.104 59.85C431.469 59.682 430.975 59.43 430.62 59.094C430.265 58.7487 430.088 58.3613 430.088 57.932C430.088 57.2693 430.303 56.756 430.732 56.392C431.171 56.0187 431.819 55.832 432.678 55.832C433.089 55.832 433.462 55.8927 433.798 56.014C434.134 56.1353 434.423 56.308 434.666 56.532C434.909 56.7467 435.086 57.0033 435.198 57.302L434.218 57.736C434.097 57.4187 433.896 57.19 433.616 57.05C433.336 56.91 432.995 56.84 432.594 56.84C432.165 56.84 431.829 56.9333 431.586 57.12C431.343 57.2973 431.222 57.5493 431.222 57.876C431.222 58.0627 431.32 58.24 431.516 58.408C431.721 58.5667 432.02 58.6973 432.412 58.8L433.112 58.982C433.569 59.094 433.952 59.262 434.26 59.486C434.568 59.7007 434.801 59.948 434.96 60.228C435.119 60.508 435.198 60.8067 435.198 61.124C435.198 61.544 435.086 61.908 434.862 62.216C434.638 62.524 434.335 62.762 433.952 62.93C433.569 63.0887 433.131 63.168 432.636 63.168ZM439.802 63.168C439.12 63.168 438.514 63.014 437.982 62.706C437.459 62.3887 437.048 61.9547 436.75 61.404C436.451 60.8533 436.302 60.2187 436.302 59.5C436.302 58.7813 436.446 58.1467 436.736 57.596C437.034 57.0453 437.445 56.616 437.968 56.308C438.5 55.9907 439.102 55.832 439.774 55.832C440.464 55.832 441.071 55.9907 441.594 56.308C442.126 56.616 442.536 57.0453 442.826 57.596C443.124 58.1467 443.274 58.7813 443.274 59.5C443.274 60.2187 443.124 60.8533 442.826 61.404C442.536 61.9547 442.13 62.3887 441.608 62.706C441.085 63.014 440.483 63.168 439.802 63.168ZM439.802 62.132C440.268 62.132 440.674 62.02 441.02 61.796C441.365 61.572 441.636 61.264 441.832 60.872C442.037 60.48 442.14 60.0227 442.14 59.5C442.14 58.9773 442.037 58.52 441.832 58.128C441.636 57.736 441.36 57.428 441.006 57.204C440.651 56.98 440.24 56.868 439.774 56.868C439.316 56.868 438.91 56.98 438.556 57.204C438.21 57.428 437.935 57.736 437.73 58.128C437.534 58.52 437.436 58.9773 437.436 59.5C437.436 60.0133 437.534 60.4707 437.73 60.872C437.935 61.264 438.215 61.572 438.57 61.796C438.934 62.02 439.344 62.132 439.802 62.132ZM444.829 63V53.2H445.949V63H444.829ZM450.047 63L452.903 56H454.079L451.153 63H450.047ZM449.977 63L447.051 56H448.213L451.069 63H449.977ZM458.08 63.168C457.399 63.168 456.797 63.014 456.274 62.706C455.752 62.3887 455.341 61.9547 455.042 61.404C454.753 60.8533 454.608 60.2187 454.608 59.5C454.608 58.7813 454.753 58.1467 455.042 57.596C455.341 57.0453 455.747 56.616 456.26 56.308C456.783 55.9907 457.38 55.832 458.052 55.832C458.706 55.832 459.27 55.9953 459.746 56.322C460.222 56.6393 460.591 57.0873 460.852 57.666C461.114 58.2447 461.244 58.926 461.244 59.71H455.462L455.742 59.472C455.742 60.032 455.84 60.5127 456.036 60.914C456.242 61.3153 456.526 61.6233 456.89 61.838C457.254 62.0433 457.67 62.146 458.136 62.146C458.631 62.146 459.046 62.0293 459.382 61.796C459.728 61.5627 459.994 61.2547 460.18 60.872L461.146 61.362C460.969 61.726 460.731 62.0433 460.432 62.314C460.143 62.5847 459.798 62.7947 459.396 62.944C459.004 63.0933 458.566 63.168 458.08 63.168ZM455.812 58.996L455.518 58.772H460.348L460.054 59.01C460.054 58.562 459.966 58.1747 459.788 57.848C459.611 57.5213 459.373 57.2693 459.074 57.092C458.776 56.9147 458.43 56.826 458.038 56.826C457.656 56.826 457.292 56.9147 456.946 57.092C456.61 57.2693 456.335 57.5213 456.12 57.848C455.915 58.1653 455.812 58.548 455.812 58.996ZM468.748 63.168C468.066 63.168 467.539 62.9907 467.166 62.636C466.792 62.2813 466.606 61.782 466.606 61.138V53.816H467.726V61.026C467.726 61.3807 467.819 61.656 468.006 61.852C468.202 62.0387 468.472 62.132 468.818 62.132C468.93 62.132 469.037 62.118 469.14 62.09C469.252 62.0527 469.396 61.9687 469.574 61.838L470.008 62.748C469.765 62.9067 469.546 63.014 469.35 63.07C469.154 63.1353 468.953 63.168 468.748 63.168ZM465.388 56.994V56H469.826V56.994H465.388ZM471.407 63V53.2H472.527V63H471.407ZM476.335 63V59.416H477.455V63H476.335ZM476.335 59.416C476.335 58.7253 476.251 58.198 476.083 57.834C475.924 57.47 475.705 57.2227 475.425 57.092C475.145 56.952 474.827 56.882 474.473 56.882C473.857 56.882 473.376 57.1013 473.031 57.54C472.695 57.9693 472.527 58.5807 472.527 59.374H471.981C471.981 58.6367 472.088 58.002 472.303 57.47C472.527 56.938 472.844 56.532 473.255 56.252C473.665 55.972 474.16 55.832 474.739 55.832C475.28 55.832 475.756 55.944 476.167 56.168C476.577 56.3827 476.895 56.728 477.119 57.204C477.352 57.68 477.464 58.3053 477.455 59.08V59.416H476.335ZM482.279 63.168C481.598 63.168 480.996 63.014 480.473 62.706C479.951 62.3887 479.54 61.9547 479.241 61.404C478.952 60.8533 478.807 60.2187 478.807 59.5C478.807 58.7813 478.952 58.1467 479.241 57.596C479.54 57.0453 479.946 56.616 480.459 56.308C480.982 55.9907 481.579 55.832 482.251 55.832C482.905 55.832 483.469 55.9953 483.945 56.322C484.421 56.6393 484.79 57.0873 485.051 57.666C485.313 58.2447 485.443 58.926 485.443 59.71H479.661L479.941 59.472C479.941 60.032 480.039 60.5127 480.235 60.914C480.441 61.3153 480.725 61.6233 481.089 61.838C481.453 62.0433 481.869 62.146 482.335 62.146C482.83 62.146 483.245 62.0293 483.581 61.796C483.927 61.5627 484.193 61.2547 484.379 60.872L485.345 61.362C485.168 61.726 484.93 62.0433 484.631 62.314C484.342 62.5847 483.997 62.7947 483.595 62.944C483.203 63.0933 482.765 63.168 482.279 63.168ZM480.011 58.996L479.717 58.772H484.547L484.253 59.01C484.253 58.562 484.165 58.1747 483.987 57.848C483.81 57.5213 483.572 57.2693 483.273 57.092C482.975 56.9147 482.629 56.826 482.237 56.826C481.855 56.826 481.491 56.9147 481.145 57.092C480.809 57.2693 480.534 57.5213 480.319 57.848C480.114 58.1653 480.011 58.548 480.011 58.996ZM490.931 59.206C490.931 58.45 491.076 57.8387 491.365 57.372C491.654 56.896 492.023 56.546 492.471 56.322C492.928 56.0887 493.409 55.972 493.913 55.972V57.022C493.502 57.022 493.106 57.092 492.723 57.232C492.35 57.3627 492.042 57.582 491.799 57.89C491.556 58.198 491.435 58.618 491.435 59.15L490.931 59.206ZM490.315 63V56H491.435V63H490.315ZM498.111 63.168C497.43 63.168 496.828 63.014 496.305 62.706C495.783 62.3887 495.372 61.9547 495.073 61.404C494.784 60.8533 494.639 60.2187 494.639 59.5C494.639 58.7813 494.784 58.1467 495.073 57.596C495.372 57.0453 495.778 56.616 496.291 56.308C496.814 55.9907 497.411 55.832 498.083 55.832C498.737 55.832 499.301 55.9953 499.777 56.322C500.253 56.6393 500.622 57.0873 500.883 57.666C501.145 58.2447 501.275 58.926 501.275 59.71H495.493L495.773 59.472C495.773 60.032 495.871 60.5127 496.067 60.914C496.273 61.3153 496.557 61.6233 496.921 61.838C497.285 62.0433 497.701 62.146 498.167 62.146C498.662 62.146 499.077 62.0293 499.413 61.796C499.759 61.5627 500.025 61.2547 500.211 60.872L501.177 61.362C501 61.726 500.762 62.0433 500.463 62.314C500.174 62.5847 499.829 62.7947 499.427 62.944C499.035 63.0933 498.597 63.168 498.111 63.168ZM495.843 58.996L495.549 58.772H500.379L500.085 59.01C500.085 58.562 499.997 58.1747 499.819 57.848C499.642 57.5213 499.404 57.2693 499.105 57.092C498.807 56.9147 498.461 56.826 498.069 56.826C497.687 56.826 497.323 56.9147 496.977 57.092C496.641 57.2693 496.366 57.5213 496.151 57.848C495.946 58.1653 495.843 58.548 495.843 58.996ZM507.812 65.8V57.302L507.868 56H508.932V65.8H507.812ZM505.446 63.168C504.821 63.168 504.27 63.014 503.794 62.706C503.318 62.398 502.945 61.9687 502.674 61.418C502.413 60.858 502.282 60.2187 502.282 59.5C502.282 58.772 502.413 58.1327 502.674 57.582C502.945 57.0313 503.318 56.602 503.794 56.294C504.27 55.986 504.821 55.832 505.446 55.832C506.034 55.832 506.547 55.986 506.986 56.294C507.434 56.602 507.779 57.0313 508.022 57.582C508.265 58.1327 508.386 58.772 508.386 59.5C508.386 60.2187 508.265 60.858 508.022 61.418C507.779 61.9687 507.434 62.398 506.986 62.706C506.547 63.014 506.034 63.168 505.446 63.168ZM505.698 62.146C506.109 62.146 506.473 62.034 506.79 61.81C507.107 61.586 507.355 61.2733 507.532 60.872C507.719 60.4707 507.812 60.0133 507.812 59.5C507.812 58.9867 507.719 58.5293 507.532 58.128C507.355 57.7267 507.107 57.414 506.79 57.19C506.473 56.966 506.104 56.854 505.684 56.854C505.245 56.854 504.853 56.966 504.508 57.19C504.172 57.414 503.906 57.7267 503.71 58.128C503.514 58.5293 503.416 58.9867 503.416 59.5C503.416 60.0133 503.514 60.4707 503.71 60.872C503.906 61.2733 504.177 61.586 504.522 61.81C504.867 62.034 505.259 62.146 505.698 62.146ZM515.584 63L515.514 61.712V56H516.634V63H515.584ZM510.6 59.584V56H511.72V59.584H510.6ZM511.72 59.584C511.72 60.2747 511.799 60.802 511.958 61.166C512.116 61.53 512.336 61.782 512.616 61.922C512.905 62.0527 513.227 62.118 513.582 62.118C514.188 62.118 514.66 61.8987 514.996 61.46C515.341 61.0213 515.514 60.41 515.514 59.626H516.06C516.06 60.3633 515.952 60.998 515.738 61.53C515.523 62.062 515.21 62.468 514.8 62.748C514.398 63.028 513.904 63.168 513.316 63.168C512.774 63.168 512.298 63.0607 511.888 62.846C511.477 62.622 511.16 62.272 510.936 61.796C510.712 61.3107 510.6 60.6853 510.6 59.92V59.584H511.72ZM521.654 63.168C520.973 63.168 520.371 63.014 519.848 62.706C519.326 62.3887 518.915 61.9547 518.616 61.404C518.327 60.8533 518.182 60.2187 518.182 59.5C518.182 58.7813 518.327 58.1467 518.616 57.596C518.915 57.0453 519.321 56.616 519.834 56.308C520.357 55.9907 520.954 55.832 521.626 55.832C522.28 55.832 522.844 55.9953 523.32 56.322C523.796 56.6393 524.165 57.0873 524.426 57.666C524.688 58.2447 524.818 58.926 524.818 59.71H519.036L519.316 59.472C519.316 60.032 519.414 60.5127 519.61 60.914C519.816 61.3153 520.1 61.6233 520.464 61.838C520.828 62.0433 521.244 62.146 521.71 62.146C522.205 62.146 522.62 62.0293 522.956 61.796C523.302 61.5627 523.568 61.2547 523.754 60.872L524.72 61.362C524.543 61.726 524.305 62.0433 524.006 62.314C523.717 62.5847 523.372 62.7947 522.97 62.944C522.578 63.0933 522.14 63.168 521.654 63.168ZM519.386 58.996L519.092 58.772H523.922L523.628 59.01C523.628 58.562 523.54 58.1747 523.362 57.848C523.185 57.5213 522.947 57.2693 522.648 57.092C522.35 56.9147 522.004 56.826 521.612 56.826C521.23 56.826 520.866 56.9147 520.52 57.092C520.184 57.2693 519.909 57.5213 519.694 57.848C519.489 58.1653 519.386 58.548 519.386 58.996ZM528.681 63.168C528.168 63.168 527.72 63.0933 527.337 62.944C526.954 62.7853 526.632 62.58 526.371 62.328C526.119 62.076 525.937 61.8007 525.825 61.502L526.805 61.096C526.964 61.4133 527.202 61.67 527.519 61.866C527.836 62.062 528.186 62.16 528.569 62.16C529.008 62.16 529.376 62.076 529.675 61.908C529.974 61.7307 530.123 61.4833 530.123 61.166C530.123 60.8767 530.011 60.6433 529.787 60.466C529.572 60.2887 529.25 60.144 528.821 60.032L528.149 59.85C527.514 59.682 527.02 59.43 526.665 59.094C526.31 58.7487 526.133 58.3613 526.133 57.932C526.133 57.2693 526.348 56.756 526.777 56.392C527.216 56.0187 527.864 55.832 528.723 55.832C529.134 55.832 529.507 55.8927 529.843 56.014C530.179 56.1353 530.468 56.308 530.711 56.532C530.954 56.7467 531.131 57.0033 531.243 57.302L530.263 57.736C530.142 57.4187 529.941 57.19 529.661 57.05C529.381 56.91 529.04 56.84 528.639 56.84C528.21 56.84 527.874 56.9333 527.631 57.12C527.388 57.2973 527.267 57.5493 527.267 57.876C527.267 58.0627 527.365 58.24 527.561 58.408C527.766 58.5667 528.065 58.6973 528.457 58.8L529.157 58.982C529.614 59.094 529.997 59.262 530.305 59.486C530.613 59.7007 530.846 59.948 531.005 60.228C531.164 60.508 531.243 60.8067 531.243 61.124C531.243 61.544 531.131 61.908 530.907 62.216C530.683 62.524 530.38 62.762 529.997 62.93C529.614 63.0887 529.176 63.168 528.681 63.168ZM535.384 63.168C534.703 63.168 534.176 62.9907 533.802 62.636C533.429 62.2813 533.242 61.782 533.242 61.138V53.816H534.362V61.026C534.362 61.3807 534.456 61.656 534.642 61.852C534.838 62.0387 535.109 62.132 535.454 62.132C535.566 62.132 535.674 62.118 535.776 62.09C535.888 62.0527 536.033 61.9687 536.21 61.838L536.644 62.748C536.402 62.9067 536.182 63.014 535.986 63.07C535.79 63.1353 535.59 63.168 535.384 63.168ZM532.024 56.994V56H536.462V56.994H532.024ZM538.519 63.196C538.305 63.196 538.118 63.1213 537.959 62.972C537.81 62.8133 537.735 62.6313 537.735 62.426C537.735 62.2113 537.81 62.0293 537.959 61.88C538.118 61.7213 538.305 61.642 538.519 61.642C538.734 61.642 538.916 61.7213 539.065 61.88C539.215 62.0293 539.289 62.2113 539.289 62.426C539.289 62.6313 539.215 62.8133 539.065 62.972C538.916 63.1213 538.734 63.196 538.519 63.196Z" fill="#0A0B0D"/>
</g>
<defs>
<filter id="filter0_d_60_1241" x="0" y="0" width="717" height="93" filterUnits="userSpaceOnUse" color-interpolation-filters="sRGB">
<feFlood flood-opacity="0" result="BackgroundImageFix"/>
<feColorMatrix in="SourceAlpha" type="matrix" values="0 0 0 0 0 0 0 0 0 0 0 0 0 0 0 0 0 0 127 0" result="hardAlpha"/>
<feOffset dx="5" dy="5"/>
<feComposite in2="hardAlpha" operator="out"/>
<feColorMatrix type="matrix" values="0 0 0 0 0.0392157 0 0 0 0 0.0392157 0 0 0 0 0.0392157 0 0 0 1 0"/>
<feBlend mode="normal" in2="BackgroundImageFix" result="effect1_dropShadow_60_1241"/>
<feBlend mode="normal" in="SourceGraphic" in2="effect1_dropShadow_60_1241" result="shape"/>
</filter>
</defs>
</svg>
