<svg width="717" height="93" viewBox="0 0 717 93" fill="none" xmlns="http://www.w3.org/2000/svg">
<g opacity="0.98" filter="url(#filter0_d_60_1221)">
<path d="M0 8C0 3.58172 3.58172 0 8 0H704C708.418 0 712 3.58172 712 8V80C712 84.4183 708.418 88 704 88H8C3.58172 88 0 84.4183 0 80V8Z" fill="white" shape-rendering="crispEdges"/>
<path d="M8 0.5H704C708.142 0.5 711.5 3.85786 711.5 8V80C711.5 84.1421 708.142 87.5 704 87.5H8C3.85786 87.5 0.5 84.1421 0.5 80V8C0.5 3.85786 3.85786 0.5 8 0.5Z" stroke="#0A0A0A" shape-rendering="crispEdges"/>
<path d="M270.219 38.192C269.632 38.192 269.094 38.1227 268.603 37.984C268.123 37.8453 267.696 37.6533 267.323 37.408C266.96 37.1627 266.656 36.8907 266.411 36.592C266.176 36.2827 266.011 35.9627 265.915 35.632L267.739 35.072C267.878 35.4667 268.15 35.8133 268.555 36.112C268.96 36.4107 269.462 36.5653 270.059 36.576C270.752 36.576 271.302 36.432 271.707 36.144C272.112 35.856 272.315 35.4773 272.315 35.008C272.315 34.5813 272.144 34.2347 271.803 33.968C271.462 33.6907 271.003 33.4773 270.427 33.328L269.051 32.976C268.528 32.8373 268.054 32.6347 267.627 32.368C267.211 32.1013 266.88 31.7653 266.635 31.36C266.4 30.9547 266.283 30.4747 266.283 29.92C266.283 28.8747 266.624 28.064 267.307 27.488C267.99 26.9013 268.966 26.608 270.235 26.608C270.95 26.608 271.574 26.72 272.107 26.944C272.651 27.1573 273.099 27.456 273.451 27.84C273.803 28.2133 274.064 28.64 274.235 29.12L272.443 29.696C272.283 29.2693 272.006 28.9173 271.611 28.64C271.216 28.3627 270.726 28.224 270.139 28.224C269.531 28.224 269.051 28.368 268.699 28.656C268.358 28.944 268.187 29.344 268.187 29.856C268.187 30.272 268.32 30.5973 268.587 30.832C268.864 31.056 269.238 31.2267 269.707 31.344L271.083 31.68C272.086 31.9253 272.864 32.3467 273.419 32.944C273.974 33.5413 274.251 34.2027 274.251 34.928C274.251 35.568 274.096 36.1333 273.787 36.624C273.478 37.1147 273.019 37.4987 272.411 37.776C271.814 38.0533 271.083 38.192 270.219 38.192ZM281.329 38L281.233 36.528V30H283.009V38H281.329ZM275.793 34.096V30H277.585V34.096H275.793ZM277.585 34.096C277.585 34.7253 277.659 35.216 277.809 35.568C277.958 35.92 278.161 36.1653 278.417 36.304C278.683 36.4427 278.987 36.512 279.329 36.512C279.937 36.5227 280.406 36.3253 280.737 35.92C281.067 35.5147 281.233 34.9333 281.233 34.176H281.905C281.905 35.0187 281.777 35.744 281.521 36.352C281.275 36.9493 280.923 37.408 280.465 37.728C280.017 38.0373 279.473 38.192 278.833 38.192C278.203 38.192 277.659 38.064 277.201 37.808C276.753 37.552 276.406 37.152 276.161 36.608C275.915 36.064 275.793 35.3653 275.793 34.512V34.096H277.585ZM285.08 41.2V30H286.76L286.872 31.472V41.2H285.08ZM289.4 38.192C288.728 38.192 288.146 38.0213 287.656 37.68C287.176 37.328 286.808 36.8373 286.552 36.208C286.296 35.5787 286.168 34.8427 286.168 34C286.168 33.1467 286.296 32.4107 286.552 31.792C286.808 31.1627 287.176 30.6773 287.656 30.336C288.146 29.984 288.728 29.808 289.4 29.808C290.125 29.808 290.754 29.984 291.288 30.336C291.832 30.6773 292.253 31.1627 292.552 31.792C292.861 32.4107 293.016 33.1467 293.016 34C293.016 34.8427 292.861 35.5787 292.552 36.208C292.253 36.8373 291.832 37.328 291.288 37.68C290.754 38.0213 290.125 38.192 289.4 38.192ZM288.952 36.56C289.378 36.56 289.757 36.4533 290.088 36.24C290.418 36.016 290.68 35.712 290.872 35.328C291.074 34.944 291.176 34.5013 291.176 34C291.176 33.4987 291.08 33.056 290.888 32.672C290.706 32.288 290.45 31.9893 290.12 31.776C289.789 31.5627 289.405 31.456 288.968 31.456C288.562 31.456 288.2 31.5627 287.88 31.776C287.56 31.9893 287.309 32.288 287.128 32.672C286.957 33.056 286.872 33.4987 286.872 34C286.872 34.5013 286.957 34.944 287.128 35.328C287.309 35.712 287.554 36.016 287.864 36.24C288.184 36.4533 288.546 36.56 288.952 36.56ZM294.627 41.2V30H296.307L296.419 31.472V41.2H294.627ZM298.947 38.192C298.275 38.192 297.693 38.0213 297.203 37.68C296.723 37.328 296.355 36.8373 296.099 36.208C295.843 35.5787 295.715 34.8427 295.715 34C295.715 33.1467 295.843 32.4107 296.099 31.792C296.355 31.1627 296.723 30.6773 297.203 30.336C297.693 29.984 298.275 29.808 298.947 29.808C299.672 29.808 300.301 29.984 300.835 30.336C301.379 30.6773 301.8 31.1627 302.099 31.792C302.408 32.4107 302.563 33.1467 302.563 34C302.563 34.8427 302.408 35.5787 302.099 36.208C301.8 36.8373 301.379 37.328 300.835 37.68C300.301 38.0213 299.672 38.192 298.947 38.192ZM298.499 36.56C298.925 36.56 299.304 36.4533 299.635 36.24C299.965 36.016 300.227 35.712 300.419 35.328C300.621 34.944 300.723 34.5013 300.723 34C300.723 33.4987 300.627 33.056 300.435 32.672C300.253 32.288 299.997 31.9893 299.667 31.776C299.336 31.5627 298.952 31.456 298.515 31.456C298.109 31.456 297.747 31.5627 297.427 31.776C297.107 31.9893 296.856 32.288 296.675 32.672C296.504 33.056 296.419 33.4987 296.419 34C296.419 34.5013 296.504 34.944 296.675 35.328C296.856 35.712 297.101 36.016 297.411 36.24C297.731 36.4533 298.093 36.56 298.499 36.56ZM307.774 38.192C306.974 38.192 306.259 38.016 305.63 37.664C305.011 37.3013 304.526 36.8053 304.174 36.176C303.822 35.5467 303.646 34.8213 303.646 34C303.646 33.1787 303.816 32.4533 304.158 31.824C304.51 31.1947 304.995 30.704 305.614 30.352C306.232 29.9893 306.942 29.808 307.742 29.808C308.542 29.808 309.251 29.9893 309.87 30.352C310.488 30.704 310.968 31.1947 311.31 31.824C311.662 32.4533 311.838 33.1787 311.838 34C311.838 34.8213 311.667 35.5467 311.326 36.176C310.984 36.8053 310.504 37.3013 309.886 37.664C309.267 38.016 308.563 38.192 307.774 38.192ZM307.774 36.544C308.211 36.544 308.6 36.4373 308.942 36.224C309.283 36 309.55 35.7013 309.742 35.328C309.934 34.944 310.03 34.5013 310.03 34C310.03 33.4987 309.928 33.0613 309.726 32.688C309.534 32.304 309.267 32.0053 308.926 31.792C308.584 31.568 308.19 31.456 307.742 31.456C307.294 31.456 306.899 31.5627 306.558 31.776C306.216 31.9893 305.95 32.288 305.758 32.672C305.566 33.056 305.47 33.4987 305.47 34C305.47 34.5013 305.566 34.944 305.758 35.328C305.96 35.7013 306.232 36 306.574 36.224C306.926 36.4373 307.326 36.544 307.774 36.544ZM314.574 33.744C314.574 32.88 314.74 32.1707 315.07 31.616C315.401 31.0613 315.828 30.6507 316.35 30.384C316.884 30.1067 317.438 29.968 318.014 29.968V31.68C317.524 31.68 317.06 31.7493 316.622 31.888C316.196 32.016 315.849 32.2293 315.582 32.528C315.316 32.8267 315.182 33.2213 315.182 33.712L314.574 33.744ZM313.39 38V30H315.182V38H313.39ZM322.387 38.192C321.544 38.192 320.899 37.984 320.451 37.568C320.014 37.1413 319.795 36.5333 319.795 35.744V27.504H321.571V35.408C321.571 35.7813 321.656 36.064 321.827 36.256C322.008 36.448 322.27 36.544 322.611 36.544C322.718 36.544 322.835 36.5227 322.963 36.48C323.091 36.4373 323.235 36.3573 323.395 36.24L324.051 37.6C323.774 37.792 323.496 37.936 323.219 38.032C322.942 38.1387 322.664 38.192 322.387 38.192ZM318.467 31.536V30H323.731V31.536H318.467ZM325.596 38V30H327.372V38H325.596ZM326.492 28.48C326.204 28.48 325.954 28.3787 325.74 28.176C325.538 27.9627 325.436 27.712 325.436 27.424C325.436 27.136 325.538 26.8907 325.74 26.688C325.954 26.4853 326.204 26.384 326.492 26.384C326.78 26.384 327.026 26.4853 327.228 26.688C327.442 26.8907 327.548 27.136 327.548 27.424C327.548 27.712 327.442 27.9627 327.228 28.176C327.026 28.3787 326.78 28.48 326.492 28.48ZM329.484 38V30H331.164L331.276 31.472V38H329.484ZM334.908 38V33.904H336.7V38H334.908ZM334.908 33.904C334.908 33.264 334.834 32.7733 334.684 32.432C334.546 32.08 334.343 31.8347 334.076 31.696C333.82 31.5573 333.516 31.488 333.164 31.488C332.567 31.4773 332.103 31.6747 331.772 32.08C331.442 32.4853 331.276 33.0667 331.276 33.824H330.604C330.604 32.9813 330.727 32.2613 330.972 31.664C331.218 31.056 331.57 30.5973 332.028 30.288C332.487 29.968 333.031 29.808 333.66 29.808C334.3 29.808 334.844 29.936 335.292 30.192C335.751 30.448 336.098 30.848 336.332 31.392C336.578 31.9253 336.7 32.624 336.7 33.488V33.904H334.908ZM341.955 41.408C341.39 41.408 340.878 41.36 340.419 41.264C339.971 41.168 339.593 41.056 339.283 40.928C338.974 40.8 338.734 40.6773 338.563 40.56L339.251 39.12C339.401 39.1947 339.598 39.2853 339.843 39.392C340.099 39.5093 340.398 39.6107 340.739 39.696C341.081 39.7813 341.465 39.824 341.891 39.824C342.35 39.824 342.761 39.728 343.123 39.536C343.486 39.3547 343.769 39.072 343.971 38.688C344.174 38.304 344.275 37.8133 344.275 37.216V30H346.067V37.168C346.067 38.0747 345.897 38.8427 345.555 39.472C345.214 40.112 344.734 40.592 344.115 40.912C343.497 41.2427 342.777 41.408 341.955 41.408ZM341.683 37.84C340.958 37.84 340.323 37.6747 339.779 37.344C339.246 37.0133 338.825 36.5547 338.515 35.968C338.217 35.3707 338.067 34.6827 338.067 33.904C338.067 33.072 338.217 32.352 338.515 31.744C338.825 31.136 339.246 30.6613 339.779 30.32C340.323 29.9787 340.958 29.808 341.683 29.808C342.334 29.808 342.899 29.9787 343.379 30.32C343.87 30.6613 344.249 31.1413 344.515 31.76C344.782 32.368 344.915 33.088 344.915 33.92C344.915 34.7093 344.782 35.3973 344.515 35.984C344.249 36.5707 343.87 37.0293 343.379 37.36C342.899 37.68 342.334 37.84 341.683 37.84ZM342.179 36.32C342.585 36.32 342.937 36.2133 343.235 36C343.545 35.7867 343.785 35.4987 343.955 35.136C344.126 34.7627 344.211 34.336 344.211 33.856C344.211 33.3653 344.126 32.9387 343.955 32.576C343.785 32.2027 343.545 31.9147 343.235 31.712C342.926 31.4987 342.569 31.392 342.163 31.392C341.737 31.392 341.358 31.4987 341.027 31.712C340.707 31.9147 340.451 32.2027 340.259 32.576C340.078 32.9387 339.987 33.3653 339.987 33.856C339.987 34.336 340.078 34.7627 340.259 35.136C340.451 35.4987 340.713 35.7867 341.043 36C341.374 36.2133 341.753 36.32 342.179 36.32ZM354.818 38.192C354.285 38.192 353.794 38.112 353.346 37.952C352.898 37.792 352.514 37.568 352.194 37.28C351.874 36.9813 351.629 36.6347 351.458 36.24L353.01 35.552C353.17 35.8507 353.405 36.1013 353.714 36.304C354.034 36.5067 354.386 36.608 354.77 36.608C355.186 36.608 355.517 36.5387 355.762 36.4C356.018 36.2507 356.146 36.048 356.146 35.792C356.146 35.5467 356.05 35.36 355.858 35.232C355.666 35.0933 355.394 34.9813 355.042 34.896L354.29 34.688C353.533 34.496 352.941 34.192 352.514 33.776C352.087 33.3493 351.874 32.864 351.874 32.32C351.874 31.52 352.13 30.9013 352.642 30.464C353.165 30.0267 353.911 29.808 354.882 29.808C355.373 29.808 355.821 29.8827 356.226 30.032C356.642 30.1707 356.999 30.3733 357.298 30.64C357.597 30.896 357.805 31.2 357.922 31.552L356.434 32.224C356.327 31.9573 356.125 31.7547 355.826 31.616C355.527 31.4667 355.197 31.392 354.834 31.392C354.471 31.392 354.189 31.472 353.986 31.632C353.783 31.7813 353.682 31.9947 353.682 32.272C353.682 32.432 353.773 32.5813 353.954 32.72C354.135 32.848 354.397 32.9547 354.738 33.04L355.682 33.264C356.205 33.392 356.631 33.5947 356.962 33.872C357.293 34.1387 357.538 34.4427 357.698 34.784C357.858 35.1147 357.938 35.4507 357.938 35.792C357.938 36.272 357.799 36.6933 357.522 37.056C357.255 37.4187 356.887 37.7013 356.418 37.904C355.949 38.096 355.415 38.192 354.818 38.192ZM363.039 38.192C362.239 38.192 361.525 38.016 360.895 37.664C360.277 37.3013 359.791 36.8053 359.439 36.176C359.087 35.5467 358.911 34.8213 358.911 34C358.911 33.1787 359.082 32.4533 359.423 31.824C359.775 31.1947 360.261 30.704 360.879 30.352C361.498 29.9893 362.207 29.808 363.007 29.808C363.807 29.808 364.517 29.9893 365.135 30.352C365.754 30.704 366.234 31.1947 366.575 31.824C366.927 32.4533 367.103 33.1787 367.103 34C367.103 34.8213 366.933 35.5467 366.591 36.176C366.25 36.8053 365.77 37.3013 365.151 37.664C364.533 38.016 363.829 38.192 363.039 38.192ZM363.039 36.544C363.477 36.544 363.866 36.4373 364.207 36.224C364.549 36 364.815 35.7013 365.007 35.328C365.199 34.944 365.295 34.5013 365.295 34C365.295 33.4987 365.194 33.0613 364.991 32.688C364.799 32.304 364.533 32.0053 364.191 31.792C363.85 31.568 363.455 31.456 363.007 31.456C362.559 31.456 362.165 31.5627 361.823 31.776C361.482 31.9893 361.215 32.288 361.023 32.672C360.831 33.056 360.735 33.4987 360.735 34C360.735 34.5013 360.831 34.944 361.023 35.328C361.226 35.7013 361.498 36 361.839 36.224C362.191 36.4373 362.591 36.544 363.039 36.544ZM374.016 38L373.92 36.528V30H375.696V38H374.016ZM368.48 34.096V30H370.272V34.096H368.48ZM370.272 34.096C370.272 34.7253 370.347 35.216 370.496 35.568C370.645 35.92 370.848 36.1653 371.104 36.304C371.371 36.4427 371.675 36.512 372.016 36.512C372.624 36.5227 373.093 36.3253 373.424 35.92C373.755 35.5147 373.92 34.9333 373.92 34.176H374.592C374.592 35.0187 374.464 35.744 374.208 36.352C373.963 36.9493 373.611 37.408 373.152 37.728C372.704 38.0373 372.16 38.192 371.52 38.192C370.891 38.192 370.347 38.064 369.888 37.808C369.44 37.552 369.093 37.152 368.848 36.608C368.603 36.064 368.48 35.3653 368.48 34.512V34.096H370.272ZM378.871 33.744C378.871 32.88 379.037 32.1707 379.367 31.616C379.698 31.0613 380.125 30.6507 380.647 30.384C381.181 30.1067 381.735 29.968 382.311 29.968V31.68C381.821 31.68 381.357 31.7493 380.919 31.888C380.493 32.016 380.146 32.2293 379.879 32.528C379.613 32.8267 379.479 33.2213 379.479 33.712L378.871 33.744ZM377.687 38V30H379.479V38H377.687ZM387.244 38.192C386.422 38.192 385.697 38.016 385.068 37.664C384.438 37.3013 383.942 36.8053 383.58 36.176C383.228 35.5467 383.052 34.8213 383.052 34C383.052 33.1787 383.228 32.4533 383.58 31.824C383.942 31.1947 384.433 30.704 385.052 30.352C385.681 29.9893 386.401 29.808 387.212 29.808C388.001 29.808 388.716 30 389.356 30.384C389.996 30.7573 390.47 31.296 390.78 32L389.116 32.64C388.945 32.288 388.684 32.0053 388.332 31.792C387.98 31.5787 387.58 31.472 387.132 31.472C386.694 31.472 386.305 31.584 385.964 31.808C385.622 32.0213 385.356 32.32 385.164 32.704C384.972 33.0773 384.876 33.5093 384.876 34C384.876 34.4907 384.972 34.928 385.164 35.312C385.366 35.6853 385.638 35.984 385.98 36.208C386.332 36.4213 386.726 36.528 387.164 36.528C387.612 36.528 388.012 36.416 388.364 36.192C388.716 35.9573 388.977 35.6427 389.148 35.248L390.812 35.888C390.502 36.6133 390.028 37.1787 389.388 37.584C388.758 37.9893 388.044 38.192 387.244 38.192ZM395.771 38.192C394.992 38.192 394.299 38.016 393.691 37.664C393.094 37.3013 392.619 36.8053 392.267 36.176C391.926 35.5467 391.755 34.8213 391.755 34C391.755 33.1787 391.931 32.4533 392.283 31.824C392.635 31.1947 393.115 30.704 393.723 30.352C394.342 29.9893 395.046 29.808 395.835 29.808C396.55 29.808 397.195 29.9947 397.771 30.368C398.347 30.7307 398.8 31.2587 399.131 31.952C399.472 32.6453 399.643 33.472 399.643 34.432H393.355L393.595 34.208C393.595 34.6987 393.702 35.1253 393.915 35.488C394.128 35.84 394.411 36.112 394.763 36.304C395.115 36.496 395.504 36.592 395.931 36.592C396.422 36.592 396.827 36.4853 397.147 36.272C397.467 36.048 397.718 35.76 397.899 35.408L399.483 36.08C399.259 36.5067 398.971 36.88 398.619 37.2C398.278 37.52 397.867 37.7653 397.387 37.936C396.918 38.1067 396.379 38.192 395.771 38.192ZM393.707 33.28L393.451 33.056H397.963L397.723 33.28C397.723 32.8427 397.627 32.4853 397.435 32.208C397.243 31.92 396.998 31.7067 396.699 31.568C396.411 31.4187 396.107 31.344 395.787 31.344C395.467 31.344 395.147 31.4187 394.827 31.568C394.507 31.7067 394.24 31.92 394.027 32.208C393.814 32.4853 393.707 32.8427 393.707 33.28ZM404.123 39.344L408.539 26.048H410.283L405.899 39.344H404.123ZM421.151 38L421.071 36.512V26.8H422.847V38H421.151ZM418.543 38.192C417.817 38.192 417.183 38.0213 416.639 37.68C416.105 37.328 415.684 36.8373 415.375 36.208C415.076 35.5787 414.927 34.8427 414.927 34C414.927 33.1467 415.076 32.4107 415.375 31.792C415.684 31.1627 416.105 30.6773 416.639 30.336C417.183 29.984 417.817 29.808 418.543 29.808C419.215 29.808 419.791 29.984 420.271 30.336C420.761 30.6773 421.135 31.1627 421.391 31.792C421.647 32.4107 421.775 33.1467 421.775 34C421.775 34.8427 421.647 35.5787 421.391 36.208C421.135 36.8373 420.761 37.328 420.271 37.68C419.791 38.0213 419.215 38.192 418.543 38.192ZM418.991 36.56C419.396 36.56 419.753 36.4533 420.063 36.24C420.383 36.016 420.628 35.712 420.799 35.328C420.98 34.944 421.071 34.5013 421.071 34C421.071 33.4987 420.98 33.056 420.799 32.672C420.628 32.288 420.383 31.9893 420.063 31.776C419.753 31.5627 419.391 31.456 418.975 31.456C418.548 31.456 418.169 31.5627 417.839 31.776C417.508 31.9893 417.247 32.288 417.055 32.672C416.873 33.056 416.777 33.4987 416.767 34C416.777 34.5013 416.873 34.944 417.055 35.328C417.247 35.712 417.508 36.016 417.839 36.24C418.18 36.4533 418.564 36.56 418.991 36.56ZM429.708 38L429.628 36.496V33.888C429.628 33.344 429.569 32.8907 429.452 32.528C429.345 32.1547 429.164 31.872 428.908 31.68C428.663 31.4773 428.332 31.376 427.916 31.376C427.532 31.376 427.196 31.456 426.908 31.616C426.62 31.776 426.375 32.0267 426.172 32.368L424.604 31.792C424.775 31.44 424.999 31.1147 425.276 30.816C425.564 30.5067 425.921 30.2613 426.348 30.08C426.785 29.8987 427.308 29.808 427.916 29.808C428.695 29.808 429.345 29.9627 429.868 30.272C430.391 30.5707 430.775 31.0027 431.02 31.568C431.276 32.1333 431.404 32.816 431.404 33.616L431.356 38H429.708ZM427.404 38.192C426.444 38.192 425.697 37.9787 425.164 37.552C424.641 37.1253 424.38 36.5227 424.38 35.744C424.38 34.912 424.657 34.2773 425.212 33.84C425.777 33.4027 426.561 33.184 427.564 33.184H429.708V34.56H428.14C427.425 34.56 426.924 34.6613 426.636 34.864C426.348 35.056 426.204 35.3333 426.204 35.696C426.204 36.0053 426.327 36.2507 426.572 36.432C426.828 36.6027 427.18 36.688 427.628 36.688C428.033 36.688 428.385 36.5973 428.684 36.416C428.983 36.2347 429.212 35.9947 429.372 35.696C429.543 35.3973 429.628 35.0613 429.628 34.688H430.156C430.156 35.776 429.937 36.6347 429.5 37.264C429.063 37.8827 428.364 38.192 427.404 38.192ZM436.403 38.192C435.56 38.192 434.915 37.984 434.467 37.568C434.029 37.1413 433.811 36.5333 433.811 35.744V27.504H435.587V35.408C435.587 35.7813 435.672 36.064 435.843 36.256C436.024 36.448 436.285 36.544 436.627 36.544C436.733 36.544 436.851 36.5227 436.979 36.48C437.107 36.4373 437.251 36.3573 437.411 36.24L438.067 37.6C437.789 37.792 437.512 37.936 437.235 38.032C436.957 38.1387 436.68 38.192 436.403 38.192ZM432.483 31.536V30H437.747V31.536H432.483ZM444.27 38L444.19 36.496V33.888C444.19 33.344 444.132 32.8907 444.014 32.528C443.908 32.1547 443.726 31.872 443.47 31.68C443.225 31.4773 442.894 31.376 442.478 31.376C442.094 31.376 441.758 31.456 441.47 31.616C441.182 31.776 440.937 32.0267 440.734 32.368L439.166 31.792C439.337 31.44 439.561 31.1147 439.838 30.816C440.126 30.5067 440.484 30.2613 440.91 30.08C441.348 29.8987 441.87 29.808 442.478 29.808C443.257 29.808 443.908 29.9627 444.43 30.272C444.953 30.5707 445.337 31.0027 445.582 31.568C445.838 32.1333 445.966 32.816 445.966 33.616L445.918 38H444.27ZM441.966 38.192C441.006 38.192 440.26 37.9787 439.726 37.552C439.204 37.1253 438.942 36.5227 438.942 35.744C438.942 34.912 439.22 34.2773 439.774 33.84C440.34 33.4027 441.124 33.184 442.126 33.184H444.27V34.56H442.702C441.988 34.56 441.486 34.6613 441.198 34.864C440.91 35.056 440.766 35.3333 440.766 35.696C440.766 36.0053 440.889 36.2507 441.134 36.432C441.39 36.6027 441.742 36.688 442.19 36.688C442.596 36.688 442.948 36.5973 443.246 36.416C443.545 36.2347 443.774 35.9947 443.934 35.696C444.105 35.3973 444.19 35.0613 444.19 34.688H444.718C444.718 35.776 444.5 36.6347 444.062 37.264C443.625 37.8827 442.926 38.192 441.966 38.192Z" fill="#0A0B0D"/>
<path d="M216.776 63V53.2H222.572V54.278H217.966V57.442H222.166V58.506H217.966V61.922H222.6V63H216.776ZM226.881 63L229.737 56H230.913L227.987 63H226.881ZM226.811 63L223.885 56H225.047L227.903 63H226.811ZM232.082 63V56H233.202V63H232.082ZM232.656 54.376C232.47 54.376 232.306 54.306 232.166 54.166C232.026 54.026 231.956 53.8627 231.956 53.676C231.956 53.48 232.026 53.3167 232.166 53.186C232.306 53.046 232.47 52.976 232.656 52.976C232.852 52.976 233.016 53.046 233.146 53.186C233.286 53.3167 233.356 53.48 233.356 53.676C233.356 53.8627 233.286 54.026 233.146 54.166C233.016 54.306 232.852 54.376 232.656 54.376ZM240.446 63L240.39 61.698V53.2H241.51V63H240.446ZM238.024 63.168C237.399 63.168 236.848 63.014 236.372 62.706C235.896 62.398 235.523 61.9687 235.252 61.418C234.991 60.858 234.86 60.2187 234.86 59.5C234.86 58.772 234.991 58.1327 235.252 57.582C235.523 57.0313 235.896 56.602 236.372 56.294C236.848 55.986 237.399 55.832 238.024 55.832C238.612 55.832 239.125 55.986 239.564 56.294C240.012 56.602 240.357 57.0313 240.6 57.582C240.843 58.1327 240.964 58.772 240.964 59.5C240.964 60.2187 240.843 60.858 240.6 61.418C240.357 61.9687 240.012 62.398 239.564 62.706C239.125 63.014 238.612 63.168 238.024 63.168ZM238.276 62.146C238.687 62.146 239.051 62.034 239.368 61.81C239.685 61.586 239.933 61.2733 240.11 60.872C240.297 60.4707 240.39 60.0133 240.39 59.5C240.39 58.9867 240.297 58.5293 240.11 58.128C239.933 57.7267 239.685 57.414 239.368 57.19C239.051 56.966 238.682 56.854 238.262 56.854C237.823 56.854 237.431 56.966 237.086 57.19C236.75 57.414 236.484 57.7267 236.288 58.128C236.092 58.5293 235.994 58.9867 235.994 59.5C235.994 60.0133 236.092 60.4707 236.288 60.872C236.484 61.2733 236.755 61.586 237.1 61.81C237.445 62.034 237.837 62.146 238.276 62.146ZM246.535 63.168C245.854 63.168 245.252 63.014 244.729 62.706C244.207 62.3887 243.796 61.9547 243.497 61.404C243.208 60.8533 243.063 60.2187 243.063 59.5C243.063 58.7813 243.208 58.1467 243.497 57.596C243.796 57.0453 244.202 56.616 244.715 56.308C245.238 55.9907 245.835 55.832 246.507 55.832C247.161 55.832 247.725 55.9953 248.201 56.322C248.677 56.6393 249.046 57.0873 249.307 57.666C249.569 58.2447 249.699 58.926 249.699 59.71H243.917L244.197 59.472C244.197 60.032 244.295 60.5127 244.491 60.914C244.697 61.3153 244.981 61.6233 245.345 61.838C245.709 62.0433 246.125 62.146 246.591 62.146C247.086 62.146 247.501 62.0293 247.837 61.796C248.183 61.5627 248.449 61.2547 248.635 60.872L249.601 61.362C249.424 61.726 249.186 62.0433 248.887 62.314C248.598 62.5847 248.253 62.7947 247.851 62.944C247.459 63.0933 247.021 63.168 246.535 63.168ZM244.267 58.996L243.973 58.772H248.803L248.509 59.01C248.509 58.562 248.421 58.1747 248.243 57.848C248.066 57.5213 247.828 57.2693 247.529 57.092C247.231 56.9147 246.885 56.826 246.493 56.826C246.111 56.826 245.747 56.9147 245.401 57.092C245.065 57.2693 244.79 57.5213 244.575 57.848C244.37 58.1653 244.267 58.548 244.267 58.996ZM251.112 63V56H252.162L252.232 57.288V63H251.112ZM256.026 63V59.416H257.146V63H256.026ZM256.026 59.416C256.026 58.7253 255.947 58.198 255.788 57.834C255.629 57.47 255.41 57.2227 255.13 57.092C254.85 56.952 254.533 56.882 254.178 56.882C253.562 56.882 253.081 57.1013 252.736 57.54C252.4 57.9693 252.232 58.5807 252.232 59.374H251.686C251.686 58.6367 251.793 58.002 252.008 57.47C252.223 56.938 252.535 56.532 252.946 56.252C253.357 55.972 253.851 55.832 254.43 55.832C254.981 55.832 255.457 55.944 255.858 56.168C256.269 56.3827 256.586 56.728 256.81 57.204C257.043 57.68 257.155 58.3053 257.146 59.08V59.416H256.026ZM262.04 63.168C261.35 63.168 260.738 63.014 260.206 62.706C259.674 62.3887 259.259 61.9547 258.96 61.404C258.662 60.8533 258.512 60.2187 258.512 59.5C258.512 58.7813 258.657 58.1467 258.946 57.596C259.245 57.0453 259.66 56.616 260.192 56.308C260.724 55.9907 261.331 55.832 262.012 55.832C262.684 55.832 263.286 55.986 263.818 56.294C264.35 56.602 264.756 57.036 265.036 57.596L264.014 58.058C263.828 57.6847 263.557 57.3953 263.202 57.19C262.848 56.9753 262.442 56.868 261.984 56.868C261.527 56.868 261.121 56.98 260.766 57.204C260.421 57.428 260.146 57.7407 259.94 58.142C259.744 58.534 259.646 58.9867 259.646 59.5C259.646 60.0133 259.744 60.4707 259.94 60.872C260.146 61.264 260.426 61.572 260.78 61.796C261.144 62.02 261.555 62.132 262.012 62.132C262.47 62.132 262.876 62.0153 263.23 61.782C263.594 61.5487 263.87 61.222 264.056 60.802L265.078 61.264C264.798 61.8613 264.392 62.328 263.86 62.664C263.328 63 262.722 63.168 262.04 63.168ZM269.559 63.168C268.877 63.168 268.275 63.014 267.753 62.706C267.23 62.3887 266.819 61.9547 266.521 61.404C266.231 60.8533 266.087 60.2187 266.087 59.5C266.087 58.7813 266.231 58.1467 266.521 57.596C266.819 57.0453 267.225 56.616 267.739 56.308C268.261 55.9907 268.859 55.832 269.531 55.832C270.184 55.832 270.749 55.9953 271.225 56.322C271.701 56.6393 272.069 57.0873 272.331 57.666C272.592 58.2447 272.723 58.926 272.723 59.71H266.941L267.221 59.472C267.221 60.032 267.319 60.5127 267.515 60.914C267.72 61.3153 268.005 61.6233 268.369 61.838C268.733 62.0433 269.148 62.146 269.615 62.146C270.109 62.146 270.525 62.0293 270.861 61.796C271.206 61.5627 271.472 61.2547 271.659 60.872L272.625 61.362C272.447 61.726 272.209 62.0433 271.911 62.314C271.621 62.5847 271.276 62.7947 270.875 62.944C270.483 63.0933 270.044 63.168 269.559 63.168ZM267.291 58.996L266.997 58.772H271.827L271.533 59.01C271.533 58.562 271.444 58.1747 271.267 57.848C271.089 57.5213 270.851 57.2693 270.553 57.092C270.254 56.9147 269.909 56.826 269.517 56.826C269.134 56.826 268.77 56.9147 268.425 57.092C268.089 57.2693 267.813 57.5213 267.599 57.848C267.393 58.1653 267.291 58.548 267.291 58.996ZM280.226 63.168C279.545 63.168 279.018 62.9907 278.644 62.636C278.271 62.2813 278.084 61.782 278.084 61.138V53.816H279.204V61.026C279.204 61.3807 279.298 61.656 279.484 61.852C279.68 62.0387 279.951 62.132 280.296 62.132C280.408 62.132 280.516 62.118 280.618 62.09C280.73 62.0527 280.875 61.9687 281.052 61.838L281.486 62.748C281.244 62.9067 281.024 63.014 280.828 63.07C280.632 63.1353 280.432 63.168 280.226 63.168ZM276.866 56.994V56H281.304V56.994H276.866ZM282.885 63V53.2H284.005V63H282.885ZM287.813 63V59.416H288.933V63H287.813ZM287.813 59.416C287.813 58.7253 287.729 58.198 287.561 57.834C287.403 57.47 287.183 57.2227 286.903 57.092C286.623 56.952 286.306 56.882 285.951 56.882C285.335 56.882 284.855 57.1013 284.509 57.54C284.173 57.9693 284.005 58.5807 284.005 59.374H283.459C283.459 58.6367 283.567 58.002 283.781 57.47C284.005 56.938 284.323 56.532 284.733 56.252C285.144 55.972 285.639 55.832 286.217 55.832C286.759 55.832 287.235 55.944 287.645 56.168C288.056 56.3827 288.373 56.728 288.597 57.204C288.831 57.68 288.943 58.3053 288.933 59.08V59.416H287.813ZM295.004 63L294.948 61.852V59.304C294.948 58.7533 294.887 58.3007 294.766 57.946C294.645 57.582 294.453 57.3067 294.192 57.12C293.931 56.9333 293.59 56.84 293.17 56.84C292.787 56.84 292.456 56.9193 292.176 57.078C291.905 57.2273 291.681 57.47 291.504 57.806L290.496 57.414C290.673 57.0873 290.888 56.8073 291.14 56.574C291.392 56.3313 291.686 56.1493 292.022 56.028C292.358 55.8973 292.741 55.832 293.17 55.832C293.823 55.832 294.36 55.9627 294.78 56.224C295.209 56.476 295.531 56.854 295.746 57.358C295.961 57.8527 296.063 58.4687 296.054 59.206L296.04 63H295.004ZM292.904 63.168C292.083 63.168 291.439 62.9813 290.972 62.608C290.515 62.2253 290.286 61.698 290.286 61.026C290.286 60.3167 290.519 59.7753 290.986 59.402C291.462 59.0193 292.125 58.828 292.974 58.828H294.976V59.766H293.226C292.573 59.766 292.106 59.8733 291.826 60.088C291.555 60.3027 291.42 60.6107 291.42 61.012C291.42 61.376 291.555 61.6653 291.826 61.88C292.097 62.0853 292.475 62.188 292.96 62.188C293.361 62.188 293.711 62.104 294.01 61.936C294.309 61.7587 294.537 61.5113 294.696 61.194C294.864 60.8673 294.948 60.4847 294.948 60.046H295.424C295.424 60.998 295.209 61.7587 294.78 62.328C294.351 62.888 293.725 63.168 292.904 63.168ZM300.461 63.168C299.779 63.168 299.252 62.9907 298.879 62.636C298.505 62.2813 298.319 61.782 298.319 61.138V53.816H299.439V61.026C299.439 61.3807 299.532 61.656 299.719 61.852C299.915 62.0387 300.185 62.132 300.531 62.132C300.643 62.132 300.75 62.118 300.853 62.09C300.965 62.0527 301.109 61.9687 301.287 61.838L301.721 62.748C301.478 62.9067 301.259 63.014 301.063 63.07C300.867 63.1353 300.666 63.168 300.461 63.168ZM297.101 56.994V56H301.539V56.994H297.101ZM306.579 63V53.2H307.699V63H306.579ZM311.507 63V59.416H312.627V63H311.507ZM311.507 59.416C311.507 58.7253 311.423 58.198 311.255 57.834C311.096 57.47 310.877 57.2227 310.597 57.092C310.317 56.952 309.999 56.882 309.645 56.882C309.029 56.882 308.548 57.1013 308.203 57.54C307.867 57.9693 307.699 58.5807 307.699 59.374H307.153C307.153 58.6367 307.26 58.002 307.475 57.47C307.699 56.938 308.016 56.532 308.427 56.252C308.837 55.972 309.332 55.832 309.911 55.832C310.452 55.832 310.928 55.944 311.339 56.168C311.749 56.3827 312.067 56.728 312.291 57.204C312.524 57.68 312.636 58.3053 312.627 59.08V59.416H311.507ZM317.451 63.168C316.77 63.168 316.168 63.014 315.645 62.706C315.123 62.3887 314.712 61.9547 314.413 61.404C314.124 60.8533 313.979 60.2187 313.979 59.5C313.979 58.7813 314.124 58.1467 314.413 57.596C314.712 57.0453 315.118 56.616 315.631 56.308C316.154 55.9907 316.751 55.832 317.423 55.832C318.077 55.832 318.641 55.9953 319.117 56.322C319.593 56.6393 319.962 57.0873 320.223 57.666C320.485 58.2447 320.615 58.926 320.615 59.71H314.833L315.113 59.472C315.113 60.032 315.211 60.5127 315.407 60.914C315.613 61.3153 315.897 61.6233 316.261 61.838C316.625 62.0433 317.041 62.146 317.507 62.146C318.002 62.146 318.417 62.0293 318.753 61.796C319.099 61.5627 319.365 61.2547 319.551 60.872L320.517 61.362C320.34 61.726 320.102 62.0433 319.803 62.314C319.514 62.5847 319.169 62.7947 318.767 62.944C318.375 63.0933 317.937 63.168 317.451 63.168ZM315.183 58.996L314.889 58.772H319.719L319.425 59.01C319.425 58.562 319.337 58.1747 319.159 57.848C318.982 57.5213 318.744 57.2693 318.445 57.092C318.147 56.9147 317.801 56.826 317.409 56.826C317.027 56.826 316.663 56.9147 316.317 57.092C315.981 57.2693 315.706 57.5213 315.491 57.848C315.286 58.1653 315.183 58.548 315.183 58.996ZM322.028 63V53.2H323.148V63H322.028ZM325.174 65.8V56H326.224L326.294 57.288V65.8H325.174ZM328.66 63.168C328.072 63.168 327.554 63.014 327.106 62.706C326.667 62.398 326.327 61.9687 326.084 61.418C325.841 60.858 325.72 60.2187 325.72 59.5C325.72 58.772 325.841 58.1327 326.084 57.582C326.327 57.0313 326.667 56.602 327.106 56.294C327.554 55.986 328.072 55.832 328.66 55.832C329.285 55.832 329.836 55.986 330.312 56.294C330.788 56.602 331.157 57.0313 331.418 57.582C331.689 58.1327 331.824 58.772 331.824 59.5C331.824 60.2187 331.689 60.858 331.418 61.418C331.157 61.9687 330.788 62.398 330.312 62.706C329.836 63.014 329.285 63.168 328.66 63.168ZM328.408 62.146C328.847 62.146 329.234 62.034 329.57 61.81C329.915 61.586 330.186 61.2733 330.382 60.872C330.587 60.4707 330.69 60.0133 330.69 59.5C330.69 58.9867 330.592 58.5293 330.396 58.128C330.209 57.7267 329.943 57.414 329.598 57.19C329.253 56.966 328.861 56.854 328.422 56.854C328.011 56.854 327.643 56.966 327.316 57.19C326.999 57.414 326.747 57.7267 326.56 58.128C326.383 58.5293 326.294 58.9867 326.294 59.5C326.294 60.0133 326.383 60.4707 326.56 60.872C326.747 61.2733 326.999 61.586 327.316 61.81C327.633 62.034 327.997 62.146 328.408 62.146ZM335.826 63.168C335.312 63.168 334.864 63.0933 334.482 62.944C334.099 62.7853 333.777 62.58 333.516 62.328C333.264 62.076 333.082 61.8007 332.97 61.502L333.95 61.096C334.108 61.4133 334.346 61.67 334.664 61.866C334.981 62.062 335.331 62.16 335.714 62.16C336.152 62.16 336.521 62.076 336.82 61.908C337.118 61.7307 337.268 61.4833 337.268 61.166C337.268 60.8767 337.156 60.6433 336.932 60.466C336.717 60.2887 336.395 60.144 335.966 60.032L335.294 59.85C334.659 59.682 334.164 59.43 333.81 59.094C333.455 58.7487 333.278 58.3613 333.278 57.932C333.278 57.2693 333.492 56.756 333.922 56.392C334.36 56.0187 335.009 55.832 335.868 55.832C336.278 55.832 336.652 55.8927 336.988 56.014C337.324 56.1353 337.613 56.308 337.856 56.532C338.098 56.7467 338.276 57.0033 338.388 57.302L337.408 57.736C337.286 57.4187 337.086 57.19 336.806 57.05C336.526 56.91 336.185 56.84 335.784 56.84C335.354 56.84 335.018 56.9333 334.776 57.12C334.533 57.2973 334.412 57.5493 334.412 57.876C334.412 58.0627 334.51 58.24 334.706 58.408C334.911 58.5667 335.21 58.6973 335.602 58.8L336.302 58.982C336.759 59.094 337.142 59.262 337.45 59.486C337.758 59.7007 337.991 59.948 338.15 60.228C338.308 60.508 338.388 60.8067 338.388 61.124C338.388 61.544 338.276 61.908 338.052 62.216C337.828 62.524 337.524 62.762 337.142 62.93C336.759 63.0887 336.32 63.168 335.826 63.168ZM348.158 63L348.088 61.712V56H349.208V63H348.158ZM343.174 59.584V56H344.294V59.584H343.174ZM344.294 59.584C344.294 60.2747 344.373 60.802 344.532 61.166C344.691 61.53 344.91 61.782 345.19 61.922C345.479 62.0527 345.801 62.118 346.156 62.118C346.763 62.118 347.234 61.8987 347.57 61.46C347.915 61.0213 348.088 60.41 348.088 59.626H348.634C348.634 60.3633 348.527 60.998 348.312 61.53C348.097 62.062 347.785 62.468 347.374 62.748C346.973 63.028 346.478 63.168 345.89 63.168C345.349 63.168 344.873 63.0607 344.462 62.846C344.051 62.622 343.734 62.272 343.51 61.796C343.286 61.3107 343.174 60.6853 343.174 59.92V59.584H344.294ZM353.613 63.168C353.099 63.168 352.651 63.0933 352.269 62.944C351.886 62.7853 351.564 62.58 351.303 62.328C351.051 62.076 350.869 61.8007 350.757 61.502L351.737 61.096C351.895 61.4133 352.133 61.67 352.451 61.866C352.768 62.062 353.118 62.16 353.501 62.16C353.939 62.16 354.308 62.076 354.607 61.908C354.905 61.7307 355.055 61.4833 355.055 61.166C355.055 60.8767 354.943 60.6433 354.719 60.466C354.504 60.2887 354.182 60.144 353.753 60.032L353.081 59.85C352.446 59.682 351.951 59.43 351.597 59.094C351.242 58.7487 351.065 58.3613 351.065 57.932C351.065 57.2693 351.279 56.756 351.709 56.392C352.147 56.0187 352.796 55.832 353.655 55.832C354.065 55.832 354.439 55.8927 354.775 56.014C355.111 56.1353 355.4 56.308 355.643 56.532C355.885 56.7467 356.063 57.0033 356.175 57.302L355.195 57.736C355.073 57.4187 354.873 57.19 354.593 57.05C354.313 56.91 353.972 56.84 353.571 56.84C353.141 56.84 352.805 56.9333 352.563 57.12C352.32 57.2973 352.199 57.5493 352.199 57.876C352.199 58.0627 352.297 58.24 352.493 58.408C352.698 58.5667 352.997 58.6973 353.389 58.8L354.089 58.982C354.546 59.094 354.929 59.262 355.237 59.486C355.545 59.7007 355.778 59.948 355.937 60.228C356.095 60.508 356.175 60.8067 356.175 61.124C356.175 61.544 356.063 61.908 355.839 62.216C355.615 62.524 355.311 62.762 354.929 62.93C354.546 63.0887 354.107 63.168 353.613 63.168ZM360.75 63.168C360.069 63.168 359.467 63.014 358.944 62.706C358.421 62.3887 358.011 61.9547 357.712 61.404C357.423 60.8533 357.278 60.2187 357.278 59.5C357.278 58.7813 357.423 58.1467 357.712 57.596C358.011 57.0453 358.417 56.616 358.93 56.308C359.453 55.9907 360.05 55.832 360.722 55.832C361.375 55.832 361.94 55.9953 362.416 56.322C362.892 56.6393 363.261 57.0873 363.522 57.666C363.783 58.2447 363.914 58.926 363.914 59.71H358.132L358.412 59.472C358.412 60.032 358.51 60.5127 358.706 60.914C358.911 61.3153 359.196 61.6233 359.56 61.838C359.924 62.0433 360.339 62.146 360.806 62.146C361.301 62.146 361.716 62.0293 362.052 61.796C362.397 61.5627 362.663 61.2547 362.85 60.872L363.816 61.362C363.639 61.726 363.401 62.0433 363.102 62.314C362.813 62.5847 362.467 62.7947 362.066 62.944C361.674 63.0933 361.235 63.168 360.75 63.168ZM358.482 58.996L358.188 58.772H363.018L362.724 59.01C362.724 58.562 362.635 58.1747 362.458 57.848C362.281 57.5213 362.043 57.2693 361.744 57.092C361.445 56.9147 361.1 56.826 360.708 56.826C360.325 56.826 359.961 56.9147 359.616 57.092C359.28 57.2693 359.005 57.5213 358.79 57.848C358.585 58.1653 358.482 58.548 358.482 58.996ZM365.943 59.206C365.943 58.45 366.087 57.8387 366.377 57.372C366.666 56.896 367.035 56.546 367.483 56.322C367.94 56.0887 368.421 55.972 368.925 55.972V57.022C368.514 57.022 368.117 57.092 367.735 57.232C367.361 57.3627 367.053 57.582 366.811 57.89C366.568 58.198 366.447 58.618 366.447 59.15L365.943 59.206ZM365.327 63V56H366.447V63H365.327ZM372.507 63.168C371.994 63.168 371.546 63.0933 371.163 62.944C370.78 62.7853 370.458 62.58 370.197 62.328C369.945 62.076 369.763 61.8007 369.651 61.502L370.631 61.096C370.79 61.4133 371.028 61.67 371.345 61.866C371.662 62.062 372.012 62.16 372.395 62.16C372.834 62.16 373.202 62.076 373.501 61.908C373.8 61.7307 373.949 61.4833 373.949 61.166C373.949 60.8767 373.837 60.6433 373.613 60.466C373.398 60.2887 373.076 60.144 372.647 60.032L371.975 59.85C371.34 59.682 370.846 59.43 370.491 59.094C370.136 58.7487 369.959 58.3613 369.959 57.932C369.959 57.2693 370.174 56.756 370.603 56.392C371.042 56.0187 371.69 55.832 372.549 55.832C372.96 55.832 373.333 55.8927 373.669 56.014C374.005 56.1353 374.294 56.308 374.537 56.532C374.78 56.7467 374.957 57.0033 375.069 57.302L374.089 57.736C373.968 57.4187 373.767 57.19 373.487 57.05C373.207 56.91 372.866 56.84 372.465 56.84C372.036 56.84 371.7 56.9333 371.457 57.12C371.214 57.2973 371.093 57.5493 371.093 57.876C371.093 58.0627 371.191 58.24 371.387 58.408C371.592 58.5667 371.891 58.6973 372.283 58.8L372.983 58.982C373.44 59.094 373.823 59.262 374.131 59.486C374.439 59.7007 374.672 59.948 374.831 60.228C374.99 60.508 375.069 60.8067 375.069 61.124C375.069 61.544 374.957 61.908 374.733 62.216C374.509 62.524 374.206 62.762 373.823 62.93C373.44 63.0887 373.002 63.168 372.507 63.168ZM382.67 63.168C381.988 63.168 381.461 62.9907 381.088 62.636C380.714 62.2813 380.528 61.782 380.528 61.138V53.816H381.648V61.026C381.648 61.3807 381.741 61.656 381.928 61.852C382.124 62.0387 382.394 62.132 382.74 62.132C382.852 62.132 382.959 62.118 383.062 62.09C383.174 62.0527 383.318 61.9687 383.496 61.838L383.93 62.748C383.687 62.9067 383.468 63.014 383.272 63.07C383.076 63.1353 382.875 63.168 382.67 63.168ZM379.31 56.994V56H383.748V56.994H379.31ZM385.945 59.206C385.945 58.45 386.089 57.8387 386.379 57.372C386.668 56.896 387.037 56.546 387.485 56.322C387.942 56.0887 388.423 55.972 388.927 55.972V57.022C388.516 57.022 388.119 57.092 387.737 57.232C387.363 57.3627 387.055 57.582 386.813 57.89C386.57 58.198 386.449 58.618 386.449 59.15L385.945 59.206ZM385.329 63V56H386.449V63H385.329ZM394.861 63L394.791 61.712V56H395.911V63H394.861ZM389.877 59.584V56H390.997V59.584H389.877ZM390.997 59.584C390.997 60.2747 391.076 60.802 391.235 61.166C391.394 61.53 391.613 61.782 391.893 61.922C392.182 62.0527 392.504 62.118 392.859 62.118C393.466 62.118 393.937 61.8987 394.273 61.46C394.618 61.0213 394.791 60.41 394.791 59.626H395.337C395.337 60.3633 395.23 60.998 395.015 61.53C394.8 62.062 394.488 62.468 394.077 62.748C393.676 63.028 393.181 63.168 392.593 63.168C392.052 63.168 391.576 63.0607 391.165 62.846C390.754 62.622 390.437 62.272 390.213 61.796C389.989 61.3107 389.877 60.6853 389.877 59.92V59.584H390.997ZM400.316 63.168C399.802 63.168 399.354 63.0933 398.972 62.944C398.589 62.7853 398.267 62.58 398.006 62.328C397.754 62.076 397.572 61.8007 397.46 61.502L398.44 61.096C398.598 61.4133 398.836 61.67 399.154 61.866C399.471 62.062 399.821 62.16 400.204 62.16C400.642 62.16 401.011 62.076 401.31 61.908C401.608 61.7307 401.758 61.4833 401.758 61.166C401.758 60.8767 401.646 60.6433 401.422 60.466C401.207 60.2887 400.885 60.144 400.456 60.032L399.784 59.85C399.149 59.682 398.654 59.43 398.3 59.094C397.945 58.7487 397.768 58.3613 397.768 57.932C397.768 57.2693 397.982 56.756 398.412 56.392C398.85 56.0187 399.499 55.832 400.358 55.832C400.768 55.832 401.142 55.8927 401.478 56.014C401.814 56.1353 402.103 56.308 402.346 56.532C402.588 56.7467 402.766 57.0033 402.878 57.302L401.898 57.736C401.776 57.4187 401.576 57.19 401.296 57.05C401.016 56.91 400.675 56.84 400.274 56.84C399.844 56.84 399.508 56.9333 399.266 57.12C399.023 57.2973 398.902 57.5493 398.902 57.876C398.902 58.0627 399 58.24 399.196 58.408C399.401 58.5667 399.7 58.6973 400.092 58.8L400.792 58.982C401.249 59.094 401.632 59.262 401.94 59.486C402.248 59.7007 402.481 59.948 402.64 60.228C402.798 60.508 402.878 60.8067 402.878 61.124C402.878 61.544 402.766 61.908 402.542 62.216C402.318 62.524 402.014 62.762 401.632 62.93C401.249 63.0887 400.81 63.168 400.316 63.168ZM407.019 63.168C406.338 63.168 405.811 62.9907 405.437 62.636C405.064 62.2813 404.877 61.782 404.877 61.138V53.816H405.997V61.026C405.997 61.3807 406.091 61.656 406.277 61.852C406.473 62.0387 406.744 62.132 407.089 62.132C407.201 62.132 407.309 62.118 407.411 62.09C407.523 62.0527 407.668 61.9687 407.845 61.838L408.279 62.748C408.037 62.9067 407.817 63.014 407.621 63.07C407.425 63.1353 407.225 63.168 407.019 63.168ZM403.659 56.994V56H408.097V56.994H403.659ZM415.769 63.168C415.088 63.168 414.561 62.9907 414.187 62.636C413.814 62.2813 413.627 61.782 413.627 61.138V53.816H414.747V61.026C414.747 61.3807 414.841 61.656 415.027 61.852C415.223 62.0387 415.494 62.132 415.839 62.132C415.951 62.132 416.059 62.118 416.161 62.09C416.273 62.0527 416.418 61.9687 416.595 61.838L417.029 62.748C416.787 62.9067 416.567 63.014 416.371 63.07C416.175 63.1353 415.975 63.168 415.769 63.168ZM412.409 56.994V56H416.847V56.994H412.409ZM418.428 63V53.2H419.548V63H418.428ZM423.356 63V59.416H424.476V63H423.356ZM423.356 59.416C423.356 58.7253 423.272 58.198 423.104 57.834C422.946 57.47 422.726 57.2227 422.446 57.092C422.166 56.952 421.849 56.882 421.494 56.882C420.878 56.882 420.398 57.1013 420.052 57.54C419.716 57.9693 419.548 58.5807 419.548 59.374H419.002C419.002 58.6367 419.11 58.002 419.324 57.47C419.548 56.938 419.866 56.532 420.276 56.252C420.687 55.972 421.182 55.832 421.76 55.832C422.302 55.832 422.778 55.944 423.188 56.168C423.599 56.3827 423.916 56.728 424.14 57.204C424.374 57.68 424.486 58.3053 424.476 59.08V59.416H423.356ZM429.301 63.168C428.62 63.168 428.018 63.014 427.495 62.706C426.972 62.3887 426.562 61.9547 426.263 61.404C425.974 60.8533 425.829 60.2187 425.829 59.5C425.829 58.7813 425.974 58.1467 426.263 57.596C426.562 57.0453 426.968 56.616 427.481 56.308C428.004 55.9907 428.601 55.832 429.273 55.832C429.926 55.832 430.491 55.9953 430.967 56.322C431.443 56.6393 431.812 57.0873 432.073 57.666C432.334 58.2447 432.465 58.926 432.465 59.71H426.683L426.963 59.472C426.963 60.032 427.061 60.5127 427.257 60.914C427.462 61.3153 427.747 61.6233 428.111 61.838C428.475 62.0433 428.89 62.146 429.357 62.146C429.852 62.146 430.267 62.0293 430.603 61.796C430.948 61.5627 431.214 61.2547 431.401 60.872L432.367 61.362C432.19 61.726 431.952 62.0433 431.653 62.314C431.364 62.5847 431.018 62.7947 430.617 62.944C430.225 63.0933 429.786 63.168 429.301 63.168ZM427.033 58.996L426.739 58.772H431.569L431.275 59.01C431.275 58.562 431.186 58.1747 431.009 57.848C430.832 57.5213 430.594 57.2693 430.295 57.092C429.996 56.9147 429.651 56.826 429.259 56.826C428.876 56.826 428.512 56.9147 428.167 57.092C427.831 57.2693 427.556 57.5213 427.341 57.848C427.136 58.1653 427.033 58.548 427.033 58.996ZM437.952 59.206C437.952 58.45 438.097 57.8387 438.386 57.372C438.676 56.896 439.044 56.546 439.492 56.322C439.95 56.0887 440.43 55.972 440.934 55.972V57.022C440.524 57.022 440.127 57.092 439.744 57.232C439.371 57.3627 439.063 57.582 438.82 57.89C438.578 58.198 438.456 58.618 438.456 59.15L437.952 59.206ZM437.336 63V56H438.456V63H437.336ZM445.133 63.168C444.452 63.168 443.85 63.014 443.327 62.706C442.804 62.3887 442.394 61.9547 442.095 61.404C441.806 60.8533 441.661 60.2187 441.661 59.5C441.661 58.7813 441.806 58.1467 442.095 57.596C442.394 57.0453 442.8 56.616 443.313 56.308C443.836 55.9907 444.433 55.832 445.105 55.832C445.758 55.832 446.323 55.9953 446.799 56.322C447.275 56.6393 447.644 57.0873 447.905 57.666C448.166 58.2447 448.297 58.926 448.297 59.71H442.515L442.795 59.472C442.795 60.032 442.893 60.5127 443.089 60.914C443.294 61.3153 443.579 61.6233 443.943 61.838C444.307 62.0433 444.722 62.146 445.189 62.146C445.684 62.146 446.099 62.0293 446.435 61.796C446.78 61.5627 447.046 61.2547 447.233 60.872L448.199 61.362C448.022 61.726 447.784 62.0433 447.485 62.314C447.196 62.5847 446.85 62.7947 446.449 62.944C446.057 63.0933 445.618 63.168 445.133 63.168ZM442.865 58.996L442.571 58.772H447.401L447.107 59.01C447.107 58.562 447.018 58.1747 446.841 57.848C446.664 57.5213 446.426 57.2693 446.127 57.092C445.828 56.9147 445.483 56.826 445.091 56.826C444.708 56.826 444.344 56.9147 443.999 57.092C443.663 57.2693 443.388 57.5213 443.173 57.848C442.968 58.1653 442.865 58.548 442.865 58.996ZM452.159 63.168C451.646 63.168 451.198 63.0933 450.815 62.944C450.433 62.7853 450.111 62.58 449.849 62.328C449.597 62.076 449.415 61.8007 449.303 61.502L450.283 61.096C450.442 61.4133 450.68 61.67 450.997 61.866C451.315 62.062 451.665 62.16 452.047 62.16C452.486 62.16 452.855 62.076 453.153 61.908C453.452 61.7307 453.601 61.4833 453.601 61.166C453.601 60.8767 453.489 60.6433 453.265 60.466C453.051 60.2887 452.729 60.144 452.299 60.032L451.627 59.85C450.993 59.682 450.498 59.43 450.143 59.094C449.789 58.7487 449.611 58.3613 449.611 57.932C449.611 57.2693 449.826 56.756 450.255 56.392C450.694 56.0187 451.343 55.832 452.201 55.832C452.612 55.832 452.985 55.8927 453.321 56.014C453.657 56.1353 453.947 56.308 454.189 56.532C454.432 56.7467 454.609 57.0033 454.721 57.302L453.741 57.736C453.62 57.4187 453.419 57.19 453.139 57.05C452.859 56.91 452.519 56.84 452.117 56.84C451.688 56.84 451.352 56.9333 451.109 57.12C450.867 57.2973 450.745 57.5493 450.745 57.876C450.745 58.0627 450.843 58.24 451.039 58.408C451.245 58.5667 451.543 58.6973 451.935 58.8L452.635 58.982C453.093 59.094 453.475 59.262 453.783 59.486C454.091 59.7007 454.325 59.948 454.483 60.228C454.642 60.508 454.721 60.8067 454.721 61.124C454.721 61.544 454.609 61.908 454.385 62.216C454.161 62.524 453.858 62.762 453.475 62.93C453.093 63.0887 452.654 63.168 452.159 63.168ZM456.301 65.8V56H457.351L457.421 57.288V65.8H456.301ZM459.787 63.168C459.199 63.168 458.681 63.014 458.233 62.706C457.794 62.398 457.454 61.9687 457.211 61.418C456.968 60.858 456.847 60.2187 456.847 59.5C456.847 58.772 456.968 58.1327 457.211 57.582C457.454 57.0313 457.794 56.602 458.233 56.294C458.681 55.986 459.199 55.832 459.787 55.832C460.412 55.832 460.963 55.986 461.439 56.294C461.915 56.602 462.284 57.0313 462.545 57.582C462.816 58.1327 462.951 58.772 462.951 59.5C462.951 60.2187 462.816 60.858 462.545 61.418C462.284 61.9687 461.915 62.398 461.439 62.706C460.963 63.014 460.412 63.168 459.787 63.168ZM459.535 62.146C459.974 62.146 460.361 62.034 460.697 61.81C461.042 61.586 461.313 61.2733 461.509 60.872C461.714 60.4707 461.817 60.0133 461.817 59.5C461.817 58.9867 461.719 58.5293 461.523 58.128C461.336 57.7267 461.07 57.414 460.725 57.19C460.38 56.966 459.988 56.854 459.549 56.854C459.138 56.854 458.77 56.966 458.443 57.19C458.126 57.414 457.874 57.7267 457.687 58.128C457.51 58.5293 457.421 58.9867 457.421 59.5C457.421 60.0133 457.51 60.4707 457.687 60.872C457.874 61.2733 458.126 61.586 458.443 61.81C458.76 62.034 459.124 62.146 459.535 62.146ZM467.596 63.168C466.915 63.168 466.308 63.014 465.776 62.706C465.254 62.3887 464.843 61.9547 464.544 61.404C464.246 60.8533 464.096 60.2187 464.096 59.5C464.096 58.7813 464.241 58.1467 464.53 57.596C464.829 57.0453 465.24 56.616 465.762 56.308C466.294 55.9907 466.896 55.832 467.568 55.832C468.259 55.832 468.866 55.9907 469.388 56.308C469.92 56.616 470.331 57.0453 470.62 57.596C470.919 58.1467 471.068 58.7813 471.068 59.5C471.068 60.2187 470.919 60.8533 470.62 61.404C470.331 61.9547 469.925 62.3887 469.402 62.706C468.88 63.014 468.278 63.168 467.596 63.168ZM467.596 62.132C468.063 62.132 468.469 62.02 468.814 61.796C469.16 61.572 469.43 61.264 469.626 60.872C469.832 60.48 469.934 60.0227 469.934 59.5C469.934 58.9773 469.832 58.52 469.626 58.128C469.43 57.736 469.155 57.428 468.8 57.204C468.446 56.98 468.035 56.868 467.568 56.868C467.111 56.868 466.705 56.98 466.35 57.204C466.005 57.428 465.73 57.736 465.524 58.128C465.328 58.52 465.23 58.9773 465.23 59.5C465.23 60.0133 465.328 60.4707 465.524 60.872C465.73 61.264 466.01 61.572 466.364 61.796C466.728 62.02 467.139 62.132 467.596 62.132ZM472.624 63V56H473.674L473.744 57.288V63H472.624ZM477.538 63V59.416H478.658V63H477.538ZM477.538 59.416C477.538 58.7253 477.458 58.198 477.3 57.834C477.141 57.47 476.922 57.2227 476.642 57.092C476.362 56.952 476.044 56.882 475.69 56.882C475.074 56.882 474.593 57.1013 474.248 57.54C473.912 57.9693 473.744 58.5807 473.744 59.374H473.198C473.198 58.6367 473.305 58.002 473.52 57.47C473.734 56.938 474.047 56.532 474.458 56.252C474.868 55.972 475.363 55.832 475.942 55.832C476.492 55.832 476.968 55.944 477.37 56.168C477.78 56.3827 478.098 56.728 478.322 57.204C478.555 57.68 478.667 58.3053 478.658 59.08V59.416H477.538ZM482.88 63.168C482.367 63.168 481.919 63.0933 481.536 62.944C481.154 62.7853 480.832 62.58 480.57 62.328C480.318 62.076 480.136 61.8007 480.024 61.502L481.004 61.096C481.163 61.4133 481.401 61.67 481.718 61.866C482.036 62.062 482.386 62.16 482.768 62.16C483.207 62.16 483.576 62.076 483.874 61.908C484.173 61.7307 484.322 61.4833 484.322 61.166C484.322 60.8767 484.21 60.6433 483.986 60.466C483.772 60.2887 483.45 60.144 483.02 60.032L482.348 59.85C481.714 59.682 481.219 59.43 480.864 59.094C480.51 58.7487 480.332 58.3613 480.332 57.932C480.332 57.2693 480.547 56.756 480.976 56.392C481.415 56.0187 482.064 55.832 482.922 55.832C483.333 55.832 483.706 55.8927 484.042 56.014C484.378 56.1353 484.668 56.308 484.91 56.532C485.153 56.7467 485.33 57.0033 485.442 57.302L484.462 57.736C484.341 57.4187 484.14 57.19 483.86 57.05C483.58 56.91 483.24 56.84 482.838 56.84C482.409 56.84 482.073 56.9333 481.83 57.12C481.588 57.2973 481.466 57.5493 481.466 57.876C481.466 58.0627 481.564 58.24 481.76 58.408C481.966 58.5667 482.264 58.6973 482.656 58.8L483.356 58.982C483.814 59.094 484.196 59.262 484.504 59.486C484.812 59.7007 485.046 59.948 485.204 60.228C485.363 60.508 485.442 60.8067 485.442 61.124C485.442 61.544 485.33 61.908 485.106 62.216C484.882 62.524 484.579 62.762 484.196 62.93C483.814 63.0887 483.375 63.168 482.88 63.168ZM490.018 63.168C489.336 63.168 488.734 63.014 488.212 62.706C487.689 62.3887 487.278 61.9547 486.98 61.404C486.69 60.8533 486.546 60.2187 486.546 59.5C486.546 58.7813 486.69 58.1467 486.98 57.596C487.278 57.0453 487.684 56.616 488.198 56.308C488.72 55.9907 489.318 55.832 489.99 55.832C490.643 55.832 491.208 55.9953 491.684 56.322C492.16 56.6393 492.528 57.0873 492.79 57.666C493.051 58.2447 493.182 58.926 493.182 59.71H487.4L487.68 59.472C487.68 60.032 487.778 60.5127 487.974 60.914C488.179 61.3153 488.464 61.6233 488.828 61.838C489.192 62.0433 489.607 62.146 490.074 62.146C490.568 62.146 490.984 62.0293 491.32 61.796C491.665 61.5627 491.931 61.2547 492.118 60.872L493.084 61.362C492.906 61.726 492.668 62.0433 492.37 62.314C492.08 62.5847 491.735 62.7947 491.334 62.944C490.942 63.0933 490.503 63.168 490.018 63.168ZM487.75 58.996L487.456 58.772H492.286L491.992 59.01C491.992 58.562 491.903 58.1747 491.726 57.848C491.548 57.5213 491.31 57.2693 491.012 57.092C490.713 56.9147 490.368 56.826 489.976 56.826C489.593 56.826 489.229 56.9147 488.884 57.092C488.548 57.2693 488.272 57.5213 488.058 57.848C487.852 58.1653 487.75 58.548 487.75 58.996ZM495.07 63.196C494.856 63.196 494.669 63.1213 494.51 62.972C494.361 62.8133 494.286 62.6313 494.286 62.426C494.286 62.2113 494.361 62.0293 494.51 61.88C494.669 61.7213 494.856 61.642 495.07 61.642C495.285 61.642 495.467 61.7213 495.616 61.88C495.766 62.0293 495.84 62.2113 495.84 62.426C495.84 62.6313 495.766 62.8133 495.616 62.972C495.467 63.1213 495.285 63.196 495.07 63.196Z" fill="#0A0B0D"/>
</g>
<defs>
<filter id="filter0_d_60_1221" x="0" y="0" width="717" height="93" filterUnits="userSpaceOnUse" color-interpolation-filters="sRGB">
<feFlood flood-opacity="0" result="BackgroundImageFix"/>
<feColorMatrix in="SourceAlpha" type="matrix" values="0 0 0 0 0 0 0 0 0 0 0 0 0 0 0 0 0 0 127 0" result="hardAlpha"/>
<feOffset dx="5" dy="5"/>
<feComposite in2="hardAlpha" operator="out"/>
<feColorMatrix type="matrix" values="0 0 0 0 0.0392157 0 0 0 0 0.0392157 0 0 0 0 0.0392157 0 0 0 1 0"/>
<feBlend mode="normal" in2="BackgroundImageFix" result="effect1_dropShadow_60_1221"/>
<feBlend mode="normal" in="SourceGraphic" in2="effect1_dropShadow_60_1221" result="shape"/>
</filter>
</defs>
</svg>
