<svg width="717" height="93" viewBox="0 0 717 93" fill="none" xmlns="http://www.w3.org/2000/svg">
<g opacity="0.98" filter="url(#filter0_d_60_1246)">
<path d="M0 8C0 3.58172 3.58172 0 8 0H704C708.418 0 712 3.58172 712 8V80C712 84.4183 708.418 88 704 88H8C3.58172 88 0 84.4183 0 80V8Z" fill="white" shape-rendering="crispEdges"/>
<path d="M8 0.5H704C708.142 0.5 711.5 3.85786 711.5 8V80C711.5 84.1421 708.142 87.5 704 87.5H8C3.85786 87.5 0.5 84.1421 0.5 80V8C0.5 3.85786 3.85786 0.5 8 0.5Z" stroke="#0A0A0A" shape-rendering="crispEdges"/>
<path d="M322.031 38V26.8H328.991V28.496H323.887V31.632H328.255V33.328H323.887V38H322.031ZM333.951 38.192C333.172 38.192 332.479 38.016 331.871 37.664C331.273 37.3013 330.799 36.8053 330.447 36.176C330.105 35.5467 329.935 34.8213 329.935 34C329.935 33.1787 330.111 32.4533 330.463 31.824C330.815 31.1947 331.295 30.704 331.903 30.352C332.521 29.9893 333.225 29.808 334.015 29.808C334.729 29.808 335.375 29.9947 335.951 30.368C336.527 30.7307 336.98 31.2587 337.311 31.952C337.652 32.6453 337.823 33.472 337.823 34.432H331.535L331.775 34.208C331.775 34.6987 331.881 35.1253 332.095 35.488C332.308 35.84 332.591 36.112 332.943 36.304C333.295 36.496 333.684 36.592 334.111 36.592C334.601 36.592 335.007 36.4853 335.327 36.272C335.647 36.048 335.897 35.76 336.079 35.408L337.663 36.08C337.439 36.5067 337.151 36.88 336.799 37.2C336.457 37.52 336.047 37.7653 335.567 37.936C335.097 38.1067 334.559 38.192 333.951 38.192ZM331.887 33.28L331.631 33.056H336.143L335.903 33.28C335.903 32.8427 335.807 32.4853 335.615 32.208C335.423 31.92 335.177 31.7067 334.879 31.568C334.591 31.4187 334.287 31.344 333.967 31.344C333.647 31.344 333.327 31.4187 333.007 31.568C332.687 31.7067 332.42 31.92 332.207 32.208C331.993 32.4853 331.887 32.8427 331.887 33.28ZM342.763 38.192C341.984 38.192 341.291 38.016 340.683 37.664C340.086 37.3013 339.611 36.8053 339.259 36.176C338.918 35.5467 338.747 34.8213 338.747 34C338.747 33.1787 338.923 32.4533 339.275 31.824C339.627 31.1947 340.107 30.704 340.715 30.352C341.334 29.9893 342.038 29.808 342.827 29.808C343.542 29.808 344.187 29.9947 344.763 30.368C345.339 30.7307 345.792 31.2587 346.123 31.952C346.464 32.6453 346.635 33.472 346.635 34.432H340.347L340.587 34.208C340.587 34.6987 340.694 35.1253 340.907 35.488C341.12 35.84 341.403 36.112 341.755 36.304C342.107 36.496 342.496 36.592 342.923 36.592C343.414 36.592 343.819 36.4853 344.139 36.272C344.459 36.048 344.71 35.76 344.891 35.408L346.475 36.08C346.251 36.5067 345.963 36.88 345.611 37.2C345.27 37.52 344.859 37.7653 344.379 37.936C343.91 38.1067 343.371 38.192 342.763 38.192ZM340.699 33.28L340.443 33.056H344.955L344.715 33.28C344.715 32.8427 344.619 32.4853 344.427 32.208C344.235 31.92 343.99 31.7067 343.691 31.568C343.403 31.4187 343.099 31.344 342.779 31.344C342.459 31.344 342.139 31.4187 341.819 31.568C341.499 31.7067 341.232 31.92 341.019 32.208C340.806 32.4853 340.699 32.8427 340.699 33.28ZM353.784 38L353.704 36.512V26.8H355.48V38H353.784ZM351.176 38.192C350.45 38.192 349.816 38.0213 349.272 37.68C348.738 37.328 348.317 36.8373 348.008 36.208C347.709 35.5787 347.56 34.8427 347.56 34C347.56 33.1467 347.709 32.4107 348.008 31.792C348.317 31.1627 348.738 30.6773 349.272 30.336C349.816 29.984 350.45 29.808 351.176 29.808C351.848 29.808 352.424 29.984 352.904 30.336C353.394 30.6773 353.768 31.1627 354.024 31.792C354.28 32.4107 354.408 33.1467 354.408 34C354.408 34.8427 354.28 35.5787 354.024 36.208C353.768 36.8373 353.394 37.328 352.904 37.68C352.424 38.0213 351.848 38.192 351.176 38.192ZM351.624 36.56C352.029 36.56 352.386 36.4533 352.696 36.24C353.016 36.016 353.261 35.712 353.432 35.328C353.613 34.944 353.704 34.5013 353.704 34C353.704 33.4987 353.613 33.056 353.432 32.672C353.261 32.288 353.016 31.9893 352.696 31.776C352.386 31.5627 352.024 31.456 351.608 31.456C351.181 31.456 350.802 31.5627 350.472 31.776C350.141 31.9893 349.88 32.288 349.688 32.672C349.506 33.056 349.41 33.4987 349.4 34C349.41 34.5013 349.506 34.944 349.688 35.328C349.88 35.712 350.141 36.016 350.472 36.24C350.813 36.4533 351.197 36.56 351.624 36.56ZM357.461 38V26.8H359.253V36.512L359.157 38H357.461ZM361.781 38.192C361.109 38.192 360.527 38.0213 360.037 37.68C359.557 37.328 359.189 36.8373 358.933 36.208C358.677 35.5787 358.549 34.8427 358.549 34C358.549 33.1467 358.677 32.4107 358.933 31.792C359.189 31.1627 359.557 30.6773 360.037 30.336C360.527 29.984 361.109 29.808 361.781 29.808C362.506 29.808 363.135 29.984 363.669 30.336C364.213 30.6773 364.634 31.1627 364.933 31.792C365.242 32.4107 365.397 33.1467 365.397 34C365.397 34.8427 365.242 35.5787 364.933 36.208C364.634 36.8373 364.213 37.328 363.669 37.68C363.135 38.0213 362.506 38.192 361.781 38.192ZM361.333 36.56C361.759 36.56 362.138 36.4533 362.469 36.24C362.799 36.016 363.061 35.712 363.253 35.328C363.455 34.944 363.557 34.5013 363.557 34C363.557 33.4987 363.461 33.056 363.269 32.672C363.087 32.288 362.831 31.9893 362.501 31.776C362.17 31.5627 361.786 31.456 361.349 31.456C360.943 31.456 360.581 31.5627 360.261 31.776C359.941 31.9893 359.69 32.288 359.509 32.672C359.338 33.056 359.253 33.4987 359.253 34C359.253 34.5013 359.338 34.944 359.509 35.328C359.69 35.712 359.935 36.016 360.245 36.24C360.565 36.4533 360.927 36.56 361.333 36.56ZM371.81 38L371.73 36.496V33.888C371.73 33.344 371.671 32.8907 371.554 32.528C371.447 32.1547 371.266 31.872 371.01 31.68C370.764 31.4773 370.434 31.376 370.018 31.376C369.634 31.376 369.298 31.456 369.01 31.616C368.722 31.776 368.476 32.0267 368.274 32.368L366.706 31.792C366.876 31.44 367.1 31.1147 367.378 30.816C367.666 30.5067 368.023 30.2613 368.45 30.08C368.887 29.8987 369.41 29.808 370.018 29.808C370.796 29.808 371.447 29.9627 371.97 30.272C372.492 30.5707 372.876 31.0027 373.122 31.568C373.378 32.1333 373.506 32.816 373.506 33.616L373.458 38H371.81ZM369.506 38.192C368.546 38.192 367.799 37.9787 367.266 37.552C366.743 37.1253 366.482 36.5227 366.482 35.744C366.482 34.912 366.759 34.2773 367.314 33.84C367.879 33.4027 368.663 33.184 369.666 33.184H371.81V34.56H370.242C369.527 34.56 369.026 34.6613 368.738 34.864C368.45 35.056 368.306 35.3333 368.306 35.696C368.306 36.0053 368.428 36.2507 368.674 36.432C368.93 36.6027 369.282 36.688 369.73 36.688C370.135 36.688 370.487 36.5973 370.786 36.416C371.084 36.2347 371.314 35.9947 371.474 35.696C371.644 35.3973 371.73 35.0613 371.73 34.688H372.258C372.258 35.776 372.039 36.6347 371.602 37.264C371.164 37.8827 370.466 38.192 369.506 38.192ZM379.064 38.192C378.243 38.192 377.517 38.016 376.888 37.664C376.259 37.3013 375.763 36.8053 375.4 36.176C375.048 35.5467 374.872 34.8213 374.872 34C374.872 33.1787 375.048 32.4533 375.4 31.824C375.763 31.1947 376.253 30.704 376.872 30.352C377.501 29.9893 378.221 29.808 379.032 29.808C379.821 29.808 380.536 30 381.176 30.384C381.816 30.7573 382.291 31.296 382.6 32L380.936 32.64C380.765 32.288 380.504 32.0053 380.152 31.792C379.8 31.5787 379.4 31.472 378.952 31.472C378.515 31.472 378.125 31.584 377.784 31.808C377.443 32.0213 377.176 32.32 376.984 32.704C376.792 33.0773 376.696 33.5093 376.696 34C376.696 34.4907 376.792 34.928 376.984 35.312C377.187 35.6853 377.459 35.984 377.8 36.208C378.152 36.4213 378.547 36.528 378.984 36.528C379.432 36.528 379.832 36.416 380.184 36.192C380.536 35.9573 380.797 35.6427 380.968 35.248L382.632 35.888C382.323 36.6133 381.848 37.1787 381.208 37.584C380.579 37.9893 379.864 38.192 379.064 38.192ZM385.735 35.76L384.647 34.528L388.807 30H390.967L385.735 35.76ZM384.023 38V26.8H385.815V38H384.023ZM389.111 38L386.295 33.856L387.463 32.608L391.239 38H389.111Z" fill="#0A0B0D"/>
<path d="M242.933 63.21C242.195 63.21 241.542 63.056 240.973 62.748C240.413 62.4307 239.974 61.9967 239.657 61.446C239.339 60.886 239.181 60.242 239.181 59.514V53.2H240.371V59.514C240.371 60.0273 240.478 60.4847 240.693 60.886C240.917 61.278 241.225 61.586 241.617 61.81C242.009 62.0247 242.457 62.132 242.961 62.132C243.474 62.132 243.927 62.0247 244.319 61.81C244.72 61.586 245.028 61.278 245.243 60.886C245.467 60.4847 245.579 60.0273 245.579 59.514V53.2H246.755V59.514C246.755 60.242 246.596 60.886 246.279 61.446C245.961 61.9967 245.513 62.4307 244.935 62.748C244.356 63.056 243.689 63.21 242.933 63.21ZM251.347 63.168C250.834 63.168 250.386 63.0933 250.003 62.944C249.62 62.7853 249.298 62.58 249.037 62.328C248.785 62.076 248.603 61.8007 248.491 61.502L249.471 61.096C249.63 61.4133 249.868 61.67 250.185 61.866C250.502 62.062 250.852 62.16 251.235 62.16C251.674 62.16 252.042 62.076 252.341 61.908C252.64 61.7307 252.789 61.4833 252.789 61.166C252.789 60.8767 252.677 60.6433 252.453 60.466C252.238 60.2887 251.916 60.144 251.487 60.032L250.815 59.85C250.18 59.682 249.686 59.43 249.331 59.094C248.976 58.7487 248.799 58.3613 248.799 57.932C248.799 57.2693 249.014 56.756 249.443 56.392C249.882 56.0187 250.53 55.832 251.389 55.832C251.8 55.832 252.173 55.8927 252.509 56.014C252.845 56.1353 253.134 56.308 253.377 56.532C253.62 56.7467 253.797 57.0033 253.909 57.302L252.929 57.736C252.808 57.4187 252.607 57.19 252.327 57.05C252.047 56.91 251.706 56.84 251.305 56.84C250.876 56.84 250.54 56.9333 250.297 57.12C250.054 57.2973 249.933 57.5493 249.933 57.876C249.933 58.0627 250.031 58.24 250.227 58.408C250.432 58.5667 250.731 58.6973 251.123 58.8L251.823 58.982C252.28 59.094 252.663 59.262 252.971 59.486C253.279 59.7007 253.512 59.948 253.671 60.228C253.83 60.508 253.909 60.8067 253.909 61.124C253.909 61.544 253.797 61.908 253.573 62.216C253.349 62.524 253.046 62.762 252.663 62.93C252.28 63.0887 251.842 63.168 251.347 63.168ZM258.484 63.168C257.803 63.168 257.201 63.014 256.678 62.706C256.156 62.3887 255.745 61.9547 255.446 61.404C255.157 60.8533 255.012 60.2187 255.012 59.5C255.012 58.7813 255.157 58.1467 255.446 57.596C255.745 57.0453 256.151 56.616 256.664 56.308C257.187 55.9907 257.784 55.832 258.456 55.832C259.11 55.832 259.674 55.9953 260.15 56.322C260.626 56.6393 260.995 57.0873 261.256 57.666C261.518 58.2447 261.648 58.926 261.648 59.71H255.866L256.146 59.472C256.146 60.032 256.244 60.5127 256.44 60.914C256.646 61.3153 256.93 61.6233 257.294 61.838C257.658 62.0433 258.074 62.146 258.54 62.146C259.035 62.146 259.45 62.0293 259.786 61.796C260.132 61.5627 260.398 61.2547 260.584 60.872L261.55 61.362C261.373 61.726 261.135 62.0433 260.836 62.314C260.547 62.5847 260.202 62.7947 259.8 62.944C259.408 63.0933 258.97 63.168 258.484 63.168ZM256.216 58.996L255.922 58.772H260.752L260.458 59.01C260.458 58.562 260.37 58.1747 260.192 57.848C260.015 57.5213 259.777 57.2693 259.478 57.092C259.18 56.9147 258.834 56.826 258.442 56.826C258.06 56.826 257.696 56.9147 257.35 57.092C257.014 57.2693 256.739 57.5213 256.524 57.848C256.319 58.1653 256.216 58.548 256.216 58.996ZM263.677 59.206C263.677 58.45 263.822 57.8387 264.111 57.372C264.4 56.896 264.769 56.546 265.217 56.322C265.674 56.0887 266.155 55.972 266.659 55.972V57.022C266.248 57.022 265.852 57.092 265.469 57.232C265.096 57.3627 264.788 57.582 264.545 57.89C264.302 58.198 264.181 58.618 264.181 59.15L263.677 59.206ZM263.061 63V56H264.181V63H263.061ZM271.867 59.206C271.867 58.45 272.011 57.8387 272.301 57.372C272.59 56.896 272.959 56.546 273.407 56.322C273.864 56.0887 274.345 55.972 274.849 55.972V57.022C274.438 57.022 274.041 57.092 273.659 57.232C273.285 57.3627 272.977 57.582 272.735 57.89C272.492 58.198 272.371 58.618 272.371 59.15L271.867 59.206ZM271.251 63V56H272.371V63H271.251ZM280.293 63L280.237 61.852V59.304C280.237 58.7533 280.176 58.3007 280.055 57.946C279.934 57.582 279.742 57.3067 279.481 57.12C279.22 56.9333 278.879 56.84 278.459 56.84C278.076 56.84 277.745 56.9193 277.465 57.078C277.194 57.2273 276.97 57.47 276.793 57.806L275.785 57.414C275.962 57.0873 276.177 56.8073 276.429 56.574C276.681 56.3313 276.975 56.1493 277.311 56.028C277.647 55.8973 278.03 55.832 278.459 55.832C279.112 55.832 279.649 55.9627 280.069 56.224C280.498 56.476 280.82 56.854 281.035 57.358C281.25 57.8527 281.352 58.4687 281.343 59.206L281.329 63H280.293ZM278.193 63.168C277.372 63.168 276.728 62.9813 276.261 62.608C275.804 62.2253 275.575 61.698 275.575 61.026C275.575 60.3167 275.808 59.7753 276.275 59.402C276.751 59.0193 277.414 58.828 278.263 58.828H280.265V59.766H278.515C277.862 59.766 277.395 59.8733 277.115 60.088C276.844 60.3027 276.709 60.6107 276.709 61.012C276.709 61.376 276.844 61.6653 277.115 61.88C277.386 62.0853 277.764 62.188 278.249 62.188C278.65 62.188 279 62.104 279.299 61.936C279.598 61.7587 279.826 61.5113 279.985 61.194C280.153 60.8673 280.237 60.4847 280.237 60.046H280.713C280.713 60.998 280.498 61.7587 280.069 62.328C279.64 62.888 279.014 63.168 278.193 63.168ZM285.75 63.168C285.068 63.168 284.541 62.9907 284.168 62.636C283.794 62.2813 283.608 61.782 283.608 61.138V53.816H284.728V61.026C284.728 61.3807 284.821 61.656 285.008 61.852C285.204 62.0387 285.474 62.132 285.82 62.132C285.932 62.132 286.039 62.118 286.142 62.09C286.254 62.0527 286.398 61.9687 286.576 61.838L287.01 62.748C286.767 62.9067 286.548 63.014 286.352 63.07C286.156 63.1353 285.955 63.168 285.75 63.168ZM282.39 56.994V56H286.828V56.994H282.39ZM288.479 63V56H289.599V63H288.479ZM289.053 54.376C288.866 54.376 288.703 54.306 288.563 54.166C288.423 54.026 288.353 53.8627 288.353 53.676C288.353 53.48 288.423 53.3167 288.563 53.186C288.703 53.046 288.866 52.976 289.053 52.976C289.249 52.976 289.412 53.046 289.543 53.186C289.683 53.3167 289.753 53.48 289.753 53.676C289.753 53.8627 289.683 54.026 289.543 54.166C289.412 54.306 289.249 54.376 289.053 54.376ZM291.663 63V56H292.713L292.783 57.288V63H291.663ZM296.577 63V59.416H297.697V63H296.577ZM296.577 59.416C296.577 58.7253 296.497 58.198 296.339 57.834C296.18 57.47 295.961 57.2227 295.681 57.092C295.401 56.952 295.083 56.882 294.729 56.882C294.113 56.882 293.632 57.1013 293.287 57.54C292.951 57.9693 292.783 58.5807 292.783 59.374H292.237C292.237 58.6367 292.344 58.002 292.559 57.47C292.773 56.938 293.086 56.532 293.497 56.252C293.907 55.972 294.402 55.832 294.981 55.832C295.531 55.832 296.007 55.944 296.409 56.168C296.819 56.3827 297.137 56.728 297.361 57.204C297.594 57.68 297.706 58.3053 297.697 59.08V59.416H296.577ZM302.269 65.968C301.821 65.968 301.411 65.9213 301.037 65.828C300.673 65.744 300.361 65.646 300.099 65.534C299.847 65.4313 299.665 65.3427 299.553 65.268L299.973 64.358C300.095 64.4233 300.267 64.5027 300.491 64.596C300.715 64.6987 300.977 64.7827 301.275 64.848C301.583 64.9227 301.91 64.96 302.255 64.96C302.703 64.96 303.105 64.8667 303.459 64.68C303.823 64.5027 304.103 64.218 304.299 63.826C304.505 63.4433 304.607 62.9487 304.607 62.342V56H305.727V62.328C305.727 63.1307 305.578 63.8027 305.279 64.344C304.981 64.8853 304.57 65.2913 304.047 65.562C303.525 65.8327 302.932 65.968 302.269 65.968ZM302.227 62.944C301.602 62.944 301.051 62.7947 300.575 62.496C300.099 62.1973 299.726 61.782 299.455 61.25C299.194 60.7087 299.063 60.0927 299.063 59.402C299.063 58.6927 299.194 58.072 299.455 57.54C299.726 56.9987 300.099 56.5787 300.575 56.28C301.051 55.9813 301.602 55.832 302.227 55.832C302.815 55.832 303.329 55.9813 303.767 56.28C304.206 56.5787 304.547 56.9987 304.789 57.54C305.041 58.072 305.167 58.6927 305.167 59.402C305.167 60.102 305.041 60.718 304.789 61.25C304.547 61.782 304.206 62.1973 303.767 62.496C303.329 62.7947 302.815 62.944 302.227 62.944ZM302.493 61.978C302.904 61.978 303.268 61.866 303.585 61.642C303.903 61.418 304.15 61.1147 304.327 60.732C304.505 60.34 304.593 59.8873 304.593 59.374C304.593 58.8793 304.5 58.4407 304.313 58.058C304.136 57.666 303.889 57.3627 303.571 57.148C303.263 56.924 302.899 56.812 302.479 56.812C302.041 56.812 301.649 56.924 301.303 57.148C300.967 57.3627 300.701 57.666 300.505 58.058C300.319 58.4407 300.225 58.8793 300.225 59.374C300.225 59.8873 300.323 60.34 300.519 60.732C300.715 61.1147 300.981 61.418 301.317 61.642C301.663 61.866 302.055 61.978 302.493 61.978ZM314.239 63.168C313.558 63.168 312.951 63.014 312.419 62.706C311.896 62.3887 311.486 61.9547 311.187 61.404C310.888 60.8533 310.739 60.2187 310.739 59.5C310.739 58.7813 310.884 58.1467 311.173 57.596C311.472 57.0453 311.882 56.616 312.405 56.308C312.937 55.9907 313.539 55.832 314.211 55.832C314.902 55.832 315.508 55.9907 316.031 56.308C316.563 56.616 316.974 57.0453 317.263 57.596C317.562 58.1467 317.711 58.7813 317.711 59.5C317.711 60.2187 317.562 60.8533 317.263 61.404C316.974 61.9547 316.568 62.3887 316.045 62.706C315.522 63.014 314.92 63.168 314.239 63.168ZM314.239 62.132C314.706 62.132 315.112 62.02 315.457 61.796C315.802 61.572 316.073 61.264 316.269 60.872C316.474 60.48 316.577 60.0227 316.577 59.5C316.577 58.9773 316.474 58.52 316.269 58.128C316.073 57.736 315.798 57.428 315.443 57.204C315.088 56.98 314.678 56.868 314.211 56.868C313.754 56.868 313.348 56.98 312.993 57.204C312.648 57.428 312.372 57.736 312.167 58.128C311.971 58.52 311.873 58.9773 311.873 59.5C311.873 60.0133 311.971 60.4707 312.167 60.872C312.372 61.264 312.652 61.572 313.007 61.796C313.371 62.02 313.782 62.132 314.239 62.132ZM319.882 59.206C319.882 58.45 320.027 57.8387 320.316 57.372C320.605 56.896 320.974 56.546 321.422 56.322C321.879 56.0887 322.36 55.972 322.864 55.972V57.022C322.453 57.022 322.057 57.092 321.674 57.232C321.301 57.3627 320.993 57.582 320.75 57.89C320.507 58.198 320.386 58.618 320.386 59.15L319.882 59.206ZM319.266 63V56H320.386V63H319.266ZM328.072 59.206C328.072 58.45 328.216 57.8387 328.506 57.372C328.795 56.896 329.164 56.546 329.612 56.322C330.069 56.0887 330.55 55.972 331.054 55.972V57.022C330.643 57.022 330.246 57.092 329.864 57.232C329.49 57.3627 329.182 57.582 328.94 57.89C328.697 58.198 328.576 58.618 328.576 59.15L328.072 59.206ZM327.456 63V56H328.576V63H327.456ZM335.252 63.168C334.571 63.168 333.969 63.014 333.446 62.706C332.923 62.3887 332.513 61.9547 332.214 61.404C331.925 60.8533 331.78 60.2187 331.78 59.5C331.78 58.7813 331.925 58.1467 332.214 57.596C332.513 57.0453 332.919 56.616 333.432 56.308C333.955 55.9907 334.552 55.832 335.224 55.832C335.877 55.832 336.442 55.9953 336.918 56.322C337.394 56.6393 337.763 57.0873 338.024 57.666C338.285 58.2447 338.416 58.926 338.416 59.71H332.634L332.914 59.472C332.914 60.032 333.012 60.5127 333.208 60.914C333.413 61.3153 333.698 61.6233 334.062 61.838C334.426 62.0433 334.841 62.146 335.308 62.146C335.803 62.146 336.218 62.0293 336.554 61.796C336.899 61.5627 337.165 61.2547 337.352 60.872L338.318 61.362C338.141 61.726 337.903 62.0433 337.604 62.314C337.315 62.5847 336.969 62.7947 336.568 62.944C336.176 63.0933 335.737 63.168 335.252 63.168ZM332.984 58.996L332.69 58.772H337.52L337.226 59.01C337.226 58.562 337.137 58.1747 336.96 57.848C336.783 57.5213 336.545 57.2693 336.246 57.092C335.947 56.9147 335.602 56.826 335.21 56.826C334.827 56.826 334.463 56.9147 334.118 57.092C333.782 57.2693 333.507 57.5213 333.292 57.848C333.087 58.1653 332.984 58.548 332.984 58.996ZM342.279 63.168C341.765 63.168 341.317 63.0933 340.935 62.944C340.552 62.7853 340.23 62.58 339.969 62.328C339.717 62.076 339.535 61.8007 339.423 61.502L340.403 61.096C340.561 61.4133 340.799 61.67 341.117 61.866C341.434 62.062 341.784 62.16 342.167 62.16C342.605 62.16 342.974 62.076 343.273 61.908C343.571 61.7307 343.721 61.4833 343.721 61.166C343.721 60.8767 343.609 60.6433 343.385 60.466C343.17 60.2887 342.848 60.144 342.419 60.032L341.747 59.85C341.112 59.682 340.617 59.43 340.263 59.094C339.908 58.7487 339.731 58.3613 339.731 57.932C339.731 57.2693 339.945 56.756 340.375 56.392C340.813 56.0187 341.462 55.832 342.321 55.832C342.731 55.832 343.105 55.8927 343.441 56.014C343.777 56.1353 344.066 56.308 344.309 56.532C344.551 56.7467 344.729 57.0033 344.841 57.302L343.861 57.736C343.739 57.4187 343.539 57.19 343.259 57.05C342.979 56.91 342.638 56.84 342.237 56.84C341.807 56.84 341.471 56.9333 341.229 57.12C340.986 57.2973 340.865 57.5493 340.865 57.876C340.865 58.0627 340.963 58.24 341.159 58.408C341.364 58.5667 341.663 58.6973 342.055 58.8L342.755 58.982C343.212 59.094 343.595 59.262 343.903 59.486C344.211 59.7007 344.444 59.948 344.603 60.228C344.761 60.508 344.841 60.8067 344.841 61.124C344.841 61.544 344.729 61.908 344.505 62.216C344.281 62.524 343.977 62.762 343.595 62.93C343.212 63.0887 342.773 63.168 342.279 63.168ZM346.42 65.8V56H347.47L347.54 57.288V65.8H346.42ZM349.906 63.168C349.318 63.168 348.8 63.014 348.352 62.706C347.913 62.398 347.573 61.9687 347.33 61.418C347.087 60.858 346.966 60.2187 346.966 59.5C346.966 58.772 347.087 58.1327 347.33 57.582C347.573 57.0313 347.913 56.602 348.352 56.294C348.8 55.986 349.318 55.832 349.906 55.832C350.531 55.832 351.082 55.986 351.558 56.294C352.034 56.602 352.403 57.0313 352.664 57.582C352.935 58.1327 353.07 58.772 353.07 59.5C353.07 60.2187 352.935 60.858 352.664 61.418C352.403 61.9687 352.034 62.398 351.558 62.706C351.082 63.014 350.531 63.168 349.906 63.168ZM349.654 62.146C350.093 62.146 350.48 62.034 350.816 61.81C351.161 61.586 351.432 61.2733 351.628 60.872C351.833 60.4707 351.936 60.0133 351.936 59.5C351.936 58.9867 351.838 58.5293 351.642 58.128C351.455 57.7267 351.189 57.414 350.844 57.19C350.499 56.966 350.107 56.854 349.668 56.854C349.257 56.854 348.889 56.966 348.562 57.19C348.245 57.414 347.993 57.7267 347.806 58.128C347.629 58.5293 347.54 58.9867 347.54 59.5C347.54 60.0133 347.629 60.4707 347.806 60.872C347.993 61.2733 348.245 61.586 348.562 61.81C348.879 62.034 349.243 62.146 349.654 62.146ZM357.716 63.168C357.034 63.168 356.428 63.014 355.896 62.706C355.373 62.3887 354.962 61.9547 354.664 61.404C354.365 60.8533 354.216 60.2187 354.216 59.5C354.216 58.7813 354.36 58.1467 354.65 57.596C354.948 57.0453 355.359 56.616 355.882 56.308C356.414 55.9907 357.016 55.832 357.688 55.832C358.378 55.832 358.985 55.9907 359.508 56.308C360.04 56.616 360.45 57.0453 360.74 57.596C361.038 58.1467 361.188 58.7813 361.188 59.5C361.188 60.2187 361.038 60.8533 360.74 61.404C360.45 61.9547 360.044 62.3887 359.522 62.706C358.999 63.014 358.397 63.168 357.716 63.168ZM357.716 62.132C358.182 62.132 358.588 62.02 358.934 61.796C359.279 61.572 359.55 61.264 359.746 60.872C359.951 60.48 360.054 60.0227 360.054 59.5C360.054 58.9773 359.951 58.52 359.746 58.128C359.55 57.736 359.274 57.428 358.92 57.204C358.565 56.98 358.154 56.868 357.688 56.868C357.23 56.868 356.824 56.98 356.47 57.204C356.124 57.428 355.849 57.736 355.644 58.128C355.448 58.52 355.35 58.9773 355.35 59.5C355.35 60.0133 355.448 60.4707 355.644 60.872C355.849 61.264 356.129 61.572 356.484 61.796C356.848 62.02 357.258 62.132 357.716 62.132ZM362.743 63V56H363.793L363.863 57.288V63H362.743ZM367.657 63V59.416H368.777V63H367.657ZM367.657 59.416C367.657 58.7253 367.577 58.198 367.419 57.834C367.26 57.47 367.041 57.2227 366.761 57.092C366.481 56.952 366.163 56.882 365.809 56.882C365.193 56.882 364.712 57.1013 364.367 57.54C364.031 57.9693 363.863 58.5807 363.863 59.374H363.317C363.317 58.6367 363.424 58.002 363.639 57.47C363.853 56.938 364.166 56.532 364.577 56.252C364.987 55.972 365.482 55.832 366.061 55.832C366.611 55.832 367.087 55.944 367.489 56.168C367.899 56.3827 368.217 56.728 368.441 57.204C368.674 57.68 368.786 58.3053 368.777 59.08V59.416H367.657ZM372.999 63.168C372.486 63.168 372.038 63.0933 371.655 62.944C371.273 62.7853 370.951 62.58 370.689 62.328C370.437 62.076 370.255 61.8007 370.143 61.502L371.123 61.096C371.282 61.4133 371.52 61.67 371.837 61.866C372.155 62.062 372.505 62.16 372.887 62.16C373.326 62.16 373.695 62.076 373.993 61.908C374.292 61.7307 374.441 61.4833 374.441 61.166C374.441 60.8767 374.329 60.6433 374.105 60.466C373.891 60.2887 373.569 60.144 373.139 60.032L372.467 59.85C371.833 59.682 371.338 59.43 370.983 59.094C370.629 58.7487 370.451 58.3613 370.451 57.932C370.451 57.2693 370.666 56.756 371.095 56.392C371.534 56.0187 372.183 55.832 373.041 55.832C373.452 55.832 373.825 55.8927 374.161 56.014C374.497 56.1353 374.787 56.308 375.029 56.532C375.272 56.7467 375.449 57.0033 375.561 57.302L374.581 57.736C374.46 57.4187 374.259 57.19 373.979 57.05C373.699 56.91 373.359 56.84 372.957 56.84C372.528 56.84 372.192 56.9333 371.949 57.12C371.707 57.2973 371.585 57.5493 371.585 57.876C371.585 58.0627 371.683 58.24 371.879 58.408C372.085 58.5667 372.383 58.6973 372.775 58.8L373.475 58.982C373.933 59.094 374.315 59.262 374.623 59.486C374.931 59.7007 375.165 59.948 375.323 60.228C375.482 60.508 375.561 60.8067 375.561 61.124C375.561 61.544 375.449 61.908 375.225 62.216C375.001 62.524 374.698 62.762 374.315 62.93C373.933 63.0887 373.494 63.168 372.999 63.168ZM380.137 63.168C379.455 63.168 378.853 63.014 378.331 62.706C377.808 62.3887 377.397 61.9547 377.099 61.404C376.809 60.8533 376.665 60.2187 376.665 59.5C376.665 58.7813 376.809 58.1467 377.099 57.596C377.397 57.0453 377.803 56.616 378.317 56.308C378.839 55.9907 379.437 55.832 380.109 55.832C380.762 55.832 381.327 55.9953 381.803 56.322C382.279 56.6393 382.647 57.0873 382.909 57.666C383.17 58.2447 383.301 58.926 383.301 59.71H377.519L377.799 59.472C377.799 60.032 377.897 60.5127 378.093 60.914C378.298 61.3153 378.583 61.6233 378.947 61.838C379.311 62.0433 379.726 62.146 380.193 62.146C380.687 62.146 381.103 62.0293 381.439 61.796C381.784 61.5627 382.05 61.2547 382.237 60.872L383.203 61.362C383.025 61.726 382.787 62.0433 382.489 62.314C382.199 62.5847 381.854 62.7947 381.453 62.944C381.061 63.0933 380.622 63.168 380.137 63.168ZM377.869 58.996L377.575 58.772H382.405L382.111 59.01C382.111 58.562 382.022 58.1747 381.845 57.848C381.667 57.5213 381.429 57.2693 381.131 57.092C380.832 56.9147 380.487 56.826 380.095 56.826C379.712 56.826 379.348 56.9147 379.003 57.092C378.667 57.2693 378.391 57.5213 378.177 57.848C377.971 58.1653 377.869 58.548 377.869 58.996ZM384.545 59.346V58.324H388.745V59.346H384.545ZM395.675 65.8V57.302L395.731 56H396.795V65.8H395.675ZM393.309 63.168C392.684 63.168 392.133 63.014 391.657 62.706C391.181 62.398 390.808 61.9687 390.537 61.418C390.276 60.858 390.145 60.2187 390.145 59.5C390.145 58.772 390.276 58.1327 390.537 57.582C390.808 57.0313 391.181 56.602 391.657 56.294C392.133 55.986 392.684 55.832 393.309 55.832C393.897 55.832 394.411 55.986 394.849 56.294C395.297 56.602 395.643 57.0313 395.885 57.582C396.128 58.1327 396.249 58.772 396.249 59.5C396.249 60.2187 396.128 60.858 395.885 61.418C395.643 61.9687 395.297 62.398 394.849 62.706C394.411 63.014 393.897 63.168 393.309 63.168ZM393.561 62.146C393.972 62.146 394.336 62.034 394.653 61.81C394.971 61.586 395.218 61.2733 395.395 60.872C395.582 60.4707 395.675 60.0133 395.675 59.5C395.675 58.9867 395.582 58.5293 395.395 58.128C395.218 57.7267 394.971 57.414 394.653 57.19C394.336 56.966 393.967 56.854 393.547 56.854C393.109 56.854 392.717 56.966 392.371 57.19C392.035 57.414 391.769 57.7267 391.573 58.128C391.377 58.5293 391.279 58.9867 391.279 59.5C391.279 60.0133 391.377 60.4707 391.573 60.872C391.769 61.2733 392.04 61.586 392.385 61.81C392.731 62.034 393.123 62.146 393.561 62.146ZM403.447 63L403.377 61.712V56H404.497V63H403.447ZM398.463 59.584V56H399.583V59.584H398.463ZM399.583 59.584C399.583 60.2747 399.662 60.802 399.821 61.166C399.98 61.53 400.199 61.782 400.479 61.922C400.768 62.0527 401.09 62.118 401.445 62.118C402.052 62.118 402.523 61.8987 402.859 61.46C403.204 61.0213 403.377 60.41 403.377 59.626H403.923C403.923 60.3633 403.816 60.998 403.601 61.53C403.386 62.062 403.074 62.468 402.663 62.748C402.262 63.028 401.767 63.168 401.179 63.168C400.638 63.168 400.162 63.0607 399.751 62.846C399.34 62.622 399.023 62.272 398.799 61.796C398.575 61.3107 398.463 60.6853 398.463 59.92V59.584H399.583ZM410.764 63L410.708 61.852V59.304C410.708 58.7533 410.647 58.3007 410.526 57.946C410.404 57.582 410.213 57.3067 409.952 57.12C409.69 56.9333 409.35 56.84 408.93 56.84C408.547 56.84 408.216 56.9193 407.936 57.078C407.665 57.2273 407.441 57.47 407.264 57.806L406.256 57.414C406.433 57.0873 406.648 56.8073 406.9 56.574C407.152 56.3313 407.446 56.1493 407.782 56.028C408.118 55.8973 408.5 55.832 408.93 55.832C409.583 55.832 410.12 55.9627 410.54 56.224C410.969 56.476 411.291 56.854 411.506 57.358C411.72 57.8527 411.823 58.4687 411.814 59.206L411.8 63H410.764ZM408.664 63.168C407.842 63.168 407.198 62.9813 406.732 62.608C406.274 62.2253 406.046 61.698 406.046 61.026C406.046 60.3167 406.279 59.7753 406.746 59.402C407.222 59.0193 407.884 58.828 408.734 58.828H410.736V59.766H408.986C408.332 59.766 407.866 59.8733 407.586 60.088C407.315 60.3027 407.18 60.6107 407.18 61.012C407.18 61.376 407.315 61.6653 407.586 61.88C407.856 62.0853 408.234 62.188 408.72 62.188C409.121 62.188 409.471 62.104 409.77 61.936C410.068 61.7587 410.297 61.5113 410.456 61.194C410.624 60.8673 410.708 60.4847 410.708 60.046H411.184C411.184 60.998 410.969 61.7587 410.54 62.328C410.11 62.888 409.485 63.168 408.664 63.168ZM413.588 63V53.2H414.708V63H413.588ZM416.735 63V56H417.855V63H416.735ZM417.309 54.376C417.122 54.376 416.959 54.306 416.819 54.166C416.679 54.026 416.609 53.8627 416.609 53.676C416.609 53.48 416.679 53.3167 416.819 53.186C416.959 53.046 417.122 52.976 417.309 52.976C417.505 52.976 417.668 53.046 417.799 53.186C417.939 53.3167 418.009 53.48 418.009 53.676C418.009 53.8627 417.939 54.026 417.799 54.166C417.668 54.306 417.505 54.376 417.309 54.376ZM422.55 63.168C421.869 63.168 421.342 62.9907 420.968 62.636C420.595 62.2813 420.408 61.782 420.408 61.138V53.816H421.528V61.026C421.528 61.3807 421.622 61.656 421.808 61.852C422.004 62.0387 422.275 62.132 422.62 62.132C422.732 62.132 422.84 62.118 422.942 62.09C423.054 62.0527 423.199 61.9687 423.376 61.838L423.81 62.748C423.568 62.9067 423.348 63.014 423.152 63.07C422.956 63.1353 422.756 63.168 422.55 63.168ZM419.19 56.994V56H423.628V56.994H419.19ZM425.839 65.968C425.662 65.968 425.457 65.9307 425.223 65.856C424.99 65.7907 424.743 65.702 424.481 65.59L424.901 64.652C425.116 64.7453 425.303 64.8153 425.461 64.862C425.629 64.9087 425.76 64.932 425.853 64.932C426.105 64.932 426.311 64.862 426.469 64.722C426.637 64.5913 426.777 64.4 426.889 64.148L427.687 62.244L430.277 56H431.481L428.121 63.98C427.944 64.3907 427.757 64.7453 427.561 65.044C427.375 65.3427 427.146 65.5713 426.875 65.73C426.605 65.8887 426.259 65.968 425.839 65.968ZM427.379 63L424.355 56H425.545L428.149 62.23L428.485 63H427.379ZM438.488 63.168C437.974 63.168 437.526 63.0933 437.144 62.944C436.761 62.7853 436.439 62.58 436.178 62.328C435.926 62.076 435.744 61.8007 435.632 61.502L436.612 61.096C436.77 61.4133 437.008 61.67 437.326 61.866C437.643 62.062 437.993 62.16 438.376 62.16C438.814 62.16 439.183 62.076 439.482 61.908C439.78 61.7307 439.93 61.4833 439.93 61.166C439.93 60.8767 439.818 60.6433 439.594 60.466C439.379 60.2887 439.057 60.144 438.628 60.032L437.956 59.85C437.321 59.682 436.826 59.43 436.472 59.094C436.117 58.7487 435.94 58.3613 435.94 57.932C435.94 57.2693 436.154 56.756 436.584 56.392C437.022 56.0187 437.671 55.832 438.53 55.832C438.94 55.832 439.314 55.8927 439.65 56.014C439.986 56.1353 440.275 56.308 440.518 56.532C440.76 56.7467 440.938 57.0033 441.05 57.302L440.07 57.736C439.948 57.4187 439.748 57.19 439.468 57.05C439.188 56.91 438.847 56.84 438.446 56.84C438.016 56.84 437.68 56.9333 437.438 57.12C437.195 57.2973 437.074 57.5493 437.074 57.876C437.074 58.0627 437.172 58.24 437.368 58.408C437.573 58.5667 437.872 58.6973 438.264 58.8L438.964 58.982C439.421 59.094 439.804 59.262 440.112 59.486C440.42 59.7007 440.653 59.948 440.812 60.228C440.97 60.508 441.05 60.8067 441.05 61.124C441.05 61.544 440.938 61.908 440.714 62.216C440.49 62.524 440.186 62.762 439.804 62.93C439.421 63.0887 438.982 63.168 438.488 63.168ZM442.629 63V56H443.749V63H442.629ZM443.203 54.376C443.016 54.376 442.853 54.306 442.713 54.166C442.573 54.026 442.503 53.8627 442.503 53.676C442.503 53.48 442.573 53.3167 442.713 53.186C442.853 53.046 443.016 52.976 443.203 52.976C443.399 52.976 443.562 53.046 443.693 53.186C443.833 53.3167 443.903 53.48 443.903 53.676C443.903 53.8627 443.833 54.026 443.693 54.166C443.562 54.306 443.399 54.376 443.203 54.376ZM448.613 65.968C448.165 65.968 447.754 65.9213 447.381 65.828C447.017 65.744 446.704 65.646 446.443 65.534C446.191 65.4313 446.009 65.3427 445.897 65.268L446.317 64.358C446.438 64.4233 446.611 64.5027 446.835 64.596C447.059 64.6987 447.32 64.7827 447.619 64.848C447.927 64.9227 448.254 64.96 448.599 64.96C449.047 64.96 449.448 64.8667 449.803 64.68C450.167 64.5027 450.447 64.218 450.643 63.826C450.848 63.4433 450.951 62.9487 450.951 62.342V56H452.071V62.328C452.071 63.1307 451.922 63.8027 451.623 64.344C451.324 64.8853 450.914 65.2913 450.391 65.562C449.868 65.8327 449.276 65.968 448.613 65.968ZM448.571 62.944C447.946 62.944 447.395 62.7947 446.919 62.496C446.443 62.1973 446.07 61.782 445.799 61.25C445.538 60.7087 445.407 60.0927 445.407 59.402C445.407 58.6927 445.538 58.072 445.799 57.54C446.07 56.9987 446.443 56.5787 446.919 56.28C447.395 55.9813 447.946 55.832 448.571 55.832C449.159 55.832 449.672 55.9813 450.111 56.28C450.55 56.5787 450.89 56.9987 451.133 57.54C451.385 58.072 451.511 58.6927 451.511 59.402C451.511 60.102 451.385 60.718 451.133 61.25C450.89 61.782 450.55 62.1973 450.111 62.496C449.672 62.7947 449.159 62.944 448.571 62.944ZM448.837 61.978C449.248 61.978 449.612 61.866 449.929 61.642C450.246 61.418 450.494 61.1147 450.671 60.732C450.848 60.34 450.937 59.8873 450.937 59.374C450.937 58.8793 450.844 58.4407 450.657 58.058C450.48 57.666 450.232 57.3627 449.915 57.148C449.607 56.924 449.243 56.812 448.823 56.812C448.384 56.812 447.992 56.924 447.647 57.148C447.311 57.3627 447.045 57.666 446.849 58.058C446.662 58.4407 446.569 58.8793 446.569 59.374C446.569 59.8873 446.667 60.34 446.863 60.732C447.059 61.1147 447.325 61.418 447.661 61.642C448.006 61.866 448.398 61.978 448.837 61.978ZM454.03 63V56H455.08L455.15 57.288V63H454.03ZM458.944 63V59.416H460.064V63H458.944ZM458.944 59.416C458.944 58.7253 458.864 58.198 458.706 57.834C458.547 57.47 458.328 57.2227 458.048 57.092C457.768 56.952 457.45 56.882 457.096 56.882C456.48 56.882 455.999 57.1013 455.654 57.54C455.318 57.9693 455.15 58.5807 455.15 59.374H454.604C454.604 58.6367 454.711 58.002 454.926 57.47C455.14 56.938 455.453 56.532 455.864 56.252C456.274 55.972 456.769 55.832 457.348 55.832C457.898 55.832 458.374 55.944 458.776 56.168C459.186 56.3827 459.504 56.728 459.728 57.204C459.961 57.68 460.073 58.3053 460.064 59.08V59.416H458.944ZM466.148 63L466.092 61.852V59.304C466.092 58.7533 466.032 58.3007 465.91 57.946C465.789 57.582 465.598 57.3067 465.336 57.12C465.075 56.9333 464.734 56.84 464.314 56.84C463.932 56.84 463.6 56.9193 463.32 57.078C463.05 57.2273 462.826 57.47 462.648 57.806L461.64 57.414C461.818 57.0873 462.032 56.8073 462.284 56.574C462.536 56.3313 462.83 56.1493 463.166 56.028C463.502 55.8973 463.885 55.832 464.314 55.832C464.968 55.832 465.504 55.9627 465.924 56.224C466.354 56.476 466.676 56.854 466.89 57.358C467.105 57.8527 467.208 58.4687 467.198 59.206L467.184 63H466.148ZM464.048 63.168C463.227 63.168 462.583 62.9813 462.116 62.608C461.659 62.2253 461.43 61.698 461.43 61.026C461.43 60.3167 461.664 59.7753 462.13 59.402C462.606 59.0193 463.269 58.828 464.118 58.828H466.12V59.766H464.37C463.717 59.766 463.25 59.8733 462.97 60.088C462.7 60.3027 462.564 60.6107 462.564 61.012C462.564 61.376 462.7 61.6653 462.97 61.88C463.241 62.0853 463.619 62.188 464.104 62.188C464.506 62.188 464.856 62.104 465.154 61.936C465.453 61.7587 465.682 61.5113 465.84 61.194C466.008 60.8673 466.092 60.4847 466.092 60.046H466.568C466.568 60.998 466.354 61.7587 465.924 62.328C465.495 62.888 464.87 63.168 464.048 63.168ZM468.973 63V53.2H470.093V63H468.973ZM472.525 63.196C472.311 63.196 472.124 63.1213 471.965 62.972C471.816 62.8133 471.741 62.6313 471.741 62.426C471.741 62.2113 471.816 62.0293 471.965 61.88C472.124 61.7213 472.311 61.642 472.525 61.642C472.74 61.642 472.922 61.7213 473.071 61.88C473.221 62.0293 473.295 62.2113 473.295 62.426C473.295 62.6313 473.221 62.8133 473.071 62.972C472.922 63.1213 472.74 63.196 472.525 63.196Z" fill="#0A0B0D"/>
</g>
<defs>
<filter id="filter0_d_60_1246" x="0" y="0" width="717" height="93" filterUnits="userSpaceOnUse" color-interpolation-filters="sRGB">
<feFlood flood-opacity="0" result="BackgroundImageFix"/>
<feColorMatrix in="SourceAlpha" type="matrix" values="0 0 0 0 0 0 0 0 0 0 0 0 0 0 0 0 0 0 127 0" result="hardAlpha"/>
<feOffset dx="5" dy="5"/>
<feComposite in2="hardAlpha" operator="out"/>
<feColorMatrix type="matrix" values="0 0 0 0 0.0392157 0 0 0 0 0.0392157 0 0 0 0 0.0392157 0 0 0 1 0"/>
<feBlend mode="normal" in2="BackgroundImageFix" result="effect1_dropShadow_60_1246"/>
<feBlend mode="normal" in="SourceGraphic" in2="effect1_dropShadow_60_1246" result="shape"/>
</filter>
</defs>
</svg>
