<svg width="717" height="93" viewBox="0 0 717 93" fill="none" xmlns="http://www.w3.org/2000/svg">
<g opacity="0.98" filter="url(#filter0_d_150_353)">
<path d="M0 8C0 3.58172 3.58172 0 8 0H704C708.418 0 712 3.58172 712 8V80C712 84.4183 708.418 88 704 88H8C3.58172 88 0 84.4183 0 80V8Z" fill="white" shape-rendering="crispEdges"/>
<path d="M8 0.5H704C708.142 0.5 711.5 3.85786 711.5 8V80C711.5 84.1421 708.142 87.5 704 87.5H8C3.85786 87.5 0.5 84.1421 0.5 80V8C0.5 3.85786 3.85786 0.5 8 0.5Z" stroke="#0A0B0D" shape-rendering="crispEdges"/>
<path d="M305.828 38V26.8H307.812L311.332 31.984L314.82 26.8H316.82V38H314.964V29.728L311.316 35.12L307.684 29.76V38H305.828ZM324.013 38L323.933 36.496V33.888C323.933 33.344 323.874 32.8907 323.757 32.528C323.65 32.1547 323.469 31.872 323.213 31.68C322.967 31.4773 322.637 31.376 322.221 31.376C321.837 31.376 321.501 31.456 321.213 31.616C320.925 31.776 320.679 32.0267 320.477 32.368L318.909 31.792C319.079 31.44 319.303 31.1147 319.581 30.816C319.869 30.5067 320.226 30.2613 320.653 30.08C321.09 29.8987 321.613 29.808 322.221 29.808C322.999 29.808 323.65 29.9627 324.173 30.272C324.695 30.5707 325.079 31.0027 325.325 31.568C325.581 32.1333 325.709 32.816 325.709 33.616L325.661 38H324.013ZM321.709 38.192C320.749 38.192 320.002 37.9787 319.469 37.552C318.946 37.1253 318.685 36.5227 318.685 35.744C318.685 34.912 318.962 34.2773 319.517 33.84C320.082 33.4027 320.866 33.184 321.869 33.184H324.013V34.56H322.445C321.73 34.56 321.229 34.6613 320.941 34.864C320.653 35.056 320.509 35.3333 320.509 35.696C320.509 36.0053 320.631 36.2507 320.877 36.432C321.133 36.6027 321.485 36.688 321.933 36.688C322.338 36.688 322.69 36.5973 322.989 36.416C323.287 36.2347 323.517 35.9947 323.677 35.696C323.847 35.3973 323.933 35.0613 323.933 34.688H324.461C324.461 35.776 324.242 36.6347 323.805 37.264C323.367 37.8827 322.669 38.192 321.709 38.192ZM327.635 38V30H329.411V38H327.635ZM328.531 28.48C328.243 28.48 327.993 28.3787 327.779 28.176C327.577 27.9627 327.475 27.712 327.475 27.424C327.475 27.136 327.577 26.8907 327.779 26.688C327.993 26.4853 328.243 26.384 328.531 26.384C328.819 26.384 329.065 26.4853 329.267 26.688C329.481 26.8907 329.587 27.136 329.587 27.424C329.587 27.712 329.481 27.9627 329.267 28.176C329.065 28.3787 328.819 28.48 328.531 28.48ZM331.523 38V30H333.203L333.315 31.472V38H331.523ZM336.947 38V33.904H338.739V38H336.947ZM336.947 33.904C336.947 33.264 336.873 32.7733 336.723 32.432C336.585 32.08 336.382 31.8347 336.115 31.696C335.859 31.5573 335.555 31.488 335.203 31.488C334.606 31.4773 334.142 31.6747 333.811 32.08C333.481 32.4853 333.315 33.0667 333.315 33.824H332.643C332.643 32.9813 332.766 32.2613 333.011 31.664C333.257 31.056 333.609 30.5973 334.067 30.288C334.526 29.968 335.07 29.808 335.699 29.808C336.339 29.808 336.883 29.936 337.331 30.192C337.79 30.448 338.137 30.848 338.371 31.392C338.617 31.9253 338.739 32.624 338.739 33.488V33.904H336.947ZM344.75 38V26.8H346.734L350.254 31.984L353.742 26.8H355.742V38H353.886V29.728L350.238 35.12L346.606 29.76V38H344.75ZM361.623 38.192C360.844 38.192 360.151 38.016 359.543 37.664C358.945 37.3013 358.471 36.8053 358.118 36.176C357.777 35.5467 357.607 34.8213 357.607 34C357.607 33.1787 357.783 32.4533 358.135 31.824C358.487 31.1947 358.967 30.704 359.575 30.352C360.193 29.9893 360.897 29.808 361.687 29.808C362.401 29.808 363.047 29.9947 363.623 30.368C364.199 30.7307 364.652 31.2587 364.983 31.952C365.324 32.6453 365.495 33.472 365.495 34.432H359.207L359.447 34.208C359.447 34.6987 359.553 35.1253 359.767 35.488C359.98 35.84 360.263 36.112 360.615 36.304C360.967 36.496 361.356 36.592 361.783 36.592C362.273 36.592 362.679 36.4853 362.999 36.272C363.319 36.048 363.569 35.76 363.751 35.408L365.335 36.08C365.111 36.5067 364.823 36.88 364.471 37.2C364.129 37.52 363.719 37.7653 363.239 37.936C362.769 38.1067 362.231 38.192 361.623 38.192ZM359.559 33.28L359.303 33.056H363.815L363.575 33.28C363.575 32.8427 363.479 32.4853 363.287 32.208C363.095 31.92 362.849 31.7067 362.551 31.568C362.263 31.4187 361.959 31.344 361.639 31.344C361.319 31.344 360.999 31.4187 360.679 31.568C360.359 31.7067 360.092 31.92 359.879 32.208C359.665 32.4853 359.559 32.8427 359.559 33.28ZM369.779 38.192C369.246 38.192 368.755 38.112 368.307 37.952C367.859 37.792 367.475 37.568 367.155 37.28C366.835 36.9813 366.59 36.6347 366.419 36.24L367.971 35.552C368.131 35.8507 368.366 36.1013 368.675 36.304C368.995 36.5067 369.347 36.608 369.731 36.608C370.147 36.608 370.478 36.5387 370.723 36.4C370.979 36.2507 371.107 36.048 371.107 35.792C371.107 35.5467 371.011 35.36 370.819 35.232C370.627 35.0933 370.355 34.9813 370.003 34.896L369.251 34.688C368.494 34.496 367.902 34.192 367.475 33.776C367.048 33.3493 366.835 32.864 366.835 32.32C366.835 31.52 367.091 30.9013 367.603 30.464C368.126 30.0267 368.872 29.808 369.843 29.808C370.334 29.808 370.782 29.8827 371.187 30.032C371.603 30.1707 371.96 30.3733 372.259 30.64C372.558 30.896 372.766 31.2 372.883 31.552L371.395 32.224C371.288 31.9573 371.086 31.7547 370.787 31.616C370.488 31.4667 370.158 31.392 369.795 31.392C369.432 31.392 369.15 31.472 368.947 31.632C368.744 31.7813 368.643 31.9947 368.643 32.272C368.643 32.432 368.734 32.5813 368.915 32.72C369.096 32.848 369.358 32.9547 369.699 33.04L370.643 33.264C371.166 33.392 371.592 33.5947 371.923 33.872C372.254 34.1387 372.499 34.4427 372.659 34.784C372.819 35.1147 372.899 35.4507 372.899 35.792C372.899 36.272 372.76 36.6933 372.483 37.056C372.216 37.4187 371.848 37.7013 371.379 37.904C370.91 38.096 370.376 38.192 369.779 38.192ZM377.217 38.192C376.683 38.192 376.193 38.112 375.745 37.952C375.297 37.792 374.913 37.568 374.593 37.28C374.273 36.9813 374.027 36.6347 373.857 36.24L375.409 35.552C375.569 35.8507 375.803 36.1013 376.113 36.304C376.433 36.5067 376.785 36.608 377.169 36.608C377.585 36.608 377.915 36.5387 378.161 36.4C378.417 36.2507 378.545 36.048 378.545 35.792C378.545 35.5467 378.449 35.36 378.257 35.232C378.065 35.0933 377.793 34.9813 377.441 34.896L376.689 34.688C375.931 34.496 375.339 34.192 374.913 33.776C374.486 33.3493 374.273 32.864 374.273 32.32C374.273 31.52 374.529 30.9013 375.041 30.464C375.563 30.0267 376.31 29.808 377.281 29.808C377.771 29.808 378.219 29.8827 378.625 30.032C379.041 30.1707 379.398 30.3733 379.697 30.64C379.995 30.896 380.203 31.2 380.321 31.552L378.833 32.224C378.726 31.9573 378.523 31.7547 378.225 31.616C377.926 31.4667 377.595 31.392 377.233 31.392C376.87 31.392 376.587 31.472 376.385 31.632C376.182 31.7813 376.081 31.9947 376.081 32.272C376.081 32.432 376.171 32.5813 376.353 32.72C376.534 32.848 376.795 32.9547 377.137 33.04L378.081 33.264C378.603 33.392 379.03 33.5947 379.361 33.872C379.691 34.1387 379.937 34.4427 380.097 34.784C380.257 35.1147 380.337 35.4507 380.337 35.792C380.337 36.272 380.198 36.6933 379.921 37.056C379.654 37.4187 379.286 37.7013 378.817 37.904C378.347 38.096 377.814 38.192 377.217 38.192ZM386.638 38L386.558 36.496V33.888C386.558 33.344 386.499 32.8907 386.382 32.528C386.275 32.1547 386.094 31.872 385.838 31.68C385.592 31.4773 385.262 31.376 384.846 31.376C384.462 31.376 384.126 31.456 383.838 31.616C383.55 31.776 383.304 32.0267 383.102 32.368L381.534 31.792C381.704 31.44 381.928 31.1147 382.206 30.816C382.494 30.5067 382.851 30.2613 383.278 30.08C383.715 29.8987 384.238 29.808 384.846 29.808C385.624 29.808 386.275 29.9627 386.798 30.272C387.32 30.5707 387.704 31.0027 387.95 31.568C388.206 32.1333 388.334 32.816 388.334 33.616L388.286 38H386.638ZM384.334 38.192C383.374 38.192 382.627 37.9787 382.094 37.552C381.571 37.1253 381.31 36.5227 381.31 35.744C381.31 34.912 381.587 34.2773 382.142 33.84C382.707 33.4027 383.491 33.184 384.494 33.184H386.638V34.56H385.07C384.355 34.56 383.854 34.6613 383.566 34.864C383.278 35.056 383.134 35.3333 383.134 35.696C383.134 36.0053 383.256 36.2507 383.502 36.432C383.758 36.6027 384.11 36.688 384.558 36.688C384.963 36.688 385.315 36.5973 385.614 36.416C385.912 36.2347 386.142 35.9947 386.302 35.696C386.472 35.3973 386.558 35.0613 386.558 34.688H387.086C387.086 35.776 386.867 36.6347 386.43 37.264C385.992 37.8827 385.294 38.192 384.334 38.192ZM393.588 41.408C393.023 41.408 392.511 41.36 392.052 41.264C391.604 41.168 391.226 41.056 390.916 40.928C390.607 40.8 390.367 40.6773 390.196 40.56L390.884 39.12C391.034 39.1947 391.231 39.2853 391.476 39.392C391.732 39.5093 392.031 39.6107 392.372 39.696C392.714 39.7813 393.098 39.824 393.524 39.824C393.983 39.824 394.394 39.728 394.756 39.536C395.119 39.3547 395.402 39.072 395.604 38.688C395.807 38.304 395.908 37.8133 395.908 37.216V30H397.7V37.168C397.7 38.0747 397.53 38.8427 397.188 39.472C396.847 40.112 396.367 40.592 395.748 40.912C395.13 41.2427 394.41 41.408 393.588 41.408ZM393.316 37.84C392.591 37.84 391.956 37.6747 391.412 37.344C390.879 37.0133 390.458 36.5547 390.148 35.968C389.85 35.3707 389.7 34.6827 389.7 33.904C389.7 33.072 389.85 32.352 390.148 31.744C390.458 31.136 390.879 30.6613 391.412 30.32C391.956 29.9787 392.591 29.808 393.316 29.808C393.967 29.808 394.532 29.9787 395.012 30.32C395.503 30.6613 395.882 31.1413 396.148 31.76C396.415 32.368 396.548 33.088 396.548 33.92C396.548 34.7093 396.415 35.3973 396.148 35.984C395.882 36.5707 395.503 37.0293 395.012 37.36C394.532 37.68 393.967 37.84 393.316 37.84ZM393.812 36.32C394.218 36.32 394.57 36.2133 394.868 36C395.178 35.7867 395.418 35.4987 395.588 35.136C395.759 34.7627 395.844 34.336 395.844 33.856C395.844 33.3653 395.759 32.9387 395.588 32.576C395.418 32.2027 395.178 31.9147 394.868 31.712C394.559 31.4987 394.202 31.392 393.796 31.392C393.37 31.392 392.991 31.4987 392.66 31.712C392.34 31.9147 392.084 32.2027 391.892 32.576C391.711 32.9387 391.62 33.3653 391.62 33.856C391.62 34.336 391.711 34.7627 391.892 35.136C392.084 35.4987 392.346 35.7867 392.676 36C393.007 36.2133 393.386 36.32 393.812 36.32ZM403.248 38.192C402.469 38.192 401.776 38.016 401.168 37.664C400.57 37.3013 400.096 36.8053 399.743 36.176C399.402 35.5467 399.232 34.8213 399.232 34C399.232 33.1787 399.408 32.4533 399.76 31.824C400.112 31.1947 400.592 30.704 401.2 30.352C401.818 29.9893 402.522 29.808 403.312 29.808C404.026 29.808 404.672 29.9947 405.248 30.368C405.824 30.7307 406.277 31.2587 406.608 31.952C406.949 32.6453 407.12 33.472 407.12 34.432H400.832L401.072 34.208C401.072 34.6987 401.178 35.1253 401.392 35.488C401.605 35.84 401.888 36.112 402.24 36.304C402.592 36.496 402.981 36.592 403.408 36.592C403.898 36.592 404.304 36.4853 404.624 36.272C404.944 36.048 405.194 35.76 405.376 35.408L406.96 36.08C406.736 36.5067 406.448 36.88 406.096 37.2C405.754 37.52 405.344 37.7653 404.864 37.936C404.394 38.1067 403.856 38.192 403.248 38.192ZM401.184 33.28L400.928 33.056H405.44L405.2 33.28C405.2 32.8427 405.104 32.4853 404.912 32.208C404.72 31.92 404.474 31.7067 404.176 31.568C403.888 31.4187 403.584 31.344 403.264 31.344C402.944 31.344 402.624 31.4187 402.304 31.568C401.984 31.7067 401.717 31.92 401.504 32.208C401.29 32.4853 401.184 32.8427 401.184 33.28Z" fill="#0A0B0D"/>
<path d="M230.723 63L226.789 53.2H227.979L231.969 63H230.723ZM222.757 63L226.747 53.2H227.951L224.017 63H222.757ZM224.647 60.214V59.15H230.093V60.214H224.647ZM233.085 63V56H234.135L234.205 57.288V63H233.085ZM237.999 63V59.416H239.119V63H237.999ZM237.999 59.416C237.999 58.7253 237.92 58.198 237.761 57.834C237.603 57.47 237.383 57.2227 237.103 57.092C236.823 56.952 236.506 56.882 236.151 56.882C235.535 56.882 235.055 57.1013 234.709 57.54C234.373 57.9693 234.205 58.5807 234.205 59.374H233.659C233.659 58.6367 233.767 58.002 233.981 57.47C234.196 56.938 234.509 56.532 234.919 56.252C235.33 55.972 235.825 55.832 236.403 55.832C236.954 55.832 237.43 55.944 237.831 56.168C238.242 56.3827 238.559 56.728 238.783 57.204C239.017 57.68 239.129 58.3053 239.119 59.08V59.416H237.999ZM243.342 63.168C242.829 63.168 242.381 63.0933 241.998 62.944C241.615 62.7853 241.293 62.58 241.032 62.328C240.78 62.076 240.598 61.8007 240.486 61.502L241.466 61.096C241.625 61.4133 241.863 61.67 242.18 61.866C242.497 62.062 242.847 62.16 243.23 62.16C243.669 62.16 244.037 62.076 244.336 61.908C244.635 61.7307 244.784 61.4833 244.784 61.166C244.784 60.8767 244.672 60.6433 244.448 60.466C244.233 60.2887 243.911 60.144 243.482 60.032L242.81 59.85C242.175 59.682 241.681 59.43 241.326 59.094C240.971 58.7487 240.794 58.3613 240.794 57.932C240.794 57.2693 241.009 56.756 241.438 56.392C241.877 56.0187 242.525 55.832 243.384 55.832C243.795 55.832 244.168 55.8927 244.504 56.014C244.84 56.1353 245.129 56.308 245.372 56.532C245.615 56.7467 245.792 57.0033 245.904 57.302L244.924 57.736C244.803 57.4187 244.602 57.19 244.322 57.05C244.042 56.91 243.701 56.84 243.3 56.84C242.871 56.84 242.535 56.9333 242.292 57.12C242.049 57.2973 241.928 57.5493 241.928 57.876C241.928 58.0627 242.026 58.24 242.222 58.408C242.427 58.5667 242.726 58.6973 243.118 58.8L243.818 58.982C244.275 59.094 244.658 59.262 244.966 59.486C245.274 59.7007 245.507 59.948 245.666 60.228C245.825 60.508 245.904 60.8067 245.904 61.124C245.904 61.544 245.792 61.908 245.568 62.216C245.344 62.524 245.041 62.762 244.658 62.93C244.275 63.0887 243.837 63.168 243.342 63.168ZM253.77 63L256.136 56H257.27L254.89 63H253.77ZM249.01 63L251.376 56H252.426L250.088 63H249.01ZM248.954 63L246.574 56H247.708L250.046 63H248.954ZM253.77 63L251.432 56H252.496L254.834 63H253.77ZM261.294 63.168C260.613 63.168 260.011 63.014 259.488 62.706C258.965 62.3887 258.555 61.9547 258.256 61.404C257.967 60.8533 257.822 60.2187 257.822 59.5C257.822 58.7813 257.967 58.1467 258.256 57.596C258.555 57.0453 258.961 56.616 259.474 56.308C259.997 55.9907 260.594 55.832 261.266 55.832C261.919 55.832 262.484 55.9953 262.96 56.322C263.436 56.6393 263.805 57.0873 264.066 57.666C264.327 58.2447 264.458 58.926 264.458 59.71H258.676L258.956 59.472C258.956 60.032 259.054 60.5127 259.25 60.914C259.455 61.3153 259.74 61.6233 260.104 61.838C260.468 62.0433 260.883 62.146 261.35 62.146C261.845 62.146 262.26 62.0293 262.596 61.796C262.941 61.5627 263.207 61.2547 263.394 60.872L264.36 61.362C264.183 61.726 263.945 62.0433 263.646 62.314C263.357 62.5847 263.011 62.7947 262.61 62.944C262.218 63.0933 261.779 63.168 261.294 63.168ZM259.026 58.996L258.732 58.772H263.562L263.268 59.01C263.268 58.562 263.179 58.1747 263.002 57.848C262.825 57.5213 262.587 57.2693 262.288 57.092C261.989 56.9147 261.644 56.826 261.252 56.826C260.869 56.826 260.505 56.9147 260.16 57.092C259.824 57.2693 259.549 57.5213 259.334 57.848C259.129 58.1653 259.026 58.548 259.026 58.996ZM266.487 59.206C266.487 58.45 266.631 57.8387 266.921 57.372C267.21 56.896 267.579 56.546 268.027 56.322C268.484 56.0887 268.965 55.972 269.469 55.972V57.022C269.058 57.022 268.661 57.092 268.279 57.232C267.905 57.3627 267.597 57.582 267.355 57.89C267.112 58.198 266.991 58.618 266.991 59.15L266.487 59.206ZM265.871 63V56H266.991V63H265.871ZM270.181 64.61L270.979 61.656H272.239L271.147 64.61H270.181ZM277.288 63V56H278.408V63H277.288ZM277.862 54.376C277.676 54.376 277.512 54.306 277.372 54.166C277.232 54.026 277.162 53.8627 277.162 53.676C277.162 53.48 277.232 53.3167 277.372 53.186C277.512 53.046 277.676 52.976 277.862 52.976C278.058 52.976 278.222 53.046 278.352 53.186C278.492 53.3167 278.562 53.48 278.562 53.676C278.562 53.8627 278.492 54.026 278.352 54.166C278.222 54.306 278.058 54.376 277.862 54.376ZM280.472 63V56H281.522L281.592 57.288V63H280.472ZM285.386 63V59.416H286.506V63H285.386ZM285.386 59.416C285.386 58.7253 285.307 58.198 285.148 57.834C284.99 57.47 284.77 57.2227 284.49 57.092C284.21 56.952 283.893 56.882 283.538 56.882C282.922 56.882 282.442 57.1013 282.096 57.54C281.76 57.9693 281.592 58.5807 281.592 59.374H281.046C281.046 58.6367 281.154 58.002 281.368 57.47C281.583 56.938 281.896 56.532 282.306 56.252C282.717 55.972 283.212 55.832 283.79 55.832C284.341 55.832 284.817 55.944 285.218 56.168C285.629 56.3827 285.946 56.728 286.17 57.204C286.404 57.68 286.516 58.3053 286.506 59.08V59.416H285.386ZM290.729 63.168C290.215 63.168 289.767 63.0933 289.385 62.944C289.002 62.7853 288.68 62.58 288.419 62.328C288.167 62.076 287.985 61.8007 287.873 61.502L288.853 61.096C289.011 61.4133 289.249 61.67 289.567 61.866C289.884 62.062 290.234 62.16 290.617 62.16C291.055 62.16 291.424 62.076 291.723 61.908C292.021 61.7307 292.171 61.4833 292.171 61.166C292.171 60.8767 292.059 60.6433 291.835 60.466C291.62 60.2887 291.298 60.144 290.869 60.032L290.197 59.85C289.562 59.682 289.067 59.43 288.713 59.094C288.358 58.7487 288.181 58.3613 288.181 57.932C288.181 57.2693 288.395 56.756 288.825 56.392C289.263 56.0187 289.912 55.832 290.771 55.832C291.181 55.832 291.555 55.8927 291.891 56.014C292.227 56.1353 292.516 56.308 292.759 56.532C293.001 56.7467 293.179 57.0033 293.291 57.302L292.311 57.736C292.189 57.4187 291.989 57.19 291.709 57.05C291.429 56.91 291.088 56.84 290.687 56.84C290.257 56.84 289.921 56.9333 289.679 57.12C289.436 57.2973 289.315 57.5493 289.315 57.876C289.315 58.0627 289.413 58.24 289.609 58.408C289.814 58.5667 290.113 58.6973 290.505 58.8L291.205 58.982C291.662 59.094 292.045 59.262 292.353 59.486C292.661 59.7007 292.894 59.948 293.053 60.228C293.211 60.508 293.291 60.8067 293.291 61.124C293.291 61.544 293.179 61.908 292.955 62.216C292.731 62.524 292.427 62.762 292.045 62.93C291.662 63.0887 291.223 63.168 290.729 63.168ZM294.87 63V56H295.99V63H294.87ZM295.444 54.376C295.258 54.376 295.094 54.306 294.954 54.166C294.814 54.026 294.744 53.8627 294.744 53.676C294.744 53.48 294.814 53.3167 294.954 53.186C295.094 53.046 295.258 52.976 295.444 52.976C295.64 52.976 295.804 53.046 295.934 53.186C296.074 53.3167 296.144 53.48 296.144 53.676C296.144 53.8627 296.074 54.026 295.934 54.166C295.804 54.306 295.64 54.376 295.444 54.376ZM300.854 65.968C300.406 65.968 299.996 65.9213 299.622 65.828C299.258 65.744 298.946 65.646 298.684 65.534C298.432 65.4313 298.25 65.3427 298.138 65.268L298.558 64.358C298.68 64.4233 298.852 64.5027 299.076 64.596C299.3 64.6987 299.562 64.7827 299.86 64.848C300.168 64.9227 300.495 64.96 300.84 64.96C301.288 64.96 301.69 64.8667 302.044 64.68C302.408 64.5027 302.688 64.218 302.884 63.826C303.09 63.4433 303.192 62.9487 303.192 62.342V56H304.312V62.328C304.312 63.1307 304.163 63.8027 303.864 64.344C303.566 64.8853 303.155 65.2913 302.632 65.562C302.11 65.8327 301.517 65.968 300.854 65.968ZM300.812 62.944C300.187 62.944 299.636 62.7947 299.16 62.496C298.684 62.1973 298.311 61.782 298.04 61.25C297.779 60.7087 297.648 60.0927 297.648 59.402C297.648 58.6927 297.779 58.072 298.04 57.54C298.311 56.9987 298.684 56.5787 299.16 56.28C299.636 55.9813 300.187 55.832 300.812 55.832C301.4 55.832 301.914 55.9813 302.352 56.28C302.791 56.5787 303.132 56.9987 303.374 57.54C303.626 58.072 303.752 58.6927 303.752 59.402C303.752 60.102 303.626 60.718 303.374 61.25C303.132 61.782 302.791 62.1973 302.352 62.496C301.914 62.7947 301.4 62.944 300.812 62.944ZM301.078 61.978C301.489 61.978 301.853 61.866 302.17 61.642C302.488 61.418 302.735 61.1147 302.912 60.732C303.09 60.34 303.178 59.8873 303.178 59.374C303.178 58.8793 303.085 58.4407 302.898 58.058C302.721 57.666 302.474 57.3627 302.156 57.148C301.848 56.924 301.484 56.812 301.064 56.812C300.626 56.812 300.234 56.924 299.888 57.148C299.552 57.3627 299.286 57.666 299.09 58.058C298.904 58.4407 298.81 58.8793 298.81 59.374C298.81 59.8873 298.908 60.34 299.104 60.732C299.3 61.1147 299.566 61.418 299.902 61.642C300.248 61.866 300.64 61.978 301.078 61.978ZM306.271 63V53.2H307.391V63H306.271ZM311.199 63V59.416H312.319V63H311.199ZM311.199 59.416C311.199 58.7253 311.115 58.198 310.947 57.834C310.788 57.47 310.569 57.2227 310.289 57.092C310.009 56.952 309.692 56.882 309.337 56.882C308.721 56.882 308.24 57.1013 307.895 57.54C307.559 57.9693 307.391 58.5807 307.391 59.374H306.845C306.845 58.6367 306.952 58.002 307.167 57.47C307.391 56.938 307.708 56.532 308.119 56.252C308.53 55.972 309.024 55.832 309.603 55.832C310.144 55.832 310.62 55.944 311.031 56.168C311.442 56.3827 311.759 56.728 311.983 57.204C312.216 57.68 312.328 58.3053 312.319 59.08V59.416H311.199ZM316.71 63.168C316.028 63.168 315.501 62.9907 315.128 62.636C314.754 62.2813 314.568 61.782 314.568 61.138V53.816H315.688V61.026C315.688 61.3807 315.781 61.656 315.968 61.852C316.164 62.0387 316.434 62.132 316.78 62.132C316.892 62.132 316.999 62.118 317.102 62.09C317.214 62.0527 317.358 61.9687 317.536 61.838L317.97 62.748C317.727 62.9067 317.508 63.014 317.312 63.07C317.116 63.1353 316.915 63.168 316.71 63.168ZM313.35 56.994V56H317.788V56.994H313.35ZM318.949 64.61L319.747 61.656H321.007L319.915 64.61H318.949ZM329.108 63.168C328.417 63.168 327.806 63.014 327.274 62.706C326.742 62.3887 326.327 61.9547 326.028 61.404C325.729 60.8533 325.58 60.2187 325.58 59.5C325.58 58.7813 325.725 58.1467 326.014 57.596C326.313 57.0453 326.728 56.616 327.26 56.308C327.792 55.9907 328.399 55.832 329.08 55.832C329.752 55.832 330.354 55.986 330.886 56.294C331.418 56.602 331.824 57.036 332.104 57.596L331.082 58.058C330.895 57.6847 330.625 57.3953 330.27 57.19C329.915 56.9753 329.509 56.868 329.052 56.868C328.595 56.868 328.189 56.98 327.834 57.204C327.489 57.428 327.213 57.7407 327.008 58.142C326.812 58.534 326.714 58.9867 326.714 59.5C326.714 60.0133 326.812 60.4707 327.008 60.872C327.213 61.264 327.493 61.572 327.848 61.796C328.212 62.02 328.623 62.132 329.08 62.132C329.537 62.132 329.943 62.0153 330.298 61.782C330.662 61.5487 330.937 61.222 331.124 60.802L332.146 61.264C331.866 61.8613 331.46 62.328 330.928 62.664C330.396 63 329.789 63.168 329.108 63.168ZM336.654 63.168C335.973 63.168 335.366 63.014 334.834 62.706C334.311 62.3887 333.901 61.9547 333.602 61.404C333.303 60.8533 333.154 60.2187 333.154 59.5C333.154 58.7813 333.299 58.1467 333.588 57.596C333.887 57.0453 334.297 56.616 334.82 56.308C335.352 55.9907 335.954 55.832 336.626 55.832C337.317 55.832 337.923 55.9907 338.446 56.308C338.978 56.616 339.389 57.0453 339.678 57.596C339.977 58.1467 340.126 58.7813 340.126 59.5C340.126 60.2187 339.977 60.8533 339.678 61.404C339.389 61.9547 338.983 62.3887 338.46 62.706C337.937 63.014 337.335 63.168 336.654 63.168ZM336.654 62.132C337.121 62.132 337.527 62.02 337.872 61.796C338.217 61.572 338.488 61.264 338.684 60.872C338.889 60.48 338.992 60.0227 338.992 59.5C338.992 58.9773 338.889 58.52 338.684 58.128C338.488 57.736 338.213 57.428 337.858 57.204C337.503 56.98 337.093 56.868 336.626 56.868C336.169 56.868 335.763 56.98 335.408 57.204C335.063 57.428 334.787 57.736 334.582 58.128C334.386 58.52 334.288 58.9773 334.288 59.5C334.288 60.0133 334.386 60.4707 334.582 60.872C334.787 61.264 335.067 61.572 335.422 61.796C335.786 62.02 336.197 62.132 336.654 62.132ZM341.681 63V56H342.731L342.801 57.288V63H341.681ZM346.595 63V59.416H347.715V63H346.595ZM346.595 59.416C346.595 58.7253 346.516 58.198 346.357 57.834C346.199 57.47 345.979 57.2227 345.699 57.092C345.419 56.952 345.102 56.882 344.747 56.882C344.131 56.882 343.651 57.1013 343.305 57.54C342.969 57.9693 342.801 58.5807 342.801 59.374H342.255C342.255 58.6367 342.363 58.002 342.577 57.47C342.792 56.938 343.105 56.532 343.515 56.252C343.926 55.972 344.421 55.832 344.999 55.832C345.55 55.832 346.026 55.944 346.427 56.168C346.838 56.3827 347.155 56.728 347.379 57.204C347.613 57.68 347.725 58.3053 347.715 59.08V59.416H346.595ZM350.188 63V55.202C350.188 54.474 350.356 53.928 350.692 53.564C351.037 53.1907 351.56 53.004 352.26 53.004C352.446 53.004 352.656 53.0367 352.89 53.102C353.123 53.1673 353.37 53.2607 353.632 53.382L353.212 54.264C352.997 54.18 352.815 54.1147 352.666 54.068C352.516 54.0213 352.39 53.998 352.288 53.998C351.961 53.998 351.714 54.1053 351.546 54.32C351.387 54.5253 351.308 54.8473 351.308 55.286V63H350.188ZM348.9 56.966V56H353.338V56.966H348.9ZM354.726 63V56H355.846V63H354.726ZM355.3 54.376C355.113 54.376 354.95 54.306 354.81 54.166C354.67 54.026 354.6 53.8627 354.6 53.676C354.6 53.48 354.67 53.3167 354.81 53.186C354.95 53.046 355.113 52.976 355.3 52.976C355.496 52.976 355.659 53.046 355.79 53.186C355.93 53.3167 356 53.48 356 53.676C356 53.8627 355.93 54.026 355.79 54.166C355.659 54.306 355.496 54.376 355.3 54.376ZM358.526 59.206C358.526 58.45 358.67 57.8387 358.96 57.372C359.249 56.896 359.618 56.546 360.066 56.322C360.523 56.0887 361.004 55.972 361.508 55.972V57.022C361.097 57.022 360.7 57.092 360.318 57.232C359.944 57.3627 359.636 57.582 359.394 57.89C359.151 58.198 359.03 58.618 359.03 59.15L358.526 59.206ZM357.91 63V56H359.03V63H357.91ZM362.64 63V56H363.69L363.746 56.98C363.961 56.6067 364.236 56.322 364.572 56.126C364.908 55.93 365.3 55.832 365.748 55.832C366.308 55.832 366.784 55.9627 367.176 56.224C367.577 56.4853 367.867 56.882 368.044 57.414C368.24 56.9007 368.525 56.5087 368.898 56.238C369.281 55.9673 369.733 55.832 370.256 55.832C371.04 55.832 371.656 56.0933 372.104 56.616C372.561 57.1387 372.785 57.932 372.776 58.996V63H371.656V59.416C371.656 58.7253 371.581 58.198 371.432 57.834C371.292 57.47 371.101 57.2227 370.858 57.092C370.615 56.952 370.335 56.882 370.018 56.882C369.467 56.882 369.038 57.1013 368.73 57.54C368.422 57.9693 368.268 58.5807 368.268 59.374V63H367.148V59.416C367.148 58.7253 367.073 58.198 366.924 57.834C366.784 57.47 366.588 57.2227 366.336 57.092C366.093 56.952 365.813 56.882 365.496 56.882C364.955 56.882 364.53 57.1013 364.222 57.54C363.914 57.9693 363.76 58.5807 363.76 59.374V63H362.64ZM378.86 63L378.804 61.852V59.304C378.804 58.7533 378.744 58.3007 378.622 57.946C378.501 57.582 378.31 57.3067 378.048 57.12C377.787 56.9333 377.446 56.84 377.026 56.84C376.644 56.84 376.312 56.9193 376.032 57.078C375.762 57.2273 375.538 57.47 375.36 57.806L374.352 57.414C374.53 57.0873 374.744 56.8073 374.996 56.574C375.248 56.3313 375.542 56.1493 375.878 56.028C376.214 55.8973 376.597 55.832 377.026 55.832C377.68 55.832 378.216 55.9627 378.636 56.224C379.066 56.476 379.388 56.854 379.602 57.358C379.817 57.8527 379.92 58.4687 379.91 59.206L379.896 63H378.86ZM376.76 63.168C375.939 63.168 375.295 62.9813 374.828 62.608C374.371 62.2253 374.142 61.698 374.142 61.026C374.142 60.3167 374.376 59.7753 374.842 59.402C375.318 59.0193 375.981 58.828 376.83 58.828H378.832V59.766H377.082C376.429 59.766 375.962 59.8733 375.682 60.088C375.412 60.3027 375.276 60.6107 375.276 61.012C375.276 61.376 375.412 61.6653 375.682 61.88C375.953 62.0853 376.331 62.188 376.816 62.188C377.218 62.188 377.568 62.104 377.866 61.936C378.165 61.7587 378.394 61.5113 378.552 61.194C378.72 60.8673 378.804 60.4847 378.804 60.046H379.28C379.28 60.998 379.066 61.7587 378.636 62.328C378.207 62.888 377.582 63.168 376.76 63.168ZM384.317 63.168C383.636 63.168 383.108 62.9907 382.735 62.636C382.362 62.2813 382.175 61.782 382.175 61.138V53.816H383.295V61.026C383.295 61.3807 383.388 61.656 383.575 61.852C383.771 62.0387 384.042 62.132 384.387 62.132C384.499 62.132 384.606 62.118 384.709 62.09C384.821 62.0527 384.966 61.9687 385.143 61.838L385.577 62.748C385.334 62.9067 385.115 63.014 384.919 63.07C384.723 63.1353 384.522 63.168 384.317 63.168ZM380.957 56.994V56H385.395V56.994H380.957ZM387.046 63V56H388.166V63H387.046ZM387.62 54.376C387.433 54.376 387.27 54.306 387.13 54.166C386.99 54.026 386.92 53.8627 386.92 53.676C386.92 53.48 386.99 53.3167 387.13 53.186C387.27 53.046 387.433 52.976 387.62 52.976C387.816 52.976 387.979 53.046 388.11 53.186C388.25 53.3167 388.32 53.48 388.32 53.676C388.32 53.8627 388.25 54.026 388.11 54.166C387.979 54.306 387.816 54.376 387.62 54.376ZM393.324 63.168C392.643 63.168 392.036 63.014 391.504 62.706C390.981 62.3887 390.571 61.9547 390.272 61.404C389.973 60.8533 389.824 60.2187 389.824 59.5C389.824 58.7813 389.969 58.1467 390.258 57.596C390.557 57.0453 390.967 56.616 391.49 56.308C392.022 55.9907 392.624 55.832 393.296 55.832C393.987 55.832 394.593 55.9907 395.116 56.308C395.648 56.616 396.059 57.0453 396.348 57.596C396.647 58.1467 396.796 58.7813 396.796 59.5C396.796 60.2187 396.647 60.8533 396.348 61.404C396.059 61.9547 395.653 62.3887 395.13 62.706C394.607 63.014 394.005 63.168 393.324 63.168ZM393.324 62.132C393.791 62.132 394.197 62.02 394.542 61.796C394.887 61.572 395.158 61.264 395.354 60.872C395.559 60.48 395.662 60.0227 395.662 59.5C395.662 58.9773 395.559 58.52 395.354 58.128C395.158 57.736 394.883 57.428 394.528 57.204C394.173 56.98 393.763 56.868 393.296 56.868C392.839 56.868 392.433 56.98 392.078 57.204C391.733 57.428 391.457 57.736 391.252 58.128C391.056 58.52 390.958 58.9773 390.958 59.5C390.958 60.0133 391.056 60.4707 391.252 60.872C391.457 61.264 391.737 61.572 392.092 61.796C392.456 62.02 392.867 62.132 393.324 62.132ZM398.351 63V56H399.401L399.471 57.288V63H398.351ZM403.265 63V59.416H404.385V63H403.265ZM403.265 59.416C403.265 58.7253 403.186 58.198 403.027 57.834C402.868 57.47 402.649 57.2227 402.369 57.092C402.089 56.952 401.772 56.882 401.417 56.882C400.801 56.882 400.32 57.1013 399.975 57.54C399.639 57.9693 399.471 58.5807 399.471 59.374H398.925C398.925 58.6367 399.032 58.002 399.247 57.47C399.462 56.938 399.774 56.532 400.185 56.252C400.596 55.972 401.09 55.832 401.669 55.832C402.22 55.832 402.696 55.944 403.097 56.168C403.508 56.3827 403.825 56.728 404.049 57.204C404.282 57.68 404.394 58.3053 404.385 59.08V59.416H403.265ZM405.738 64.61L406.536 61.656H407.796L406.704 64.61H405.738ZM415.869 63.168C415.188 63.168 414.581 63.014 414.049 62.706C413.526 62.3887 413.116 61.9547 412.817 61.404C412.518 60.8533 412.369 60.2187 412.369 59.5C412.369 58.7813 412.514 58.1467 412.803 57.596C413.102 57.0453 413.512 56.616 414.035 56.308C414.567 55.9907 415.169 55.832 415.841 55.832C416.532 55.832 417.138 55.9907 417.661 56.308C418.193 56.616 418.604 57.0453 418.893 57.596C419.192 58.1467 419.341 58.7813 419.341 59.5C419.341 60.2187 419.192 60.8533 418.893 61.404C418.604 61.9547 418.198 62.3887 417.675 62.706C417.152 63.014 416.55 63.168 415.869 63.168ZM415.869 62.132C416.336 62.132 416.742 62.02 417.087 61.796C417.432 61.572 417.703 61.264 417.899 60.872C418.104 60.48 418.207 60.0227 418.207 59.5C418.207 58.9773 418.104 58.52 417.899 58.128C417.703 57.736 417.428 57.428 417.073 57.204C416.718 56.98 416.308 56.868 415.841 56.868C415.384 56.868 414.978 56.98 414.623 57.204C414.278 57.428 414.002 57.736 413.797 58.128C413.601 58.52 413.503 58.9773 413.503 59.5C413.503 60.0133 413.601 60.4707 413.797 60.872C414.002 61.264 414.282 61.572 414.637 61.796C415.001 62.02 415.412 62.132 415.869 62.132ZM421.512 59.206C421.512 58.45 421.657 57.8387 421.946 57.372C422.235 56.896 422.604 56.546 423.052 56.322C423.509 56.0887 423.99 55.972 424.494 55.972V57.022C424.083 57.022 423.687 57.092 423.304 57.232C422.931 57.3627 422.623 57.582 422.38 57.89C422.137 58.198 422.016 58.618 422.016 59.15L421.512 59.206ZM420.896 63V56H422.016V63H420.896ZM429.085 63V53.2H430.205V63H429.085ZM432.232 63V56H433.352V63H432.232ZM432.806 54.376C432.619 54.376 432.456 54.306 432.316 54.166C432.176 54.026 432.106 53.8627 432.106 53.676C432.106 53.48 432.176 53.3167 432.316 53.186C432.456 53.046 432.619 52.976 432.806 52.976C433.002 52.976 433.165 53.046 433.296 53.186C433.436 53.3167 433.506 53.48 433.506 53.676C433.506 53.8627 433.436 54.026 433.296 54.166C433.165 54.306 433.002 54.376 432.806 54.376ZM435.416 63V56H436.466L436.522 56.98C436.736 56.6067 437.012 56.322 437.348 56.126C437.684 55.93 438.076 55.832 438.524 55.832C439.084 55.832 439.56 55.9627 439.952 56.224C440.353 56.4853 440.642 56.882 440.82 57.414C441.016 56.9007 441.3 56.5087 441.674 56.238C442.056 55.9673 442.509 55.832 443.032 55.832C443.816 55.832 444.432 56.0933 444.88 56.616C445.337 57.1387 445.561 57.932 445.552 58.996V63H444.432V59.416C444.432 58.7253 444.357 58.198 444.208 57.834C444.068 57.47 443.876 57.2227 443.634 57.092C443.391 56.952 443.111 56.882 442.794 56.882C442.243 56.882 441.814 57.1013 441.506 57.54C441.198 57.9693 441.044 58.5807 441.044 59.374V63H439.924V59.416C439.924 58.7253 439.849 58.198 439.7 57.834C439.56 57.47 439.364 57.2227 439.112 57.092C438.869 56.952 438.589 56.882 438.272 56.882C437.73 56.882 437.306 57.1013 436.998 57.54C436.69 57.9693 436.536 58.5807 436.536 59.374V63H435.416ZM447.394 63V56H448.514V63H447.394ZM447.968 54.376C447.781 54.376 447.618 54.306 447.478 54.166C447.338 54.026 447.268 53.8627 447.268 53.676C447.268 53.48 447.338 53.3167 447.478 53.186C447.618 53.046 447.781 52.976 447.968 52.976C448.164 52.976 448.327 53.046 448.458 53.186C448.598 53.3167 448.668 53.48 448.668 53.676C448.668 53.8627 448.598 54.026 448.458 54.166C448.327 54.306 448.164 54.376 447.968 54.376ZM453.21 63.168C452.528 63.168 452.001 62.9907 451.628 62.636C451.254 62.2813 451.068 61.782 451.068 61.138V53.816H452.188V61.026C452.188 61.3807 452.281 61.656 452.468 61.852C452.664 62.0387 452.934 62.132 453.28 62.132C453.392 62.132 453.499 62.118 453.602 62.09C453.714 62.0527 453.858 61.9687 454.036 61.838L454.47 62.748C454.227 62.9067 454.008 63.014 453.812 63.07C453.616 63.1353 453.415 63.168 453.21 63.168ZM449.85 56.994V56H454.288V56.994H449.85ZM460.14 63L460.084 61.852V59.304C460.084 58.7533 460.023 58.3007 459.902 57.946C459.78 57.582 459.589 57.3067 459.328 57.12C459.066 56.9333 458.726 56.84 458.306 56.84C457.923 56.84 457.592 56.9193 457.312 57.078C457.041 57.2273 456.817 57.47 456.64 57.806L455.632 57.414C455.809 57.0873 456.024 56.8073 456.276 56.574C456.528 56.3313 456.822 56.1493 457.158 56.028C457.494 55.8973 457.876 55.832 458.306 55.832C458.959 55.832 459.496 55.9627 459.916 56.224C460.345 56.476 460.667 56.854 460.882 57.358C461.096 57.8527 461.199 58.4687 461.19 59.206L461.176 63H460.14ZM458.04 63.168C457.218 63.168 456.574 62.9813 456.108 62.608C455.65 62.2253 455.422 61.698 455.422 61.026C455.422 60.3167 455.655 59.7753 456.122 59.402C456.598 59.0193 457.26 58.828 458.11 58.828H460.112V59.766H458.362C457.708 59.766 457.242 59.8733 456.962 60.088C456.691 60.3027 456.556 60.6107 456.556 61.012C456.556 61.376 456.691 61.6653 456.962 61.88C457.232 62.0853 457.61 62.188 458.096 62.188C458.497 62.188 458.847 62.104 459.146 61.936C459.444 61.7587 459.673 61.5113 459.832 61.194C460 60.8673 460.084 60.4847 460.084 60.046H460.56C460.56 60.998 460.345 61.7587 459.916 62.328C459.486 62.888 458.861 63.168 458.04 63.168ZM465.596 63.168C464.915 63.168 464.388 62.9907 464.014 62.636C463.641 62.2813 463.454 61.782 463.454 61.138V53.816H464.574V61.026C464.574 61.3807 464.668 61.656 464.854 61.852C465.05 62.0387 465.321 62.132 465.666 62.132C465.778 62.132 465.886 62.118 465.988 62.09C466.1 62.0527 466.245 61.9687 466.422 61.838L466.856 62.748C466.614 62.9067 466.394 63.014 466.198 63.07C466.002 63.1353 465.802 63.168 465.596 63.168ZM462.236 56.994V56H466.674V56.994H462.236ZM468.325 63V56H469.445V63H468.325ZM468.899 54.376C468.713 54.376 468.549 54.306 468.409 54.166C468.269 54.026 468.199 53.8627 468.199 53.676C468.199 53.48 468.269 53.3167 468.409 53.186C468.549 53.046 468.713 52.976 468.899 52.976C469.095 52.976 469.259 53.046 469.389 53.186C469.529 53.3167 469.599 53.48 469.599 53.676C469.599 53.8627 469.529 54.026 469.389 54.166C469.259 54.306 469.095 54.376 468.899 54.376ZM474.603 63.168C473.922 63.168 473.315 63.014 472.783 62.706C472.261 62.3887 471.85 61.9547 471.551 61.404C471.253 60.8533 471.103 60.2187 471.103 59.5C471.103 58.7813 471.248 58.1467 471.537 57.596C471.836 57.0453 472.247 56.616 472.769 56.308C473.301 55.9907 473.903 55.832 474.575 55.832C475.266 55.832 475.873 55.9907 476.395 56.308C476.927 56.616 477.338 57.0453 477.627 57.596C477.926 58.1467 478.075 58.7813 478.075 59.5C478.075 60.2187 477.926 60.8533 477.627 61.404C477.338 61.9547 476.932 62.3887 476.409 62.706C475.887 63.014 475.285 63.168 474.603 63.168ZM474.603 62.132C475.07 62.132 475.476 62.02 475.821 61.796C476.167 61.572 476.437 61.264 476.633 60.872C476.839 60.48 476.941 60.0227 476.941 59.5C476.941 58.9773 476.839 58.52 476.633 58.128C476.437 57.736 476.162 57.428 475.807 57.204C475.453 56.98 475.042 56.868 474.575 56.868C474.118 56.868 473.712 56.98 473.357 57.204C473.012 57.428 472.737 57.736 472.531 58.128C472.335 58.52 472.237 58.9773 472.237 59.5C472.237 60.0133 472.335 60.4707 472.531 60.872C472.737 61.264 473.017 61.572 473.371 61.796C473.735 62.02 474.146 62.132 474.603 62.132ZM479.63 63V56H480.68L480.75 57.288V63H479.63ZM484.544 63V59.416H485.664V63H484.544ZM484.544 59.416C484.544 58.7253 484.465 58.198 484.306 57.834C484.148 57.47 483.928 57.2227 483.648 57.092C483.368 56.952 483.051 56.882 482.696 56.882C482.08 56.882 481.6 57.1013 481.254 57.54C480.918 57.9693 480.75 58.5807 480.75 59.374H480.204C480.204 58.6367 480.312 58.002 480.526 57.47C480.741 56.938 481.054 56.532 481.464 56.252C481.875 55.972 482.37 55.832 482.948 55.832C483.499 55.832 483.975 55.944 484.376 56.168C484.787 56.3827 485.104 56.728 485.328 57.204C485.562 57.68 485.674 58.3053 485.664 59.08V59.416H484.544ZM487.913 63.196C487.698 63.196 487.512 63.1213 487.353 62.972C487.204 62.8133 487.129 62.6313 487.129 62.426C487.129 62.2113 487.204 62.0293 487.353 61.88C487.512 61.7213 487.698 61.642 487.913 61.642C488.128 61.642 488.31 61.7213 488.459 61.88C488.608 62.0293 488.683 62.2113 488.683 62.426C488.683 62.6313 488.608 62.8133 488.459 62.972C488.31 63.1213 488.128 63.196 487.913 63.196Z" fill="#0A0B0D"/>
</g>
<defs>
<filter id="filter0_d_150_353" x="0" y="0" width="717" height="93" filterUnits="userSpaceOnUse" color-interpolation-filters="sRGB">
<feFlood flood-opacity="0" result="BackgroundImageFix"/>
<feColorMatrix in="SourceAlpha" type="matrix" values="0 0 0 0 0 0 0 0 0 0 0 0 0 0 0 0 0 0 127 0" result="hardAlpha"/>
<feOffset dx="5" dy="5"/>
<feComposite in2="hardAlpha" operator="out"/>
<feColorMatrix type="matrix" values="0 0 0 0 0.0392157 0 0 0 0 0.0392157 0 0 0 0 0.0392157 0 0 0 1 0"/>
<feBlend mode="normal" in2="BackgroundImageFix" result="effect1_dropShadow_150_353"/>
<feBlend mode="normal" in="SourceGraphic" in2="effect1_dropShadow_150_353" result="shape"/>
</filter>
</defs>
</svg>
