<svg width="357" height="314" viewBox="0 0 357 314" fill="none" xmlns="http://www.w3.org/2000/svg">
<g clip-path="url(#clip0_3233_2054)">
<path d="M0 8C0 3.58172 3.58172 0 8 0H349C353.418 0 357 3.58172 357 8V306C357 310.418 353.418 314 349 314H8C3.58172 314 0 310.418 0 306V8Z" fill="white"/>
<path d="M19.804 28.144C19.34 28.144 18.928 28.096 18.568 28C18.208 27.896 17.896 27.756 17.632 27.58C17.368 27.396 17.152 27.196 16.984 26.98C16.816 26.756 16.692 26.52 16.612 26.272L17.584 25.936C17.704 26.288 17.944 26.596 18.304 26.86C18.672 27.116 19.12 27.244 19.648 27.244C20.296 27.244 20.804 27.116 21.172 26.86C21.54 26.604 21.724 26.264 21.724 25.84C21.724 25.448 21.56 25.132 21.232 24.892C20.904 24.644 20.472 24.452 19.936 24.316L19.012 24.076C18.636 23.98 18.288 23.84 17.968 23.656C17.656 23.464 17.404 23.224 17.212 22.936C17.028 22.64 16.936 22.288 16.936 21.88C16.936 21.12 17.18 20.528 17.668 20.104C18.164 19.672 18.876 19.456 19.804 19.456C20.356 19.456 20.832 19.548 21.232 19.732C21.632 19.908 21.956 20.136 22.204 20.416C22.46 20.688 22.64 20.984 22.744 21.304L21.784 21.64C21.632 21.24 21.376 20.928 21.016 20.704C20.656 20.472 20.22 20.356 19.708 20.356C19.172 20.356 18.744 20.488 18.424 20.752C18.112 21.008 17.956 21.36 17.956 21.808C17.956 22.192 18.08 22.488 18.328 22.696C18.576 22.896 18.9 23.044 19.3 23.14L20.224 23.368C21.04 23.56 21.664 23.88 22.096 24.328C22.536 24.768 22.756 25.244 22.756 25.756C22.756 26.196 22.644 26.6 22.42 26.968C22.196 27.328 21.864 27.616 21.424 27.832C20.992 28.04 20.452 28.144 19.804 28.144ZM26.4671 28.144C25.8831 28.144 25.4311 27.992 25.1111 27.688C24.7911 27.384 24.6311 26.956 24.6311 26.404V20.128H25.5911V26.308C25.5911 26.612 25.6711 26.848 25.8311 27.016C25.9991 27.176 26.2311 27.256 26.5271 27.256C26.6231 27.256 26.7151 27.244 26.8031 27.22C26.8991 27.188 27.0231 27.116 27.1751 27.004L27.5471 27.784C27.3391 27.92 27.1511 28.012 26.9831 28.06C26.8151 28.116 26.6431 28.144 26.4671 28.144ZM23.5871 22.852V22H27.3911V22.852H23.5871ZM31.3391 28.144C30.7551 28.144 30.2391 28.012 29.7911 27.748C29.3431 27.476 28.9911 27.104 28.7351 26.632C28.4871 26.16 28.3631 25.616 28.3631 25C28.3631 24.384 28.4871 23.84 28.7351 23.368C28.9911 22.896 29.3391 22.528 29.7791 22.264C30.2271 21.992 30.7391 21.856 31.3151 21.856C31.8751 21.856 32.3591 21.996 32.7671 22.276C33.1751 22.548 33.4911 22.932 33.7151 23.428C33.9391 23.924 34.0511 24.508 34.0511 25.18H29.0951L29.3351 24.976C29.3351 25.456 29.4191 25.868 29.5871 26.212C29.7631 26.556 30.0071 26.82 30.3191 27.004C30.6311 27.18 30.9871 27.268 31.3871 27.268C31.8111 27.268 32.1671 27.168 32.4551 26.968C32.7511 26.768 32.9791 26.504 33.1391 26.176L33.9671 26.596C33.8151 26.908 33.6111 27.18 33.3551 27.412C33.1071 27.644 32.8111 27.824 32.4671 27.952C32.1311 28.08 31.7551 28.144 31.3391 28.144ZM29.3951 24.568L29.1431 24.376H33.2831L33.0311 24.58C33.0311 24.196 32.9551 23.864 32.8031 23.584C32.6511 23.304 32.4471 23.088 32.1911 22.936C31.9351 22.784 31.6391 22.708 31.3031 22.708C30.9751 22.708 30.6631 22.784 30.3671 22.936C30.0791 23.088 29.8431 23.304 29.6591 23.584C29.4831 23.856 29.3951 24.184 29.3951 24.568ZM35.3219 30.4V22H36.2219L36.2819 23.104V30.4H35.3219ZM38.3099 28.144C37.8059 28.144 37.3619 28.012 36.9779 27.748C36.6019 27.484 36.3099 27.116 36.1019 26.644C35.8939 26.164 35.7899 25.616 35.7899 25C35.7899 24.376 35.8939 23.828 36.1019 23.356C36.3099 22.884 36.6019 22.516 36.9779 22.252C37.3619 21.988 37.8059 21.856 38.3099 21.856C38.8459 21.856 39.3179 21.988 39.7259 22.252C40.1339 22.516 40.4499 22.884 40.6739 23.356C40.9059 23.828 41.0219 24.376 41.0219 25C41.0219 25.616 40.9059 26.164 40.6739 26.644C40.4499 27.116 40.1339 27.484 39.7259 27.748C39.3179 28.012 38.8459 28.144 38.3099 28.144ZM38.0939 27.268C38.4699 27.268 38.8019 27.172 39.0899 26.98C39.3859 26.788 39.6179 26.52 39.7859 26.176C39.9619 25.832 40.0499 25.44 40.0499 25C40.0499 24.56 39.9659 24.168 39.7979 23.824C39.6379 23.48 39.4099 23.212 39.1139 23.02C38.8179 22.828 38.4819 22.732 38.1059 22.732C37.7539 22.732 37.4379 22.828 37.1579 23.02C36.8859 23.212 36.6699 23.48 36.5099 23.824C36.3579 24.168 36.2819 24.56 36.2819 25C36.2819 25.44 36.3579 25.832 36.5099 26.176C36.6699 26.52 36.8859 26.788 37.1579 26.98C37.4299 27.172 37.7419 27.268 38.0939 27.268ZM45.1606 28V27.16C45.1606 26.896 45.2126 26.636 45.3166 26.38C45.4286 26.116 45.5846 25.856 45.7846 25.6C45.9926 25.344 46.2446 25.104 46.5406 24.88L48.2806 23.572C48.4886 23.428 48.6686 23.264 48.8206 23.08C48.9806 22.888 49.1046 22.692 49.1926 22.492C49.2806 22.284 49.3246 22.084 49.3246 21.892C49.3246 21.612 49.2566 21.36 49.1206 21.136C48.9846 20.904 48.7926 20.72 48.5446 20.584C48.2966 20.448 48.0046 20.38 47.6686 20.38C47.3406 20.38 47.0526 20.444 46.8046 20.572C46.5566 20.692 46.3526 20.856 46.1926 21.064C46.0326 21.264 45.9166 21.48 45.8446 21.712L44.8126 21.508C44.9086 21.148 45.0806 20.812 45.3286 20.5C45.5846 20.188 45.9086 19.936 46.3006 19.744C46.6926 19.552 47.1286 19.456 47.6086 19.456C48.1686 19.456 48.6526 19.564 49.0606 19.78C49.4686 19.988 49.7846 20.276 50.0086 20.644C50.2406 21.004 50.3566 21.416 50.3566 21.88C50.3566 22.32 50.2366 22.736 49.9966 23.128C49.7566 23.52 49.4086 23.9 48.9526 24.268L47.3086 25.516C46.9886 25.756 46.7406 26.008 46.5646 26.272C46.3966 26.536 46.3006 26.812 46.2766 27.1H50.4766V28H45.1606Z" fill="#656C76"/>
<path d="M26.272 54L29.568 42.8H31.456L28.064 54H26.272ZM19.488 54L16.144 42.8H18.016L21.296 54H19.488ZM19.728 54L22.88 42.8H24.592L21.456 54H19.728ZM26.096 54L23.008 42.8H24.72L27.904 54H26.096ZM32.6018 54V42.8H34.3938V54H32.6018ZM38.0258 54V49.904H39.8177V54H38.0258ZM38.0258 49.904C38.0258 49.264 37.9511 48.7733 37.8018 48.432C37.6524 48.08 37.4444 47.8347 37.1778 47.696C36.9218 47.5573 36.6231 47.488 36.2818 47.488C35.6738 47.4773 35.2044 47.6747 34.8738 48.08C34.5538 48.4853 34.3938 49.0667 34.3938 49.824H33.7057C33.7057 48.9813 33.8284 48.2613 34.0738 47.664C34.3298 47.056 34.6871 46.5973 35.1458 46.288C35.6044 45.968 36.1484 45.808 36.7778 45.808C37.4071 45.808 37.9511 45.936 38.4098 46.192C38.8684 46.448 39.2151 46.848 39.4498 47.392C39.6951 47.9253 39.8177 48.624 39.8177 49.488V49.904H38.0258ZM46.5126 54L46.4326 52.496V49.888C46.4326 49.344 46.374 48.8907 46.2566 48.528C46.15 48.1547 45.9686 47.872 45.7126 47.68C45.4673 47.4773 45.1366 47.376 44.7206 47.376C44.3366 47.376 44.0006 47.456 43.7126 47.616C43.4246 47.776 43.1793 48.0267 42.9766 48.368L41.4086 47.792C41.5793 47.44 41.8033 47.1147 42.0806 46.816C42.3686 46.5067 42.726 46.2613 43.1526 46.08C43.59 45.8987 44.1126 45.808 44.7206 45.808C45.4993 45.808 46.15 45.9627 46.6726 46.272C47.1953 46.5707 47.5793 47.0027 47.8246 47.568C48.0806 48.1333 48.2086 48.816 48.2086 49.616L48.1606 54H46.5126ZM44.2086 54.192C43.2486 54.192 42.502 53.9787 41.9686 53.552C41.446 53.1253 41.1846 52.5227 41.1846 51.744C41.1846 50.912 41.462 50.2773 42.0166 49.84C42.582 49.4027 43.366 49.184 44.3686 49.184H46.5126V50.56H44.9446C44.23 50.56 43.7286 50.6613 43.4406 50.864C43.1526 51.056 43.0086 51.3333 43.0086 51.696C43.0086 52.0053 43.1313 52.2507 43.3766 52.432C43.6326 52.6027 43.9846 52.688 44.4326 52.688C44.838 52.688 45.19 52.5973 45.4886 52.416C45.7873 52.2347 46.0166 51.9947 46.1766 51.696C46.3473 51.3973 46.4326 51.0613 46.4326 50.688H46.9606C46.9606 51.776 46.742 52.6347 46.3046 53.264C45.8673 53.8827 45.1686 54.192 44.2086 54.192ZM53.2073 54.192C52.3646 54.192 51.7193 53.984 51.2713 53.568C50.8339 53.1413 50.6153 52.5333 50.6153 51.744V43.504H52.3913V51.408C52.3913 51.7813 52.4766 52.064 52.6473 52.256C52.8286 52.448 53.0899 52.544 53.4313 52.544C53.5379 52.544 53.6553 52.5227 53.7833 52.48C53.9113 52.4373 54.0553 52.3573 54.2153 52.24L54.8713 53.6C54.5939 53.792 54.3166 53.936 54.0393 54.032C53.7619 54.1387 53.4846 54.192 53.2073 54.192ZM49.2873 47.536V46H54.5513V47.536H49.2873ZM67.5719 54L70.2439 46H72.0519L69.3319 54H67.5719ZM62.2119 54L64.8199 46H66.4039L63.8279 54H62.2119ZM62.0519 54L59.3319 46H61.1399L63.7479 54H62.0519ZM67.5559 54L64.9959 46H66.5799L69.1879 54H67.5559ZM76.672 54.192C75.872 54.192 75.1573 54.016 74.528 53.664C73.9093 53.3013 73.424 52.8053 73.072 52.176C72.72 51.5467 72.544 50.8213 72.544 50C72.544 49.1787 72.7147 48.4533 73.056 47.824C73.408 47.1947 73.8933 46.704 74.512 46.352C75.1307 45.9893 75.84 45.808 76.64 45.808C77.44 45.808 78.1493 45.9893 78.768 46.352C79.3867 46.704 79.8667 47.1947 80.208 47.824C80.56 48.4533 80.736 49.1787 80.736 50C80.736 50.8213 80.5653 51.5467 80.224 52.176C79.8827 52.8053 79.4027 53.3013 78.784 53.664C78.1653 54.016 77.4613 54.192 76.672 54.192ZM76.672 52.544C77.1093 52.544 77.4987 52.4373 77.84 52.224C78.1813 52 78.448 51.7013 78.64 51.328C78.832 50.944 78.928 50.5013 78.928 50C78.928 49.4987 78.8267 49.0613 78.624 48.688C78.432 48.304 78.1653 48.0053 77.824 47.792C77.4827 47.568 77.088 47.456 76.64 47.456C76.192 47.456 75.7973 47.5627 75.456 47.776C75.1147 47.9893 74.848 48.288 74.656 48.672C74.464 49.056 74.368 49.4987 74.368 50C74.368 50.5013 74.464 50.944 74.656 51.328C74.8587 51.7013 75.1307 52 75.472 52.224C75.824 52.4373 76.224 52.544 76.672 52.544ZM87.6489 54L87.5529 52.528V46H89.3289V54H87.6489ZM82.1129 50.096V46H83.9049V50.096H82.1129ZM83.9049 50.096C83.9049 50.7253 83.9795 51.216 84.1289 51.568C84.2782 51.92 84.4809 52.1653 84.7369 52.304C85.0035 52.4427 85.3075 52.512 85.6489 52.512C86.2569 52.5227 86.7262 52.3253 87.0569 51.92C87.3875 51.5147 87.5529 50.9333 87.5529 50.176H88.2249C88.2249 51.0187 88.0969 51.744 87.8409 52.352C87.5955 52.9493 87.2435 53.408 86.7849 53.728C86.3369 54.0373 85.7929 54.192 85.1529 54.192C84.5235 54.192 83.9795 54.064 83.5209 53.808C83.0729 53.552 82.7262 53.152 82.4809 52.608C82.2355 52.064 82.1129 51.3653 82.1129 50.512V50.096H83.9049ZM91.3201 54V42.8H93.1121V54H91.3201ZM100.877 54L100.797 52.512V42.8H102.573V54H100.877ZM98.2694 54.192C97.544 54.192 96.9094 54.0213 96.3654 53.68C95.832 53.328 95.4107 52.8373 95.1014 52.208C94.8027 51.5787 94.6534 50.8427 94.6534 50C94.6534 49.1467 94.8027 48.4107 95.1014 47.792C95.4107 47.1627 95.832 46.6773 96.3654 46.336C96.9094 45.984 97.544 45.808 98.2694 45.808C98.9414 45.808 99.5174 45.984 99.9974 46.336C100.488 46.6773 100.861 47.1627 101.117 47.792C101.373 48.4107 101.501 49.1467 101.501 50C101.501 50.8427 101.373 51.5787 101.117 52.208C100.861 52.8373 100.488 53.328 99.9974 53.68C99.5174 54.0213 98.9414 54.192 98.2694 54.192ZM98.7174 52.56C99.1227 52.56 99.48 52.4533 99.7894 52.24C100.109 52.016 100.355 51.712 100.525 51.328C100.707 50.944 100.797 50.5013 100.797 50C100.797 49.4987 100.707 49.056 100.525 48.672C100.355 48.288 100.109 47.9893 99.7894 47.776C99.48 47.5627 99.1174 47.456 98.7014 47.456C98.2747 47.456 97.896 47.5627 97.5654 47.776C97.2347 47.9893 96.9734 48.288 96.7814 48.672C96.6 49.056 96.504 49.4987 96.4934 50C96.504 50.5013 96.6 50.944 96.7814 51.328C96.9734 51.712 97.2347 52.016 97.5654 52.24C97.9067 52.4533 98.2907 52.56 98.7174 52.56ZM109.678 57.392C109.422 57.392 109.134 57.344 108.814 57.248C108.505 57.152 108.206 57.0293 107.918 56.88L108.59 55.424C108.793 55.52 108.979 55.5947 109.15 55.648C109.321 55.712 109.459 55.744 109.566 55.744C109.822 55.744 110.035 55.6747 110.206 55.536C110.387 55.408 110.531 55.216 110.638 54.96L111.582 52.752L114.286 46H116.238L112.526 54.848C112.302 55.36 112.073 55.808 111.838 56.192C111.614 56.576 111.331 56.8693 110.99 57.072C110.649 57.2853 110.211 57.392 109.678 57.392ZM111.102 54L107.518 46H109.47L112.254 52.736L112.83 54H111.102ZM120.766 54.192C119.966 54.192 119.251 54.016 118.622 53.664C118.003 53.3013 117.518 52.8053 117.166 52.176C116.814 51.5467 116.638 50.8213 116.638 50C116.638 49.1787 116.808 48.4533 117.15 47.824C117.502 47.1947 117.987 46.704 118.606 46.352C119.224 45.9893 119.934 45.808 120.734 45.808C121.534 45.808 122.243 45.9893 122.862 46.352C123.48 46.704 123.96 47.1947 124.302 47.824C124.654 48.4533 124.83 49.1787 124.83 50C124.83 50.8213 124.659 51.5467 124.318 52.176C123.976 52.8053 123.496 53.3013 122.878 53.664C122.259 54.016 121.555 54.192 120.766 54.192ZM120.766 52.544C121.203 52.544 121.592 52.4373 121.934 52.224C122.275 52 122.542 51.7013 122.734 51.328C122.926 50.944 123.022 50.5013 123.022 50C123.022 49.4987 122.92 49.0613 122.718 48.688C122.526 48.304 122.259 48.0053 121.918 47.792C121.576 47.568 121.182 47.456 120.734 47.456C120.286 47.456 119.891 47.5627 119.55 47.776C119.208 47.9893 118.942 48.288 118.75 48.672C118.558 49.056 118.462 49.4987 118.462 50C118.462 50.5013 118.558 50.944 118.75 51.328C118.952 51.7013 119.224 52 119.566 52.224C119.918 52.4373 120.318 52.544 120.766 52.544ZM131.743 54L131.647 52.528V46H133.423V54H131.743ZM126.207 50.096V46H127.999V50.096H126.207ZM127.999 50.096C127.999 50.7253 128.073 51.216 128.223 51.568C128.372 51.92 128.575 52.1653 128.831 52.304C129.097 52.4427 129.401 52.512 129.743 52.512C130.351 52.5227 130.82 52.3253 131.151 51.92C131.481 51.5147 131.647 50.9333 131.647 50.176H132.319C132.319 51.0187 132.191 51.744 131.935 52.352C131.689 52.9493 131.337 53.408 130.879 53.728C130.431 54.0373 129.887 54.192 129.247 54.192C128.617 54.192 128.073 54.064 127.615 53.808C127.167 53.552 126.82 53.152 126.575 52.608C126.329 52.064 126.207 51.3653 126.207 50.512V50.096H127.999ZM139.273 54V42.8H141.065V54H139.273ZM143.167 54V46H144.943V54H143.167ZM144.062 44.48C143.775 44.48 143.524 44.3787 143.311 44.176C143.108 43.9627 143.007 43.712 143.007 43.424C143.007 43.136 143.108 42.8907 143.311 42.688C143.524 42.4853 143.775 42.384 144.062 42.384C144.351 42.384 144.596 42.4853 144.799 42.688C145.012 42.8907 145.119 43.136 145.119 43.424C145.119 43.712 145.012 43.9627 144.799 44.176C144.596 44.3787 144.351 44.48 144.062 44.48ZM148.767 51.76L147.679 50.528L151.839 46H153.999L148.767 51.76ZM147.055 54V42.8H148.847V54H147.055ZM152.143 54L149.327 49.856L150.495 48.608L154.271 54H152.143ZM158.576 54.192C157.797 54.192 157.104 54.016 156.496 53.664C155.898 53.3013 155.424 52.8053 155.072 52.176C154.73 51.5467 154.56 50.8213 154.56 50C154.56 49.1787 154.736 48.4533 155.088 47.824C155.44 47.1947 155.92 46.704 156.528 46.352C157.146 45.9893 157.85 45.808 158.64 45.808C159.354 45.808 160 45.9947 160.576 46.368C161.152 46.7307 161.605 47.2587 161.936 47.952C162.277 48.6453 162.448 49.472 162.448 50.432H156.16L156.4 50.208C156.4 50.6987 156.506 51.1253 156.72 51.488C156.933 51.84 157.216 52.112 157.568 52.304C157.92 52.496 158.309 52.592 158.736 52.592C159.226 52.592 159.632 52.4853 159.952 52.272C160.272 52.048 160.522 51.76 160.704 51.408L162.288 52.08C162.064 52.5067 161.776 52.88 161.424 53.2C161.082 53.52 160.672 53.7653 160.192 53.936C159.722 54.1067 159.184 54.192 158.576 54.192ZM156.512 49.28L156.256 49.056H160.768L160.528 49.28C160.528 48.8427 160.432 48.4853 160.24 48.208C160.048 47.92 159.802 47.7067 159.504 47.568C159.216 47.4187 158.912 47.344 158.592 47.344C158.272 47.344 157.952 47.4187 157.632 47.568C157.312 47.7067 157.045 47.92 156.832 48.208C156.618 48.4853 156.512 48.8427 156.512 49.28ZM170.864 54.192C170.021 54.192 169.376 53.984 168.928 53.568C168.49 53.1413 168.272 52.5333 168.272 51.744V43.504H170.048V51.408C170.048 51.7813 170.133 52.064 170.304 52.256C170.485 52.448 170.746 52.544 171.088 52.544C171.194 52.544 171.312 52.5227 171.44 52.48C171.568 52.4373 171.712 52.3573 171.872 52.24L172.528 53.6C172.25 53.792 171.973 53.936 171.696 54.032C171.418 54.1387 171.141 54.192 170.864 54.192ZM166.944 47.536V46H172.208V47.536H166.944ZM177.531 54.192C176.731 54.192 176.017 54.016 175.387 53.664C174.769 53.3013 174.283 52.8053 173.931 52.176C173.579 51.5467 173.403 50.8213 173.403 50C173.403 49.1787 173.574 48.4533 173.915 47.824C174.267 47.1947 174.753 46.704 175.371 46.352C175.99 45.9893 176.699 45.808 177.499 45.808C178.299 45.808 179.009 45.9893 179.627 46.352C180.246 46.704 180.726 47.1947 181.067 47.824C181.419 48.4533 181.595 49.1787 181.595 50C181.595 50.8213 181.425 51.5467 181.083 52.176C180.742 52.8053 180.262 53.3013 179.643 53.664C179.025 54.016 178.321 54.192 177.531 54.192ZM177.531 52.544C177.969 52.544 178.358 52.4373 178.699 52.224C179.041 52 179.307 51.7013 179.499 51.328C179.691 50.944 179.787 50.5013 179.787 50C179.787 49.4987 179.686 49.0613 179.483 48.688C179.291 48.304 179.025 48.0053 178.683 47.792C178.342 47.568 177.947 47.456 177.499 47.456C177.051 47.456 176.657 47.5627 176.315 47.776C175.974 47.9893 175.707 48.288 175.515 48.672C175.323 49.056 175.227 49.4987 175.227 50C175.227 50.5013 175.323 50.944 175.515 51.328C175.718 51.7013 175.99 52 176.331 52.224C176.683 52.4373 177.083 52.544 177.531 52.544ZM191.888 54L191.808 52.496V49.888C191.808 49.344 191.749 48.8907 191.632 48.528C191.525 48.1547 191.344 47.872 191.088 47.68C190.842 47.4773 190.512 47.376 190.096 47.376C189.712 47.376 189.376 47.456 189.088 47.616C188.8 47.776 188.554 48.0267 188.352 48.368L186.784 47.792C186.954 47.44 187.178 47.1147 187.456 46.816C187.744 46.5067 188.101 46.2613 188.528 46.08C188.965 45.8987 189.488 45.808 190.096 45.808C190.874 45.808 191.525 45.9627 192.048 46.272C192.57 46.5707 192.954 47.0027 193.2 47.568C193.456 48.1333 193.584 48.816 193.584 49.616L193.536 54H191.888ZM189.584 54.192C188.624 54.192 187.877 53.9787 187.344 53.552C186.821 53.1253 186.56 52.5227 186.56 51.744C186.56 50.912 186.837 50.2773 187.392 49.84C187.957 49.4027 188.741 49.184 189.744 49.184H191.888V50.56H190.32C189.605 50.56 189.104 50.6613 188.816 50.864C188.528 51.056 188.384 51.3333 188.384 51.696C188.384 52.0053 188.506 52.2507 188.752 52.432C189.008 52.6027 189.36 52.688 189.808 52.688C190.213 52.688 190.565 52.5973 190.864 52.416C191.162 52.2347 191.392 51.9947 191.552 51.696C191.722 51.3973 191.808 51.0613 191.808 50.688H192.336C192.336 51.776 192.117 52.6347 191.68 53.264C191.242 53.8827 190.544 54.192 189.584 54.192ZM195.398 54V46H197.078L197.19 47.472V54H195.398ZM200.822 54V49.904H202.614V54H200.822ZM200.822 49.904C200.822 49.264 200.748 48.7733 200.598 48.432C200.46 48.08 200.257 47.8347 199.99 47.696C199.734 47.5573 199.43 47.488 199.078 47.488C198.481 47.4773 198.017 47.6747 197.686 48.08C197.356 48.4853 197.19 49.0667 197.19 49.824H196.518C196.518 48.9813 196.641 48.2613 196.886 47.664C197.132 47.056 197.484 46.5973 197.942 46.288C198.401 45.968 198.945 45.808 199.574 45.808C200.214 45.808 200.758 45.936 201.206 46.192C201.665 46.448 202.012 46.848 202.246 47.392C202.492 47.9253 202.614 48.624 202.614 49.488V49.904H200.822ZM209.31 54L209.23 52.496V49.888C209.23 49.344 209.171 48.8907 209.054 48.528C208.947 48.1547 208.766 47.872 208.51 47.68C208.264 47.4773 207.934 47.376 207.518 47.376C207.134 47.376 206.798 47.456 206.51 47.616C206.222 47.776 205.976 48.0267 205.774 48.368L204.206 47.792C204.376 47.44 204.6 47.1147 204.878 46.816C205.166 46.5067 205.523 46.2613 205.95 46.08C206.387 45.8987 206.91 45.808 207.518 45.808C208.296 45.808 208.947 45.9627 209.47 46.272C209.992 46.5707 210.376 47.0027 210.622 47.568C210.878 48.1333 211.006 48.816 211.006 49.616L210.958 54H209.31ZM207.006 54.192C206.046 54.192 205.299 53.9787 204.766 53.552C204.243 53.1253 203.982 52.5227 203.982 51.744C203.982 50.912 204.259 50.2773 204.814 49.84C205.379 49.4027 206.163 49.184 207.166 49.184H209.31V50.56H207.742C207.027 50.56 206.526 50.6613 206.238 50.864C205.95 51.056 205.806 51.3333 205.806 51.696C205.806 52.0053 205.928 52.2507 206.174 52.432C206.43 52.6027 206.782 52.688 207.23 52.688C207.635 52.688 207.987 52.5973 208.286 52.416C208.584 52.2347 208.814 51.9947 208.974 51.696C209.144 51.3973 209.23 51.0613 209.23 50.688H209.758C209.758 51.776 209.539 52.6347 209.102 53.264C208.664 53.8827 207.966 54.192 207.006 54.192ZM212.82 54V42.8H214.612V54H212.82ZM217.865 57.392C217.609 57.392 217.321 57.344 217.001 57.248C216.692 57.152 216.393 57.0293 216.105 56.88L216.777 55.424C216.98 55.52 217.167 55.5947 217.337 55.648C217.508 55.712 217.647 55.744 217.753 55.744C218.009 55.744 218.223 55.6747 218.393 55.536C218.575 55.408 218.719 55.216 218.825 54.96L219.769 52.752L222.473 46H224.425L220.713 54.848C220.489 55.36 220.26 55.808 220.025 56.192C219.801 56.576 219.519 56.8693 219.177 57.072C218.836 57.2853 218.399 57.392 217.865 57.392ZM219.289 54L215.705 46H217.657L220.441 52.736L221.017 54H219.289ZM225.092 54V52.672L229.348 47.504H225.092V46H231.604V47.312L227.348 52.512H231.636V54H225.092ZM236.794 54.192C236.016 54.192 235.322 54.016 234.714 53.664C234.117 53.3013 233.642 52.8053 233.29 52.176C232.949 51.5467 232.778 50.8213 232.778 50C232.778 49.1787 232.954 48.4533 233.306 47.824C233.658 47.1947 234.138 46.704 234.746 46.352C235.365 45.9893 236.069 45.808 236.858 45.808C237.573 45.808 238.218 45.9947 238.794 46.368C239.37 46.7307 239.824 47.2587 240.154 47.952C240.496 48.6453 240.666 49.472 240.666 50.432H234.378L234.618 50.208C234.618 50.6987 234.725 51.1253 234.938 51.488C235.152 51.84 235.434 52.112 235.786 52.304C236.138 52.496 236.528 52.592 236.954 52.592C237.445 52.592 237.85 52.4853 238.17 52.272C238.49 52.048 238.741 51.76 238.922 51.408L240.506 52.08C240.282 52.5067 239.994 52.88 239.642 53.2C239.301 53.52 238.89 53.7653 238.41 53.936C237.941 54.1067 237.402 54.192 236.794 54.192ZM234.73 49.28L234.474 49.056H238.986L238.746 49.28C238.746 48.8427 238.65 48.4853 238.458 48.208C238.266 47.92 238.021 47.7067 237.722 47.568C237.434 47.4187 237.13 47.344 236.81 47.344C236.49 47.344 236.17 47.4187 235.85 47.568C235.53 47.7067 235.264 47.92 235.05 48.208C234.837 48.4853 234.73 48.8427 234.73 49.28ZM243.735 50.864L243.687 48.032L244.727 47.968C245.335 47.9467 245.836 47.776 246.231 47.456C246.626 47.1253 246.823 46.6613 246.823 46.064C246.823 45.5307 246.636 45.0933 246.263 44.752C245.9 44.4107 245.426 44.24 244.839 44.24C244.423 44.24 244.06 44.3413 243.751 44.544C243.442 44.7467 243.228 44.9973 243.111 45.296L241.463 44.816C241.676 44.1547 242.076 43.6213 242.663 43.216C243.26 42.8107 243.986 42.608 244.839 42.608C245.564 42.608 246.204 42.7573 246.759 43.056C247.324 43.344 247.767 43.7493 248.087 44.272C248.407 44.784 248.567 45.3813 248.567 46.064C248.567 46.64 248.439 47.1573 248.183 47.616C247.927 48.0747 247.564 48.4427 247.095 48.72C246.636 48.9973 246.103 49.168 245.495 49.232L245.463 50.864H243.735ZM244.599 54.224C244.279 54.224 244.007 54.1173 243.783 53.904C243.57 53.68 243.463 53.4133 243.463 53.104C243.463 52.784 243.57 52.5173 243.783 52.304C244.007 52.08 244.279 51.968 244.599 51.968C244.908 51.968 245.17 52.08 245.383 52.304C245.607 52.5173 245.719 52.784 245.719 53.104C245.719 53.4133 245.607 53.68 245.383 53.904C245.17 54.1173 244.908 54.224 244.599 54.224Z" fill="#0A0B0D"/>
<path d="M19.804 74.144C19.34 74.144 18.928 74.096 18.568 74C18.208 73.896 17.896 73.756 17.632 73.58C17.368 73.396 17.152 73.196 16.984 72.98C16.816 72.756 16.692 72.52 16.612 72.272L17.584 71.936C17.704 72.288 17.944 72.596 18.304 72.86C18.672 73.116 19.12 73.244 19.648 73.244C20.296 73.244 20.804 73.116 21.172 72.86C21.54 72.604 21.724 72.264 21.724 71.84C21.724 71.448 21.56 71.132 21.232 70.892C20.904 70.644 20.472 70.452 19.936 70.316L19.012 70.076C18.636 69.98 18.288 69.84 17.968 69.656C17.656 69.464 17.404 69.224 17.212 68.936C17.028 68.64 16.936 68.288 16.936 67.88C16.936 67.12 17.18 66.528 17.668 66.104C18.164 65.672 18.876 65.456 19.804 65.456C20.356 65.456 20.832 65.548 21.232 65.732C21.632 65.908 21.956 66.136 22.204 66.416C22.46 66.688 22.64 66.984 22.744 67.304L21.784 67.64C21.632 67.24 21.376 66.928 21.016 66.704C20.656 66.472 20.22 66.356 19.708 66.356C19.172 66.356 18.744 66.488 18.424 66.752C18.112 67.008 17.956 67.36 17.956 67.808C17.956 68.192 18.08 68.488 18.328 68.696C18.576 68.896 18.9 69.044 19.3 69.14L20.224 69.368C21.04 69.56 21.664 69.88 22.096 70.328C22.536 70.768 22.756 71.244 22.756 71.756C22.756 72.196 22.644 72.6 22.42 72.968C22.196 73.328 21.864 73.616 21.424 73.832C20.992 74.04 20.452 74.144 19.804 74.144ZM28.3271 74L28.2671 72.896V68H29.2271V74H28.3271ZM24.0551 71.072V68H25.0151V71.072H24.0551ZM25.0151 71.072C25.0151 71.664 25.0831 72.116 25.2191 72.428C25.3551 72.74 25.5431 72.956 25.7831 73.076C26.0311 73.188 26.3071 73.244 26.6111 73.244C27.1311 73.244 27.5351 73.056 27.8231 72.68C28.1191 72.304 28.2671 71.78 28.2671 71.108H28.7351C28.7351 71.74 28.6431 72.284 28.4591 72.74C28.2751 73.196 28.0071 73.544 27.6551 73.784C27.3111 74.024 26.8871 74.144 26.3831 74.144C25.9191 74.144 25.5111 74.052 25.1591 73.868C24.8071 73.676 24.5351 73.376 24.3431 72.968C24.1511 72.552 24.0551 72.016 24.0551 71.36V71.072H25.0151ZM30.9025 74V65.6H31.8625V72.884L31.8145 74H30.9025ZM33.8905 74.144C33.3865 74.144 32.9425 74.012 32.5585 73.748C32.1825 73.484 31.8905 73.116 31.6825 72.644C31.4745 72.164 31.3705 71.616 31.3705 71C31.3705 70.376 31.4745 69.828 31.6825 69.356C31.8905 68.884 32.1825 68.516 32.5585 68.252C32.9425 67.988 33.3865 67.856 33.8905 67.856C34.4265 67.856 34.8985 67.988 35.3065 68.252C35.7145 68.516 36.0305 68.884 36.2545 69.356C36.4865 69.828 36.6025 70.376 36.6025 71C36.6025 71.616 36.4865 72.164 36.2545 72.644C36.0305 73.116 35.7145 73.484 35.3065 73.748C34.8985 74.012 34.4265 74.144 33.8905 74.144ZM33.6745 73.268C34.0505 73.268 34.3825 73.172 34.6705 72.98C34.9665 72.788 35.1985 72.52 35.3665 72.176C35.5425 71.832 35.6305 71.44 35.6305 71C35.6305 70.56 35.5465 70.168 35.3785 69.824C35.2185 69.48 34.9905 69.212 34.6945 69.02C34.3985 68.828 34.0625 68.732 33.6865 68.732C33.3345 68.732 33.0185 68.828 32.7385 69.02C32.4665 69.212 32.2505 69.48 32.0905 69.824C31.9385 70.168 31.8625 70.56 31.8625 71C31.8625 71.44 31.9385 71.832 32.0905 72.176C32.2505 72.52 32.4665 72.788 32.7385 72.98C33.0105 73.172 33.3225 73.268 33.6745 73.268ZM40.1898 74.144C39.6058 74.144 39.1538 73.992 38.8338 73.688C38.5138 73.384 38.3538 72.956 38.3538 72.404V66.128H39.3138V72.308C39.3138 72.612 39.3938 72.848 39.5538 73.016C39.7218 73.176 39.9538 73.256 40.2498 73.256C40.3458 73.256 40.4378 73.244 40.5258 73.22C40.6218 73.188 40.7458 73.116 40.8978 73.004L41.2698 73.784C41.0618 73.92 40.8738 74.012 40.7058 74.06C40.5378 74.116 40.3658 74.144 40.1898 74.144ZM37.3098 68.852V68H41.1138V68.852H37.3098ZM45.0618 74.144C44.4778 74.144 43.9618 74.012 43.5138 73.748C43.0658 73.476 42.7138 73.104 42.4578 72.632C42.2098 72.16 42.0858 71.616 42.0858 71C42.0858 70.384 42.2098 69.84 42.4578 69.368C42.7138 68.896 43.0618 68.528 43.5018 68.264C43.9498 67.992 44.4618 67.856 45.0378 67.856C45.5978 67.856 46.0818 67.996 46.4898 68.276C46.8978 68.548 47.2138 68.932 47.4378 69.428C47.6618 69.924 47.7738 70.508 47.7738 71.18H42.8178L43.0578 70.976C43.0578 71.456 43.1418 71.868 43.3098 72.212C43.4858 72.556 43.7298 72.82 44.0418 73.004C44.3538 73.18 44.7098 73.268 45.1098 73.268C45.5338 73.268 45.8898 73.168 46.1778 72.968C46.4738 72.768 46.7018 72.504 46.8618 72.176L47.6898 72.596C47.5378 72.908 47.3338 73.18 47.0778 73.412C46.8298 73.644 46.5338 73.824 46.1898 73.952C45.8538 74.08 45.4778 74.144 45.0618 74.144ZM43.1178 70.568L42.8658 70.376H47.0058L46.7538 70.58C46.7538 70.196 46.6778 69.864 46.5258 69.584C46.3738 69.304 46.1698 69.088 45.9138 68.936C45.6578 68.784 45.3618 68.708 45.0258 68.708C44.6978 68.708 44.3858 68.784 44.0898 68.936C43.8018 69.088 43.5658 69.304 43.3818 69.584C43.2058 69.856 43.1178 70.184 43.1178 70.568ZM48.2059 74L50.6539 70.556L52.3819 68H53.5219L51.2419 71.24L49.3699 74H48.2059ZM52.5139 74L50.6659 71.24L48.3619 68H49.5019L51.2419 70.556L53.6659 74H52.5139ZM56.8773 74.144C56.2933 74.144 55.8413 73.992 55.5213 73.688C55.2013 73.384 55.0413 72.956 55.0413 72.404V66.128H56.0013V72.308C56.0013 72.612 56.0813 72.848 56.2413 73.016C56.4093 73.176 56.6413 73.256 56.9373 73.256C57.0333 73.256 57.1253 73.244 57.2133 73.22C57.3093 73.188 57.4333 73.116 57.5853 73.004L57.9573 73.784C57.7493 73.92 57.5613 74.012 57.3933 74.06C57.2253 74.116 57.0533 74.144 56.8773 74.144ZM53.9973 68.852V68H57.8013V68.852H53.9973ZM64.3773 74.144C63.7933 74.144 63.3413 73.992 63.0213 73.688C62.7013 73.384 62.5413 72.956 62.5413 72.404V66.128H63.5013V72.308C63.5013 72.612 63.5813 72.848 63.7413 73.016C63.9093 73.176 64.1413 73.256 64.4373 73.256C64.5333 73.256 64.6253 73.244 64.7133 73.22C64.8093 73.188 64.9333 73.116 65.0853 73.004L65.4573 73.784C65.2493 73.92 65.0613 74.012 64.8933 74.06C64.7253 74.116 64.5533 74.144 64.3773 74.144ZM61.4973 68.852V68H65.3013V68.852H61.4973ZM69.2733 74.144C68.6893 74.144 68.1693 74.012 67.7133 73.748C67.2653 73.476 66.9133 73.104 66.6573 72.632C66.4013 72.16 66.2733 71.616 66.2733 71C66.2733 70.384 66.3973 69.84 66.6453 69.368C66.9013 68.896 67.2533 68.528 67.7013 68.264C68.1573 67.992 68.6733 67.856 69.2493 67.856C69.8413 67.856 70.3613 67.992 70.8093 68.264C71.2653 68.528 71.6173 68.896 71.8653 69.368C72.1213 69.84 72.2493 70.384 72.2493 71C72.2493 71.616 72.1213 72.16 71.8653 72.632C71.6173 73.104 71.2693 73.476 70.8213 73.748C70.3733 74.012 69.8573 74.144 69.2733 74.144ZM69.2733 73.256C69.6733 73.256 70.0213 73.16 70.3173 72.968C70.6133 72.776 70.8453 72.512 71.0133 72.176C71.1893 71.84 71.2773 71.448 71.2773 71C71.2773 70.552 71.1893 70.16 71.0133 69.824C70.8453 69.488 70.6093 69.224 70.3053 69.032C70.0013 68.84 69.6493 68.744 69.2493 68.744C68.8573 68.744 68.5093 68.84 68.2053 69.032C67.9093 69.224 67.6733 69.488 67.4973 69.824C67.3293 70.16 67.2453 70.552 67.2453 71C67.2453 71.44 67.3293 71.832 67.4973 72.176C67.6733 72.512 67.9133 72.776 68.2173 72.968C68.5293 73.16 68.8813 73.256 69.2733 73.256ZM78.647 74.144C78.207 74.144 77.823 74.08 77.495 73.952C77.167 73.816 76.891 73.64 76.667 73.424C76.451 73.208 76.295 72.972 76.199 72.716L77.039 72.368C77.175 72.64 77.379 72.86 77.651 73.028C77.923 73.196 78.223 73.28 78.551 73.28C78.927 73.28 79.243 73.208 79.499 73.064C79.755 72.912 79.883 72.7 79.883 72.428C79.883 72.18 79.787 71.98 79.595 71.828C79.411 71.676 79.135 71.552 78.767 71.456L78.191 71.3C77.647 71.156 77.223 70.94 76.919 70.652C76.615 70.356 76.463 70.024 76.463 69.656C76.463 69.088 76.647 68.648 77.015 68.336C77.391 68.016 77.947 67.856 78.683 67.856C79.035 67.856 79.355 67.908 79.643 68.012C79.931 68.116 80.179 68.264 80.387 68.456C80.595 68.64 80.747 68.86 80.843 69.116L80.003 69.488C79.899 69.216 79.727 69.02 79.487 68.9C79.247 68.78 78.955 68.72 78.611 68.72C78.243 68.72 77.955 68.8 77.747 68.96C77.539 69.112 77.435 69.328 77.435 69.608C77.435 69.768 77.519 69.92 77.687 70.064C77.863 70.2 78.119 70.312 78.455 70.4L79.055 70.556C79.447 70.652 79.775 70.796 80.039 70.988C80.303 71.172 80.503 71.384 80.639 71.624C80.775 71.864 80.843 72.12 80.843 72.392C80.843 72.752 80.747 73.064 80.555 73.328C80.363 73.592 80.103 73.796 79.775 73.94C79.447 74.076 79.071 74.144 78.647 74.144ZM86.2529 74L86.1929 72.896V68H87.1529V74H86.2529ZM81.9809 71.072V68H82.9409V71.072H81.9809ZM82.9409 71.072C82.9409 71.664 83.0089 72.116 83.1449 72.428C83.2809 72.74 83.4689 72.956 83.7089 73.076C83.9569 73.188 84.2329 73.244 84.5369 73.244C85.0569 73.244 85.4609 73.056 85.7489 72.68C86.0449 72.304 86.1929 71.78 86.1929 71.108H86.6609C86.6609 71.74 86.5689 72.284 86.3849 72.74C86.2009 73.196 85.9329 73.544 85.5809 73.784C85.2369 74.024 84.8129 74.144 84.3089 74.144C83.8449 74.144 83.4369 74.052 83.0849 73.868C82.7329 73.676 82.4609 73.376 82.2689 72.968C82.0769 72.552 81.9809 72.016 81.9809 71.36V71.072H82.9409ZM88.8883 76.4V68H89.7883L89.8483 69.104V76.4H88.8883ZM91.8763 74.144C91.3723 74.144 90.9283 74.012 90.5443 73.748C90.1683 73.484 89.8763 73.116 89.6683 72.644C89.4603 72.164 89.3563 71.616 89.3563 71C89.3563 70.376 89.4603 69.828 89.6683 69.356C89.8763 68.884 90.1683 68.516 90.5443 68.252C90.9283 67.988 91.3723 67.856 91.8763 67.856C92.4123 67.856 92.8843 67.988 93.2923 68.252C93.7003 68.516 94.0163 68.884 94.2403 69.356C94.4723 69.828 94.5883 70.376 94.5883 71C94.5883 71.616 94.4723 72.164 94.2403 72.644C94.0163 73.116 93.7003 73.484 93.2923 73.748C92.8843 74.012 92.4123 74.144 91.8763 74.144ZM91.6603 73.268C92.0363 73.268 92.3683 73.172 92.6563 72.98C92.9523 72.788 93.1843 72.52 93.3523 72.176C93.5283 71.832 93.6163 71.44 93.6163 71C93.6163 70.56 93.5323 70.168 93.3643 69.824C93.2043 69.48 92.9763 69.212 92.6803 69.02C92.3843 68.828 92.0483 68.732 91.6723 68.732C91.3203 68.732 91.0043 68.828 90.7243 69.02C90.4523 69.212 90.2363 69.48 90.0763 69.824C89.9243 70.168 89.8483 70.56 89.8483 71C89.8483 71.44 89.9243 71.832 90.0763 72.176C90.2363 72.52 90.4523 72.788 90.7243 72.98C90.9963 73.172 91.3083 73.268 91.6603 73.268ZM95.9781 76.4V68H96.8781L96.9381 69.104V76.4H95.9781ZM98.9661 74.144C98.4621 74.144 98.0181 74.012 97.6341 73.748C97.2581 73.484 96.9661 73.116 96.7581 72.644C96.5501 72.164 96.4461 71.616 96.4461 71C96.4461 70.376 96.5501 69.828 96.7581 69.356C96.9661 68.884 97.2581 68.516 97.6341 68.252C98.0181 67.988 98.4621 67.856 98.9661 67.856C99.5021 67.856 99.9741 67.988 100.382 68.252C100.79 68.516 101.106 68.884 101.33 69.356C101.562 69.828 101.678 70.376 101.678 71C101.678 71.616 101.562 72.164 101.33 72.644C101.106 73.116 100.79 73.484 100.382 73.748C99.9741 74.012 99.5021 74.144 98.9661 74.144ZM98.7501 73.268C99.1261 73.268 99.4581 73.172 99.7461 72.98C100.042 72.788 100.274 72.52 100.442 72.176C100.618 71.832 100.706 71.44 100.706 71C100.706 70.56 100.622 70.168 100.454 69.824C100.294 69.48 100.066 69.212 99.7701 69.02C99.4741 68.828 99.1381 68.732 98.7621 68.732C98.4101 68.732 98.0941 68.828 97.8141 69.02C97.5421 69.212 97.3261 69.48 97.1661 69.824C97.0141 70.168 96.9381 70.56 96.9381 71C96.9381 71.44 97.0141 71.832 97.1661 72.176C97.3261 72.52 97.5421 72.788 97.8141 72.98C98.0861 73.172 98.3981 73.268 98.7501 73.268ZM105.66 74.144C105.076 74.144 104.556 74.012 104.1 73.748C103.652 73.476 103.3 73.104 103.044 72.632C102.788 72.16 102.66 71.616 102.66 71C102.66 70.384 102.784 69.84 103.032 69.368C103.288 68.896 103.64 68.528 104.088 68.264C104.544 67.992 105.06 67.856 105.636 67.856C106.228 67.856 106.748 67.992 107.196 68.264C107.652 68.528 108.004 68.896 108.252 69.368C108.508 69.84 108.636 70.384 108.636 71C108.636 71.616 108.508 72.16 108.252 72.632C108.004 73.104 107.656 73.476 107.208 73.748C106.76 74.012 106.244 74.144 105.66 74.144ZM105.66 73.256C106.06 73.256 106.408 73.16 106.704 72.968C107 72.776 107.232 72.512 107.4 72.176C107.576 71.84 107.664 71.448 107.664 71C107.664 70.552 107.576 70.16 107.4 69.824C107.232 69.488 106.996 69.224 106.692 69.032C106.388 68.84 106.036 68.744 105.636 68.744C105.244 68.744 104.896 68.84 104.592 69.032C104.296 69.224 104.06 69.488 103.884 69.824C103.716 70.16 103.632 70.552 103.632 71C103.632 71.44 103.716 71.832 103.884 72.176C104.06 72.512 104.3 72.776 104.604 72.968C104.916 73.16 105.268 73.256 105.66 73.256ZM110.497 70.748C110.497 70.1 110.621 69.576 110.869 69.176C111.117 68.768 111.433 68.468 111.817 68.276C112.209 68.076 112.621 67.976 113.053 67.976V68.876C112.701 68.876 112.361 68.936 112.033 69.056C111.713 69.168 111.449 69.356 111.241 69.62C111.033 69.884 110.929 70.244 110.929 70.7L110.497 70.748ZM109.969 74V68H110.929V74H109.969ZM116.28 74.144C115.696 74.144 115.244 73.992 114.924 73.688C114.604 73.384 114.444 72.956 114.444 72.404V66.128H115.404V72.308C115.404 72.612 115.484 72.848 115.644 73.016C115.812 73.176 116.044 73.256 116.34 73.256C116.436 73.256 116.528 73.244 116.616 73.22C116.712 73.188 116.836 73.116 116.988 73.004L117.36 73.784C117.152 73.92 116.964 74.012 116.796 74.06C116.628 74.116 116.456 74.144 116.28 74.144ZM113.4 68.852V68H117.204V68.852H113.4ZM125.916 76.4V69.116L125.964 68H126.876V76.4H125.916ZM123.888 74.144C123.352 74.144 122.88 74.012 122.472 73.748C122.064 73.484 121.744 73.116 121.512 72.644C121.288 72.164 121.176 71.616 121.176 71C121.176 70.376 121.288 69.828 121.512 69.356C121.744 68.884 122.064 68.516 122.472 68.252C122.88 67.988 123.352 67.856 123.888 67.856C124.392 67.856 124.832 67.988 125.208 68.252C125.592 68.516 125.888 68.884 126.096 69.356C126.304 69.828 126.408 70.376 126.408 71C126.408 71.616 126.304 72.164 126.096 72.644C125.888 73.116 125.592 73.484 125.208 73.748C124.832 74.012 124.392 74.144 123.888 74.144ZM124.104 73.268C124.456 73.268 124.768 73.172 125.04 72.98C125.312 72.788 125.524 72.52 125.676 72.176C125.836 71.832 125.916 71.44 125.916 71C125.916 70.56 125.836 70.168 125.676 69.824C125.524 69.48 125.312 69.212 125.04 69.02C124.768 68.828 124.452 68.732 124.092 68.732C123.716 68.732 123.38 68.828 123.084 69.02C122.796 69.212 122.568 69.48 122.4 69.824C122.232 70.168 122.148 70.56 122.148 71C122.148 71.44 122.232 71.832 122.4 72.176C122.568 72.52 122.8 72.788 123.096 72.98C123.392 73.172 123.728 73.268 124.104 73.268ZM132.577 74L132.517 72.896V68H133.477V74H132.577ZM128.305 71.072V68H129.265V71.072H128.305ZM129.265 71.072C129.265 71.664 129.333 72.116 129.469 72.428C129.605 72.74 129.793 72.956 130.033 73.076C130.281 73.188 130.557 73.244 130.861 73.244C131.381 73.244 131.785 73.056 132.073 72.68C132.369 72.304 132.517 71.78 132.517 71.108H132.985C132.985 71.74 132.893 72.284 132.709 72.74C132.525 73.196 132.257 73.544 131.905 73.784C131.561 74.024 131.137 74.144 130.633 74.144C130.169 74.144 129.761 74.052 129.409 73.868C129.057 73.676 128.785 73.376 128.593 72.968C128.401 72.552 128.305 72.016 128.305 71.36V71.072H129.265ZM137.781 74.144C137.197 74.144 136.681 74.012 136.233 73.748C135.785 73.476 135.433 73.104 135.177 72.632C134.929 72.16 134.805 71.616 134.805 71C134.805 70.384 134.929 69.84 135.177 69.368C135.433 68.896 135.781 68.528 136.221 68.264C136.669 67.992 137.181 67.856 137.757 67.856C138.317 67.856 138.801 67.996 139.209 68.276C139.617 68.548 139.933 68.932 140.157 69.428C140.381 69.924 140.493 70.508 140.493 71.18H135.537L135.777 70.976C135.777 71.456 135.861 71.868 136.029 72.212C136.205 72.556 136.449 72.82 136.761 73.004C137.073 73.18 137.429 73.268 137.829 73.268C138.253 73.268 138.609 73.168 138.897 72.968C139.193 72.768 139.421 72.504 139.581 72.176L140.409 72.596C140.257 72.908 140.053 73.18 139.797 73.412C139.549 73.644 139.253 73.824 138.909 73.952C138.573 74.08 138.197 74.144 137.781 74.144ZM135.837 70.568L135.585 70.376H139.725L139.473 70.58C139.473 70.196 139.397 69.864 139.245 69.584C139.093 69.304 138.889 69.088 138.633 68.936C138.377 68.784 138.081 68.708 137.745 68.708C137.417 68.708 137.105 68.784 136.809 68.936C136.521 69.088 136.285 69.304 136.101 69.584C135.925 69.856 135.837 70.184 135.837 70.568ZM143.803 74.144C143.363 74.144 142.979 74.08 142.651 73.952C142.323 73.816 142.047 73.64 141.823 73.424C141.607 73.208 141.451 72.972 141.355 72.716L142.195 72.368C142.331 72.64 142.535 72.86 142.807 73.028C143.079 73.196 143.379 73.28 143.707 73.28C144.083 73.28 144.399 73.208 144.655 73.064C144.911 72.912 145.039 72.7 145.039 72.428C145.039 72.18 144.943 71.98 144.751 71.828C144.567 71.676 144.291 71.552 143.923 71.456L143.347 71.3C142.803 71.156 142.379 70.94 142.075 70.652C141.771 70.356 141.619 70.024 141.619 69.656C141.619 69.088 141.803 68.648 142.171 68.336C142.547 68.016 143.103 67.856 143.839 67.856C144.191 67.856 144.511 67.908 144.799 68.012C145.087 68.116 145.335 68.264 145.543 68.456C145.751 68.64 145.903 68.86 145.999 69.116L145.159 69.488C145.055 69.216 144.883 69.02 144.643 68.9C144.403 68.78 144.111 68.72 143.767 68.72C143.399 68.72 143.111 68.8 142.903 68.96C142.695 69.112 142.591 69.328 142.591 69.608C142.591 69.768 142.675 69.92 142.843 70.064C143.019 70.2 143.275 70.312 143.611 70.4L144.211 70.556C144.603 70.652 144.931 70.796 145.195 70.988C145.459 71.172 145.659 71.384 145.795 71.624C145.931 71.864 145.999 72.12 145.999 72.392C145.999 72.752 145.903 73.064 145.711 73.328C145.519 73.592 145.259 73.796 144.931 73.94C144.603 74.076 144.227 74.144 143.803 74.144ZM149.549 74.144C148.965 74.144 148.513 73.992 148.193 73.688C147.873 73.384 147.713 72.956 147.713 72.404V66.128H148.673V72.308C148.673 72.612 148.753 72.848 148.913 73.016C149.081 73.176 149.313 73.256 149.609 73.256C149.705 73.256 149.797 73.244 149.885 73.22C149.981 73.188 150.105 73.116 150.257 73.004L150.629 73.784C150.421 73.92 150.233 74.012 150.065 74.06C149.897 74.116 149.725 74.144 149.549 74.144ZM146.669 68.852V68H150.473V68.852H146.669ZM151.888 74V68H152.848V74H151.888ZM152.38 66.608C152.22 66.608 152.08 66.548 151.96 66.428C151.84 66.308 151.78 66.168 151.78 66.008C151.78 65.84 151.84 65.7 151.96 65.588C152.08 65.468 152.22 65.408 152.38 65.408C152.548 65.408 152.688 65.468 152.8 65.588C152.92 65.7 152.98 65.84 152.98 66.008C152.98 66.168 152.92 66.308 152.8 66.428C152.688 66.548 152.548 66.608 152.38 66.608ZM157.269 74.144C156.685 74.144 156.165 74.012 155.709 73.748C155.261 73.476 154.909 73.104 154.653 72.632C154.397 72.16 154.269 71.616 154.269 71C154.269 70.384 154.393 69.84 154.641 69.368C154.897 68.896 155.249 68.528 155.697 68.264C156.153 67.992 156.669 67.856 157.245 67.856C157.837 67.856 158.357 67.992 158.805 68.264C159.261 68.528 159.613 68.896 159.861 69.368C160.117 69.84 160.245 70.384 160.245 71C160.245 71.616 160.117 72.16 159.861 72.632C159.613 73.104 159.265 73.476 158.817 73.748C158.369 74.012 157.853 74.144 157.269 74.144ZM157.269 73.256C157.669 73.256 158.017 73.16 158.313 72.968C158.609 72.776 158.841 72.512 159.009 72.176C159.185 71.84 159.273 71.448 159.273 71C159.273 70.552 159.185 70.16 159.009 69.824C158.841 69.488 158.605 69.224 158.301 69.032C157.997 68.84 157.645 68.744 157.245 68.744C156.853 68.744 156.505 68.84 156.201 69.032C155.905 69.224 155.669 69.488 155.493 69.824C155.325 70.16 155.241 70.552 155.241 71C155.241 71.44 155.325 71.832 155.493 72.176C155.669 72.512 155.909 72.776 156.213 72.968C156.525 73.16 156.877 73.256 157.269 73.256ZM161.578 74V68H162.478L162.538 69.104V74H161.578ZM165.79 74V70.928H166.75V74H165.79ZM165.79 70.928C165.79 70.336 165.722 69.884 165.586 69.572C165.45 69.26 165.262 69.048 165.022 68.936C164.782 68.816 164.51 68.756 164.206 68.756C163.678 68.756 163.266 68.944 162.97 69.32C162.682 69.688 162.538 70.212 162.538 70.892H162.07C162.07 70.26 162.162 69.716 162.346 69.26C162.53 68.804 162.798 68.456 163.15 68.216C163.502 67.976 163.926 67.856 164.422 67.856C164.894 67.856 165.302 67.952 165.646 68.144C165.998 68.328 166.27 68.624 166.462 69.032C166.662 69.44 166.758 69.976 166.75 70.64V70.928H165.79ZM173.071 75.2C172.703 74.712 172.367 74.184 172.063 73.616C171.759 73.04 171.519 72.432 171.343 71.792C171.167 71.152 171.079 70.488 171.079 69.8C171.079 69.104 171.167 68.44 171.343 67.808C171.519 67.168 171.759 66.564 172.063 65.996C172.367 65.42 172.703 64.888 173.071 64.4H174.055C173.687 64.912 173.351 65.46 173.047 66.044C172.743 66.628 172.503 67.236 172.327 67.868C172.151 68.492 172.063 69.136 172.063 69.8C172.063 70.456 172.151 71.1 172.327 71.732C172.503 72.364 172.743 72.972 173.047 73.556C173.351 74.132 173.687 74.68 174.055 75.2H173.071ZM178.07 74.144C177.486 74.144 176.966 74.012 176.51 73.748C176.062 73.476 175.71 73.104 175.454 72.632C175.198 72.16 175.07 71.616 175.07 71C175.07 70.384 175.194 69.84 175.442 69.368C175.698 68.896 176.05 68.528 176.498 68.264C176.954 67.992 177.47 67.856 178.046 67.856C178.638 67.856 179.158 67.992 179.606 68.264C180.062 68.528 180.414 68.896 180.662 69.368C180.918 69.84 181.046 70.384 181.046 71C181.046 71.616 180.918 72.16 180.662 72.632C180.414 73.104 180.066 73.476 179.618 73.748C179.17 74.012 178.654 74.144 178.07 74.144ZM178.07 73.256C178.47 73.256 178.818 73.16 179.114 72.968C179.41 72.776 179.642 72.512 179.81 72.176C179.986 71.84 180.074 71.448 180.074 71C180.074 70.552 179.986 70.16 179.81 69.824C179.642 69.488 179.406 69.224 179.102 69.032C178.798 68.84 178.446 68.744 178.046 68.744C177.654 68.744 177.306 68.84 177.002 69.032C176.706 69.224 176.47 69.488 176.294 69.824C176.126 70.16 176.042 70.552 176.042 71C176.042 71.44 176.126 71.832 176.294 72.176C176.47 72.512 176.71 72.776 177.014 72.968C177.326 73.16 177.678 73.256 178.07 73.256ZM182.439 76.4V68H183.339L183.399 69.104V76.4H182.439ZM185.427 74.144C184.923 74.144 184.479 74.012 184.095 73.748C183.719 73.484 183.427 73.116 183.219 72.644C183.011 72.164 182.907 71.616 182.907 71C182.907 70.376 183.011 69.828 183.219 69.356C183.427 68.884 183.719 68.516 184.095 68.252C184.479 67.988 184.923 67.856 185.427 67.856C185.963 67.856 186.435 67.988 186.843 68.252C187.251 68.516 187.567 68.884 187.791 69.356C188.023 69.828 188.139 70.376 188.139 71C188.139 71.616 188.023 72.164 187.791 72.644C187.567 73.116 187.251 73.484 186.843 73.748C186.435 74.012 185.963 74.144 185.427 74.144ZM185.211 73.268C185.587 73.268 185.919 73.172 186.207 72.98C186.503 72.788 186.735 72.52 186.903 72.176C187.079 71.832 187.167 71.44 187.167 71C187.167 70.56 187.083 70.168 186.915 69.824C186.755 69.48 186.527 69.212 186.231 69.02C185.935 68.828 185.599 68.732 185.223 68.732C184.871 68.732 184.555 68.828 184.275 69.02C184.003 69.212 183.787 69.48 183.627 69.824C183.475 70.168 183.399 70.56 183.399 71C183.399 71.44 183.475 71.832 183.627 72.176C183.787 72.52 184.003 72.788 184.275 72.98C184.547 73.172 184.859 73.268 185.211 73.268ZM191.725 74.144C191.141 74.144 190.689 73.992 190.369 73.688C190.049 73.384 189.889 72.956 189.889 72.404V66.128H190.849V72.308C190.849 72.612 190.929 72.848 191.089 73.016C191.257 73.176 191.489 73.256 191.785 73.256C191.881 73.256 191.973 73.244 192.061 73.22C192.157 73.188 192.281 73.116 192.433 73.004L192.805 73.784C192.597 73.92 192.409 74.012 192.241 74.06C192.073 74.116 191.901 74.144 191.725 74.144ZM188.845 68.852V68H192.649V68.852H188.845ZM194.064 74V68H195.024V74H194.064ZM194.556 66.608C194.396 66.608 194.256 66.548 194.136 66.428C194.016 66.308 193.956 66.168 193.956 66.008C193.956 65.84 194.016 65.7 194.136 65.588C194.256 65.468 194.396 65.408 194.556 65.408C194.724 65.408 194.864 65.468 194.976 65.588C195.096 65.7 195.156 65.84 195.156 66.008C195.156 66.168 195.096 66.308 194.976 66.428C194.864 66.548 194.724 66.608 194.556 66.608ZM199.445 74.144C198.861 74.144 198.341 74.012 197.885 73.748C197.437 73.476 197.085 73.104 196.829 72.632C196.573 72.16 196.445 71.616 196.445 71C196.445 70.384 196.569 69.84 196.817 69.368C197.073 68.896 197.425 68.528 197.873 68.264C198.329 67.992 198.845 67.856 199.421 67.856C200.013 67.856 200.533 67.992 200.981 68.264C201.437 68.528 201.789 68.896 202.037 69.368C202.293 69.84 202.421 70.384 202.421 71C202.421 71.616 202.293 72.16 202.037 72.632C201.789 73.104 201.441 73.476 200.993 73.748C200.545 74.012 200.029 74.144 199.445 74.144ZM199.445 73.256C199.845 73.256 200.193 73.16 200.489 72.968C200.785 72.776 201.017 72.512 201.185 72.176C201.361 71.84 201.449 71.448 201.449 71C201.449 70.552 201.361 70.16 201.185 69.824C201.017 69.488 200.781 69.224 200.477 69.032C200.173 68.84 199.821 68.744 199.421 68.744C199.029 68.744 198.681 68.84 198.377 69.032C198.081 69.224 197.845 69.488 197.669 69.824C197.501 70.16 197.417 70.552 197.417 71C197.417 71.44 197.501 71.832 197.669 72.176C197.845 72.512 198.085 72.776 198.389 72.968C198.701 73.16 199.053 73.256 199.445 73.256ZM203.754 74V68H204.654L204.714 69.104V74H203.754ZM207.966 74V70.928H208.926V74H207.966ZM207.966 70.928C207.966 70.336 207.898 69.884 207.762 69.572C207.626 69.26 207.438 69.048 207.198 68.936C206.958 68.816 206.686 68.756 206.382 68.756C205.854 68.756 205.442 68.944 205.146 69.32C204.858 69.688 204.714 70.212 204.714 70.892H204.246C204.246 70.26 204.338 69.716 204.522 69.26C204.706 68.804 204.974 68.456 205.326 68.216C205.678 67.976 206.102 67.856 206.598 67.856C207.07 67.856 207.478 67.952 207.822 68.144C208.174 68.328 208.446 68.624 208.638 69.032C208.838 69.44 208.934 69.976 208.926 70.64V70.928H207.966ZM214.141 74L214.093 73.016V70.832C214.093 70.36 214.041 69.972 213.937 69.668C213.833 69.356 213.669 69.12 213.445 68.96C213.221 68.8 212.929 68.72 212.569 68.72C212.241 68.72 211.957 68.788 211.717 68.924C211.485 69.052 211.293 69.26 211.141 69.548L210.277 69.212C210.429 68.932 210.613 68.692 210.829 68.492C211.045 68.284 211.297 68.128 211.585 68.024C211.873 67.912 212.201 67.856 212.569 67.856C213.129 67.856 213.589 67.968 213.949 68.192C214.317 68.408 214.593 68.732 214.777 69.164C214.961 69.588 215.049 70.116 215.041 70.748L215.029 74H214.141ZM212.341 74.144C211.637 74.144 211.085 73.984 210.685 73.664C210.293 73.336 210.097 72.884 210.097 72.308C210.097 71.7 210.297 71.236 210.697 70.916C211.105 70.588 211.673 70.424 212.401 70.424H214.117V71.228H212.617C212.057 71.228 211.657 71.32 211.417 71.504C211.185 71.688 211.069 71.952 211.069 72.296C211.069 72.608 211.185 72.856 211.417 73.04C211.649 73.216 211.973 73.304 212.389 73.304C212.733 73.304 213.033 73.232 213.289 73.088C213.545 72.936 213.741 72.724 213.877 72.452C214.021 72.172 214.093 71.844 214.093 71.468H214.501C214.501 72.284 214.317 72.936 213.949 73.424C213.581 73.904 213.045 74.144 212.341 74.144ZM216.563 74V65.6H217.523V74H216.563ZM219.907 75.2H218.923C219.299 74.68 219.635 74.132 219.931 73.556C220.235 72.972 220.475 72.364 220.651 71.732C220.827 71.1 220.915 70.456 220.915 69.8C220.915 69.136 220.827 68.492 220.651 67.868C220.475 67.236 220.235 66.628 219.931 66.044C219.635 65.46 219.299 64.912 218.923 64.4H219.907C220.283 64.888 220.619 65.42 220.915 65.996C221.219 66.564 221.459 67.168 221.635 67.808C221.811 68.44 221.899 69.104 221.899 69.8C221.899 70.488 221.811 71.152 221.635 71.792C221.459 72.432 221.219 73.04 220.915 73.616C220.619 74.184 220.283 74.712 219.907 75.2Z" fill="#0A0B0D"/>
<path d="M20 96.5H28C29.933 96.5 31.5 98.067 31.5 100V108C31.5 109.933 29.933 111.5 28 111.5H20C18.067 111.5 16.5 109.933 16.5 108V100C16.5 98.067 18.067 96.5 20 96.5Z" fill="white"/>
<path d="M20 96.5H28C29.933 96.5 31.5 98.067 31.5 100V108C31.5 109.933 29.933 111.5 28 111.5H20C18.067 111.5 16.5 109.933 16.5 108V100C16.5 98.067 18.067 96.5 20 96.5Z" stroke="#C5CAD3"/>
<path d="M41.302 109V99.2H42.492V107.922H47.112V109H41.302ZM48.3234 109V102H49.4434V109H48.3234ZM48.8974 100.376C48.7108 100.376 48.5474 100.306 48.4074 100.166C48.2674 100.026 48.1974 99.8627 48.1974 99.676C48.1974 99.48 48.2674 99.3167 48.4074 99.186C48.5474 99.046 48.7108 98.976 48.8974 98.976C49.0934 98.976 49.2568 99.046 49.3874 99.186C49.5274 99.3167 49.5974 99.48 49.5974 99.676C49.5974 99.8627 49.5274 100.026 49.3874 100.166C49.2568 100.306 49.0934 100.376 48.8974 100.376ZM53.9573 109.168C53.444 109.168 52.996 109.093 52.6133 108.944C52.2307 108.785 51.9087 108.58 51.6473 108.328C51.3953 108.076 51.2133 107.801 51.1013 107.502L52.0813 107.096C52.24 107.413 52.478 107.67 52.7953 107.866C53.1127 108.062 53.4627 108.16 53.8453 108.16C54.284 108.16 54.6527 108.076 54.9513 107.908C55.25 107.731 55.3993 107.483 55.3993 107.166C55.3993 106.877 55.2873 106.643 55.0633 106.466C54.8487 106.289 54.5267 106.144 54.0973 106.032L53.4253 105.85C52.7907 105.682 52.296 105.43 51.9413 105.094C51.5867 104.749 51.4093 104.361 51.4093 103.932C51.4093 103.269 51.624 102.756 52.0533 102.392C52.492 102.019 53.1407 101.832 53.9993 101.832C54.41 101.832 54.7833 101.893 55.1193 102.014C55.4553 102.135 55.7447 102.308 55.9873 102.532C56.23 102.747 56.4073 103.003 56.5193 103.302L55.5393 103.736C55.418 103.419 55.2173 103.19 54.9373 103.05C54.6573 102.91 54.3167 102.84 53.9153 102.84C53.486 102.84 53.15 102.933 52.9073 103.12C52.6647 103.297 52.5433 103.549 52.5433 103.876C52.5433 104.063 52.6413 104.24 52.8373 104.408C53.0427 104.567 53.3413 104.697 53.7333 104.8L54.4333 104.982C54.8907 105.094 55.2733 105.262 55.5813 105.486C55.8893 105.701 56.1227 105.948 56.2813 106.228C56.44 106.508 56.5193 106.807 56.5193 107.124C56.5193 107.544 56.4073 107.908 56.1833 108.216C55.9593 108.524 55.656 108.762 55.2733 108.93C54.8907 109.089 54.452 109.168 53.9573 109.168ZM60.6608 109.168C59.9795 109.168 59.4522 108.991 59.0788 108.636C58.7055 108.281 58.5188 107.782 58.5188 107.138V99.816H59.6388V107.026C59.6388 107.381 59.7322 107.656 59.9188 107.852C60.1148 108.039 60.3855 108.132 60.7308 108.132C60.8428 108.132 60.9502 108.118 61.0528 108.09C61.1648 108.053 61.3095 107.969 61.4868 107.838L61.9208 108.748C61.6782 108.907 61.4588 109.014 61.2628 109.07C61.0668 109.135 60.8662 109.168 60.6608 109.168ZM57.3008 102.994V102H61.7388V102.994H57.3008ZM67.1008 109V99.2H68.2908V109H67.1008ZM73.2116 109.168C72.5303 109.168 72.0029 108.991 71.6296 108.636C71.2563 108.281 71.0696 107.782 71.0696 107.138V99.816H72.1896V107.026C72.1896 107.381 72.2829 107.656 72.4696 107.852C72.6656 108.039 72.9363 108.132 73.2816 108.132C73.3936 108.132 73.5009 108.118 73.6036 108.09C73.7156 108.053 73.8603 107.969 74.0376 107.838L74.4716 108.748C74.2289 108.907 74.0096 109.014 73.8136 109.07C73.6176 109.135 73.4169 109.168 73.2116 109.168ZM69.8516 102.994V102H74.2896V102.994H69.8516ZM78.8956 109.168C78.2143 109.168 77.6123 109.014 77.0896 108.706C76.5669 108.389 76.1563 107.955 75.8576 107.404C75.5683 106.853 75.4236 106.219 75.4236 105.5C75.4236 104.781 75.5683 104.147 75.8576 103.596C76.1563 103.045 76.5623 102.616 77.0756 102.308C77.5983 101.991 78.1956 101.832 78.8676 101.832C79.5209 101.832 80.0856 101.995 80.5616 102.322C81.0376 102.639 81.4063 103.087 81.6676 103.666C81.9289 104.245 82.0596 104.926 82.0596 105.71H76.2776L76.5576 105.472C76.5576 106.032 76.6556 106.513 76.8516 106.914C77.0569 107.315 77.3416 107.623 77.7056 107.838C78.0696 108.043 78.4849 108.146 78.9516 108.146C79.4463 108.146 79.8616 108.029 80.1976 107.796C80.5429 107.563 80.8089 107.255 80.9956 106.872L81.9616 107.362C81.7843 107.726 81.5463 108.043 81.2476 108.314C80.9583 108.585 80.6129 108.795 80.2116 108.944C79.8196 109.093 79.3809 109.168 78.8956 109.168ZM76.6276 104.996L76.3336 104.772H81.1636L80.8696 105.01C80.8696 104.562 80.7809 104.175 80.6036 103.848C80.4263 103.521 80.1883 103.269 79.8896 103.092C79.5909 102.915 79.2456 102.826 78.8536 102.826C78.4709 102.826 78.1069 102.915 77.7616 103.092C77.4256 103.269 77.1503 103.521 76.9356 103.848C76.7303 104.165 76.6276 104.548 76.6276 104.996ZM83.4722 109V102H84.5222L84.5782 102.98C84.7929 102.607 85.0682 102.322 85.4042 102.126C85.7402 101.93 86.1322 101.832 86.5802 101.832C87.1402 101.832 87.6162 101.963 88.0082 102.224C88.4095 102.485 88.6989 102.882 88.8762 103.414C89.0722 102.901 89.3569 102.509 89.7302 102.238C90.1129 101.967 90.5655 101.832 91.0882 101.832C91.8722 101.832 92.4882 102.093 92.9362 102.616C93.3935 103.139 93.6175 103.932 93.6082 104.996V109H92.4882V105.416C92.4882 104.725 92.4135 104.198 92.2642 103.834C92.1242 103.47 91.9329 103.223 91.6902 103.092C91.4475 102.952 91.1675 102.882 90.8502 102.882C90.2995 102.882 89.8702 103.101 89.5622 103.54C89.2542 103.969 89.1002 104.581 89.1002 105.374V109H87.9802V105.416C87.9802 104.725 87.9055 104.198 87.7562 103.834C87.6162 103.47 87.4202 103.223 87.1682 103.092C86.9255 102.952 86.6455 102.882 86.3282 102.882C85.7869 102.882 85.3622 103.101 85.0542 103.54C84.7462 103.969 84.5922 104.581 84.5922 105.374V109H83.4722Z" fill="#0A0B0D"/>
<path d="M20 124.5H28C29.933 124.5 31.5 126.067 31.5 128V136C31.5 137.933 29.933 139.5 28 139.5H20C18.067 139.5 16.5 137.933 16.5 136V128C16.5 126.067 18.067 124.5 20 124.5Z" fill="white"/>
<path d="M20 124.5H28C29.933 124.5 31.5 126.067 31.5 128V136C31.5 137.933 29.933 139.5 28 139.5H20C18.067 139.5 16.5 137.933 16.5 136V128C16.5 126.067 18.067 124.5 20 124.5Z" stroke="#C5CAD3"/>
<path d="M41.302 137V127.2H42.492V135.922H47.112V137H41.302ZM48.3234 137V130H49.4434V137H48.3234ZM48.8974 128.376C48.7108 128.376 48.5474 128.306 48.4074 128.166C48.2674 128.026 48.1974 127.863 48.1974 127.676C48.1974 127.48 48.2674 127.317 48.4074 127.186C48.5474 127.046 48.7108 126.976 48.8974 126.976C49.0934 126.976 49.2568 127.046 49.3874 127.186C49.5274 127.317 49.5974 127.48 49.5974 127.676C49.5974 127.863 49.5274 128.026 49.3874 128.166C49.2568 128.306 49.0934 128.376 48.8974 128.376ZM53.9573 137.168C53.444 137.168 52.996 137.093 52.6133 136.944C52.2307 136.785 51.9087 136.58 51.6473 136.328C51.3953 136.076 51.2133 135.801 51.1013 135.502L52.0813 135.096C52.24 135.413 52.478 135.67 52.7953 135.866C53.1127 136.062 53.4627 136.16 53.8453 136.16C54.284 136.16 54.6527 136.076 54.9513 135.908C55.25 135.731 55.3993 135.483 55.3993 135.166C55.3993 134.877 55.2873 134.643 55.0633 134.466C54.8487 134.289 54.5267 134.144 54.0973 134.032L53.4253 133.85C52.7907 133.682 52.296 133.43 51.9413 133.094C51.5867 132.749 51.4093 132.361 51.4093 131.932C51.4093 131.269 51.624 130.756 52.0533 130.392C52.492 130.019 53.1407 129.832 53.9993 129.832C54.41 129.832 54.7833 129.893 55.1193 130.014C55.4553 130.135 55.7447 130.308 55.9873 130.532C56.23 130.747 56.4073 131.003 56.5193 131.302L55.5393 131.736C55.418 131.419 55.2173 131.19 54.9373 131.05C54.6573 130.91 54.3167 130.84 53.9153 130.84C53.486 130.84 53.15 130.933 52.9073 131.12C52.6647 131.297 52.5433 131.549 52.5433 131.876C52.5433 132.063 52.6413 132.24 52.8373 132.408C53.0427 132.567 53.3413 132.697 53.7333 132.8L54.4333 132.982C54.8907 133.094 55.2733 133.262 55.5813 133.486C55.8893 133.701 56.1227 133.948 56.2813 134.228C56.44 134.508 56.5193 134.807 56.5193 135.124C56.5193 135.544 56.4073 135.908 56.1833 136.216C55.9593 136.524 55.656 136.762 55.2733 136.93C54.8907 137.089 54.452 137.168 53.9573 137.168ZM60.6608 137.168C59.9795 137.168 59.4522 136.991 59.0788 136.636C58.7055 136.281 58.5188 135.782 58.5188 135.138V127.816H59.6388V135.026C59.6388 135.381 59.7322 135.656 59.9188 135.852C60.1148 136.039 60.3855 136.132 60.7308 136.132C60.8428 136.132 60.9502 136.118 61.0528 136.09C61.1648 136.053 61.3095 135.969 61.4868 135.838L61.9208 136.748C61.6782 136.907 61.4588 137.014 61.2628 137.07C61.0668 137.135 60.8662 137.168 60.6608 137.168ZM57.3008 130.994V130H61.7388V130.994H57.3008ZM67.1008 137V127.2H68.2908V137H67.1008ZM73.2116 137.168C72.5303 137.168 72.0029 136.991 71.6296 136.636C71.2563 136.281 71.0696 135.782 71.0696 135.138V127.816H72.1896V135.026C72.1896 135.381 72.2829 135.656 72.4696 135.852C72.6656 136.039 72.9363 136.132 73.2816 136.132C73.3936 136.132 73.5009 136.118 73.6036 136.09C73.7156 136.053 73.8603 135.969 74.0376 135.838L74.4716 136.748C74.2289 136.907 74.0096 137.014 73.8136 137.07C73.6176 137.135 73.4169 137.168 73.2116 137.168ZM69.8516 130.994V130H74.2896V130.994H69.8516ZM78.8956 137.168C78.2143 137.168 77.6123 137.014 77.0896 136.706C76.5669 136.389 76.1563 135.955 75.8576 135.404C75.5683 134.853 75.4236 134.219 75.4236 133.5C75.4236 132.781 75.5683 132.147 75.8576 131.596C76.1563 131.045 76.5623 130.616 77.0756 130.308C77.5983 129.991 78.1956 129.832 78.8676 129.832C79.5209 129.832 80.0856 129.995 80.5616 130.322C81.0376 130.639 81.4063 131.087 81.6676 131.666C81.9289 132.245 82.0596 132.926 82.0596 133.71H76.2776L76.5576 133.472C76.5576 134.032 76.6556 134.513 76.8516 134.914C77.0569 135.315 77.3416 135.623 77.7056 135.838C78.0696 136.043 78.4849 136.146 78.9516 136.146C79.4463 136.146 79.8616 136.029 80.1976 135.796C80.5429 135.563 80.8089 135.255 80.9956 134.872L81.9616 135.362C81.7843 135.726 81.5463 136.043 81.2476 136.314C80.9583 136.585 80.6129 136.795 80.2116 136.944C79.8196 137.093 79.3809 137.168 78.8956 137.168ZM76.6276 132.996L76.3336 132.772H81.1636L80.8696 133.01C80.8696 132.562 80.7809 132.175 80.6036 131.848C80.4263 131.521 80.1883 131.269 79.8896 131.092C79.5909 130.915 79.2456 130.826 78.8536 130.826C78.4709 130.826 78.1069 130.915 77.7616 131.092C77.4256 131.269 77.1503 131.521 76.9356 131.848C76.7303 132.165 76.6276 132.548 76.6276 132.996ZM83.4722 137V130H84.5222L84.5782 130.98C84.7929 130.607 85.0682 130.322 85.4042 130.126C85.7402 129.93 86.1322 129.832 86.5802 129.832C87.1402 129.832 87.6162 129.963 88.0082 130.224C88.4095 130.485 88.6989 130.882 88.8762 131.414C89.0722 130.901 89.3569 130.509 89.7302 130.238C90.1129 129.967 90.5655 129.832 91.0882 129.832C91.8722 129.832 92.4882 130.093 92.9362 130.616C93.3935 131.139 93.6175 131.932 93.6082 132.996V137H92.4882V133.416C92.4882 132.725 92.4135 132.198 92.2642 131.834C92.1242 131.47 91.9329 131.223 91.6902 131.092C91.4475 130.952 91.1675 130.882 90.8502 130.882C90.2995 130.882 89.8702 131.101 89.5622 131.54C89.2542 131.969 89.1002 132.581 89.1002 133.374V137H87.9802V133.416C87.9802 132.725 87.9055 132.198 87.7562 131.834C87.6162 131.47 87.4202 131.223 87.1682 131.092C86.9255 130.952 86.6455 130.882 86.3282 130.882C85.7869 130.882 85.3622 131.101 85.0542 131.54C84.7462 131.969 84.5922 132.581 84.5922 133.374V137H83.4722Z" fill="#0A0B0D"/>
<path d="M20 152.5H28C29.933 152.5 31.5 154.067 31.5 156V164C31.5 165.933 29.933 167.5 28 167.5H20C18.067 167.5 16.5 165.933 16.5 164V156C16.5 154.067 18.067 152.5 20 152.5Z" fill="white"/>
<path d="M20 152.5H28C29.933 152.5 31.5 154.067 31.5 156V164C31.5 165.933 29.933 167.5 28 167.5H20C18.067 167.5 16.5 165.933 16.5 164V156C16.5 154.067 18.067 152.5 20 152.5Z" stroke="#C5CAD3"/>
<path d="M41.302 165V155.2H42.492V163.922H47.112V165H41.302ZM48.3234 165V158H49.4434V165H48.3234ZM48.8974 156.376C48.7108 156.376 48.5474 156.306 48.4074 156.166C48.2674 156.026 48.1974 155.863 48.1974 155.676C48.1974 155.48 48.2674 155.317 48.4074 155.186C48.5474 155.046 48.7108 154.976 48.8974 154.976C49.0934 154.976 49.2568 155.046 49.3874 155.186C49.5274 155.317 49.5974 155.48 49.5974 155.676C49.5974 155.863 49.5274 156.026 49.3874 156.166C49.2568 156.306 49.0934 156.376 48.8974 156.376ZM53.9573 165.168C53.444 165.168 52.996 165.093 52.6133 164.944C52.2307 164.785 51.9087 164.58 51.6473 164.328C51.3953 164.076 51.2133 163.801 51.1013 163.502L52.0813 163.096C52.24 163.413 52.478 163.67 52.7953 163.866C53.1127 164.062 53.4627 164.16 53.8453 164.16C54.284 164.16 54.6527 164.076 54.9513 163.908C55.25 163.731 55.3993 163.483 55.3993 163.166C55.3993 162.877 55.2873 162.643 55.0633 162.466C54.8487 162.289 54.5267 162.144 54.0973 162.032L53.4253 161.85C52.7907 161.682 52.296 161.43 51.9413 161.094C51.5867 160.749 51.4093 160.361 51.4093 159.932C51.4093 159.269 51.624 158.756 52.0533 158.392C52.492 158.019 53.1407 157.832 53.9993 157.832C54.41 157.832 54.7833 157.893 55.1193 158.014C55.4553 158.135 55.7447 158.308 55.9873 158.532C56.23 158.747 56.4073 159.003 56.5193 159.302L55.5393 159.736C55.418 159.419 55.2173 159.19 54.9373 159.05C54.6573 158.91 54.3167 158.84 53.9153 158.84C53.486 158.84 53.15 158.933 52.9073 159.12C52.6647 159.297 52.5433 159.549 52.5433 159.876C52.5433 160.063 52.6413 160.24 52.8373 160.408C53.0427 160.567 53.3413 160.697 53.7333 160.8L54.4333 160.982C54.8907 161.094 55.2733 161.262 55.5813 161.486C55.8893 161.701 56.1227 161.948 56.2813 162.228C56.44 162.508 56.5193 162.807 56.5193 163.124C56.5193 163.544 56.4073 163.908 56.1833 164.216C55.9593 164.524 55.656 164.762 55.2733 164.93C54.8907 165.089 54.452 165.168 53.9573 165.168ZM60.6608 165.168C59.9795 165.168 59.4522 164.991 59.0788 164.636C58.7055 164.281 58.5188 163.782 58.5188 163.138V155.816H59.6388V163.026C59.6388 163.381 59.7322 163.656 59.9188 163.852C60.1148 164.039 60.3855 164.132 60.7308 164.132C60.8428 164.132 60.9502 164.118 61.0528 164.09C61.1648 164.053 61.3095 163.969 61.4868 163.838L61.9208 164.748C61.6782 164.907 61.4588 165.014 61.2628 165.07C61.0668 165.135 60.8662 165.168 60.6608 165.168ZM57.3008 158.994V158H61.7388V158.994H57.3008ZM67.1008 165V155.2H68.2908V165H67.1008ZM73.2116 165.168C72.5303 165.168 72.0029 164.991 71.6296 164.636C71.2563 164.281 71.0696 163.782 71.0696 163.138V155.816H72.1896V163.026C72.1896 163.381 72.2829 163.656 72.4696 163.852C72.6656 164.039 72.9363 164.132 73.2816 164.132C73.3936 164.132 73.5009 164.118 73.6036 164.09C73.7156 164.053 73.8603 163.969 74.0376 163.838L74.4716 164.748C74.2289 164.907 74.0096 165.014 73.8136 165.07C73.6176 165.135 73.4169 165.168 73.2116 165.168ZM69.8516 158.994V158H74.2896V158.994H69.8516ZM78.8956 165.168C78.2143 165.168 77.6123 165.014 77.0896 164.706C76.5669 164.389 76.1563 163.955 75.8576 163.404C75.5683 162.853 75.4236 162.219 75.4236 161.5C75.4236 160.781 75.5683 160.147 75.8576 159.596C76.1563 159.045 76.5623 158.616 77.0756 158.308C77.5983 157.991 78.1956 157.832 78.8676 157.832C79.5209 157.832 80.0856 157.995 80.5616 158.322C81.0376 158.639 81.4063 159.087 81.6676 159.666C81.9289 160.245 82.0596 160.926 82.0596 161.71H76.2776L76.5576 161.472C76.5576 162.032 76.6556 162.513 76.8516 162.914C77.0569 163.315 77.3416 163.623 77.7056 163.838C78.0696 164.043 78.4849 164.146 78.9516 164.146C79.4463 164.146 79.8616 164.029 80.1976 163.796C80.5429 163.563 80.8089 163.255 80.9956 162.872L81.9616 163.362C81.7843 163.726 81.5463 164.043 81.2476 164.314C80.9583 164.585 80.6129 164.795 80.2116 164.944C79.8196 165.093 79.3809 165.168 78.8956 165.168ZM76.6276 160.996L76.3336 160.772H81.1636L80.8696 161.01C80.8696 160.562 80.7809 160.175 80.6036 159.848C80.4263 159.521 80.1883 159.269 79.8896 159.092C79.5909 158.915 79.2456 158.826 78.8536 158.826C78.4709 158.826 78.1069 158.915 77.7616 159.092C77.4256 159.269 77.1503 159.521 76.9356 159.848C76.7303 160.165 76.6276 160.548 76.6276 160.996ZM83.4722 165V158H84.5222L84.5782 158.98C84.7929 158.607 85.0682 158.322 85.4042 158.126C85.7402 157.93 86.1322 157.832 86.5802 157.832C87.1402 157.832 87.6162 157.963 88.0082 158.224C88.4095 158.485 88.6989 158.882 88.8762 159.414C89.0722 158.901 89.3569 158.509 89.7302 158.238C90.1129 157.967 90.5655 157.832 91.0882 157.832C91.8722 157.832 92.4882 158.093 92.9362 158.616C93.3935 159.139 93.6175 159.932 93.6082 160.996V165H92.4882V161.416C92.4882 160.725 92.4135 160.198 92.2642 159.834C92.1242 159.47 91.9329 159.223 91.6902 159.092C91.4475 158.952 91.1675 158.882 90.8502 158.882C90.2995 158.882 89.8702 159.101 89.5622 159.54C89.2542 159.969 89.1002 160.581 89.1002 161.374V165H87.9802V161.416C87.9802 160.725 87.9055 160.198 87.7562 159.834C87.6162 159.47 87.4202 159.223 87.1682 159.092C86.9255 158.952 86.6455 158.882 86.3282 158.882C85.7869 158.882 85.3622 159.101 85.0542 159.54C84.7462 159.969 84.5922 160.581 84.5922 161.374V165H83.4722Z" fill="#0A0B0D"/>
<path d="M20 180.5H28C29.933 180.5 31.5 182.067 31.5 184V192C31.5 193.933 29.933 195.5 28 195.5H20C18.067 195.5 16.5 193.933 16.5 192V184C16.5 182.067 18.067 180.5 20 180.5Z" fill="white"/>
<path d="M20 180.5H28C29.933 180.5 31.5 182.067 31.5 184V192C31.5 193.933 29.933 195.5 28 195.5H20C18.067 195.5 16.5 193.933 16.5 192V184C16.5 182.067 18.067 180.5 20 180.5Z" stroke="#C5CAD3"/>
<path d="M41.302 193V183.2H42.492V191.922H47.112V193H41.302ZM48.3234 193V186H49.4434V193H48.3234ZM48.8974 184.376C48.7108 184.376 48.5474 184.306 48.4074 184.166C48.2674 184.026 48.1974 183.863 48.1974 183.676C48.1974 183.48 48.2674 183.317 48.4074 183.186C48.5474 183.046 48.7108 182.976 48.8974 182.976C49.0934 182.976 49.2568 183.046 49.3874 183.186C49.5274 183.317 49.5974 183.48 49.5974 183.676C49.5974 183.863 49.5274 184.026 49.3874 184.166C49.2568 184.306 49.0934 184.376 48.8974 184.376ZM53.9573 193.168C53.444 193.168 52.996 193.093 52.6133 192.944C52.2307 192.785 51.9087 192.58 51.6473 192.328C51.3953 192.076 51.2133 191.801 51.1013 191.502L52.0813 191.096C52.24 191.413 52.478 191.67 52.7953 191.866C53.1127 192.062 53.4627 192.16 53.8453 192.16C54.284 192.16 54.6527 192.076 54.9513 191.908C55.25 191.731 55.3993 191.483 55.3993 191.166C55.3993 190.877 55.2873 190.643 55.0633 190.466C54.8487 190.289 54.5267 190.144 54.0973 190.032L53.4253 189.85C52.7907 189.682 52.296 189.43 51.9413 189.094C51.5867 188.749 51.4093 188.361 51.4093 187.932C51.4093 187.269 51.624 186.756 52.0533 186.392C52.492 186.019 53.1407 185.832 53.9993 185.832C54.41 185.832 54.7833 185.893 55.1193 186.014C55.4553 186.135 55.7447 186.308 55.9873 186.532C56.23 186.747 56.4073 187.003 56.5193 187.302L55.5393 187.736C55.418 187.419 55.2173 187.19 54.9373 187.05C54.6573 186.91 54.3167 186.84 53.9153 186.84C53.486 186.84 53.15 186.933 52.9073 187.12C52.6647 187.297 52.5433 187.549 52.5433 187.876C52.5433 188.063 52.6413 188.24 52.8373 188.408C53.0427 188.567 53.3413 188.697 53.7333 188.8L54.4333 188.982C54.8907 189.094 55.2733 189.262 55.5813 189.486C55.8893 189.701 56.1227 189.948 56.2813 190.228C56.44 190.508 56.5193 190.807 56.5193 191.124C56.5193 191.544 56.4073 191.908 56.1833 192.216C55.9593 192.524 55.656 192.762 55.2733 192.93C54.8907 193.089 54.452 193.168 53.9573 193.168ZM60.6608 193.168C59.9795 193.168 59.4522 192.991 59.0788 192.636C58.7055 192.281 58.5188 191.782 58.5188 191.138V183.816H59.6388V191.026C59.6388 191.381 59.7322 191.656 59.9188 191.852C60.1148 192.039 60.3855 192.132 60.7308 192.132C60.8428 192.132 60.9502 192.118 61.0528 192.09C61.1648 192.053 61.3095 191.969 61.4868 191.838L61.9208 192.748C61.6782 192.907 61.4588 193.014 61.2628 193.07C61.0668 193.135 60.8662 193.168 60.6608 193.168ZM57.3008 186.994V186H61.7388V186.994H57.3008ZM67.1008 193V183.2H68.2908V193H67.1008ZM73.2116 193.168C72.5303 193.168 72.0029 192.991 71.6296 192.636C71.2563 192.281 71.0696 191.782 71.0696 191.138V183.816H72.1896V191.026C72.1896 191.381 72.2829 191.656 72.4696 191.852C72.6656 192.039 72.9363 192.132 73.2816 192.132C73.3936 192.132 73.5009 192.118 73.6036 192.09C73.7156 192.053 73.8603 191.969 74.0376 191.838L74.4716 192.748C74.2289 192.907 74.0096 193.014 73.8136 193.07C73.6176 193.135 73.4169 193.168 73.2116 193.168ZM69.8516 186.994V186H74.2896V186.994H69.8516ZM78.8956 193.168C78.2143 193.168 77.6123 193.014 77.0896 192.706C76.5669 192.389 76.1563 191.955 75.8576 191.404C75.5683 190.853 75.4236 190.219 75.4236 189.5C75.4236 188.781 75.5683 188.147 75.8576 187.596C76.1563 187.045 76.5623 186.616 77.0756 186.308C77.5983 185.991 78.1956 185.832 78.8676 185.832C79.5209 185.832 80.0856 185.995 80.5616 186.322C81.0376 186.639 81.4063 187.087 81.6676 187.666C81.9289 188.245 82.0596 188.926 82.0596 189.71H76.2776L76.5576 189.472C76.5576 190.032 76.6556 190.513 76.8516 190.914C77.0569 191.315 77.3416 191.623 77.7056 191.838C78.0696 192.043 78.4849 192.146 78.9516 192.146C79.4463 192.146 79.8616 192.029 80.1976 191.796C80.5429 191.563 80.8089 191.255 80.9956 190.872L81.9616 191.362C81.7843 191.726 81.5463 192.043 81.2476 192.314C80.9583 192.585 80.6129 192.795 80.2116 192.944C79.8196 193.093 79.3809 193.168 78.8956 193.168ZM76.6276 188.996L76.3336 188.772H81.1636L80.8696 189.01C80.8696 188.562 80.7809 188.175 80.6036 187.848C80.4263 187.521 80.1883 187.269 79.8896 187.092C79.5909 186.915 79.2456 186.826 78.8536 186.826C78.4709 186.826 78.1069 186.915 77.7616 187.092C77.4256 187.269 77.1503 187.521 76.9356 187.848C76.7303 188.165 76.6276 188.548 76.6276 188.996ZM83.4722 193V186H84.5222L84.5782 186.98C84.7929 186.607 85.0682 186.322 85.4042 186.126C85.7402 185.93 86.1322 185.832 86.5802 185.832C87.1402 185.832 87.6162 185.963 88.0082 186.224C88.4095 186.485 88.6989 186.882 88.8762 187.414C89.0722 186.901 89.3569 186.509 89.7302 186.238C90.1129 185.967 90.5655 185.832 91.0882 185.832C91.8722 185.832 92.4882 186.093 92.9362 186.616C93.3935 187.139 93.6175 187.932 93.6082 188.996V193H92.4882V189.416C92.4882 188.725 92.4135 188.198 92.2642 187.834C92.1242 187.47 91.9329 187.223 91.6902 187.092C91.4475 186.952 91.1675 186.882 90.8502 186.882C90.2995 186.882 89.8702 187.101 89.5622 187.54C89.2542 187.969 89.1002 188.581 89.1002 189.374V193H87.9802V189.416C87.9802 188.725 87.9055 188.198 87.7562 187.834C87.6162 187.47 87.4202 187.223 87.1682 187.092C86.9255 186.952 86.6455 186.882 86.3282 186.882C85.7869 186.882 85.3622 187.101 85.0542 187.54C84.7462 187.969 84.5922 188.581 84.5922 189.374V193H83.4722Z" fill="#0A0B0D"/>
<path d="M20 214.5H337C338.933 214.5 340.5 216.067 340.5 218V250C340.5 251.933 338.933 253.5 337 253.5H20C18.067 253.5 16.5 251.933 16.5 250V218C16.5 216.067 18.067 214.5 20 214.5Z" fill="white"/>
<path d="M20 214.5H337C338.933 214.5 340.5 216.067 340.5 218V250C340.5 251.933 338.933 253.5 337 253.5H20C18.067 253.5 16.5 251.933 16.5 250V218C16.5 216.067 18.067 214.5 20 214.5Z" stroke="#C5CAD3"/>
<path d="M29.474 239.168C28.5313 239.168 27.696 238.953 26.968 238.524C26.24 238.095 25.6707 237.497 25.26 236.732C24.8493 235.967 24.644 235.089 24.644 234.1C24.644 233.101 24.8447 232.224 25.246 231.468C25.6567 230.703 26.2213 230.105 26.94 229.676C27.6587 229.247 28.4893 229.032 29.432 229.032C30.3747 229.032 31.2053 229.251 31.924 229.69C32.652 230.119 33.2167 230.717 33.618 231.482C34.0193 232.238 34.22 233.111 34.22 234.1C34.22 235.089 34.0193 235.967 33.618 236.732C33.2167 237.497 32.6567 238.095 31.938 238.524C31.2287 238.953 30.4073 239.168 29.474 239.168ZM29.474 238.09C30.174 238.09 30.79 237.922 31.322 237.586C31.854 237.241 32.2693 236.769 32.568 236.172C32.876 235.575 33.03 234.884 33.03 234.1C33.03 233.325 32.876 232.639 32.568 232.042C32.26 231.435 31.8353 230.964 31.294 230.628C30.762 230.283 30.1413 230.11 29.432 230.11C28.732 230.11 28.1113 230.283 27.57 230.628C27.0287 230.964 26.604 231.435 26.296 232.042C25.988 232.639 25.834 233.325 25.834 234.1C25.834 234.884 25.988 235.575 26.296 236.172C26.604 236.769 27.0333 237.241 27.584 237.586C28.1347 237.922 28.7647 238.09 29.474 238.09ZM36.4651 235.206C36.4651 234.45 36.6098 233.839 36.8991 233.372C37.1885 232.896 37.5571 232.546 38.0051 232.322C38.4625 232.089 38.9431 231.972 39.4471 231.972V233.022C39.0365 233.022 38.6398 233.092 38.2571 233.232C37.8838 233.363 37.5758 233.582 37.3331 233.89C37.0905 234.198 36.9691 234.618 36.9691 235.15L36.4651 235.206ZM35.8491 239V232H36.9691V239H35.8491ZM46.6706 239.168C45.9893 239.168 45.4619 238.991 45.0886 238.636C44.7153 238.281 44.5286 237.782 44.5286 237.138V229.816H45.6486V237.026C45.6486 237.381 45.7419 237.656 45.9286 237.852C46.1246 238.039 46.3953 238.132 46.7406 238.132C46.8526 238.132 46.9599 238.118 47.0626 238.09C47.1746 238.053 47.3193 237.969 47.4966 237.838L47.9306 238.748C47.6879 238.907 47.4686 239.014 47.2726 239.07C47.0766 239.135 46.8759 239.168 46.6706 239.168ZM43.3106 232.994V232H47.7486V232.994H43.3106ZM49.9596 241.968C49.7823 241.968 49.5769 241.931 49.3436 241.856C49.1103 241.791 48.8629 241.702 48.6016 241.59L49.0216 240.652C49.2363 240.745 49.4229 240.815 49.5816 240.862C49.7496 240.909 49.8803 240.932 49.9736 240.932C50.2256 240.932 50.4309 240.862 50.5896 240.722C50.7576 240.591 50.8976 240.4 51.0096 240.148L51.8076 238.244L54.3976 232H55.6016L52.2416 239.98C52.0643 240.391 51.8776 240.745 51.6816 241.044C51.4949 241.343 51.2663 241.571 50.9956 241.73C50.7249 241.889 50.3796 241.968 49.9596 241.968ZM51.4996 239L48.4756 232H49.6656L52.2696 238.23L52.6056 239H51.4996ZM56.7688 241.8V232H57.8188L57.8888 233.288V241.8H56.7688ZM60.2548 239.168C59.6668 239.168 59.1488 239.014 58.7008 238.706C58.2621 238.398 57.9214 237.969 57.6788 237.418C57.4361 236.858 57.3148 236.219 57.3148 235.5C57.3148 234.772 57.4361 234.133 57.6788 233.582C57.9214 233.031 58.2621 232.602 58.7008 232.294C59.1488 231.986 59.6668 231.832 60.2548 231.832C60.8801 231.832 61.4308 231.986 61.9068 232.294C62.3828 232.602 62.7514 233.031 63.0128 233.582C63.2834 234.133 63.4188 234.772 63.4188 235.5C63.4188 236.219 63.2834 236.858 63.0128 237.418C62.7514 237.969 62.3828 238.398 61.9068 238.706C61.4308 239.014 60.8801 239.168 60.2548 239.168ZM60.0028 238.146C60.4414 238.146 60.8288 238.034 61.1648 237.81C61.5101 237.586 61.7808 237.273 61.9768 236.872C62.1821 236.471 62.2848 236.013 62.2848 235.5C62.2848 234.987 62.1868 234.529 61.9908 234.128C61.8041 233.727 61.5381 233.414 61.1928 233.19C60.8474 232.966 60.4554 232.854 60.0168 232.854C59.6061 232.854 59.2374 232.966 58.9108 233.19C58.5934 233.414 58.3414 233.727 58.1548 234.128C57.9774 234.529 57.8888 234.987 57.8888 235.5C57.8888 236.013 57.9774 236.471 58.1548 236.872C58.3414 237.273 58.5934 237.586 58.9108 237.81C59.2281 238.034 59.5921 238.146 60.0028 238.146ZM68.0362 239.168C67.3549 239.168 66.7529 239.014 66.2302 238.706C65.7076 238.389 65.2969 237.955 64.9982 237.404C64.7089 236.853 64.5642 236.219 64.5642 235.5C64.5642 234.781 64.7089 234.147 64.9982 233.596C65.2969 233.045 65.7029 232.616 66.2162 232.308C66.7389 231.991 67.3362 231.832 68.0082 231.832C68.6616 231.832 69.2262 231.995 69.7022 232.322C70.1782 232.639 70.5469 233.087 70.8082 233.666C71.0696 234.245 71.2002 234.926 71.2002 235.71H65.4182L65.6982 235.472C65.6982 236.032 65.7962 236.513 65.9922 236.914C66.1976 237.315 66.4822 237.623 66.8462 237.838C67.2102 238.043 67.6256 238.146 68.0922 238.146C68.5869 238.146 69.0022 238.029 69.3382 237.796C69.6836 237.563 69.9496 237.255 70.1362 236.872L71.1022 237.362C70.9249 237.726 70.6869 238.043 70.3882 238.314C70.0989 238.585 69.7536 238.795 69.3522 238.944C68.9602 239.093 68.5216 239.168 68.0362 239.168ZM65.7682 234.996L65.4742 234.772H70.3042L70.0102 235.01C70.0102 234.562 69.9216 234.175 69.7442 233.848C69.5669 233.521 69.3289 233.269 69.0302 233.092C68.7316 232.915 68.3862 232.826 67.9942 232.826C67.6116 232.826 67.2476 232.915 66.9022 233.092C66.5662 233.269 66.2909 233.521 66.0762 233.848C65.8709 234.165 65.7682 234.548 65.7682 234.996ZM76.7018 241.968C76.5245 241.968 76.3191 241.931 76.0858 241.856C75.8525 241.791 75.6051 241.702 75.3438 241.59L75.7638 240.652C75.9785 240.745 76.1651 240.815 76.3238 240.862C76.4918 240.909 76.6225 240.932 76.7158 240.932C76.9678 240.932 77.1731 240.862 77.3318 240.722C77.4998 240.591 77.6398 240.4 77.7518 240.148L78.5498 238.244L81.1398 232H82.3438L78.9838 239.98C78.8065 240.391 78.6198 240.745 78.4238 241.044C78.2371 241.343 78.0085 241.571 77.7378 241.73C77.4671 241.889 77.1218 241.968 76.7018 241.968ZM78.2418 239L75.2178 232H76.4078L79.0118 238.23L79.3478 239H78.2418ZM86.3709 239.168C85.6895 239.168 85.0829 239.014 84.5509 238.706C84.0282 238.389 83.6175 237.955 83.3189 237.404C83.0202 236.853 82.8709 236.219 82.8709 235.5C82.8709 234.781 83.0155 234.147 83.3049 233.596C83.6035 233.045 84.0142 232.616 84.5369 232.308C85.0689 231.991 85.6709 231.832 86.3429 231.832C87.0335 231.832 87.6402 231.991 88.1629 232.308C88.6949 232.616 89.1055 233.045 89.3949 233.596C89.6935 234.147 89.8429 234.781 89.8429 235.5C89.8429 236.219 89.6935 236.853 89.3949 237.404C89.1055 237.955 88.6995 238.389 88.1769 238.706C87.6542 239.014 87.0522 239.168 86.3709 239.168ZM86.3709 238.132C86.8375 238.132 87.2435 238.02 87.5889 237.796C87.9342 237.572 88.2049 237.264 88.4009 236.872C88.6062 236.48 88.7089 236.023 88.7089 235.5C88.7089 234.977 88.6062 234.52 88.4009 234.128C88.2049 233.736 87.9295 233.428 87.5749 233.204C87.2202 232.98 86.8095 232.868 86.3429 232.868C85.8855 232.868 85.4795 232.98 85.1249 233.204C84.7795 233.428 84.5042 233.736 84.2989 234.128C84.1029 234.52 84.0049 234.977 84.0049 235.5C84.0049 236.013 84.1029 236.471 84.2989 236.872C84.5042 237.264 84.7842 237.572 85.1389 237.796C85.5029 238.02 85.9135 238.132 86.3709 238.132ZM96.2 239L96.13 237.712V232H97.25V239H96.2ZM91.216 235.584V232H92.336V235.584H91.216ZM92.336 235.584C92.336 236.275 92.4153 236.802 92.574 237.166C92.7326 237.53 92.952 237.782 93.232 237.922C93.5213 238.053 93.8433 238.118 94.198 238.118C94.8046 238.118 95.276 237.899 95.612 237.46C95.9573 237.021 96.13 236.41 96.13 235.626H96.676C96.676 236.363 96.5686 236.998 96.354 237.53C96.1393 238.062 95.8266 238.468 95.416 238.748C95.0146 239.028 94.52 239.168 93.932 239.168C93.3906 239.168 92.9146 239.061 92.504 238.846C92.0933 238.622 91.776 238.272 91.552 237.796C91.328 237.311 91.216 236.685 91.216 235.92V235.584H92.336ZM99.8206 235.206C99.8206 234.45 99.9653 233.839 100.255 233.372C100.544 232.896 100.913 232.546 101.361 232.322C101.818 232.089 102.299 231.972 102.803 231.972V233.022C102.392 233.022 101.995 233.092 101.613 233.232C101.239 233.363 100.931 233.582 100.689 233.89C100.446 234.198 100.325 234.618 100.325 235.15L99.8206 235.206ZM99.2046 239V232H100.325V239H99.2046ZM110.488 239.168C109.807 239.168 109.2 239.014 108.668 238.706C108.145 238.389 107.735 237.955 107.436 237.404C107.137 236.853 106.988 236.219 106.988 235.5C106.988 234.781 107.133 234.147 107.422 233.596C107.721 233.045 108.131 232.616 108.654 232.308C109.186 231.991 109.788 231.832 110.46 231.832C111.151 231.832 111.757 231.991 112.28 232.308C112.812 232.616 113.223 233.045 113.512 233.596C113.811 234.147 113.96 234.781 113.96 235.5C113.96 236.219 113.811 236.853 113.512 237.404C113.223 237.955 112.817 238.389 112.294 238.706C111.771 239.014 111.169 239.168 110.488 239.168ZM110.488 238.132C110.955 238.132 111.361 238.02 111.706 237.796C112.051 237.572 112.322 237.264 112.518 236.872C112.723 236.48 112.826 236.023 112.826 235.5C112.826 234.977 112.723 234.52 112.518 234.128C112.322 233.736 112.047 233.428 111.692 233.204C111.337 232.98 110.927 232.868 110.46 232.868C110.003 232.868 109.597 232.98 109.242 233.204C108.897 233.428 108.621 233.736 108.416 234.128C108.22 234.52 108.122 234.977 108.122 235.5C108.122 236.013 108.22 236.471 108.416 236.872C108.621 237.264 108.901 237.572 109.256 237.796C109.62 238.02 110.031 238.132 110.488 238.132ZM121.693 239L124.059 232H125.193L122.813 239H121.693ZM116.933 239L119.299 232H120.349L118.011 239H116.933ZM116.877 239L114.497 232H115.631L117.969 239H116.877ZM121.693 239L119.355 232H120.419L122.757 239H121.693ZM126.316 239V232H127.366L127.436 233.288V239H126.316ZM131.23 239V235.416H132.35V239H131.23ZM131.23 235.416C131.23 234.725 131.151 234.198 130.992 233.834C130.833 233.47 130.614 233.223 130.334 233.092C130.054 232.952 129.737 232.882 129.382 232.882C128.766 232.882 128.285 233.101 127.94 233.54C127.604 233.969 127.436 234.581 127.436 235.374H126.89C126.89 234.637 126.997 234.002 127.212 233.47C127.427 232.938 127.739 232.532 128.15 232.252C128.561 231.972 129.055 231.832 129.634 231.832C130.185 231.832 130.661 231.944 131.062 232.168C131.473 232.383 131.79 232.728 132.014 233.204C132.247 233.68 132.359 234.305 132.35 235.08V235.416H131.23ZM134.599 239.196C134.384 239.196 134.197 239.121 134.039 238.972C133.889 238.813 133.815 238.631 133.815 238.426C133.815 238.211 133.889 238.029 134.039 237.88C134.197 237.721 134.384 237.642 134.599 237.642C134.813 237.642 134.995 237.721 135.145 237.88C135.294 238.029 135.369 238.211 135.369 238.426C135.369 238.631 135.294 238.813 135.145 238.972C134.995 239.121 134.813 239.196 134.599 239.196ZM137.511 239.196C137.296 239.196 137.109 239.121 136.951 238.972C136.801 238.813 136.727 238.631 136.727 238.426C136.727 238.211 136.801 238.029 136.951 237.88C137.109 237.721 137.296 237.642 137.511 237.642C137.725 237.642 137.907 237.721 138.057 237.88C138.206 238.029 138.281 238.211 138.281 238.426C138.281 238.631 138.206 238.813 138.057 238.972C137.907 239.121 137.725 239.196 137.511 239.196ZM140.423 239.196C140.208 239.196 140.021 239.121 139.863 238.972C139.713 238.813 139.639 238.631 139.639 238.426C139.639 238.211 139.713 238.029 139.863 237.88C140.021 237.721 140.208 237.642 140.423 237.642C140.637 237.642 140.819 237.721 140.969 237.88C141.118 238.029 141.193 238.211 141.193 238.426C141.193 238.631 141.118 238.813 140.969 238.972C140.819 239.121 140.637 239.196 140.423 239.196Z" fill="#656C76"/>
<path d="M29.6667 288.711L24.9552 284L29.6667 279.289L30.5448 280.167L26.7114 284L30.5448 287.833L29.6667 288.711Z" fill="#11003A"/>
<path d="M43.162 289V279.2H46.396C47.068 279.2 47.6467 279.303 48.132 279.508C48.6267 279.713 49.0093 280.021 49.28 280.432C49.5507 280.833 49.686 281.337 49.686 281.944C49.686 282.364 49.5833 282.742 49.378 283.078C49.182 283.414 48.902 283.694 48.538 283.918C49.014 284.151 49.378 284.464 49.63 284.856C49.882 285.248 50.008 285.715 50.008 286.256C50.008 286.835 49.8773 287.329 49.616 287.74C49.3547 288.151 48.986 288.463 48.51 288.678C48.034 288.893 47.4693 289 46.816 289H43.162ZM44.758 287.544H46.69C47.2033 287.544 47.6093 287.418 47.908 287.166C48.2067 286.914 48.356 286.573 48.356 286.144C48.356 285.677 48.188 285.313 47.852 285.052C47.5253 284.791 47.0633 284.66 46.466 284.66H44.758V287.544ZM44.758 283.316H46.536C47.0027 283.316 47.3667 283.195 47.628 282.952C47.8987 282.7 48.034 282.355 48.034 281.916C48.034 281.468 47.88 281.127 47.572 280.894C47.2733 280.651 46.8533 280.53 46.312 280.53H44.758V283.316ZM55.7103 289L55.6403 287.684V285.402C55.6403 284.926 55.5889 284.529 55.4863 284.212C55.3929 283.885 55.2343 283.638 55.0103 283.47C54.7956 283.293 54.5063 283.204 54.1423 283.204C53.8063 283.204 53.5123 283.274 53.2603 283.414C53.0083 283.554 52.7936 283.773 52.6163 284.072L51.2443 283.568C51.3936 283.26 51.5896 282.975 51.8323 282.714C52.0843 282.443 52.3969 282.229 52.7703 282.07C53.1529 281.911 53.6103 281.832 54.1423 281.832C54.8236 281.832 55.3929 281.967 55.8503 282.238C56.3076 282.499 56.6436 282.877 56.8583 283.372C57.0823 283.867 57.1943 284.464 57.1943 285.164L57.1523 289H55.7103ZM53.6943 289.168C52.8543 289.168 52.2009 288.981 51.7343 288.608C51.2769 288.235 51.0483 287.707 51.0483 287.026C51.0483 286.298 51.2909 285.743 51.7763 285.36C52.2709 284.977 52.9569 284.786 53.8343 284.786H55.7103V285.99H54.3383C53.7129 285.99 53.2743 286.079 53.0223 286.256C52.7703 286.424 52.6443 286.667 52.6443 286.984C52.6443 287.255 52.7516 287.469 52.9663 287.628C53.1903 287.777 53.4983 287.852 53.8903 287.852C54.2449 287.852 54.5529 287.773 54.8143 287.614C55.0756 287.455 55.2763 287.245 55.4163 286.984C55.5656 286.723 55.6403 286.429 55.6403 286.102H56.1023C56.1023 287.054 55.9109 287.805 55.5283 288.356C55.1456 288.897 54.5343 289.168 53.6943 289.168ZM62.0581 289.168C61.3394 289.168 60.7047 289.014 60.1541 288.706C59.6034 288.389 59.1694 287.955 58.8521 287.404C58.5441 286.853 58.3901 286.219 58.3901 285.5C58.3901 284.781 58.5441 284.147 58.8521 283.596C59.1694 283.045 59.5987 282.616 60.1401 282.308C60.6907 281.991 61.3207 281.832 62.0301 281.832C62.7207 281.832 63.3461 282 63.9061 282.336C64.4661 282.663 64.8814 283.134 65.1521 283.75L63.6961 284.31C63.5467 284.002 63.3181 283.755 63.0101 283.568C62.7021 283.381 62.3521 283.288 61.9601 283.288C61.5774 283.288 61.2367 283.386 60.9381 283.582C60.6394 283.769 60.4061 284.03 60.2381 284.366C60.0701 284.693 59.9861 285.071 59.9861 285.5C59.9861 285.929 60.0701 286.312 60.2381 286.648C60.4154 286.975 60.6534 287.236 60.9521 287.432C61.2601 287.619 61.6054 287.712 61.9881 287.712C62.3801 287.712 62.7301 287.614 63.0381 287.418C63.3461 287.213 63.5747 286.937 63.7241 286.592L65.1801 287.152C64.9094 287.787 64.4941 288.281 63.9341 288.636C63.3834 288.991 62.7581 289.168 62.0581 289.168ZM67.8953 287.04L66.9433 285.962L70.5833 282H72.4733L67.8953 287.04ZM66.3973 289V279.2H67.9653V289H66.3973ZM70.8493 289L68.3853 285.374L69.4073 284.282L72.7113 289H70.8493Z" fill="#0A0B0D"/>
<path d="M263.382 289.168C262.869 289.168 262.397 289.107 261.968 288.986C261.548 288.865 261.175 288.697 260.848 288.482C260.531 288.267 260.265 288.029 260.05 287.768C259.845 287.497 259.7 287.217 259.616 286.928L261.212 286.438C261.333 286.783 261.571 287.087 261.926 287.348C262.281 287.609 262.719 287.745 263.242 287.754C263.849 287.754 264.329 287.628 264.684 287.376C265.039 287.124 265.216 286.793 265.216 286.382C265.216 286.009 265.067 285.705 264.768 285.472C264.469 285.229 264.068 285.043 263.564 284.912L262.36 284.604C261.903 284.483 261.487 284.305 261.114 284.072C260.75 283.839 260.461 283.545 260.246 283.19C260.041 282.835 259.938 282.415 259.938 281.93C259.938 281.015 260.237 280.306 260.834 279.802C261.431 279.289 262.285 279.032 263.396 279.032C264.021 279.032 264.567 279.13 265.034 279.326C265.51 279.513 265.902 279.774 266.21 280.11C266.518 280.437 266.747 280.81 266.896 281.23L265.328 281.734C265.188 281.361 264.945 281.053 264.6 280.81C264.255 280.567 263.825 280.446 263.312 280.446C262.78 280.446 262.36 280.572 262.052 280.824C261.753 281.076 261.604 281.426 261.604 281.874C261.604 282.238 261.721 282.523 261.954 282.728C262.197 282.924 262.523 283.073 262.934 283.176L264.138 283.47C265.015 283.685 265.697 284.053 266.182 284.576C266.667 285.099 266.91 285.677 266.91 286.312C266.91 286.872 266.775 287.367 266.504 287.796C266.233 288.225 265.832 288.561 265.3 288.804C264.777 289.047 264.138 289.168 263.382 289.168ZM269.911 287.04L268.959 285.962L272.599 282H274.489L269.911 287.04ZM268.413 289V279.2H269.981V289H268.413ZM272.865 289L270.401 285.374L271.423 284.282L274.727 289H272.865ZM275.743 289V282H277.297V289H275.743ZM276.527 280.67C276.275 280.67 276.056 280.581 275.869 280.404C275.692 280.217 275.603 279.998 275.603 279.746C275.603 279.494 275.692 279.279 275.869 279.102C276.056 278.925 276.275 278.836 276.527 278.836C276.779 278.836 276.994 278.925 277.171 279.102C277.358 279.279 277.451 279.494 277.451 279.746C277.451 279.998 277.358 280.217 277.171 280.404C276.994 280.581 276.779 280.67 276.527 280.67ZM279.215 291.8V282H280.685L280.783 283.288V291.8H279.215ZM282.995 289.168C282.407 289.168 281.899 289.019 281.469 288.72C281.049 288.412 280.727 287.983 280.503 287.432C280.279 286.881 280.167 286.237 280.167 285.5C280.167 284.753 280.279 284.109 280.503 283.568C280.727 283.017 281.049 282.593 281.469 282.294C281.899 281.986 282.407 281.832 282.995 281.832C283.63 281.832 284.181 281.986 284.647 282.294C285.123 282.593 285.492 283.017 285.753 283.568C286.024 284.109 286.159 284.753 286.159 285.5C286.159 286.237 286.024 286.881 285.753 287.432C285.492 287.983 285.123 288.412 284.647 288.72C284.181 289.019 283.63 289.168 282.995 289.168ZM282.603 287.74C282.977 287.74 283.308 287.647 283.597 287.46C283.887 287.264 284.115 286.998 284.283 286.662C284.461 286.326 284.549 285.939 284.549 285.5C284.549 285.061 284.465 284.674 284.297 284.338C284.139 284.002 283.915 283.741 283.625 283.554C283.336 283.367 283 283.274 282.617 283.274C282.263 283.274 281.945 283.367 281.665 283.554C281.385 283.741 281.166 284.002 281.007 284.338C280.858 284.674 280.783 285.061 280.783 285.5C280.783 285.939 280.858 286.326 281.007 286.662C281.166 286.998 281.381 287.264 281.651 287.46C281.931 287.647 282.249 287.74 282.603 287.74Z" fill="#0A0B0D"/>
<path d="M297 274C297 271.791 298.791 270 301 270H337C339.209 270 341 271.791 341 274V294C341 296.209 339.209 298 337 298H301C298.791 298 297 296.209 297 294V274Z" fill="#11003A"/>
<path d="M304.162 289V279.2H305.842L311.05 286.284V279.2H312.674V289H311.05L305.786 281.832V289H304.162ZM317.832 289.168C317.15 289.168 316.544 289.014 316.012 288.706C315.489 288.389 315.074 287.955 314.766 287.404C314.467 286.853 314.318 286.219 314.318 285.5C314.318 284.781 314.472 284.147 314.78 283.596C315.088 283.045 315.508 282.616 316.04 282.308C316.581 281.991 317.197 281.832 317.888 281.832C318.513 281.832 319.078 281.995 319.582 282.322C320.086 282.639 320.482 283.101 320.772 283.708C321.07 284.315 321.22 285.038 321.22 285.878H315.718L315.928 285.682C315.928 286.111 316.021 286.485 316.208 286.802C316.394 287.11 316.642 287.348 316.95 287.516C317.258 287.684 317.598 287.768 317.972 287.768C318.401 287.768 318.756 287.675 319.036 287.488C319.316 287.292 319.535 287.04 319.694 286.732L321.08 287.32C320.884 287.693 320.632 288.02 320.324 288.3C320.025 288.58 319.666 288.795 319.246 288.944C318.835 289.093 318.364 289.168 317.832 289.168ZM316.026 284.87L315.802 284.674H319.75L319.54 284.87C319.54 284.487 319.456 284.175 319.288 283.932C319.12 283.68 318.905 283.493 318.644 283.372C318.392 283.241 318.126 283.176 317.846 283.176C317.566 283.176 317.286 283.241 317.006 283.372C316.726 283.493 316.492 283.68 316.306 283.932C316.119 284.175 316.026 284.487 316.026 284.87ZM321.515 289L324.385 284.996L326.387 282H328.235L325.505 285.864L323.391 289H321.515ZM326.541 289L324.469 285.864L321.697 282H323.545L325.561 284.996L328.403 289H326.541ZM332.193 289.168C331.456 289.168 330.891 288.986 330.499 288.622C330.116 288.249 329.925 287.717 329.925 287.026V279.816H331.479V286.732C331.479 287.059 331.554 287.306 331.703 287.474C331.862 287.642 332.09 287.726 332.389 287.726C332.482 287.726 332.585 287.707 332.697 287.67C332.809 287.633 332.935 287.563 333.075 287.46L333.649 288.65C333.406 288.818 333.164 288.944 332.921 289.028C332.678 289.121 332.436 289.168 332.193 289.168ZM328.763 283.344V282H333.369V283.344H328.763Z" fill="white"/>
</g>
<path d="M8 0.5H349C353.142 0.5 356.5 3.85786 356.5 8V306C356.5 310.142 353.142 313.5 349 313.5H8C3.85786 313.5 0.5 310.142 0.5 306V8C0.5 3.85786 3.85786 0.5 8 0.5Z" stroke="#E1E4E8"/>
<defs>
<clipPath id="clip0_3233_2054">
<path d="M0 8C0 3.58172 3.58172 0 8 0H349C353.418 0 357 3.58172 357 8V306C357 310.418 353.418 314 349 314H8C3.58172 314 0 310.418 0 306V8Z" fill="white"/>
</clipPath>
</defs>
</svg>
