<svg width="717" height="93" viewBox="0 0 717 93" fill="none" xmlns="http://www.w3.org/2000/svg">
<g opacity="0.98" filter="url(#filter0_d_60_1213)">
<path d="M0 8C0 3.58172 3.58172 0 8 0H704C708.418 0 712 3.58172 712 8V80C712 84.4183 708.418 88 704 88H8C3.58172 88 0 84.4183 0 80V8Z" fill="white" shape-rendering="crispEdges"/>
<path d="M8 0.5H704C708.142 0.5 711.5 3.85786 711.5 8V80C711.5 84.1421 708.142 87.5 704 87.5H8C3.85786 87.5 0.5 84.1421 0.5 80V8C0.5 3.85786 3.85786 0.5 8 0.5Z" stroke="#0A0A0A" shape-rendering="crispEdges"/>
<path d="M340.908 38L336.54 26.8H338.396L342.876 38H340.908ZM331.964 38L336.428 26.8H338.3L333.932 38H331.964ZM334.06 35.248V33.6H340.764V35.248H334.06ZM347.603 38.192C346.782 38.192 346.057 38.016 345.427 37.664C344.798 37.3013 344.302 36.8053 343.939 36.176C343.587 35.5467 343.411 34.8213 343.411 34C343.411 33.1787 343.587 32.4533 343.939 31.824C344.302 31.1947 344.793 30.704 345.411 30.352C346.041 29.9893 346.761 29.808 347.571 29.808C348.361 29.808 349.075 30 349.715 30.384C350.355 30.7573 350.83 31.296 351.139 32L349.475 32.64C349.305 32.288 349.043 32.0053 348.691 31.792C348.339 31.5787 347.939 31.472 347.491 31.472C347.054 31.472 346.665 31.584 346.323 31.808C345.982 32.0213 345.715 32.32 345.523 32.704C345.331 33.0773 345.235 33.5093 345.235 34C345.235 34.4907 345.331 34.928 345.523 35.312C345.726 35.6853 345.998 35.984 346.339 36.208C346.691 36.4213 347.086 36.528 347.523 36.528C347.971 36.528 348.371 36.416 348.723 36.192C349.075 35.9573 349.337 35.6427 349.507 35.248L351.171 35.888C350.862 36.6133 350.387 37.1787 349.747 37.584C349.118 37.9893 348.403 38.192 347.603 38.192ZM355.746 38.192C354.904 38.192 354.258 37.984 353.81 37.568C353.373 37.1413 353.154 36.5333 353.154 35.744V27.504H354.93V35.408C354.93 35.7813 355.016 36.064 355.186 36.256C355.368 36.448 355.629 36.544 355.97 36.544C356.077 36.544 356.194 36.5227 356.322 36.48C356.45 36.4373 356.594 36.3573 356.754 36.24L357.41 37.6C357.133 37.792 356.856 37.936 356.578 38.032C356.301 38.1387 356.024 38.192 355.746 38.192ZM351.826 31.536V30H357.09V31.536H351.826ZM358.956 38V30H360.732V38H358.956ZM359.852 28.48C359.564 28.48 359.313 28.3787 359.1 28.176C358.897 27.9627 358.796 27.712 358.796 27.424C358.796 27.136 358.897 26.8907 359.1 26.688C359.313 26.4853 359.564 26.384 359.852 26.384C360.14 26.384 360.385 26.4853 360.588 26.688C360.801 26.8907 360.908 27.136 360.908 27.424C360.908 27.712 360.801 27.9627 360.588 28.176C360.385 28.3787 360.14 28.48 359.852 28.48ZM366.524 38.192C365.724 38.192 365.009 38.016 364.38 37.664C363.761 37.3013 363.276 36.8053 362.924 36.176C362.572 35.5467 362.396 34.8213 362.396 34C362.396 33.1787 362.566 32.4533 362.908 31.824C363.26 31.1947 363.745 30.704 364.364 30.352C364.982 29.9893 365.692 29.808 366.492 29.808C367.292 29.808 368.001 29.9893 368.62 30.352C369.238 30.704 369.718 31.1947 370.06 31.824C370.412 32.4533 370.588 33.1787 370.588 34C370.588 34.8213 370.417 35.5467 370.076 36.176C369.734 36.8053 369.254 37.3013 368.636 37.664C368.017 38.016 367.313 38.192 366.524 38.192ZM366.524 36.544C366.961 36.544 367.35 36.4373 367.692 36.224C368.033 36 368.3 35.7013 368.492 35.328C368.684 34.944 368.78 34.5013 368.78 34C368.78 33.4987 368.678 33.0613 368.476 32.688C368.284 32.304 368.017 32.0053 367.676 31.792C367.334 31.568 366.94 31.456 366.492 31.456C366.044 31.456 365.649 31.5627 365.308 31.776C364.966 31.9893 364.7 32.288 364.508 32.672C364.316 33.056 364.22 33.4987 364.22 34C364.22 34.5013 364.316 34.944 364.508 35.328C364.71 35.7013 364.982 36 365.324 36.224C365.676 36.4373 366.076 36.544 366.524 36.544ZM372.14 38V30H373.82L373.932 31.472V38H372.14ZM377.564 38V33.904H379.356V38H377.564ZM377.564 33.904C377.564 33.264 377.49 32.7733 377.34 32.432C377.202 32.08 376.999 31.8347 376.732 31.696C376.476 31.5573 376.172 31.488 375.82 31.488C375.223 31.4773 374.759 31.6747 374.428 32.08C374.098 32.4853 373.932 33.0667 373.932 33.824H373.26C373.26 32.9813 373.383 32.2613 373.628 31.664C373.874 31.056 374.226 30.5973 374.684 30.288C375.143 29.968 375.687 29.808 376.316 29.808C376.956 29.808 377.5 29.936 377.948 30.192C378.407 30.448 378.754 30.848 378.988 31.392C379.234 31.9253 379.356 32.624 379.356 33.488V33.904H377.564Z" fill="#0A0B0D"/>
<path d="M231.809 63.168C230.876 63.168 230.05 62.9533 229.331 62.524C228.612 62.0853 228.048 61.488 227.637 60.732C227.226 59.9667 227.021 59.0893 227.021 58.1C227.021 57.1107 227.222 56.238 227.623 55.482C228.034 54.7167 228.594 54.1193 229.303 53.69C230.022 53.2513 230.843 53.032 231.767 53.032C232.355 53.032 232.92 53.1393 233.461 53.354C234.002 53.5593 234.488 53.8533 234.917 54.236C235.346 54.6093 235.678 55.0433 235.911 55.538L234.889 56.056C234.702 55.664 234.446 55.3233 234.119 55.034C233.792 54.7447 233.428 54.5207 233.027 54.362C232.626 54.194 232.206 54.11 231.767 54.11C231.086 54.11 230.474 54.2827 229.933 54.628C229.392 54.964 228.967 55.4307 228.659 56.028C228.36 56.6253 228.211 57.316 228.211 58.1C228.211 58.884 228.365 59.5793 228.673 60.186C228.981 60.7927 229.406 61.2687 229.947 61.614C230.498 61.95 231.118 62.118 231.809 62.118C232.257 62.118 232.682 62.0293 233.083 61.852C233.484 61.6653 233.844 61.4133 234.161 61.096C234.488 60.7787 234.744 60.4147 234.931 60.004L235.967 60.522C235.724 61.0353 235.388 61.4927 234.959 61.894C234.539 62.2953 234.054 62.608 233.503 62.832C232.962 63.056 232.397 63.168 231.809 63.168ZM239.743 63V54.278H236.621V53.2H244.041V54.278H240.919V63H239.743ZM251.326 63L247.392 53.2H248.582L252.572 63H251.326ZM243.36 63L247.35 53.2H248.554L244.62 63H243.36ZM245.25 60.214V59.15H250.696V60.214H245.25ZM253.269 64.61L254.067 61.656H255.327L254.235 64.61H253.269ZM265.486 63L265.43 61.698V53.2H266.55V63H265.486ZM263.064 63.168C262.439 63.168 261.888 63.014 261.412 62.706C260.936 62.398 260.563 61.9687 260.292 61.418C260.031 60.858 259.9 60.2187 259.9 59.5C259.9 58.772 260.031 58.1327 260.292 57.582C260.563 57.0313 260.936 56.602 261.412 56.294C261.888 55.986 262.439 55.832 263.064 55.832C263.652 55.832 264.166 55.986 264.604 56.294C265.052 56.602 265.398 57.0313 265.64 57.582C265.883 58.1327 266.004 58.772 266.004 59.5C266.004 60.2187 265.883 60.858 265.64 61.418C265.398 61.9687 265.052 62.398 264.604 62.706C264.166 63.014 263.652 63.168 263.064 63.168ZM263.316 62.146C263.727 62.146 264.091 62.034 264.408 61.81C264.726 61.586 264.973 61.2733 265.15 60.872C265.337 60.4707 265.43 60.0133 265.43 59.5C265.43 58.9867 265.337 58.5293 265.15 58.128C264.973 57.7267 264.726 57.414 264.408 57.19C264.091 56.966 263.722 56.854 263.302 56.854C262.864 56.854 262.472 56.966 262.126 57.19C261.79 57.414 261.524 57.7267 261.328 58.128C261.132 58.5293 261.034 58.9867 261.034 59.5C261.034 60.0133 261.132 60.4707 261.328 60.872C261.524 61.2733 261.795 61.586 262.14 61.81C262.486 62.034 262.878 62.146 263.316 62.146ZM271.575 63.168C270.894 63.168 270.292 63.014 269.769 62.706C269.247 62.3887 268.836 61.9547 268.537 61.404C268.248 60.8533 268.103 60.2187 268.103 59.5C268.103 58.7813 268.248 58.1467 268.537 57.596C268.836 57.0453 269.242 56.616 269.755 56.308C270.278 55.9907 270.875 55.832 271.547 55.832C272.201 55.832 272.765 55.9953 273.241 56.322C273.717 56.6393 274.086 57.0873 274.347 57.666C274.609 58.2447 274.739 58.926 274.739 59.71H268.957L269.237 59.472C269.237 60.032 269.335 60.5127 269.531 60.914C269.737 61.3153 270.021 61.6233 270.385 61.838C270.749 62.0433 271.165 62.146 271.631 62.146C272.126 62.146 272.541 62.0293 272.877 61.796C273.223 61.5627 273.489 61.2547 273.675 60.872L274.641 61.362C274.464 61.726 274.226 62.0433 273.927 62.314C273.638 62.5847 273.293 62.7947 272.891 62.944C272.499 63.0933 272.061 63.168 271.575 63.168ZM269.307 58.996L269.013 58.772H273.843L273.549 59.01C273.549 58.562 273.461 58.1747 273.283 57.848C273.106 57.5213 272.868 57.2693 272.569 57.092C272.271 56.9147 271.925 56.826 271.533 56.826C271.151 56.826 270.787 56.9147 270.441 57.092C270.105 57.2693 269.83 57.5213 269.615 57.848C269.41 58.1653 269.307 58.548 269.307 58.996ZM279.218 63.168C278.537 63.168 277.935 63.014 277.412 62.706C276.889 62.3887 276.479 61.9547 276.18 61.404C275.891 60.8533 275.746 60.2187 275.746 59.5C275.746 58.7813 275.891 58.1467 276.18 57.596C276.479 57.0453 276.885 56.616 277.398 56.308C277.921 55.9907 278.518 55.832 279.19 55.832C279.843 55.832 280.408 55.9953 280.884 56.322C281.36 56.6393 281.729 57.0873 281.99 57.666C282.251 58.2447 282.382 58.926 282.382 59.71H276.6L276.88 59.472C276.88 60.032 276.978 60.5127 277.174 60.914C277.379 61.3153 277.664 61.6233 278.028 61.838C278.392 62.0433 278.807 62.146 279.274 62.146C279.769 62.146 280.184 62.0293 280.52 61.796C280.865 61.5627 281.131 61.2547 281.318 60.872L282.284 61.362C282.107 61.726 281.869 62.0433 281.57 62.314C281.281 62.5847 280.935 62.7947 280.534 62.944C280.142 63.0933 279.703 63.168 279.218 63.168ZM276.95 58.996L276.656 58.772H281.486L281.192 59.01C281.192 58.562 281.103 58.1747 280.926 57.848C280.749 57.5213 280.511 57.2693 280.212 57.092C279.913 56.9147 279.568 56.826 279.176 56.826C278.793 56.826 278.429 56.9147 278.084 57.092C277.748 57.2693 277.473 57.5213 277.258 57.848C277.053 58.1653 276.95 58.548 276.95 58.996ZM283.864 65.8V56H284.914L284.984 57.288V65.8H283.864ZM287.35 63.168C286.762 63.168 286.244 63.014 285.796 62.706C285.358 62.398 285.017 61.9687 284.774 61.418C284.532 60.858 284.41 60.2187 284.41 59.5C284.41 58.772 284.532 58.1327 284.774 57.582C285.017 57.0313 285.358 56.602 285.796 56.294C286.244 55.986 286.762 55.832 287.35 55.832C287.976 55.832 288.526 55.986 289.002 56.294C289.478 56.602 289.847 57.0313 290.108 57.582C290.379 58.1327 290.514 58.772 290.514 59.5C290.514 60.2187 290.379 60.858 290.108 61.418C289.847 61.9687 289.478 62.398 289.002 62.706C288.526 63.014 287.976 63.168 287.35 63.168ZM287.098 62.146C287.537 62.146 287.924 62.034 288.26 61.81C288.606 61.586 288.876 61.2733 289.072 60.872C289.278 60.4707 289.38 60.0133 289.38 59.5C289.38 58.9867 289.282 58.5293 289.086 58.128C288.9 57.7267 288.634 57.414 288.288 57.19C287.943 56.966 287.551 56.854 287.112 56.854C286.702 56.854 286.333 56.966 286.006 57.19C285.689 57.414 285.437 57.7267 285.25 58.128C285.073 58.5293 284.984 58.9867 284.984 59.5C284.984 60.0133 285.073 60.4707 285.25 60.872C285.437 61.2733 285.689 61.586 286.006 61.81C286.324 62.034 286.688 62.146 287.098 62.146ZM295.525 63V53.2H296.645V63H295.525ZM298.671 63V56H299.791V63H298.671ZM299.245 54.376C299.058 54.376 298.895 54.306 298.755 54.166C298.615 54.026 298.545 53.8627 298.545 53.676C298.545 53.48 298.615 53.3167 298.755 53.186C298.895 53.046 299.058 52.976 299.245 52.976C299.441 52.976 299.604 53.046 299.735 53.186C299.875 53.3167 299.945 53.48 299.945 53.676C299.945 53.8627 299.875 54.026 299.735 54.166C299.604 54.306 299.441 54.376 299.245 54.376ZM301.855 63V56H302.905L302.975 57.288V63H301.855ZM306.769 63V59.416H307.889V63H306.769ZM306.769 59.416C306.769 58.7253 306.69 58.198 306.531 57.834C306.372 57.47 306.153 57.2227 305.873 57.092C305.593 56.952 305.276 56.882 304.921 56.882C304.305 56.882 303.824 57.1013 303.479 57.54C303.143 57.9693 302.975 58.5807 302.975 59.374H302.429C302.429 58.6367 302.536 58.002 302.751 57.47C302.966 56.938 303.278 56.532 303.689 56.252C304.1 55.972 304.594 55.832 305.173 55.832C305.724 55.832 306.2 55.944 306.601 56.168C307.012 56.3827 307.329 56.728 307.553 57.204C307.786 57.68 307.898 58.3053 307.889 59.08V59.416H306.769ZM310.754 60.746L310.04 59.976L313.764 56H315.178L310.754 60.746ZM309.662 63V53.2H310.782V63H309.662ZM314.072 63L311.412 58.982L312.14 58.198L315.458 63H314.072ZM316.037 64.61L316.835 61.656H318.095L317.003 64.61H316.037ZM323.69 59.206C323.69 58.45 323.834 57.8387 324.124 57.372C324.413 56.896 324.782 56.546 325.23 56.322C325.687 56.0887 326.168 55.972 326.672 55.972V57.022C326.261 57.022 325.864 57.092 325.482 57.232C325.108 57.3627 324.8 57.582 324.558 57.89C324.315 58.198 324.194 58.618 324.194 59.15L323.69 59.206ZM323.074 63V56H324.194V63H323.074ZM330.87 63.168C330.189 63.168 329.587 63.014 329.064 62.706C328.542 62.3887 328.131 61.9547 327.832 61.404C327.543 60.8533 327.398 60.2187 327.398 59.5C327.398 58.7813 327.543 58.1467 327.832 57.596C328.131 57.0453 328.537 56.616 329.05 56.308C329.573 55.9907 330.17 55.832 330.842 55.832C331.496 55.832 332.06 55.9953 332.536 56.322C333.012 56.6393 333.381 57.0873 333.642 57.666C333.904 58.2447 334.034 58.926 334.034 59.71H328.252L328.532 59.472C328.532 60.032 328.63 60.5127 328.826 60.914C329.032 61.3153 329.316 61.6233 329.68 61.838C330.044 62.0433 330.46 62.146 330.926 62.146C331.421 62.146 331.836 62.0293 332.172 61.796C332.518 61.5627 332.784 61.2547 332.97 60.872L333.936 61.362C333.759 61.726 333.521 62.0433 333.222 62.314C332.933 62.5847 332.588 62.7947 332.186 62.944C331.794 63.0933 331.356 63.168 330.87 63.168ZM328.602 58.996L328.308 58.772H333.138L332.844 59.01C332.844 58.562 332.756 58.1747 332.578 57.848C332.401 57.5213 332.163 57.2693 331.864 57.092C331.566 56.9147 331.22 56.826 330.828 56.826C330.446 56.826 330.082 56.9147 329.736 57.092C329.4 57.2693 329.125 57.5213 328.91 57.848C328.705 58.1653 328.602 58.548 328.602 58.996ZM337.411 63L340.267 56H341.443L338.517 63H337.411ZM337.341 63L334.415 56H335.577L338.433 63H337.341ZM342.613 63V56H343.733V63H342.613ZM343.187 54.376C343 54.376 342.837 54.306 342.697 54.166C342.556 54.026 342.486 53.8627 342.486 53.676C342.486 53.48 342.556 53.3167 342.697 53.186C342.837 53.046 343 52.976 343.187 52.976C343.383 52.976 343.546 53.046 343.677 53.186C343.817 53.3167 343.887 53.48 343.887 53.676C343.887 53.8627 343.817 54.026 343.677 54.166C343.546 54.306 343.383 54.376 343.187 54.376ZM348.862 63.168C348.181 63.168 347.579 63.014 347.056 62.706C346.534 62.3887 346.123 61.9547 345.824 61.404C345.535 60.8533 345.39 60.2187 345.39 59.5C345.39 58.7813 345.535 58.1467 345.824 57.596C346.123 57.0453 346.529 56.616 347.042 56.308C347.565 55.9907 348.162 55.832 348.834 55.832C349.488 55.832 350.052 55.9953 350.528 56.322C351.004 56.6393 351.373 57.0873 351.634 57.666C351.896 58.2447 352.026 58.926 352.026 59.71H346.244L346.524 59.472C346.524 60.032 346.622 60.5127 346.818 60.914C347.024 61.3153 347.308 61.6233 347.672 61.838C348.036 62.0433 348.452 62.146 348.918 62.146C349.413 62.146 349.828 62.0293 350.164 61.796C350.51 61.5627 350.776 61.2547 350.962 60.872L351.928 61.362C351.751 61.726 351.513 62.0433 351.214 62.314C350.925 62.5847 350.58 62.7947 350.178 62.944C349.786 63.0933 349.348 63.168 348.862 63.168ZM346.594 58.996L346.3 58.772H351.13L350.836 59.01C350.836 58.562 350.748 58.1747 350.57 57.848C350.393 57.5213 350.155 57.2693 349.856 57.092C349.558 56.9147 349.212 56.826 348.82 56.826C348.438 56.826 348.074 56.9147 347.728 57.092C347.392 57.2693 347.117 57.5213 346.902 57.848C346.697 58.1653 346.594 58.548 346.594 58.996ZM359.617 63L361.983 56H363.117L360.737 63H359.617ZM354.857 63L357.223 56H358.273L355.935 63H354.857ZM354.801 63L352.421 56H353.555L355.893 63H354.801ZM359.617 63L357.279 56H358.343L360.681 63H359.617ZM370.149 63.168C369.635 63.168 369.187 63.0933 368.805 62.944C368.422 62.7853 368.1 62.58 367.839 62.328C367.587 62.076 367.405 61.8007 367.293 61.502L368.273 61.096C368.431 61.4133 368.669 61.67 368.987 61.866C369.304 62.062 369.654 62.16 370.037 62.16C370.475 62.16 370.844 62.076 371.143 61.908C371.441 61.7307 371.591 61.4833 371.591 61.166C371.591 60.8767 371.479 60.6433 371.255 60.466C371.04 60.2887 370.718 60.144 370.289 60.032L369.617 59.85C368.982 59.682 368.487 59.43 368.133 59.094C367.778 58.7487 367.601 58.3613 367.601 57.932C367.601 57.2693 367.815 56.756 368.245 56.392C368.683 56.0187 369.332 55.832 370.191 55.832C370.601 55.832 370.975 55.8927 371.311 56.014C371.647 56.1353 371.936 56.308 372.179 56.532C372.421 56.7467 372.599 57.0033 372.711 57.302L371.731 57.736C371.609 57.4187 371.409 57.19 371.129 57.05C370.849 56.91 370.508 56.84 370.107 56.84C369.677 56.84 369.341 56.9333 369.099 57.12C368.856 57.2973 368.735 57.5493 368.735 57.876C368.735 58.0627 368.833 58.24 369.029 58.408C369.234 58.5667 369.533 58.6973 369.925 58.8L370.625 58.982C371.082 59.094 371.465 59.262 371.773 59.486C372.081 59.7007 372.314 59.948 372.473 60.228C372.631 60.508 372.711 60.8067 372.711 61.124C372.711 61.544 372.599 61.908 372.375 62.216C372.151 62.524 371.847 62.762 371.465 62.93C371.082 63.0887 370.643 63.168 370.149 63.168ZM376.852 63.168C376.171 63.168 375.644 62.9907 375.27 62.636C374.897 62.2813 374.71 61.782 374.71 61.138V53.816H375.83V61.026C375.83 61.3807 375.924 61.656 376.11 61.852C376.306 62.0387 376.577 62.132 376.922 62.132C377.034 62.132 377.142 62.118 377.244 62.09C377.356 62.0527 377.501 61.9687 377.678 61.838L378.112 62.748C377.87 62.9067 377.65 63.014 377.454 63.07C377.258 63.1353 377.058 63.168 376.852 63.168ZM373.492 56.994V56H377.93V56.994H373.492ZM382.536 63.168C381.855 63.168 381.253 63.014 380.73 62.706C380.208 62.3887 379.797 61.9547 379.498 61.404C379.209 60.8533 379.064 60.2187 379.064 59.5C379.064 58.7813 379.209 58.1467 379.498 57.596C379.797 57.0453 380.203 56.616 380.716 56.308C381.239 55.9907 381.836 55.832 382.508 55.832C383.162 55.832 383.726 55.9953 384.202 56.322C384.678 56.6393 385.047 57.0873 385.308 57.666C385.57 58.2447 385.7 58.926 385.7 59.71H379.918L380.198 59.472C380.198 60.032 380.296 60.5127 380.492 60.914C380.698 61.3153 380.982 61.6233 381.346 61.838C381.71 62.0433 382.126 62.146 382.592 62.146C383.087 62.146 383.502 62.0293 383.838 61.796C384.184 61.5627 384.45 61.2547 384.636 60.872L385.602 61.362C385.425 61.726 385.187 62.0433 384.888 62.314C384.599 62.5847 384.254 62.7947 383.852 62.944C383.46 63.0933 383.022 63.168 382.536 63.168ZM380.268 58.996L379.974 58.772H384.804L384.51 59.01C384.51 58.562 384.422 58.1747 384.244 57.848C384.067 57.5213 383.829 57.2693 383.53 57.092C383.232 56.9147 382.886 56.826 382.494 56.826C382.112 56.826 381.748 56.9147 381.402 57.092C381.066 57.2693 380.791 57.5213 380.576 57.848C380.371 58.1653 380.268 58.548 380.268 58.996ZM387.183 65.8V56H388.233L388.303 57.288V65.8H387.183ZM390.669 63.168C390.081 63.168 389.563 63.014 389.115 62.706C388.676 62.398 388.335 61.9687 388.093 61.418C387.85 60.858 387.729 60.2187 387.729 59.5C387.729 58.772 387.85 58.1327 388.093 57.582C388.335 57.0313 388.676 56.602 389.115 56.294C389.563 55.986 390.081 55.832 390.669 55.832C391.294 55.832 391.845 55.986 392.321 56.294C392.797 56.602 393.165 57.0313 393.427 57.582C393.697 58.1327 393.833 58.772 393.833 59.5C393.833 60.2187 393.697 60.858 393.427 61.418C393.165 61.9687 392.797 62.398 392.321 62.706C391.845 63.014 391.294 63.168 390.669 63.168ZM390.417 62.146C390.855 62.146 391.243 62.034 391.579 61.81C391.924 61.586 392.195 61.2733 392.391 60.872C392.596 60.4707 392.699 60.0133 392.699 59.5C392.699 58.9867 392.601 58.5293 392.405 58.128C392.218 57.7267 391.952 57.414 391.607 57.19C391.261 56.966 390.869 56.854 390.431 56.854C390.02 56.854 389.651 56.966 389.325 57.19C389.007 57.414 388.755 57.7267 388.569 58.128C388.391 58.5293 388.303 58.9867 388.303 59.5C388.303 60.0133 388.391 60.4707 388.569 60.872C388.755 61.2733 389.007 61.586 389.325 61.81C389.642 62.034 390.006 62.146 390.417 62.146ZM394.964 64.61L395.762 61.656H397.022L395.93 64.61H394.964ZM405.095 63.168C404.414 63.168 403.807 63.014 403.275 62.706C402.753 62.3887 402.342 61.9547 402.043 61.404C401.745 60.8533 401.595 60.2187 401.595 59.5C401.595 58.7813 401.74 58.1467 402.029 57.596C402.328 57.0453 402.739 56.616 403.261 56.308C403.793 55.9907 404.395 55.832 405.067 55.832C405.758 55.832 406.365 55.9907 406.887 56.308C407.419 56.616 407.83 57.0453 408.119 57.596C408.418 58.1467 408.567 58.7813 408.567 59.5C408.567 60.2187 408.418 60.8533 408.119 61.404C407.83 61.9547 407.424 62.3887 406.901 62.706C406.379 63.014 405.777 63.168 405.095 63.168ZM405.095 62.132C405.562 62.132 405.968 62.02 406.313 61.796C406.659 61.572 406.929 61.264 407.125 60.872C407.331 60.48 407.433 60.0227 407.433 59.5C407.433 58.9773 407.331 58.52 407.125 58.128C406.929 57.736 406.654 57.428 406.299 57.204C405.945 56.98 405.534 56.868 405.067 56.868C404.61 56.868 404.204 56.98 403.849 57.204C403.504 57.428 403.229 57.736 403.023 58.128C402.827 58.52 402.729 58.9773 402.729 59.5C402.729 60.0133 402.827 60.4707 403.023 60.872C403.229 61.264 403.509 61.572 403.863 61.796C404.227 62.02 404.638 62.132 405.095 62.132ZM410.739 59.206C410.739 58.45 410.883 57.8387 411.173 57.372C411.462 56.896 411.831 56.546 412.279 56.322C412.736 56.0887 413.217 55.972 413.721 55.972V57.022C413.31 57.022 412.913 57.092 412.531 57.232C412.157 57.3627 411.849 57.582 411.607 57.89C411.364 58.198 411.243 58.618 411.243 59.15L410.739 59.206ZM410.123 63V56H411.243V63H410.123ZM418.312 63V56H419.362L419.432 57.288V63H418.312ZM423.226 63V59.416H424.346V63H423.226ZM423.226 59.416C423.226 58.7253 423.147 58.198 422.988 57.834C422.829 57.47 422.61 57.2227 422.33 57.092C422.05 56.952 421.733 56.882 421.378 56.882C420.762 56.882 420.281 57.1013 419.936 57.54C419.6 57.9693 419.432 58.5807 419.432 59.374H418.886C418.886 58.6367 418.993 58.002 419.208 57.47C419.423 56.938 419.735 56.532 420.146 56.252C420.557 55.972 421.051 55.832 421.63 55.832C422.181 55.832 422.657 55.944 423.058 56.168C423.469 56.3827 423.786 56.728 424.01 57.204C424.243 57.68 424.355 58.3053 424.346 59.08V59.416H423.226ZM429.185 63.168C428.503 63.168 427.901 63.014 427.379 62.706C426.856 62.3887 426.445 61.9547 426.147 61.404C425.857 60.8533 425.713 60.2187 425.713 59.5C425.713 58.7813 425.857 58.1467 426.147 57.596C426.445 57.0453 426.851 56.616 427.365 56.308C427.887 55.9907 428.485 55.832 429.157 55.832C429.81 55.832 430.375 55.9953 430.851 56.322C431.327 56.6393 431.695 57.0873 431.957 57.666C432.218 58.2447 432.349 58.926 432.349 59.71H426.567L426.847 59.472C426.847 60.032 426.945 60.5127 427.141 60.914C427.346 61.3153 427.631 61.6233 427.995 61.838C428.359 62.0433 428.774 62.146 429.241 62.146C429.735 62.146 430.151 62.0293 430.487 61.796C430.832 61.5627 431.098 61.2547 431.285 60.872L432.251 61.362C432.073 61.726 431.835 62.0433 431.537 62.314C431.247 62.5847 430.902 62.7947 430.501 62.944C430.109 63.0933 429.67 63.168 429.185 63.168ZM426.917 58.996L426.623 58.772H431.453L431.159 59.01C431.159 58.562 431.07 58.1747 430.893 57.848C430.715 57.5213 430.477 57.2693 430.179 57.092C429.88 56.9147 429.535 56.826 429.143 56.826C428.76 56.826 428.396 56.9147 428.051 57.092C427.715 57.2693 427.439 57.5213 427.225 57.848C427.019 58.1653 426.917 58.548 426.917 58.996ZM432.853 63L435.709 58.982L437.725 56H439.055L436.395 59.78L434.211 63H432.853ZM437.879 63L435.723 59.78L433.035 56H434.365L436.395 58.982L439.223 63H437.879ZM442.969 63.168C442.288 63.168 441.761 62.9907 441.387 62.636C441.014 62.2813 440.827 61.782 440.827 61.138V53.816H441.947V61.026C441.947 61.3807 442.041 61.656 442.227 61.852C442.423 62.0387 442.694 62.132 443.039 62.132C443.151 62.132 443.259 62.118 443.361 62.09C443.473 62.0527 443.618 61.9687 443.795 61.838L444.229 62.748C443.987 62.9067 443.767 63.014 443.571 63.07C443.375 63.1353 443.175 63.168 442.969 63.168ZM439.609 56.994V56H444.047V56.994H439.609ZM449.087 63V56H450.137L450.193 56.98C450.408 56.6067 450.683 56.322 451.019 56.126C451.355 55.93 451.747 55.832 452.195 55.832C452.755 55.832 453.231 55.9627 453.623 56.224C454.025 56.4853 454.314 56.882 454.491 57.414C454.687 56.9007 454.972 56.5087 455.345 56.238C455.728 55.9673 456.181 55.832 456.703 55.832C457.487 55.832 458.103 56.0933 458.551 56.616C459.009 57.1387 459.233 57.932 459.223 58.996V63H458.103V59.416C458.103 58.7253 458.029 58.198 457.879 57.834C457.739 57.47 457.548 57.2227 457.305 57.092C457.063 56.952 456.783 56.882 456.465 56.882C455.915 56.882 455.485 57.1013 455.177 57.54C454.869 57.9693 454.715 58.5807 454.715 59.374V63H453.595V59.416C453.595 58.7253 453.521 58.198 453.371 57.834C453.231 57.47 453.035 57.2227 452.783 57.092C452.541 56.952 452.261 56.882 451.943 56.882C451.402 56.882 450.977 57.1013 450.669 57.54C450.361 57.9693 450.207 58.5807 450.207 59.374V63H449.087ZM464.09 63.168C463.408 63.168 462.802 63.014 462.27 62.706C461.747 62.3887 461.336 61.9547 461.038 61.404C460.739 60.8533 460.59 60.2187 460.59 59.5C460.59 58.7813 460.734 58.1467 461.024 57.596C461.322 57.0453 461.733 56.616 462.256 56.308C462.788 55.9907 463.39 55.832 464.062 55.832C464.752 55.832 465.359 55.9907 465.882 56.308C466.414 56.616 466.824 57.0453 467.114 57.596C467.412 58.1467 467.562 58.7813 467.562 59.5C467.562 60.2187 467.412 60.8533 467.114 61.404C466.824 61.9547 466.418 62.3887 465.896 62.706C465.373 63.014 464.771 63.168 464.09 63.168ZM464.09 62.132C464.556 62.132 464.962 62.02 465.308 61.796C465.653 61.572 465.924 61.264 466.12 60.872C466.325 60.48 466.428 60.0227 466.428 59.5C466.428 58.9773 466.325 58.52 466.12 58.128C465.924 57.736 465.648 57.428 465.294 57.204C464.939 56.98 464.528 56.868 464.062 56.868C463.604 56.868 463.198 56.98 462.844 57.204C462.498 57.428 462.223 57.736 462.018 58.128C461.822 58.52 461.724 58.9773 461.724 59.5C461.724 60.0133 461.822 60.4707 462.018 60.872C462.223 61.264 462.503 61.572 462.858 61.796C463.222 62.02 463.632 62.132 464.09 62.132ZM471.081 63L473.937 56H475.113L472.187 63H471.081ZM471.011 63L468.085 56H469.247L472.103 63H471.011ZM479.114 63.168C478.433 63.168 477.831 63.014 477.308 62.706C476.786 62.3887 476.375 61.9547 476.076 61.404C475.787 60.8533 475.642 60.2187 475.642 59.5C475.642 58.7813 475.787 58.1467 476.076 57.596C476.375 57.0453 476.781 56.616 477.294 56.308C477.817 55.9907 478.414 55.832 479.086 55.832C479.74 55.832 480.304 55.9953 480.78 56.322C481.256 56.6393 481.625 57.0873 481.886 57.666C482.148 58.2447 482.278 58.926 482.278 59.71H476.496L476.776 59.472C476.776 60.032 476.874 60.5127 477.07 60.914C477.276 61.3153 477.56 61.6233 477.924 61.838C478.288 62.0433 478.704 62.146 479.17 62.146C479.665 62.146 480.08 62.0293 480.416 61.796C480.762 61.5627 481.028 61.2547 481.214 60.872L482.18 61.362C482.003 61.726 481.765 62.0433 481.466 62.314C481.177 62.5847 480.832 62.7947 480.43 62.944C480.038 63.0933 479.6 63.168 479.114 63.168ZM476.846 58.996L476.552 58.772H481.382L481.088 59.01C481.088 58.562 481 58.1747 480.822 57.848C480.645 57.5213 480.407 57.2693 480.108 57.092C479.81 56.9147 479.464 56.826 479.072 56.826C478.69 56.826 478.326 56.9147 477.98 57.092C477.644 57.2693 477.369 57.5213 477.154 57.848C476.949 58.1653 476.846 58.548 476.846 58.996ZM484.167 63.196C483.952 63.196 483.766 63.1213 483.607 62.972C483.458 62.8133 483.383 62.6313 483.383 62.426C483.383 62.2113 483.458 62.0293 483.607 61.88C483.766 61.7213 483.952 61.642 484.167 61.642C484.382 61.642 484.564 61.7213 484.713 61.88C484.862 62.0293 484.937 62.2113 484.937 62.426C484.937 62.6313 484.862 62.8133 484.713 62.972C484.564 63.1213 484.382 63.196 484.167 63.196Z" fill="#0A0B0D"/>
</g>
<defs>
<filter id="filter0_d_60_1213" x="0" y="0" width="717" height="93" filterUnits="userSpaceOnUse" color-interpolation-filters="sRGB">
<feFlood flood-opacity="0" result="BackgroundImageFix"/>
<feColorMatrix in="SourceAlpha" type="matrix" values="0 0 0 0 0 0 0 0 0 0 0 0 0 0 0 0 0 0 127 0" result="hardAlpha"/>
<feOffset dx="5" dy="5"/>
<feComposite in2="hardAlpha" operator="out"/>
<feColorMatrix type="matrix" values="0 0 0 0 0.0392157 0 0 0 0 0.0392157 0 0 0 0 0.0392157 0 0 0 1 0"/>
<feBlend mode="normal" in2="BackgroundImageFix" result="effect1_dropShadow_60_1213"/>
<feBlend mode="normal" in="SourceGraphic" in2="effect1_dropShadow_60_1213" result="shape"/>
</filter>
</defs>
</svg>
