<svg width="717" height="93" viewBox="0 0 717 93" fill="none" xmlns="http://www.w3.org/2000/svg">
<g opacity="0.98" filter="url(#filter0_d_60_1204)">
<path d="M0 8C0 3.58172 3.58172 0 8 0H704C708.418 0 712 3.58172 712 8V80C712 84.4183 708.418 88 704 88H8C3.58172 88 0 84.4183 0 80V8Z" fill="white" shape-rendering="crispEdges"/>
<path d="M8 0.5H704C708.142 0.5 711.5 3.85786 711.5 8V80C711.5 84.1421 708.142 87.5 704 87.5H8C3.85786 87.5 0.5 84.1421 0.5 80V8C0.5 3.85786 3.85786 0.5 8 0.5Z" stroke="#0A0A0A" shape-rendering="crispEdges"/>
<path d="M327.753 38.192C326.622 38.192 325.614 37.9467 324.729 37.456C323.854 36.9547 323.166 36.272 322.665 35.408C322.164 34.5333 321.913 33.536 321.913 32.416C321.913 31.2747 322.164 30.272 322.665 29.408C323.166 28.5333 323.854 27.8507 324.729 27.36C325.614 26.8587 326.622 26.608 327.753 26.608C328.404 26.608 329.012 26.7093 329.577 26.912C330.153 27.1147 330.67 27.392 331.129 27.744C331.588 28.0853 331.961 28.4853 332.249 28.944L330.745 29.904C330.542 29.5947 330.281 29.3173 329.961 29.072C329.641 28.8267 329.289 28.64 328.905 28.512C328.532 28.3733 328.148 28.304 327.753 28.304C326.985 28.304 326.302 28.48 325.705 28.832C325.118 29.184 324.654 29.6693 324.313 30.288C323.972 30.896 323.801 31.6053 323.801 32.416C323.801 33.2053 323.966 33.9093 324.297 34.528C324.638 35.1467 325.108 35.632 325.705 35.984C326.313 36.336 327.012 36.512 327.801 36.512C328.42 36.512 328.974 36.384 329.465 36.128C329.956 35.872 330.34 35.5147 330.617 35.056C330.905 34.5973 331.049 34.0693 331.049 33.472L332.825 33.248C332.825 34.2613 332.606 35.1413 332.169 35.888C331.742 36.624 331.145 37.1947 330.377 37.6C329.62 37.9947 328.745 38.192 327.753 38.192ZM328.361 33.616V32.112H332.825V33.36L331.833 33.616H328.361ZM339.641 38L339.545 36.528V30H341.321V38H339.641ZM334.105 34.096V30H335.897V34.096H334.105ZM335.897 34.096C335.897 34.7253 335.972 35.216 336.121 35.568C336.27 35.92 336.473 36.1653 336.729 36.304C336.996 36.4427 337.3 36.512 337.641 36.512C338.249 36.5227 338.718 36.3253 339.049 35.92C339.38 35.5147 339.545 34.9333 339.545 34.176H340.217C340.217 35.0187 340.089 35.744 339.833 36.352C339.588 36.9493 339.236 37.408 338.777 37.728C338.329 38.0373 337.785 38.192 337.145 38.192C336.516 38.192 335.972 38.064 335.513 37.808C335.065 37.552 334.718 37.152 334.473 36.608C334.228 36.064 334.105 35.3653 334.105 34.512V34.096H335.897ZM343.424 38V30H345.2V38H343.424ZM344.32 28.48C344.032 28.48 343.782 28.3787 343.568 28.176C343.366 27.9627 343.264 27.712 343.264 27.424C343.264 27.136 343.366 26.8907 343.568 26.688C343.782 26.4853 344.032 26.384 344.32 26.384C344.608 26.384 344.854 26.4853 345.056 26.688C345.27 26.8907 345.376 27.136 345.376 27.424C345.376 27.712 345.27 27.9627 345.056 28.176C344.854 28.3787 344.608 28.48 344.32 28.48ZM353.088 38L353.008 36.512V26.8H354.784V38H353.088ZM350.48 38.192C349.755 38.192 349.12 38.0213 348.576 37.68C348.043 37.328 347.622 36.8373 347.312 36.208C347.014 35.5787 346.864 34.8427 346.864 34C346.864 33.1467 347.014 32.4107 347.312 31.792C347.622 31.1627 348.043 30.6773 348.576 30.336C349.12 29.984 349.755 29.808 350.48 29.808C351.152 29.808 351.728 29.984 352.208 30.336C352.699 30.6773 353.072 31.1627 353.328 31.792C353.584 32.4107 353.712 33.1467 353.712 34C353.712 34.8427 353.584 35.5787 353.328 36.208C353.072 36.8373 352.699 37.328 352.208 37.68C351.728 38.0213 351.152 38.192 350.48 38.192ZM350.928 36.56C351.334 36.56 351.691 36.4533 352 36.24C352.32 36.016 352.566 35.712 352.736 35.328C352.918 34.944 353.008 34.5013 353.008 34C353.008 33.4987 352.918 33.056 352.736 32.672C352.566 32.288 352.32 31.9893 352 31.776C351.691 31.5627 351.328 31.456 350.912 31.456C350.486 31.456 350.107 31.5627 349.776 31.776C349.446 31.9893 349.184 32.288 348.992 32.672C348.811 33.056 348.715 33.4987 348.704 34C348.715 34.5013 348.811 34.944 348.992 35.328C349.184 35.712 349.446 36.016 349.776 36.24C350.118 36.4533 350.502 36.56 350.928 36.56ZM361.645 38L361.565 36.496V33.888C361.565 33.344 361.507 32.8907 361.389 32.528C361.283 32.1547 361.101 31.872 360.845 31.68C360.6 31.4773 360.269 31.376 359.853 31.376C359.469 31.376 359.133 31.456 358.845 31.616C358.557 31.776 358.312 32.0267 358.109 32.368L356.541 31.792C356.712 31.44 356.936 31.1147 357.213 30.816C357.501 30.5067 357.859 30.2613 358.285 30.08C358.723 29.8987 359.245 29.808 359.853 29.808C360.632 29.808 361.283 29.9627 361.805 30.272C362.328 30.5707 362.712 31.0027 362.957 31.568C363.213 32.1333 363.341 32.816 363.341 33.616L363.293 38H361.645ZM359.341 38.192C358.381 38.192 357.635 37.9787 357.101 37.552C356.579 37.1253 356.317 36.5227 356.317 35.744C356.317 34.912 356.595 34.2773 357.149 33.84C357.715 33.4027 358.499 33.184 359.501 33.184H361.645V34.56H360.077C359.363 34.56 358.861 34.6613 358.573 34.864C358.285 35.056 358.141 35.3333 358.141 35.696C358.141 36.0053 358.264 36.2507 358.509 36.432C358.765 36.6027 359.117 36.688 359.565 36.688C359.971 36.688 360.323 36.5973 360.621 36.416C360.92 36.2347 361.149 35.9947 361.309 35.696C361.48 35.3973 361.565 35.0613 361.565 34.688H362.093C362.093 35.776 361.875 36.6347 361.437 37.264C361 37.8827 360.301 38.192 359.341 38.192ZM365.156 38V30H366.836L366.948 31.472V38H365.156ZM370.58 38V33.904H372.372V38H370.58ZM370.58 33.904C370.58 33.264 370.505 32.7733 370.356 32.432C370.217 32.08 370.015 31.8347 369.748 31.696C369.492 31.5573 369.188 31.488 368.836 31.488C368.239 31.4773 367.775 31.6747 367.444 32.08C367.113 32.4853 366.948 33.0667 366.948 33.824H366.276C366.276 32.9813 366.399 32.2613 366.644 31.664C366.889 31.056 367.241 30.5973 367.7 30.288C368.159 29.968 368.703 29.808 369.332 29.808C369.972 29.808 370.516 29.936 370.964 30.192C371.423 30.448 371.769 30.848 372.004 31.392C372.249 31.9253 372.372 32.624 372.372 33.488V33.904H370.58ZM377.931 38.192C377.11 38.192 376.385 38.016 375.755 37.664C375.126 37.3013 374.63 36.8053 374.267 36.176C373.915 35.5467 373.739 34.8213 373.739 34C373.739 33.1787 373.915 32.4533 374.267 31.824C374.63 31.1947 375.121 30.704 375.739 30.352C376.369 29.9893 377.089 29.808 377.899 29.808C378.689 29.808 379.403 30 380.043 30.384C380.683 30.7573 381.158 31.296 381.467 32L379.803 32.64C379.633 32.288 379.371 32.0053 379.019 31.792C378.667 31.5787 378.267 31.472 377.819 31.472C377.382 31.472 376.993 31.584 376.651 31.808C376.31 32.0213 376.043 32.32 375.851 32.704C375.659 33.0773 375.563 33.5093 375.563 34C375.563 34.4907 375.659 34.928 375.851 35.312C376.054 35.6853 376.326 35.984 376.667 36.208C377.019 36.4213 377.414 36.528 377.851 36.528C378.299 36.528 378.699 36.416 379.051 36.192C379.403 35.9573 379.665 35.6427 379.835 35.248L381.499 35.888C381.19 36.6133 380.715 37.1787 380.075 37.584C379.446 37.9893 378.731 38.192 377.931 38.192ZM386.458 38.192C385.68 38.192 384.986 38.016 384.378 37.664C383.781 37.3013 383.306 36.8053 382.954 36.176C382.613 35.5467 382.442 34.8213 382.442 34C382.442 33.1787 382.618 32.4533 382.97 31.824C383.322 31.1947 383.802 30.704 384.41 30.352C385.029 29.9893 385.733 29.808 386.522 29.808C387.237 29.808 387.882 29.9947 388.458 30.368C389.034 30.7307 389.488 31.2587 389.818 31.952C390.16 32.6453 390.33 33.472 390.33 34.432H384.042L384.282 34.208C384.282 34.6987 384.389 35.1253 384.602 35.488C384.816 35.84 385.098 36.112 385.45 36.304C385.802 36.496 386.192 36.592 386.618 36.592C387.109 36.592 387.514 36.4853 387.834 36.272C388.154 36.048 388.405 35.76 388.586 35.408L390.17 36.08C389.946 36.5067 389.658 36.88 389.306 37.2C388.965 37.52 388.554 37.7653 388.074 37.936C387.605 38.1067 387.066 38.192 386.458 38.192ZM384.394 33.28L384.138 33.056H388.65L388.41 33.28C388.41 32.8427 388.314 32.4853 388.122 32.208C387.93 31.92 387.685 31.7067 387.386 31.568C387.098 31.4187 386.794 31.344 386.474 31.344C386.154 31.344 385.834 31.4187 385.514 31.568C385.194 31.7067 384.928 31.92 384.714 32.208C384.501 32.4853 384.394 32.8427 384.394 33.28Z" fill="#0A0B0D"/>
<path d="M216.413 63V53.2H219.605C220.24 53.2 220.8 53.3307 221.285 53.592C221.78 53.8533 222.163 54.2173 222.433 54.684C222.713 55.1507 222.853 55.692 222.853 56.308C222.853 56.9053 222.727 57.4373 222.475 57.904C222.223 58.3707 221.878 58.7393 221.439 59.01C221.001 59.2713 220.492 59.402 219.913 59.402H217.603V63H216.413ZM217.603 58.324H219.913C220.427 58.324 220.847 58.1373 221.173 57.764C221.509 57.3813 221.677 56.896 221.677 56.308C221.677 55.7013 221.481 55.2113 221.089 54.838C220.697 54.4647 220.198 54.278 219.591 54.278H217.603V58.324ZM228.374 63L228.318 61.852V59.304C228.318 58.7533 228.257 58.3007 228.136 57.946C228.015 57.582 227.823 57.3067 227.562 57.12C227.301 56.9333 226.96 56.84 226.54 56.84C226.157 56.84 225.826 56.9193 225.546 57.078C225.275 57.2273 225.051 57.47 224.874 57.806L223.866 57.414C224.043 57.0873 224.258 56.8073 224.51 56.574C224.762 56.3313 225.056 56.1493 225.392 56.028C225.728 55.8973 226.111 55.832 226.54 55.832C227.193 55.832 227.73 55.9627 228.15 56.224C228.579 56.476 228.901 56.854 229.116 57.358C229.331 57.8527 229.433 58.4687 229.424 59.206L229.41 63H228.374ZM226.274 63.168C225.453 63.168 224.809 62.9813 224.342 62.608C223.885 62.2253 223.656 61.698 223.656 61.026C223.656 60.3167 223.889 59.7753 224.356 59.402C224.832 59.0193 225.495 58.828 226.344 58.828H228.346V59.766H226.596C225.943 59.766 225.476 59.8733 225.196 60.088C224.925 60.3027 224.79 60.6107 224.79 61.012C224.79 61.376 224.925 61.6653 225.196 61.88C225.467 62.0853 225.845 62.188 226.33 62.188C226.731 62.188 227.081 62.104 227.38 61.936C227.679 61.7587 227.907 61.5113 228.066 61.194C228.234 60.8673 228.318 60.4847 228.318 60.046H228.794C228.794 60.998 228.579 61.7587 228.15 62.328C227.721 62.888 227.095 63.168 226.274 63.168ZM233.831 63.168C233.149 63.168 232.622 62.9907 232.249 62.636C231.875 62.2813 231.689 61.782 231.689 61.138V53.816H232.809V61.026C232.809 61.3807 232.902 61.656 233.089 61.852C233.285 62.0387 233.555 62.132 233.901 62.132C234.013 62.132 234.12 62.118 234.223 62.09C234.335 62.0527 234.479 61.9687 234.657 61.838L235.091 62.748C234.848 62.9067 234.629 63.014 234.433 63.07C234.237 63.1353 234.036 63.168 233.831 63.168ZM230.471 56.994V56H234.909V56.994H230.471ZM236.49 63V53.2H237.61V63H236.49ZM241.418 63V59.416H242.538V63H241.418ZM241.418 59.416C241.418 58.7253 241.334 58.198 241.166 57.834C241.007 57.47 240.788 57.2227 240.508 57.092C240.228 56.952 239.91 56.882 239.556 56.882C238.94 56.882 238.459 57.1013 238.114 57.54C237.778 57.9693 237.61 58.5807 237.61 59.374H237.064C237.064 58.6367 237.171 58.002 237.386 57.47C237.61 56.938 237.927 56.532 238.338 56.252C238.748 55.972 239.243 55.832 239.822 55.832C240.363 55.832 240.839 55.944 241.25 56.168C241.66 56.3827 241.978 56.728 242.202 57.204C242.435 57.68 242.547 58.3053 242.538 59.08V59.416H241.418ZM243.876 64.61L244.674 61.656H245.934L244.842 64.61H243.876ZM253.364 63.168C252.85 63.168 252.402 63.0933 252.02 62.944C251.637 62.7853 251.315 62.58 251.054 62.328C250.802 62.076 250.62 61.8007 250.508 61.502L251.488 61.096C251.646 61.4133 251.884 61.67 252.202 61.866C252.519 62.062 252.869 62.16 253.252 62.16C253.69 62.16 254.059 62.076 254.358 61.908C254.656 61.7307 254.806 61.4833 254.806 61.166C254.806 60.8767 254.694 60.6433 254.47 60.466C254.255 60.2887 253.933 60.144 253.504 60.032L252.832 59.85C252.197 59.682 251.702 59.43 251.348 59.094C250.993 58.7487 250.816 58.3613 250.816 57.932C250.816 57.2693 251.03 56.756 251.46 56.392C251.898 56.0187 252.547 55.832 253.406 55.832C253.816 55.832 254.19 55.8927 254.526 56.014C254.862 56.1353 255.151 56.308 255.394 56.532C255.636 56.7467 255.814 57.0033 255.926 57.302L254.946 57.736C254.824 57.4187 254.624 57.19 254.344 57.05C254.064 56.91 253.723 56.84 253.322 56.84C252.892 56.84 252.556 56.9333 252.314 57.12C252.071 57.2973 251.95 57.5493 251.95 57.876C251.95 58.0627 252.048 58.24 252.244 58.408C252.449 58.5667 252.748 58.6973 253.14 58.8L253.84 58.982C254.297 59.094 254.68 59.262 254.988 59.486C255.296 59.7007 255.529 59.948 255.688 60.228C255.846 60.508 255.926 60.8067 255.926 61.124C255.926 61.544 255.814 61.908 255.59 62.216C255.366 62.524 255.062 62.762 254.68 62.93C254.297 63.0887 253.858 63.168 253.364 63.168ZM260.067 63.168C259.386 63.168 258.858 62.9907 258.485 62.636C258.112 62.2813 257.925 61.782 257.925 61.138V53.816H259.045V61.026C259.045 61.3807 259.138 61.656 259.325 61.852C259.521 62.0387 259.792 62.132 260.137 62.132C260.249 62.132 260.356 62.118 260.459 62.09C260.571 62.0527 260.716 61.9687 260.893 61.838L261.327 62.748C261.084 62.9067 260.865 63.014 260.669 63.07C260.473 63.1353 260.272 63.168 260.067 63.168ZM256.707 56.994V56H261.145V56.994H256.707ZM265.751 63.168C265.07 63.168 264.468 63.014 263.945 62.706C263.422 62.3887 263.012 61.9547 262.713 61.404C262.424 60.8533 262.279 60.2187 262.279 59.5C262.279 58.7813 262.424 58.1467 262.713 57.596C263.012 57.0453 263.418 56.616 263.931 56.308C264.454 55.9907 265.051 55.832 265.723 55.832C266.376 55.832 266.941 55.9953 267.417 56.322C267.893 56.6393 268.262 57.0873 268.523 57.666C268.784 58.2447 268.915 58.926 268.915 59.71H263.133L263.413 59.472C263.413 60.032 263.511 60.5127 263.707 60.914C263.912 61.3153 264.197 61.6233 264.561 61.838C264.925 62.0433 265.34 62.146 265.807 62.146C266.302 62.146 266.717 62.0293 267.053 61.796C267.398 61.5627 267.664 61.2547 267.851 60.872L268.817 61.362C268.64 61.726 268.402 62.0433 268.103 62.314C267.814 62.5847 267.468 62.7947 267.067 62.944C266.675 63.0933 266.236 63.168 265.751 63.168ZM263.483 58.996L263.189 58.772H268.019L267.725 59.01C267.725 58.562 267.636 58.1747 267.459 57.848C267.282 57.5213 267.044 57.2693 266.745 57.092C266.446 56.9147 266.101 56.826 265.709 56.826C265.326 56.826 264.962 56.9147 264.617 57.092C264.281 57.2693 264.006 57.5213 263.791 57.848C263.586 58.1653 263.483 58.548 263.483 58.996ZM270.398 65.8V56H271.448L271.518 57.288V65.8H270.398ZM273.884 63.168C273.296 63.168 272.778 63.014 272.33 62.706C271.891 62.398 271.55 61.9687 271.308 61.418C271.065 60.858 270.944 60.2187 270.944 59.5C270.944 58.772 271.065 58.1327 271.308 57.582C271.55 57.0313 271.891 56.602 272.33 56.294C272.778 55.986 273.296 55.832 273.884 55.832C274.509 55.832 275.06 55.986 275.536 56.294C276.012 56.602 276.38 57.0313 276.642 57.582C276.912 58.1327 277.048 58.772 277.048 59.5C277.048 60.2187 276.912 60.858 276.642 61.418C276.38 61.9687 276.012 62.398 275.536 62.706C275.06 63.014 274.509 63.168 273.884 63.168ZM273.632 62.146C274.07 62.146 274.458 62.034 274.794 61.81C275.139 61.586 275.41 61.2733 275.606 60.872C275.811 60.4707 275.914 60.0133 275.914 59.5C275.914 58.9867 275.816 58.5293 275.62 58.128C275.433 57.7267 275.167 57.414 274.822 57.19C274.476 56.966 274.084 56.854 273.646 56.854C273.235 56.854 272.866 56.966 272.54 57.19C272.222 57.414 271.97 57.7267 271.784 58.128C271.606 58.5293 271.518 58.9867 271.518 59.5C271.518 60.0133 271.606 60.4707 271.784 60.872C271.97 61.2733 272.222 61.586 272.54 61.81C272.857 62.034 273.221 62.146 273.632 62.146ZM281.049 63.168C280.536 63.168 280.088 63.0933 279.705 62.944C279.322 62.7853 279 62.58 278.739 62.328C278.487 62.076 278.305 61.8007 278.193 61.502L279.173 61.096C279.332 61.4133 279.57 61.67 279.887 61.866C280.204 62.062 280.554 62.16 280.937 62.16C281.376 62.16 281.744 62.076 282.043 61.908C282.342 61.7307 282.491 61.4833 282.491 61.166C282.491 60.8767 282.379 60.6433 282.155 60.466C281.94 60.2887 281.618 60.144 281.189 60.032L280.517 59.85C279.882 59.682 279.388 59.43 279.033 59.094C278.678 58.7487 278.501 58.3613 278.501 57.932C278.501 57.2693 278.716 56.756 279.145 56.392C279.584 56.0187 280.232 55.832 281.091 55.832C281.502 55.832 281.875 55.8927 282.211 56.014C282.547 56.1353 282.836 56.308 283.079 56.532C283.322 56.7467 283.499 57.0033 283.611 57.302L282.631 57.736C282.51 57.4187 282.309 57.19 282.029 57.05C281.749 56.91 281.408 56.84 281.007 56.84C280.578 56.84 280.242 56.9333 279.999 57.12C279.756 57.2973 279.635 57.5493 279.635 57.876C279.635 58.0627 279.733 58.24 279.929 58.408C280.134 58.5667 280.433 58.6973 280.825 58.8L281.525 58.982C281.982 59.094 282.365 59.262 282.673 59.486C282.981 59.7007 283.214 59.948 283.373 60.228C283.532 60.508 283.611 60.8067 283.611 61.124C283.611 61.544 283.499 61.908 283.275 62.216C283.051 62.524 282.748 62.762 282.365 62.93C281.982 63.0887 281.544 63.168 281.049 63.168ZM284.701 64.61L285.499 61.656H286.759L285.667 64.61H284.701ZM291.808 63V56H292.928V63H291.808ZM292.382 54.376C292.195 54.376 292.032 54.306 291.892 54.166C291.752 54.026 291.682 53.8627 291.682 53.676C291.682 53.48 291.752 53.3167 291.892 53.186C292.032 53.046 292.195 52.976 292.382 52.976C292.578 52.976 292.741 53.046 292.872 53.186C293.012 53.3167 293.082 53.48 293.082 53.676C293.082 53.8627 293.012 54.026 292.872 54.166C292.741 54.306 292.578 54.376 292.382 54.376ZM294.992 63V56H296.042L296.112 57.288V63H294.992ZM299.906 63V59.416H301.026V63H299.906ZM299.906 59.416C299.906 58.7253 299.826 58.198 299.668 57.834C299.509 57.47 299.29 57.2227 299.01 57.092C298.73 56.952 298.412 56.882 298.058 56.882C297.442 56.882 296.961 57.1013 296.616 57.54C296.28 57.9693 296.112 58.5807 296.112 59.374H295.566C295.566 58.6367 295.673 58.002 295.888 57.47C296.102 56.938 296.415 56.532 296.826 56.252C297.236 55.972 297.731 55.832 298.31 55.832C298.86 55.832 299.336 55.944 299.738 56.168C300.148 56.3827 300.466 56.728 300.69 57.204C300.923 57.68 301.035 58.3053 301.026 59.08V59.416H299.906ZM305.248 63.168C304.735 63.168 304.287 63.0933 303.904 62.944C303.522 62.7853 303.2 62.58 302.938 62.328C302.686 62.076 302.504 61.8007 302.392 61.502L303.372 61.096C303.531 61.4133 303.769 61.67 304.086 61.866C304.404 62.062 304.754 62.16 305.136 62.16C305.575 62.16 305.944 62.076 306.242 61.908C306.541 61.7307 306.69 61.4833 306.69 61.166C306.69 60.8767 306.578 60.6433 306.354 60.466C306.14 60.2887 305.818 60.144 305.388 60.032L304.716 59.85C304.082 59.682 303.587 59.43 303.232 59.094C302.878 58.7487 302.7 58.3613 302.7 57.932C302.7 57.2693 302.915 56.756 303.344 56.392C303.783 56.0187 304.432 55.832 305.29 55.832C305.701 55.832 306.074 55.8927 306.41 56.014C306.746 56.1353 307.036 56.308 307.278 56.532C307.521 56.7467 307.698 57.0033 307.81 57.302L306.83 57.736C306.709 57.4187 306.508 57.19 306.228 57.05C305.948 56.91 305.608 56.84 305.206 56.84C304.777 56.84 304.441 56.9333 304.198 57.12C303.956 57.2973 303.834 57.5493 303.834 57.876C303.834 58.0627 303.932 58.24 304.128 58.408C304.334 58.5667 304.632 58.6973 305.024 58.8L305.724 58.982C306.182 59.094 306.564 59.262 306.872 59.486C307.18 59.7007 307.414 59.948 307.572 60.228C307.731 60.508 307.81 60.8067 307.81 61.124C307.81 61.544 307.698 61.908 307.474 62.216C307.25 62.524 306.947 62.762 306.564 62.93C306.182 63.0887 305.743 63.168 305.248 63.168ZM311.952 63.168C311.271 63.168 310.743 62.9907 310.37 62.636C309.997 62.2813 309.81 61.782 309.81 61.138V53.816H310.93V61.026C310.93 61.3807 311.023 61.656 311.21 61.852C311.406 62.0387 311.677 62.132 312.022 62.132C312.134 62.132 312.241 62.118 312.344 62.09C312.456 62.0527 312.601 61.9687 312.778 61.838L313.212 62.748C312.969 62.9067 312.75 63.014 312.554 63.07C312.358 63.1353 312.157 63.168 311.952 63.168ZM308.592 56.994V56H313.03V56.994H308.592ZM315.227 59.206C315.227 58.45 315.372 57.8387 315.661 57.372C315.95 56.896 316.319 56.546 316.767 56.322C317.224 56.0887 317.705 55.972 318.209 55.972V57.022C317.798 57.022 317.402 57.092 317.019 57.232C316.646 57.3627 316.338 57.582 316.095 57.89C315.852 58.198 315.731 58.618 315.731 59.15L315.227 59.206ZM314.611 63V56H315.731V63H314.611ZM324.143 63L324.073 61.712V56H325.193V63H324.143ZM319.159 59.584V56H320.279V59.584H319.159ZM320.279 59.584C320.279 60.2747 320.359 60.802 320.517 61.166C320.676 61.53 320.895 61.782 321.175 61.922C321.465 62.0527 321.787 62.118 322.141 62.118C322.748 62.118 323.219 61.8987 323.555 61.46C323.901 61.0213 324.073 60.41 324.073 59.626H324.619C324.619 60.3633 324.512 60.998 324.297 61.53C324.083 62.062 323.77 62.468 323.359 62.748C322.958 63.028 322.463 63.168 321.875 63.168C321.334 63.168 320.858 63.0607 320.447 62.846C320.037 62.622 319.719 62.272 319.495 61.796C319.271 61.3107 319.159 60.6853 319.159 59.92V59.584H320.279ZM330.27 63.168C329.579 63.168 328.968 63.014 328.436 62.706C327.904 62.3887 327.489 61.9547 327.19 61.404C326.891 60.8533 326.742 60.2187 326.742 59.5C326.742 58.7813 326.887 58.1467 327.176 57.596C327.475 57.0453 327.89 56.616 328.422 56.308C328.954 55.9907 329.561 55.832 330.242 55.832C330.914 55.832 331.516 55.986 332.048 56.294C332.58 56.602 332.986 57.036 333.266 57.596L332.244 58.058C332.057 57.6847 331.787 57.3953 331.432 57.19C331.077 56.9753 330.671 56.868 330.214 56.868C329.757 56.868 329.351 56.98 328.996 57.204C328.651 57.428 328.375 57.7407 328.17 58.142C327.974 58.534 327.876 58.9867 327.876 59.5C327.876 60.0133 327.974 60.4707 328.17 60.872C328.375 61.264 328.655 61.572 329.01 61.796C329.374 62.02 329.785 62.132 330.242 62.132C330.699 62.132 331.105 62.0153 331.46 61.782C331.824 61.5487 332.099 61.222 332.286 60.802L333.308 61.264C333.028 61.8613 332.622 62.328 332.09 62.664C331.558 63 330.951 63.168 330.27 63.168ZM337.354 63.168C336.673 63.168 336.146 62.9907 335.772 62.636C335.399 62.2813 335.212 61.782 335.212 61.138V53.816H336.332V61.026C336.332 61.3807 336.426 61.656 336.612 61.852C336.808 62.0387 337.079 62.132 337.424 62.132C337.536 62.132 337.644 62.118 337.746 62.09C337.858 62.0527 338.003 61.9687 338.18 61.838L338.614 62.748C338.372 62.9067 338.152 63.014 337.956 63.07C337.76 63.1353 337.56 63.168 337.354 63.168ZM333.994 56.994V56H338.432V56.994H333.994ZM340.083 63V56H341.203V63H340.083ZM340.657 54.376C340.471 54.376 340.307 54.306 340.167 54.166C340.027 54.026 339.957 53.8627 339.957 53.676C339.957 53.48 340.027 53.3167 340.167 53.186C340.307 53.046 340.471 52.976 340.657 52.976C340.853 52.976 341.017 53.046 341.147 53.186C341.287 53.3167 341.357 53.48 341.357 53.676C341.357 53.8627 341.287 54.026 341.147 54.166C341.017 54.306 340.853 54.376 340.657 54.376ZM346.361 63.168C345.68 63.168 345.073 63.014 344.541 62.706C344.018 62.3887 343.608 61.9547 343.309 61.404C343.01 60.8533 342.861 60.2187 342.861 59.5C342.861 58.7813 343.006 58.1467 343.295 57.596C343.594 57.0453 344.004 56.616 344.527 56.308C345.059 55.9907 345.661 55.832 346.333 55.832C347.024 55.832 347.63 55.9907 348.153 56.308C348.685 56.616 349.096 57.0453 349.385 57.596C349.684 58.1467 349.833 58.7813 349.833 59.5C349.833 60.2187 349.684 60.8533 349.385 61.404C349.096 61.9547 348.69 62.3887 348.167 62.706C347.644 63.014 347.042 63.168 346.361 63.168ZM346.361 62.132C346.828 62.132 347.234 62.02 347.579 61.796C347.924 61.572 348.195 61.264 348.391 60.872C348.596 60.48 348.699 60.0227 348.699 59.5C348.699 58.9773 348.596 58.52 348.391 58.128C348.195 57.736 347.92 57.428 347.565 57.204C347.21 56.98 346.8 56.868 346.333 56.868C345.876 56.868 345.47 56.98 345.115 57.204C344.77 57.428 344.494 57.736 344.289 58.128C344.093 58.52 343.995 58.9773 343.995 59.5C343.995 60.0133 344.093 60.4707 344.289 60.872C344.494 61.264 344.774 61.572 345.129 61.796C345.493 62.02 345.904 62.132 346.361 62.132ZM351.388 63V56H352.438L352.508 57.288V63H351.388ZM356.302 63V59.416H357.422V63H356.302ZM356.302 59.416C356.302 58.7253 356.223 58.198 356.064 57.834C355.906 57.47 355.686 57.2227 355.406 57.092C355.126 56.952 354.809 56.882 354.454 56.882C353.838 56.882 353.358 57.1013 353.012 57.54C352.676 57.9693 352.508 58.5807 352.508 59.374H351.962C351.962 58.6367 352.07 58.002 352.284 57.47C352.499 56.938 352.812 56.532 353.222 56.252C353.633 55.972 354.128 55.832 354.706 55.832C355.257 55.832 355.733 55.944 356.134 56.168C356.545 56.3827 356.862 56.728 357.086 57.204C357.32 57.68 357.432 58.3053 357.422 59.08V59.416H356.302ZM361.645 63.168C361.132 63.168 360.684 63.0933 360.301 62.944C359.918 62.7853 359.596 62.58 359.335 62.328C359.083 62.076 358.901 61.8007 358.789 61.502L359.769 61.096C359.928 61.4133 360.166 61.67 360.483 61.866C360.8 62.062 361.15 62.16 361.533 62.16C361.972 62.16 362.34 62.076 362.639 61.908C362.938 61.7307 363.087 61.4833 363.087 61.166C363.087 60.8767 362.975 60.6433 362.751 60.466C362.536 60.2887 362.214 60.144 361.785 60.032L361.113 59.85C360.478 59.682 359.984 59.43 359.629 59.094C359.274 58.7487 359.097 58.3613 359.097 57.932C359.097 57.2693 359.312 56.756 359.741 56.392C360.18 56.0187 360.828 55.832 361.687 55.832C362.098 55.832 362.471 55.8927 362.807 56.014C363.143 56.1353 363.432 56.308 363.675 56.532C363.918 56.7467 364.095 57.0033 364.207 57.302L363.227 57.736C363.106 57.4187 362.905 57.19 362.625 57.05C362.345 56.91 362.004 56.84 361.603 56.84C361.174 56.84 360.838 56.9333 360.595 57.12C360.352 57.2973 360.231 57.5493 360.231 57.876C360.231 58.0627 360.329 58.24 360.525 58.408C360.73 58.5667 361.029 58.6973 361.421 58.8L362.121 58.982C362.578 59.094 362.961 59.262 363.269 59.486C363.577 59.7007 363.81 59.948 363.969 60.228C364.128 60.508 364.207 60.8067 364.207 61.124C364.207 61.544 364.095 61.908 363.871 62.216C363.647 62.524 363.344 62.762 362.961 62.93C362.578 63.0887 362.14 63.168 361.645 63.168ZM365.296 64.61L366.094 61.656H367.354L366.262 64.61H365.296ZM375.428 63.168C374.746 63.168 374.14 63.014 373.608 62.706C373.085 62.3887 372.674 61.9547 372.376 61.404C372.077 60.8533 371.928 60.2187 371.928 59.5C371.928 58.7813 372.072 58.1467 372.362 57.596C372.66 57.0453 373.071 56.616 373.594 56.308C374.126 55.9907 374.728 55.832 375.4 55.832C376.09 55.832 376.697 55.9907 377.22 56.308C377.752 56.616 378.162 57.0453 378.452 57.596C378.75 58.1467 378.9 58.7813 378.9 59.5C378.9 60.2187 378.75 60.8533 378.452 61.404C378.162 61.9547 377.756 62.3887 377.234 62.706C376.711 63.014 376.109 63.168 375.428 63.168ZM375.428 62.132C375.894 62.132 376.3 62.02 376.646 61.796C376.991 61.572 377.262 61.264 377.458 60.872C377.663 60.48 377.766 60.0227 377.766 59.5C377.766 58.9773 377.663 58.52 377.458 58.128C377.262 57.736 376.986 57.428 376.632 57.204C376.277 56.98 375.866 56.868 375.4 56.868C374.942 56.868 374.536 56.98 374.182 57.204C373.836 57.428 373.561 57.736 373.356 58.128C373.16 58.52 373.062 58.9773 373.062 59.5C373.062 60.0133 373.16 60.4707 373.356 60.872C373.561 61.264 373.841 61.572 374.196 61.796C374.56 62.02 374.97 62.132 375.428 62.132ZM381.071 59.206C381.071 58.45 381.215 57.8387 381.505 57.372C381.794 56.896 382.163 56.546 382.611 56.322C383.068 56.0887 383.549 55.972 384.053 55.972V57.022C383.642 57.022 383.245 57.092 382.863 57.232C382.489 57.3627 382.181 57.582 381.939 57.89C381.696 58.198 381.575 58.618 381.575 59.15L381.071 59.206ZM380.455 63V56H381.575V63H380.455ZM391.094 63.168C390.581 63.168 390.133 63.0933 389.75 62.944C389.367 62.7853 389.045 62.58 388.784 62.328C388.532 62.076 388.35 61.8007 388.238 61.502L389.218 61.096C389.377 61.4133 389.615 61.67 389.932 61.866C390.249 62.062 390.599 62.16 390.982 62.16C391.421 62.16 391.789 62.076 392.088 61.908C392.387 61.7307 392.536 61.4833 392.536 61.166C392.536 60.8767 392.424 60.6433 392.2 60.466C391.985 60.2887 391.663 60.144 391.234 60.032L390.562 59.85C389.927 59.682 389.433 59.43 389.078 59.094C388.723 58.7487 388.546 58.3613 388.546 57.932C388.546 57.2693 388.761 56.756 389.19 56.392C389.629 56.0187 390.277 55.832 391.136 55.832C391.547 55.832 391.92 55.8927 392.256 56.014C392.592 56.1353 392.881 56.308 393.124 56.532C393.367 56.7467 393.544 57.0033 393.656 57.302L392.676 57.736C392.555 57.4187 392.354 57.19 392.074 57.05C391.794 56.91 391.453 56.84 391.052 56.84C390.623 56.84 390.287 56.9333 390.044 57.12C389.801 57.2973 389.68 57.5493 389.68 57.876C389.68 58.0627 389.778 58.24 389.974 58.408C390.179 58.5667 390.478 58.6973 390.87 58.8L391.57 58.982C392.027 59.094 392.41 59.262 392.718 59.486C393.026 59.7007 393.259 59.948 393.418 60.228C393.577 60.508 393.656 60.8067 393.656 61.124C393.656 61.544 393.544 61.908 393.32 62.216C393.096 62.524 392.793 62.762 392.41 62.93C392.027 63.0887 391.589 63.168 391.094 63.168ZM399.968 63L399.898 61.712V56H401.018V63H399.968ZM394.984 59.584V56H396.104V59.584H394.984ZM396.104 59.584C396.104 60.2747 396.183 60.802 396.342 61.166C396.5 61.53 396.72 61.782 397 61.922C397.289 62.0527 397.611 62.118 397.966 62.118C398.572 62.118 399.044 61.8987 399.38 61.46C399.725 61.0213 399.898 60.41 399.898 59.626H400.444C400.444 60.3633 400.336 60.998 400.122 61.53C399.907 62.062 399.594 62.468 399.184 62.748C398.782 63.028 398.288 63.168 397.7 63.168C397.158 63.168 396.682 63.0607 396.272 62.846C395.861 62.622 395.544 62.272 395.32 61.796C395.096 61.3107 394.984 60.6853 394.984 59.92V59.584H396.104ZM403.042 65.8V56H404.092L404.162 57.288V65.8H403.042ZM406.528 63.168C405.94 63.168 405.422 63.014 404.974 62.706C404.536 62.398 404.195 61.9687 403.952 61.418C403.71 60.858 403.588 60.2187 403.588 59.5C403.588 58.772 403.71 58.1327 403.952 57.582C404.195 57.0313 404.536 56.602 404.974 56.294C405.422 55.986 405.94 55.832 406.528 55.832C407.154 55.832 407.704 55.986 408.18 56.294C408.656 56.602 409.025 57.0313 409.286 57.582C409.557 58.1327 409.692 58.772 409.692 59.5C409.692 60.2187 409.557 60.858 409.286 61.418C409.025 61.9687 408.656 62.398 408.18 62.706C407.704 63.014 407.154 63.168 406.528 63.168ZM406.276 62.146C406.715 62.146 407.102 62.034 407.438 61.81C407.784 61.586 408.054 61.2733 408.25 60.872C408.456 60.4707 408.558 60.0133 408.558 59.5C408.558 58.9867 408.46 58.5293 408.264 58.128C408.078 57.7267 407.812 57.414 407.466 57.19C407.121 56.966 406.729 56.854 406.29 56.854C405.88 56.854 405.511 56.966 405.184 57.19C404.867 57.414 404.615 57.7267 404.428 58.128C404.251 58.5293 404.162 58.9867 404.162 59.5C404.162 60.0133 404.251 60.4707 404.428 60.872C404.615 61.2733 404.867 61.586 405.184 61.81C405.502 62.034 405.866 62.146 406.276 62.146ZM411.314 65.8V56H412.364L412.434 57.288V65.8H411.314ZM414.8 63.168C414.212 63.168 413.694 63.014 413.246 62.706C412.807 62.398 412.466 61.9687 412.224 61.418C411.981 60.858 411.86 60.2187 411.86 59.5C411.86 58.772 411.981 58.1327 412.224 57.582C412.466 57.0313 412.807 56.602 413.246 56.294C413.694 55.986 414.212 55.832 414.8 55.832C415.425 55.832 415.976 55.986 416.452 56.294C416.928 56.602 417.296 57.0313 417.558 57.582C417.828 58.1327 417.964 58.772 417.964 59.5C417.964 60.2187 417.828 60.858 417.558 61.418C417.296 61.9687 416.928 62.398 416.452 62.706C415.976 63.014 415.425 63.168 414.8 63.168ZM414.548 62.146C414.986 62.146 415.374 62.034 415.71 61.81C416.055 61.586 416.326 61.2733 416.522 60.872C416.727 60.4707 416.83 60.0133 416.83 59.5C416.83 58.9867 416.732 58.5293 416.536 58.128C416.349 57.7267 416.083 57.414 415.738 57.19C415.392 56.966 415 56.854 414.562 56.854C414.151 56.854 413.782 56.966 413.456 57.19C413.138 57.414 412.886 57.7267 412.7 58.128C412.522 58.5293 412.434 58.9867 412.434 59.5C412.434 60.0133 412.522 60.4707 412.7 60.872C412.886 61.2733 413.138 61.586 413.456 61.81C413.773 62.034 414.137 62.146 414.548 62.146ZM422.609 63.168C421.928 63.168 421.321 63.014 420.789 62.706C420.266 62.3887 419.856 61.9547 419.557 61.404C419.258 60.8533 419.109 60.2187 419.109 59.5C419.109 58.7813 419.254 58.1467 419.543 57.596C419.842 57.0453 420.252 56.616 420.775 56.308C421.307 55.9907 421.909 55.832 422.581 55.832C423.272 55.832 423.878 55.9907 424.401 56.308C424.933 56.616 425.344 57.0453 425.633 57.596C425.932 58.1467 426.081 58.7813 426.081 59.5C426.081 60.2187 425.932 60.8533 425.633 61.404C425.344 61.9547 424.938 62.3887 424.415 62.706C423.892 63.014 423.29 63.168 422.609 63.168ZM422.609 62.132C423.076 62.132 423.482 62.02 423.827 61.796C424.172 61.572 424.443 61.264 424.639 60.872C424.844 60.48 424.947 60.0227 424.947 59.5C424.947 58.9773 424.844 58.52 424.639 58.128C424.443 57.736 424.168 57.428 423.813 57.204C423.458 56.98 423.048 56.868 422.581 56.868C422.124 56.868 421.718 56.98 421.363 57.204C421.018 57.428 420.742 57.736 420.537 58.128C420.341 58.52 420.243 58.9773 420.243 59.5C420.243 60.0133 420.341 60.4707 420.537 60.872C420.742 61.264 421.022 61.572 421.377 61.796C421.741 62.02 422.152 62.132 422.609 62.132ZM428.252 59.206C428.252 58.45 428.397 57.8387 428.686 57.372C428.976 56.896 429.344 56.546 429.792 56.322C430.25 56.0887 430.73 55.972 431.234 55.972V57.022C430.824 57.022 430.427 57.092 430.044 57.232C429.671 57.3627 429.363 57.582 429.12 57.89C428.878 58.198 428.756 58.618 428.756 59.15L428.252 59.206ZM427.636 63V56H428.756V63H427.636ZM434.999 63.168C434.317 63.168 433.79 62.9907 433.417 62.636C433.043 62.2813 432.857 61.782 432.857 61.138V53.816H433.977V61.026C433.977 61.3807 434.07 61.656 434.257 61.852C434.453 62.0387 434.723 62.132 435.069 62.132C435.181 62.132 435.288 62.118 435.391 62.09C435.503 62.0527 435.647 61.9687 435.825 61.838L436.259 62.748C436.016 62.9067 435.797 63.014 435.601 63.07C435.405 63.1353 435.204 63.168 434.999 63.168ZM431.639 56.994V56H436.077V56.994H431.639ZM437.728 63V56H438.848V63H437.728ZM438.302 54.376C438.115 54.376 437.952 54.306 437.812 54.166C437.672 54.026 437.602 53.8627 437.602 53.676C437.602 53.48 437.672 53.3167 437.812 53.186C437.952 53.046 438.115 52.976 438.302 52.976C438.498 52.976 438.661 53.046 438.792 53.186C438.932 53.3167 439.002 53.48 439.002 53.676C439.002 53.8627 438.932 54.026 438.792 54.166C438.661 54.306 438.498 54.376 438.302 54.376ZM440.912 63V56H441.962L442.032 57.288V63H440.912ZM445.826 63V59.416H446.946V63H445.826ZM445.826 59.416C445.826 58.7253 445.746 58.198 445.588 57.834C445.429 57.47 445.21 57.2227 444.93 57.092C444.65 56.952 444.332 56.882 443.978 56.882C443.362 56.882 442.881 57.1013 442.536 57.54C442.2 57.9693 442.032 58.5807 442.032 59.374H441.486C441.486 58.6367 441.593 58.002 441.808 57.47C442.022 56.938 442.335 56.532 442.746 56.252C443.156 55.972 443.651 55.832 444.23 55.832C444.78 55.832 445.256 55.944 445.658 56.168C446.068 56.3827 446.386 56.728 446.61 57.204C446.843 57.68 446.955 58.3053 446.946 59.08V59.416H445.826ZM451.518 65.968C451.07 65.968 450.66 65.9213 450.286 65.828C449.922 65.744 449.61 65.646 449.348 65.534C449.096 65.4313 448.914 65.3427 448.802 65.268L449.222 64.358C449.344 64.4233 449.516 64.5027 449.74 64.596C449.964 64.6987 450.226 64.7827 450.524 64.848C450.832 64.9227 451.159 64.96 451.504 64.96C451.952 64.96 452.354 64.8667 452.708 64.68C453.072 64.5027 453.352 64.218 453.548 63.826C453.754 63.4433 453.856 62.9487 453.856 62.342V56H454.976V62.328C454.976 63.1307 454.827 63.8027 454.528 64.344C454.23 64.8853 453.819 65.2913 453.296 65.562C452.774 65.8327 452.181 65.968 451.518 65.968ZM451.476 62.944C450.851 62.944 450.3 62.7947 449.824 62.496C449.348 62.1973 448.975 61.782 448.704 61.25C448.443 60.7087 448.312 60.0927 448.312 59.402C448.312 58.6927 448.443 58.072 448.704 57.54C448.975 56.9987 449.348 56.5787 449.824 56.28C450.3 55.9813 450.851 55.832 451.476 55.832C452.064 55.832 452.578 55.9813 453.016 56.28C453.455 56.5787 453.796 56.9987 454.038 57.54C454.29 58.072 454.416 58.6927 454.416 59.402C454.416 60.102 454.29 60.718 454.038 61.25C453.796 61.782 453.455 62.1973 453.016 62.496C452.578 62.7947 452.064 62.944 451.476 62.944ZM451.742 61.978C452.153 61.978 452.517 61.866 452.834 61.642C453.152 61.418 453.399 61.1147 453.576 60.732C453.754 60.34 453.842 59.8873 453.842 59.374C453.842 58.8793 453.749 58.4407 453.562 58.058C453.385 57.666 453.138 57.3627 452.82 57.148C452.512 56.924 452.148 56.812 451.728 56.812C451.29 56.812 450.898 56.924 450.552 57.148C450.216 57.3627 449.95 57.666 449.754 58.058C449.568 58.4407 449.474 58.8793 449.474 59.374C449.474 59.8873 449.572 60.34 449.768 60.732C449.964 61.1147 450.23 61.418 450.566 61.642C450.912 61.866 451.304 61.978 451.742 61.978ZM465.574 63L465.518 61.698V53.2H466.638V63H465.574ZM463.152 63.168C462.527 63.168 461.976 63.014 461.5 62.706C461.024 62.398 460.651 61.9687 460.38 61.418C460.119 60.858 459.988 60.2187 459.988 59.5C459.988 58.772 460.119 58.1327 460.38 57.582C460.651 57.0313 461.024 56.602 461.5 56.294C461.976 55.986 462.527 55.832 463.152 55.832C463.74 55.832 464.253 55.986 464.692 56.294C465.14 56.602 465.485 57.0313 465.728 57.582C465.971 58.1327 466.092 58.772 466.092 59.5C466.092 60.2187 465.971 60.858 465.728 61.418C465.485 61.9687 465.14 62.398 464.692 62.706C464.253 63.014 463.74 63.168 463.152 63.168ZM463.404 62.146C463.815 62.146 464.179 62.034 464.496 61.81C464.813 61.586 465.061 61.2733 465.238 60.872C465.425 60.4707 465.518 60.0133 465.518 59.5C465.518 58.9867 465.425 58.5293 465.238 58.128C465.061 57.7267 464.813 57.414 464.496 57.19C464.179 56.966 463.81 56.854 463.39 56.854C462.951 56.854 462.559 56.966 462.214 57.19C461.878 57.414 461.612 57.7267 461.416 58.128C461.22 58.5293 461.122 58.9867 461.122 59.5C461.122 60.0133 461.22 60.4707 461.416 60.872C461.612 61.2733 461.883 61.586 462.228 61.81C462.573 62.034 462.965 62.146 463.404 62.146ZM471.663 63.168C470.982 63.168 470.38 63.014 469.857 62.706C469.335 62.3887 468.924 61.9547 468.625 61.404C468.336 60.8533 468.191 60.2187 468.191 59.5C468.191 58.7813 468.336 58.1467 468.625 57.596C468.924 57.0453 469.33 56.616 469.843 56.308C470.366 55.9907 470.963 55.832 471.635 55.832C472.289 55.832 472.853 55.9953 473.329 56.322C473.805 56.6393 474.174 57.0873 474.435 57.666C474.697 58.2447 474.827 58.926 474.827 59.71H469.045L469.325 59.472C469.325 60.032 469.423 60.5127 469.619 60.914C469.825 61.3153 470.109 61.6233 470.473 61.838C470.837 62.0433 471.253 62.146 471.719 62.146C472.214 62.146 472.629 62.0293 472.965 61.796C473.311 61.5627 473.577 61.2547 473.763 60.872L474.729 61.362C474.552 61.726 474.314 62.0433 474.015 62.314C473.726 62.5847 473.381 62.7947 472.979 62.944C472.587 63.0933 472.149 63.168 471.663 63.168ZM469.395 58.996L469.101 58.772H473.931L473.637 59.01C473.637 58.562 473.549 58.1747 473.371 57.848C473.194 57.5213 472.956 57.2693 472.657 57.092C472.359 56.9147 472.013 56.826 471.621 56.826C471.239 56.826 470.875 56.9147 470.529 57.092C470.193 57.2693 469.918 57.5213 469.703 57.848C469.498 58.1653 469.395 58.548 469.395 58.996ZM478.872 63.168C478.19 63.168 477.663 62.9907 477.29 62.636C476.916 62.2813 476.73 61.782 476.73 61.138V53.816H477.85V61.026C477.85 61.3807 477.943 61.656 478.13 61.852C478.326 62.0387 478.596 62.132 478.942 62.132C479.054 62.132 479.161 62.118 479.264 62.09C479.376 62.0527 479.52 61.9687 479.698 61.838L480.132 62.748C479.889 62.9067 479.67 63.014 479.474 63.07C479.278 63.1353 479.077 63.168 478.872 63.168ZM475.512 56.994V56H479.95V56.994H475.512ZM485.802 63L485.746 61.852V59.304C485.746 58.7533 485.685 58.3007 485.564 57.946C485.442 57.582 485.251 57.3067 484.99 57.12C484.728 56.9333 484.388 56.84 483.968 56.84C483.585 56.84 483.254 56.9193 482.974 57.078C482.703 57.2273 482.479 57.47 482.302 57.806L481.294 57.414C481.471 57.0873 481.686 56.8073 481.938 56.574C482.19 56.3313 482.484 56.1493 482.82 56.028C483.156 55.8973 483.538 55.832 483.968 55.832C484.621 55.832 485.158 55.9627 485.578 56.224C486.007 56.476 486.329 56.854 486.544 57.358C486.758 57.8527 486.861 58.4687 486.852 59.206L486.838 63H485.802ZM483.702 63.168C482.88 63.168 482.236 62.9813 481.77 62.608C481.312 62.2253 481.084 61.698 481.084 61.026C481.084 60.3167 481.317 59.7753 481.784 59.402C482.26 59.0193 482.922 58.828 483.772 58.828H485.774V59.766H484.024C483.37 59.766 482.904 59.8733 482.624 60.088C482.353 60.3027 482.218 60.6107 482.218 61.012C482.218 61.376 482.353 61.6653 482.624 61.88C482.894 62.0853 483.272 62.188 483.758 62.188C484.159 62.188 484.509 62.104 484.808 61.936C485.106 61.7587 485.335 61.5113 485.494 61.194C485.662 60.8673 485.746 60.4847 485.746 60.046H486.222C486.222 60.998 486.007 61.7587 485.578 62.328C485.148 62.888 484.523 63.168 483.702 63.168ZM488.696 63V56H489.816V63H488.696ZM489.27 54.376C489.084 54.376 488.92 54.306 488.78 54.166C488.64 54.026 488.57 53.8627 488.57 53.676C488.57 53.48 488.64 53.3167 488.78 53.186C488.92 53.046 489.084 52.976 489.27 52.976C489.466 52.976 489.63 53.046 489.76 53.186C489.9 53.3167 489.97 53.48 489.97 53.676C489.97 53.8627 489.9 54.026 489.76 54.166C489.63 54.306 489.466 54.376 489.27 54.376ZM491.88 63V53.2H493V63H491.88ZM495.433 63.196C495.218 63.196 495.031 63.1213 494.873 62.972C494.723 62.8133 494.649 62.6313 494.649 62.426C494.649 62.2113 494.723 62.0293 494.873 61.88C495.031 61.7213 495.218 61.642 495.433 61.642C495.647 61.642 495.829 61.7213 495.979 61.88C496.128 62.0293 496.203 62.2113 496.203 62.426C496.203 62.6313 496.128 62.8133 495.979 62.972C495.829 63.1213 495.647 63.196 495.433 63.196Z" fill="#0A0B0D"/>
</g>
<defs>
<filter id="filter0_d_60_1204" x="0" y="0" width="717" height="93" filterUnits="userSpaceOnUse" color-interpolation-filters="sRGB">
<feFlood flood-opacity="0" result="BackgroundImageFix"/>
<feColorMatrix in="SourceAlpha" type="matrix" values="0 0 0 0 0 0 0 0 0 0 0 0 0 0 0 0 0 0 127 0" result="hardAlpha"/>
<feOffset dx="5" dy="5"/>
<feComposite in2="hardAlpha" operator="out"/>
<feColorMatrix type="matrix" values="0 0 0 0 0.0392157 0 0 0 0 0.0392157 0 0 0 0 0.0392157 0 0 0 1 0"/>
<feBlend mode="normal" in2="BackgroundImageFix" result="effect1_dropShadow_60_1204"/>
<feBlend mode="normal" in="SourceGraphic" in2="effect1_dropShadow_60_1204" result="shape"/>
</filter>
</defs>
</svg>
