<svg width="240" height="44" viewBox="0 0 240 44" fill="none" xmlns="http://www.w3.org/2000/svg">
<path fill-rule="evenodd" clip-rule="evenodd" d="M12 28.9991V15.0009L24 8L31.944 12.6344V26.635L24 31.2694L20.1096 28.9991V25.4352L23.751 27.5595L24 27.7055L28.89 24.8525V14.7089L28.8888 14.417L28.6398 14.271L24 11.5651L23.751 11.7111L15.054 16.7823V30.7817L12 28.9991Z" fill="#11003A"/>
<path fill-rule="evenodd" clip-rule="evenodd" d="M16.0548 17.3662V31.3644L24.0012 36L36 29.0003V15.0009L32.9448 13.2183V27.2177L24 32.4361L23.751 32.2901L19.359 29.7302L19.11 29.5842V19.1487L24.0012 16.2957L27.8892 18.5636V14.9997L24 12.7306L16.0548 17.3662Z" fill="#11003A"/>
<path fill-rule="evenodd" clip-rule="evenodd" d="M16.0548 31.3644V17.3662L24 12.7306L27.8892 14.9997V18.5636L24.0012 16.2957L19.11 19.1487V29.5842L19.359 29.7302L23.751 32.2901L24 32.4361L32.9448 27.2177V13.2183L36 15.0009V29.0003L24.0012 36L16.0548 31.3644Z" fill="#11003A"/>
<path d="M45.66 29V15H50.6C51.56 15 52.4067 15.1867 53.14 15.56C53.8733 15.9333 54.4467 16.4533 54.86 17.12C55.2733 17.7733 55.48 18.5333 55.48 19.4C55.48 20.2667 55.26 21.0333 54.82 21.7C54.3933 22.3667 53.8 22.8933 53.04 23.28C52.28 23.6533 51.42 23.84 50.46 23.84H47.98V29H45.66ZM53.42 29L50.14 23.32L51.94 22.08L56.04 29H53.42ZM47.98 21.7H50.7C51.1533 21.7 51.5533 21.6 51.9 21.4C52.26 21.2 52.5467 20.9267 52.76 20.58C52.9867 20.2333 53.1 19.84 53.1 19.4C53.1 18.7333 52.86 18.1867 52.38 17.76C51.9 17.3333 51.28 17.12 50.52 17.12H47.98V21.7ZM62.4344 29.24C61.461 29.24 60.5944 29.02 59.8344 28.58C59.0877 28.1267 58.4944 27.5067 58.0544 26.72C57.6277 25.9333 57.4144 25.0267 57.4144 24C57.4144 22.9733 57.6344 22.0667 58.0744 21.28C58.5144 20.4933 59.1144 19.88 59.8744 19.44C60.6477 18.9867 61.5277 18.76 62.5144 18.76C63.4077 18.76 64.2144 18.9933 64.9344 19.46C65.6544 19.9133 66.221 20.5733 66.6344 21.44C67.061 22.3067 67.2744 23.34 67.2744 24.54H59.4144L59.7144 24.26C59.7144 24.8733 59.8477 25.4067 60.1144 25.86C60.381 26.3 60.7344 26.64 61.1744 26.88C61.6144 27.12 62.101 27.24 62.6344 27.24C63.2477 27.24 63.7544 27.1067 64.1544 26.84C64.5544 26.56 64.8677 26.2 65.0944 25.76L67.0744 26.6C66.7944 27.1333 66.4344 27.6 65.9944 28C65.5677 28.4 65.0544 28.7067 64.4544 28.92C63.8677 29.1333 63.1944 29.24 62.4344 29.24ZM59.8544 23.1L59.5344 22.82H65.1744L64.8744 23.1C64.8744 22.5533 64.7544 22.1067 64.5144 21.76C64.2744 21.4 63.9677 21.1333 63.5944 20.96C63.2344 20.7733 62.8544 20.68 62.4544 20.68C62.0544 20.68 61.6544 20.7733 61.2544 20.96C60.8544 21.1333 60.521 21.4 60.2544 21.76C59.9877 22.1067 59.8544 22.5533 59.8544 23.1ZM72.63 29.24C71.9633 29.24 71.35 29.14 70.79 28.94C70.23 28.74 69.75 28.46 69.35 28.1C68.95 27.7267 68.6433 27.2933 68.43 26.8L70.37 25.94C70.57 26.3133 70.8633 26.6267 71.25 26.88C71.65 27.1333 72.09 27.26 72.57 27.26C73.09 27.26 73.5033 27.1733 73.81 27C74.13 26.8133 74.29 26.56 74.29 26.24C74.29 25.9333 74.17 25.7 73.93 25.54C73.69 25.3667 73.35 25.2267 72.91 25.12L71.97 24.86C71.0233 24.62 70.2833 24.24 69.75 23.72C69.2167 23.1867 68.95 22.58 68.95 21.9C68.95 20.9 69.27 20.1267 69.91 19.58C70.5633 19.0333 71.4967 18.76 72.71 18.76C73.3233 18.76 73.8833 18.8533 74.39 19.04C74.91 19.2133 75.3567 19.4667 75.73 19.8C76.1033 20.12 76.3633 20.5 76.51 20.94L74.65 21.78C74.5167 21.4467 74.2633 21.1933 73.89 21.02C73.5167 20.8333 73.1033 20.74 72.65 20.74C72.1967 20.74 71.8433 20.84 71.59 21.04C71.3367 21.2267 71.21 21.4933 71.21 21.84C71.21 22.04 71.3233 22.2267 71.55 22.4C71.7767 22.56 72.1033 22.6933 72.53 22.8L73.71 23.08C74.3633 23.24 74.8967 23.4933 75.31 23.84C75.7233 24.1733 76.03 24.5533 76.23 24.98C76.43 25.3933 76.53 25.8133 76.53 26.24C76.53 26.84 76.3567 27.3667 76.01 27.82C75.6767 28.2733 75.2167 28.6267 74.63 28.88C74.0433 29.12 73.3767 29.24 72.63 29.24ZM78.4064 33V19H80.5064L80.6464 20.84V33H78.4064ZM83.8064 29.24C82.9664 29.24 82.2397 29.0267 81.6264 28.6C81.0264 28.16 80.5664 27.5467 80.2464 26.76C79.9264 25.9733 79.7664 25.0533 79.7664 24C79.7664 22.9333 79.9264 22.0133 80.2464 21.24C80.5664 20.4533 81.0264 19.8467 81.6264 19.42C82.2397 18.98 82.9664 18.76 83.8064 18.76C84.7131 18.76 85.4997 18.98 86.1664 19.42C86.8464 19.8467 87.3731 20.4533 87.7464 21.24C88.1331 22.0133 88.3264 22.9333 88.3264 24C88.3264 25.0533 88.1331 25.9733 87.7464 26.76C87.3731 27.5467 86.8464 28.16 86.1664 28.6C85.4997 29.0267 84.7131 29.24 83.8064 29.24ZM83.2464 27.2C83.7797 27.2 84.2531 27.0667 84.6664 26.8C85.0797 26.52 85.4064 26.14 85.6464 25.66C85.8997 25.18 86.0264 24.6267 86.0264 24C86.0264 23.3733 85.9064 22.82 85.6664 22.34C85.4397 21.86 85.1197 21.4867 84.7064 21.22C84.2931 20.9533 83.8131 20.82 83.2664 20.82C82.7597 20.82 82.3064 20.9533 81.9064 21.22C81.5064 21.4867 81.1931 21.86 80.9664 22.34C80.7531 22.82 80.6464 23.3733 80.6464 24C80.6464 24.6267 80.7531 25.18 80.9664 25.66C81.1931 26.14 81.4997 26.52 81.8864 26.8C82.2864 27.0667 82.7397 27.2 83.2464 27.2ZM94.84 29.24C93.84 29.24 92.9467 29.02 92.16 28.58C91.3867 28.1267 90.78 27.5067 90.34 26.72C89.9 25.9333 89.68 25.0267 89.68 24C89.68 22.9733 89.8933 22.0667 90.32 21.28C90.76 20.4933 91.3667 19.88 92.14 19.44C92.9133 18.9867 93.8 18.76 94.8 18.76C95.8 18.76 96.6867 18.9867 97.46 19.44C98.2333 19.88 98.8333 20.4933 99.26 21.28C99.7 22.0667 99.92 22.9733 99.92 24C99.92 25.0267 99.7067 25.9333 99.28 26.72C98.8533 27.5067 98.2533 28.1267 97.48 28.58C96.7067 29.02 95.8267 29.24 94.84 29.24ZM94.84 27.18C95.3867 27.18 95.8733 27.0467 96.3 26.78C96.7267 26.5 97.06 26.1267 97.3 25.66C97.54 25.18 97.66 24.6267 97.66 24C97.66 23.3733 97.5333 22.8267 97.28 22.36C97.04 21.88 96.7067 21.5067 96.28 21.24C95.8533 20.96 95.36 20.82 94.8 20.82C94.24 20.82 93.7467 20.9533 93.32 21.22C92.8933 21.4867 92.56 21.86 92.32 22.34C92.08 22.82 91.96 23.3733 91.96 24C91.96 24.6267 92.08 25.18 92.32 25.66C92.5733 26.1267 92.9133 26.5 93.34 26.78C93.78 27.0467 94.28 27.18 94.84 27.18ZM101.861 29V19H103.961L104.101 20.84V29H101.861ZM108.641 29V23.88H110.881V29H108.641ZM108.641 23.88C108.641 23.08 108.548 22.4667 108.361 22.04C108.188 21.6 107.934 21.2933 107.601 21.12C107.281 20.9467 106.901 20.86 106.461 20.86C105.714 20.8467 105.134 21.0933 104.721 21.6C104.308 22.1067 104.101 22.8333 104.101 23.78H103.261C103.261 22.7267 103.414 21.8267 103.721 21.08C104.028 20.32 104.468 19.7467 105.041 19.36C105.614 18.96 106.294 18.76 107.081 18.76C107.881 18.76 108.561 18.92 109.121 19.24C109.694 19.56 110.128 20.06 110.421 20.74C110.728 21.4067 110.881 22.28 110.881 23.36V23.88H108.641ZM116.79 29.24C116.123 29.24 115.51 29.14 114.95 28.94C114.39 28.74 113.91 28.46 113.51 28.1C113.11 27.7267 112.803 27.2933 112.59 26.8L114.53 25.94C114.73 26.3133 115.023 26.6267 115.41 26.88C115.81 27.1333 116.25 27.26 116.73 27.26C117.25 27.26 117.663 27.1733 117.97 27C118.29 26.8133 118.45 26.56 118.45 26.24C118.45 25.9333 118.33 25.7 118.09 25.54C117.85 25.3667 117.51 25.2267 117.07 25.12L116.13 24.86C115.183 24.62 114.443 24.24 113.91 23.72C113.377 23.1867 113.11 22.58 113.11 21.9C113.11 20.9 113.43 20.1267 114.07 19.58C114.723 19.0333 115.657 18.76 116.87 18.76C117.483 18.76 118.043 18.8533 118.55 19.04C119.07 19.2133 119.517 19.4667 119.89 19.8C120.263 20.12 120.523 20.5 120.67 20.94L118.81 21.78C118.677 21.4467 118.423 21.1933 118.05 21.02C117.677 20.8333 117.263 20.74 116.81 20.74C116.357 20.74 116.003 20.84 115.75 21.04C115.497 21.2267 115.37 21.4933 115.37 21.84C115.37 22.04 115.483 22.2267 115.71 22.4C115.937 22.56 116.263 22.6933 116.69 22.8L117.87 23.08C118.523 23.24 119.057 23.4933 119.47 23.84C119.883 24.1733 120.19 24.5533 120.39 24.98C120.59 25.3933 120.69 25.8133 120.69 26.24C120.69 26.84 120.517 27.3667 120.17 27.82C119.837 28.2733 119.377 28.6267 118.79 28.88C118.203 29.12 117.537 29.24 116.79 29.24ZM126.927 29.24C125.953 29.24 125.087 29.02 124.327 28.58C123.58 28.1267 122.987 27.5067 122.547 26.72C122.12 25.9333 121.907 25.0267 121.907 24C121.907 22.9733 122.127 22.0667 122.567 21.28C123.007 20.4933 123.607 19.88 124.367 19.44C125.14 18.9867 126.02 18.76 127.007 18.76C127.9 18.76 128.707 18.9933 129.427 19.46C130.147 19.9133 130.713 20.5733 131.127 21.44C131.553 22.3067 131.767 23.34 131.767 24.54H123.907L124.207 24.26C124.207 24.8733 124.34 25.4067 124.607 25.86C124.873 26.3 125.227 26.64 125.667 26.88C126.107 27.12 126.593 27.24 127.127 27.24C127.74 27.24 128.247 27.1067 128.647 26.84C129.047 26.56 129.36 26.2 129.587 25.76L131.567 26.6C131.287 27.1333 130.927 27.6 130.487 28C130.06 28.4 129.547 28.7067 128.947 28.92C128.36 29.1333 127.687 29.24 126.927 29.24ZM124.347 23.1L124.027 22.82H129.667L129.367 23.1C129.367 22.5533 129.247 22.1067 129.007 21.76C128.767 21.4 128.46 21.1333 128.087 20.96C127.727 20.7733 127.347 20.68 126.947 20.68C126.547 20.68 126.147 20.7733 125.747 20.96C125.347 21.1333 125.013 21.4 124.747 21.76C124.48 22.1067 124.347 22.5533 124.347 23.1ZM138.726 29V15H143.666C144.626 15 145.473 15.1933 146.206 15.58C146.94 15.9667 147.513 16.5067 147.926 17.2C148.34 17.88 148.546 18.6733 148.546 19.58C148.546 20.46 148.353 21.2467 147.966 21.94C147.58 22.6333 147.04 23.18 146.346 23.58C145.666 23.9667 144.873 24.16 143.966 24.16H141.046V29H138.726ZM141.046 22.02H143.926C144.593 22.02 145.14 21.7933 145.566 21.34C145.993 20.8867 146.206 20.3 146.206 19.58C146.206 18.8467 145.966 18.2533 145.486 17.8C145.006 17.3467 144.386 17.12 143.626 17.12H141.046V22.02ZM150.181 29V15H152.421V29H150.181ZM161.008 29L160.908 27.12V23.86C160.908 23.18 160.835 22.6133 160.688 22.16C160.555 21.6933 160.328 21.34 160.008 21.1C159.701 20.8467 159.288 20.72 158.768 20.72C158.288 20.72 157.868 20.82 157.508 21.02C157.148 21.22 156.841 21.5333 156.588 21.96L154.628 21.24C154.841 20.8 155.121 20.3933 155.468 20.02C155.828 19.6333 156.275 19.3267 156.808 19.1C157.355 18.8733 158.008 18.76 158.768 18.76C159.741 18.76 160.555 18.9533 161.208 19.34C161.861 19.7133 162.341 20.2533 162.648 20.96C162.968 21.6667 163.128 22.52 163.128 23.52L163.068 29H161.008ZM158.128 29.24C156.928 29.24 155.995 28.9733 155.328 28.44C154.675 27.9067 154.348 27.1533 154.348 26.18C154.348 25.14 154.695 24.3467 155.388 23.8C156.095 23.2533 157.075 22.98 158.328 22.98H161.008V24.7H159.048C158.155 24.7 157.528 24.8267 157.168 25.08C156.808 25.32 156.628 25.6667 156.628 26.12C156.628 26.5067 156.781 26.8133 157.088 27.04C157.408 27.2533 157.848 27.36 158.408 27.36C158.915 27.36 159.355 27.2467 159.728 27.02C160.101 26.7933 160.388 26.4933 160.588 26.12C160.801 25.7467 160.908 25.3267 160.908 24.86H161.568C161.568 26.22 161.295 27.2933 160.748 28.08C160.201 28.8533 159.328 29.24 158.128 29.24ZM166.742 33.24C166.422 33.24 166.062 33.18 165.662 33.06C165.275 32.94 164.902 32.7867 164.542 32.6L165.382 30.78C165.635 30.9 165.869 30.9933 166.082 31.06C166.295 31.14 166.469 31.18 166.602 31.18C166.922 31.18 167.189 31.0933 167.402 30.92C167.629 30.76 167.809 30.52 167.942 30.2L169.122 27.44L172.502 19H174.942L170.302 30.06C170.022 30.7 169.735 31.26 169.442 31.74C169.162 32.22 168.809 32.5867 168.382 32.84C167.955 33.1067 167.409 33.24 166.742 33.24ZM168.522 29L164.042 19H166.482L169.962 27.42L170.682 29H168.522ZM176.275 29V15H178.515V27.14L178.395 29H176.275ZM181.675 29.24C180.835 29.24 180.108 29.0267 179.495 28.6C178.895 28.16 178.435 27.5467 178.115 26.76C177.795 25.9733 177.635 25.0533 177.635 24C177.635 22.9333 177.795 22.0133 178.115 21.24C178.435 20.4533 178.895 19.8467 179.495 19.42C180.108 18.98 180.835 18.76 181.675 18.76C182.582 18.76 183.368 18.98 184.035 19.42C184.715 19.8467 185.242 20.4533 185.615 21.24C186.002 22.0133 186.195 22.9333 186.195 24C186.195 25.0533 186.002 25.9733 185.615 26.76C185.242 27.5467 184.715 28.16 184.035 28.6C183.368 29.0267 182.582 29.24 181.675 29.24ZM181.115 27.2C181.648 27.2 182.122 27.0667 182.535 26.8C182.948 26.52 183.275 26.14 183.515 25.66C183.768 25.18 183.895 24.6267 183.895 24C183.895 23.3733 183.775 22.82 183.535 22.34C183.308 21.86 182.988 21.4867 182.575 21.22C182.162 20.9533 181.682 20.82 181.135 20.82C180.628 20.82 180.175 20.9533 179.775 21.22C179.375 21.4867 179.062 21.86 178.835 22.34C178.622 22.82 178.515 23.3733 178.515 24C178.515 24.6267 178.622 25.18 178.835 25.66C179.062 26.14 179.368 26.52 179.755 26.8C180.155 27.0667 180.608 27.2 181.115 27.2ZM192.711 29.24C191.711 29.24 190.818 29.02 190.031 28.58C189.258 28.1267 188.651 27.5067 188.211 26.72C187.771 25.9333 187.551 25.0267 187.551 24C187.551 22.9733 187.764 22.0667 188.191 21.28C188.631 20.4933 189.238 19.88 190.011 19.44C190.784 18.9867 191.671 18.76 192.671 18.76C193.671 18.76 194.558 18.9867 195.331 19.44C196.104 19.88 196.704 20.4933 197.131 21.28C197.571 22.0667 197.791 22.9733 197.791 24C197.791 25.0267 197.578 25.9333 197.151 26.72C196.724 27.5067 196.124 28.1267 195.351 28.58C194.578 29.02 193.698 29.24 192.711 29.24ZM192.711 27.18C193.258 27.18 193.744 27.0467 194.171 26.78C194.598 26.5 194.931 26.1267 195.171 25.66C195.411 25.18 195.531 24.6267 195.531 24C195.531 23.3733 195.404 22.8267 195.151 22.36C194.911 21.88 194.578 21.5067 194.151 21.24C193.724 20.96 193.231 20.82 192.671 20.82C192.111 20.82 191.618 20.9533 191.191 21.22C190.764 21.4867 190.431 21.86 190.191 22.34C189.951 22.82 189.831 23.3733 189.831 24C189.831 24.6267 189.951 25.18 190.191 25.66C190.444 26.1267 190.784 26.5 191.211 26.78C191.651 27.0467 192.151 27.18 192.711 27.18ZM204.332 29.24C203.332 29.24 202.439 29.02 201.652 28.58C200.879 28.1267 200.272 27.5067 199.832 26.72C199.392 25.9333 199.172 25.0267 199.172 24C199.172 22.9733 199.386 22.0667 199.812 21.28C200.252 20.4933 200.859 19.88 201.632 19.44C202.406 18.9867 203.292 18.76 204.292 18.76C205.292 18.76 206.179 18.9867 206.952 19.44C207.726 19.88 208.326 20.4933 208.752 21.28C209.192 22.0667 209.412 22.9733 209.412 24C209.412 25.0267 209.199 25.9333 208.772 26.72C208.346 27.5067 207.746 28.1267 206.972 28.58C206.199 29.02 205.319 29.24 204.332 29.24ZM204.332 27.18C204.879 27.18 205.366 27.0467 205.792 26.78C206.219 26.5 206.552 26.1267 206.792 25.66C207.032 25.18 207.152 24.6267 207.152 24C207.152 23.3733 207.026 22.8267 206.772 22.36C206.532 21.88 206.199 21.5067 205.772 21.24C205.346 20.96 204.852 20.82 204.292 20.82C203.732 20.82 203.239 20.9533 202.812 21.22C202.386 21.4867 202.052 21.86 201.812 22.34C201.572 22.82 201.452 23.3733 201.452 24C201.452 24.6267 201.572 25.18 201.812 25.66C202.066 26.1267 202.406 26.5 202.832 26.78C203.272 27.0467 203.772 27.18 204.332 27.18ZM213.493 26.2L212.133 24.66L217.333 19H220.033L213.493 26.2ZM211.353 29V15H213.593V29H211.353ZM217.713 29L214.193 23.82L215.653 22.26L220.373 29H217.713Z" fill="#0A0B0D"/>
</svg>
